<svg xmlns="http://www.w3.org/2000/svg" viewBox="506.6 281.4 136.9 194.1"><path fill="#F9F9F9" d="M638.798035,386.264282 C636.730164,384.761261 634.662292,383.258240 633.017029,382.062408 C634.981812,389.817200 636.944153,397.562561 638.626343,405.849854 C635.927002,403.845184 633.507935,401.298615 631.115112,398.834778 C631.141418,398.917480 630.963867,398.803680 630.963867,398.803680 C630.963867,398.803680 631.204102,398.816498 631.031128,399.199310 C631.539978,402.397888 632.221802,405.213654 632.863037,408.489929 C632.566040,414.756500 632.309631,420.562531 632.053162,426.368561 C631.699829,426.302368 631.346436,426.236206 630.993042,426.170044 C629.415039,422.755829 627.836975,419.341614 626.258972,415.927399 C625.486389,433.799561 619.170654,448.605743 606.829529,460.896332 C599.946655,468.570435 590.159912,469.473602 581.072632,470.601685 C574.407898,471.429016 567.384705,469.066101 560.492981,468.434570 C548.839111,467.366669 542.560852,458.901611 536.094604,450.846924 C529.195251,442.252686 526.351501,432.068817 525.633545,421.206085 C525.539307,419.780945 525.293457,418.365784 524.109802,416.621979 C522.544189,419.973480 520.978577,423.324982 519.341797,426.828796 C515.806274,418.076508 516.706238,409.179749 519.298401,400.233215 C518.943787,400.000275 518.589111,399.767334 518.234497,399.534424 C516.039612,401.983032 513.844727,404.431671 511.328430,406.942261 C511.006989,407.004242 511.051514,407.052246 511.051514,407.052246 C510.613464,397.984253 514.152832,390.082123 518.974182,381.612366 C516.270569,382.606445 514.407410,383.291504 512.544250,383.976593 C512.238586,383.767731 511.932922,383.558838 511.627289,383.349976 C514.749573,378.536011 517.871887,373.722015 521.608765,367.960419 C519.757690,368.900757 518.737915,369.418793 517.510498,370.147339 C517.302856,370.357849 517.335938,370.429688 517.335938,370.429688 C519.310974,366.009155 521.286072,361.588623 523.618042,356.715790 C524.117615,355.979980 524.260437,355.696503 524.403259,355.413025 C523.827942,355.493958 523.252686,355.574860 522.677368,355.655762 C520.634949,356.208496 518.592529,356.761261 516.913391,357.215729 C521.847229,349.938293 526.957336,342.400879 532.369873,334.389618 C532.660950,333.657959 532.649719,333.400208 532.638428,333.142426 C532.284912,333.286316 531.931335,333.430176 531.577820,333.574036 C529.859741,334.688416 528.141724,335.802734 526.423645,336.917053 C526.035583,336.627899 525.647583,336.338745 525.259583,336.049561 C529.172058,330.362000 533.084534,324.674408 537.065063,318.887878 C535.664062,319.343109 533.929260,319.906799 531.715149,320.383362 C531.235840,320.296295 530.912964,319.921112 530.912964,319.921112 C532.161499,318.618500 533.315430,317.206299 534.674927,316.032104 C540.799133,310.742798 550.273132,309.022919 552.326050,299.382751 C553.220825,301.373322 554.115601,303.363861 555.000488,305.332367 C558.455933,300.450897 561.686523,295.887146 565.489319,290.515045 C566.085449,293.869507 566.495178,296.175262 567.018188,299.118347 C569.958008,294.318329 572.531738,290.116119 575.443481,285.362061 C578.202759,289.931885 580.764221,294.174103 583.751526,299.121582 C584.189209,296.097626 584.521484,293.802155 585.027466,290.306335 C588.693298,295.707062 591.779480,300.253815 595.026794,305.037933 C595.919739,303.115387 596.810486,301.197693 597.708618,299.264038 C597.991699,299.281006 598.512085,299.210938 598.559387,299.329559 C601.206116,305.964813 605.681091,310.719879 612.248779,313.753571 C614.355347,314.726593 615.850769,317.022522 617.625854,318.713226 C617.317261,319.109467 617.008667,319.505737 616.700073,319.901978 C615.569580,319.581390 614.439087,319.260803 613.092590,318.878937 C616.759827,323.976318 620.286682,328.878540 623.813538,333.780731 C623.453308,334.167755 623.093140,334.554779 622.732971,334.941833 C621.809998,334.611267 620.887024,334.280701 619.467407,333.603882 C618.717346,333.271606 618.463867,333.285583 618.210449,333.299530 C618.342468,333.663269 618.474426,334.027008 618.606384,334.390778 C621.793762,339.611603 624.981079,344.832458 628.511230,350.152893 C630.214844,352.314484 631.575806,354.376495 633.219116,356.570129 C633.501526,356.701752 633.513062,356.623566 633.513062,356.623566 C631.769348,356.251526 630.025635,355.879486 627.641357,355.280212 C626.743103,355.126801 626.485413,355.200684 626.227722,355.274567 C626.449768,355.550262 626.671875,355.825928 626.893921,356.101593 C629.092529,360.318756 631.291138,364.535950 633.867737,369.478027 C632.088501,369.063995 631.034729,368.818787 629.209534,368.394043 C630.284912,370.132385 631.012939,371.309204 631.982544,372.789856 C634.542419,377.291962 636.860840,381.490204 638.971680,385.999207 C638.764221,386.309998 638.798035,386.264282 638.798035,386.264282 M599.391296,434.079163 C602.332214,435.552155 605.273132,437.025177 608.214111,438.498169 C608.485352,438.119476 608.756653,437.740784 609.027954,437.362091 C607.694458,436.154236 606.531738,434.607391 604.982971,433.826630 C603.158997,432.907166 601.000488,432.651367 598.375122,431.732452 C580.736755,423.693695 545.530090,427.877350 543.147949,438.598145 C561.108948,428.752228 579.654541,427.199768 599.391296,434.079163 M537.809998,402.773712 C537.926758,402.900940 538.043457,403.028198 538.021851,403.857849 C534.070374,410.475037 532.443787,417.603973 533.313538,426.811920 C536.339355,415.032593 541.523560,406.509399 551.774170,401.778229 C549.881897,395.048584 551.146240,391.046051 556.309998,387.838226 C561.634338,384.530670 566.643066,385.949402 571.760620,389.347687 C571.760620,387.884918 571.760620,387.008636 571.760620,386.184601 C577.547058,385.299438 583.131714,388.935516 588.892273,386.087769 C590.199646,385.441467 592.886292,385.984070 594.059631,386.997040 C596.595154,389.186066 599.568787,391.730896 600.464417,394.702454 C601.286255,397.429169 599.616150,400.906921 599.253906,402.899200 C601.429565,403.869965 604.461853,404.272217 605.795898,405.991882 C610.260925,411.747803 614.118896,417.974609 618.673340,424.706940 C616.713135,416.835938 614.851501,409.360931 613.044678,402.105896 C613.555603,402.274384 614.654297,402.636780 615.753052,402.999176 C615.374084,400.695526 614.412231,399.085236 613.184204,397.713226 C611.904114,396.283142 610.367371,395.082794 608.930054,393.770264 C611.245483,392.739807 613.284424,391.832397 615.753479,390.733582 C612.724609,389.821381 610.313171,389.095154 607.821106,388.344604 C610.431580,386.280029 612.995178,384.750702 614.880127,382.620758 C616.743225,380.515472 617.920593,377.803345 619.498535,375.192261 C619.771301,376.761230 619.998047,378.065796 620.224854,379.370392 C620.648560,379.373566 621.072266,379.376740 621.495972,379.379913 C622.255310,373.604370 623.014587,367.828827 623.848755,361.483948 C623.197510,361.366211 621.461304,361.051605 619.724731,360.738464 C618.268494,360.475800 616.811951,360.214752 615.216736,360.179138 C615.216736,360.179138 615.104553,359.952576 615.104553,359.952576 C615.104553,359.952576 615.325684,360.154999 614.453003,360.133911 C610.016052,361.992157 605.396545,363.515594 601.195435,365.806396 C597.290771,367.935577 594.019653,371.217621 590.134399,373.393555 C583.960938,376.850983 581.521484,375.927490 578.302979,369.373535 C578.015137,371.850708 577.783752,373.842285 577.550659,375.848755 C576.324036,375.915833 575.370178,375.967987 574.337646,376.024445 C574.193481,373.565155 574.056335,371.225769 573.845764,367.633179 C571.624939,375.590668 568.571411,377.026764 562.402039,373.484222 C558.102844,371.015564 553.963379,368.137329 550.172180,364.943909 C543.239319,359.104065 535.585632,359.766113 527.652771,361.654785 C527.081970,361.790680 526.560486,362.133362 527.039917,361.916229 C527.388000,364.646576 527.541016,366.653351 527.917297,368.617340 C528.556885,371.955811 529.330994,375.268738 530.085876,378.583923 C530.110535,378.692200 530.542175,378.707825 530.877747,378.789368 C531.087036,377.585876 531.287048,376.435852 531.395081,375.814636 C534.901917,379.978912 538.408264,384.142609 542.030518,388.443970 C539.884338,389.137482 537.790771,389.814026 534.998230,390.716400 C537.936035,391.855408 540.229187,392.744476 542.459656,393.609253 C539.116333,396.665924 535.918274,399.589783 531.728210,403.420685 C534.626648,402.885773 536.066284,402.620087 537.809998,402.773712 M592.857178,439.929779 C592.929932,439.780060 593.036743,439.635773 593.061707,439.478455 C593.075073,439.394714 592.961182,439.218445 592.880859,439.202301 C581.834595,436.980835 570.833496,437.329041 559.864197,439.590546 C570.596558,444.363983 581.375549,444.795746 592.857178,439.929779 M573.669250,402.743011 C570.360291,399.927063 567.199768,396.893463 563.630676,394.458832 C562.808960,393.898315 560.061462,394.972137 559.175964,396.076385 C558.487000,396.935486 558.752319,399.542725 559.591064,400.428680 C561.098389,402.020844 563.224365,403.311646 565.329529,403.983643 C568.144165,404.882019 571.185181,405.070831 574.141052,405.566376 C574.143311,405.586273 574.019287,404.492432 573.669250,402.743011 M579.083496,403.745178 C579.083496,404.727661 579.083496,405.710114 579.083496,406.638519 C581.243103,405.454926 583.996948,402.825562 585.354126,403.414490 C589.231201,405.096893 590.822205,402.408478 592.586731,400.555908 C593.542236,399.552704 593.944092,396.855377 593.254700,395.790131 C592.603821,394.784393 589.573181,394.050934 588.673035,394.700195 C585.292786,397.138428 582.355591,400.190918 579.083496,403.745178 z"/><path fill="#F9F9F9" d="M633.541016,356.702515 C633.580566,356.703247 633.381836,356.722198 633.381836,356.722198 C633.381836,356.722198 633.572571,356.747284 633.542847,356.685425 C633.513062,356.623566 633.501526,356.701752 633.541016,356.702515 z"/><path fill="#F9F9F9" d="M531.370728,320.503723 C531.121094,320.781342 530.736511,320.851501 530.351929,320.921692 C530.365845,320.658722 530.379761,320.395782 530.653320,320.026978 C530.912964,319.921112 531.235840,320.296295 531.370728,320.503723 z"/><path fill="#F9F9F9" d="M517.291748,370.392578 C517.154968,370.308319 517.029297,370.189301 516.903564,370.070282 C516.967102,370.124329 517.030701,370.178375 517.215088,370.331055 C517.335938,370.429688 517.302856,370.357849 517.291748,370.392578 z"/><path fill="#F9F9F9" d="M638.749329,386.334229 C638.964600,386.255371 639.194824,386.152252 639.425049,386.049133 C639.467896,386.168182 639.510742,386.287262 639.553589,386.406372 C639.432678,386.376221 639.311829,386.346039 638.994507,386.290070 C638.798035,386.264282 638.764221,386.309998 638.749329,386.334229 z"/><path fill="#F9F9F9" d="M510.984619,406.980347 C510.868042,407.164886 510.773804,407.373383 510.679596,407.581848 C510.676514,407.380554 510.673431,407.179260 510.860901,407.015106 C511.051514,407.052246 511.006989,407.004242 510.984619,406.980347 z"/><path fill="#0D1210" d="M615.355530,359.953033 C616.811951,360.214752 618.268494,360.475800 619.724731,360.738464 C621.461304,361.051605 623.197510,361.366211 623.848755,361.483948 C623.014587,367.828827 622.255310,373.604370 621.495972,379.379913 C621.072266,379.376740 620.648560,379.373566 620.224854,379.370392 C619.998047,378.065796 619.771301,376.761230 619.498535,375.192261 C617.920593,377.803345 616.743225,380.515472 614.880127,382.620758 C612.995178,384.750702 610.431580,386.280029 607.821106,388.344604 C610.313171,389.095154 612.724609,389.821381 615.753479,390.733582 C613.284424,391.832397 611.245483,392.739807 608.930054,393.770264 C610.367371,395.082794 611.904114,396.283142 613.184204,397.713226 C614.412231,399.085236 615.374084,400.695526 615.753052,402.999176 C614.654297,402.636780 613.555603,402.274384 613.044678,402.105896 C614.851501,409.360931 616.713135,416.835938 618.673340,424.706940 C614.118896,417.974609 610.260925,411.747803 605.795898,405.991882 C604.461853,404.272217 601.429565,403.869965 599.253906,402.899200 C599.616150,400.906921 601.286255,397.429169 600.464417,394.702454 C599.568787,391.730896 596.595154,389.186066 594.059631,386.997040 C592.886292,385.984070 590.199646,385.441467 588.892273,386.087769 C583.131714,388.935516 577.547058,385.299438 571.760620,386.184601 C571.760620,387.008636 571.760620,387.884918 571.760620,389.347687 C566.643066,385.949402 561.634338,384.530670 556.309998,387.838226 C551.146240,391.046051 549.881897,395.048584 551.774170,401.778229 C541.523560,406.509399 536.339355,415.032593 533.313538,426.811920 C532.443787,417.603973 534.070374,410.475037 538.361084,403.404663 C538.711609,402.694794 538.722839,402.438049 538.734131,402.181335 C538.324707,402.239014 537.915283,402.296722 537.505859,402.354401 C536.066284,402.620087 534.626648,402.885773 531.728210,403.420685 C535.918274,399.589783 539.116333,396.665924 542.459656,393.609253 C540.229187,392.744476 537.936035,391.855408 534.998230,390.716400 C537.790771,389.814026 539.884338,389.137482 542.030518,388.443970 C538.408264,384.142609 534.901917,379.978912 531.395081,375.814636 C531.287048,376.435852 531.087036,377.585876 530.877747,378.789368 C530.542175,378.707825 530.110535,378.692200 530.085876,378.583923 C529.330994,375.268738 528.556885,371.955811 527.917297,368.617340 C527.541016,366.653351 527.388000,364.646576 527.039917,361.916229 C526.560486,362.133362 527.081970,361.790680 527.652771,361.654785 C535.585632,359.766113 543.239319,359.104065 550.172180,364.943909 C553.963379,368.137329 558.102844,371.015564 562.402039,373.484222 C568.571411,377.026764 571.624939,375.590668 573.845764,367.633179 C574.056335,371.225769 574.193481,373.565155 574.337646,376.024445 C575.370178,375.967987 576.324036,375.915833 577.550659,375.848755 C577.783752,373.842285 578.015137,371.850708 578.302979,369.373535 C581.521484,375.927490 583.960938,376.850983 590.134399,373.393555 C594.019653,371.217621 597.290771,367.935577 601.195435,365.806396 C605.396545,363.515594 610.016052,361.992157 614.864990,360.089264 C615.276917,360.044617 615.355530,359.953033 615.355530,359.953033 M600.367493,379.719116 C597.277100,379.971405 594.186646,380.223694 590.476440,380.526581 C598.137634,385.631714 604.763367,383.750397 607.770203,375.894257 C604.511963,375.164185 601.202087,373.536682 600.367493,379.719116 M559.758240,380.139069 C558.707458,379.897156 557.291077,379.093781 556.663757,379.502228 C551.713928,382.725067 550.351562,379.661041 549.630493,375.653564 C547.583618,375.653564 545.759399,375.653564 543.802979,375.653564 C546.448059,383.705078 553.484680,385.696747 559.758240,380.139069 z"/><path fill="#232424" d="M598.862061,433.729828 C579.654541,427.199768 561.108948,428.752228 543.147949,438.598145 C545.530090,427.877350 580.736755,423.693695 598.649048,432.325562 C598.902588,433.189087 598.882324,433.459473 598.862061,433.729828 z"/><path fill="#161918" d="M592.538696,440.079041 C581.375549,444.795746 570.596558,444.363983 559.864197,439.590546 C570.833496,437.329041 581.834595,436.980835 592.880859,439.202301 C592.961182,439.218445 593.075073,439.394714 593.061707,439.478455 C593.036743,439.635773 592.929932,439.780060 592.538696,440.079041 z"/><path fill="#161918" d="M573.782227,403.070801 C574.019287,404.492432 574.143311,405.586273 574.141052,405.566376 C571.185181,405.070831 568.144165,404.882019 565.329529,403.983643 C563.224365,403.311646 561.098389,402.020844 559.591064,400.428680 C558.752319,399.542725 558.487000,396.935486 559.175964,396.076385 C560.061462,394.972137 562.808960,393.898315 563.630676,394.458832 C567.199768,396.893463 570.360291,399.927063 573.782227,403.070801 z"/><path fill="#161918" d="M579.167908,403.379211 C582.355591,400.190918 585.292786,397.138428 588.673035,394.700195 C589.573181,394.050934 592.603821,394.784393 593.254700,395.790131 C593.944092,396.855377 593.542236,399.552704 592.586731,400.555908 C590.822205,402.408478 589.231201,405.096893 585.354126,403.414490 C583.996948,402.825562 581.243103,405.454926 579.083496,406.638519 C579.083496,405.710114 579.083496,404.727661 579.167908,403.379211 z"/><path fill="#323232" d="M599.126709,433.904480 C598.882324,433.459473 598.902588,433.189087 598.954956,432.513245 C601.000488,432.651367 603.158997,432.907166 604.982971,433.826630 C606.531738,434.607391 607.694458,436.154236 609.027954,437.362091 C608.756653,437.740784 608.485352,438.119476 608.214111,438.498169 C605.273132,437.025177 602.332214,435.552155 599.126709,433.904480 z"/><path fill="#011308" d="M627.056885,355.915222 C626.671875,355.825928 626.449768,355.550262 626.227722,355.274567 C626.485413,355.200684 626.743103,355.126801 627.245239,355.183289 C627.489746,355.313629 627.219910,355.728851 627.056885,355.915222 z"/><path fill="#E1E1DF" d="M600.615967,379.404755 C601.202087,373.536682 604.511963,375.164185 607.770203,375.894257 C604.763367,383.750397 598.137634,385.631714 590.476440,380.526581 C594.186646,380.223694 597.277100,379.971405 600.615967,379.404755 z"/><path fill="#E1E1DF" d="M560.016846,380.447388 C553.484680,385.696747 546.448059,383.705078 543.802979,375.653564 C545.759399,375.653564 547.583618,375.653564 549.630493,375.653564 C550.351562,379.661041 551.713928,382.725067 556.663757,379.502228 C557.291077,379.093781 558.707458,379.897156 560.016846,380.447388 z"/><path fill="#F9F9F9" d="M537.657959,402.564056 C537.915283,402.296722 538.324707,402.239014 538.734131,402.181335 C538.722839,402.438049 538.711609,402.694794 538.430298,403.053467 C538.043457,403.028198 537.926758,402.900940 537.657959,402.564056 z"/></svg>