<svg xmlns="http://www.w3.org/2000/svg" viewBox="83.4 522.2 226.2 255.6"><path fill="#468C29" d="M251.992554,629.774841 C269.763123,629.774841 287.533691,629.774841 305.595001,629.774841 C305.595001,669.761780 305.595001,708.977234 305.595001,748.548035 C293.731873,748.548035 282.166748,748.548035 269.971283,748.548035 C269.971283,743.837585 269.971283,739.280579 269.971283,734.317261 C261.913452,738.624573 254.817780,743.323425 247.079483,746.412354 C178.455872,773.805054 107.625237,733.697327 94.122536,664.164612 C87.421440,629.657043 93.902840,597.480225 115.865768,569.436096 C133.413879,547.029114 157.045578,534.365112 184.977142,530.255981 C212.228165,526.247070 238.064880,530.873535 261.551849,545.882141 C275.338928,554.692261 286.568146,566.066162 295.225555,580.585205 C282.195923,589.237244 269.485779,597.738831 256.699280,606.123962 C253.543411,608.193542 250.139420,609.884766 246.425140,611.357056 C239.558044,605.899902 233.115326,600.835632 226.613510,595.422119 C223.867264,584.294800 218.742249,575.110291 209.221664,568.513916 C208.842270,568.351624 208.573349,568.402283 208.304428,568.452942 C208.524445,568.645630 208.744476,568.838318 208.943756,569.440491 C208.996506,570.900696 209.070007,571.951355 209.219589,574.089783 C200.557022,565.497192 191.281494,559.916748 180.110687,557.887512 C180.065643,557.950867 180.025482,557.854126 180.025482,557.854126 C180.025482,557.854126 180.250153,557.856567 180.112305,558.184814 C182.295822,561.377502 184.617172,564.242004 186.953293,567.076660 C186.968063,567.046814 187.003937,566.990723 186.617462,566.993103 C172.368896,562.062439 158.968903,563.829773 145.502838,569.419556 C151.194244,570.902893 156.468430,572.277527 161.742615,573.652100 C161.636124,573.968018 161.529617,574.283936 161.423126,574.599915 C158.286484,575.450012 155.149841,576.300171 151.604340,577.261169 C155.659790,578.244263 159.101318,579.078613 162.542862,579.912903 C149.849930,583.027161 139.407578,588.918335 130.712875,598.666077 C136.582184,597.180664 142.039185,595.799683 147.496170,594.418640 C147.731888,594.883545 147.967606,595.348450 148.203323,595.813293 C146.012482,597.573059 143.821655,599.332764 140.970535,601.622803 C146.663971,601.347900 151.011429,601.137939 156.634552,600.866394 C149.506973,605.362610 143.615311,609.079224 136.718964,613.429565 C140.596466,613.429565 142.986771,613.429565 146.626938,613.429565 C141.828873,615.680908 138.019516,617.237488 134.429657,619.196289 C123.999001,624.887756 114.260666,631.442749 107.701790,641.999634 C107.226738,642.270447 107.029205,642.518127 106.751961,642.989380 C106.597687,643.442627 106.566048,643.706604 106.534409,643.970520 C106.679657,643.912170 106.951759,643.849060 106.949783,643.796204 C106.935944,643.425964 106.865517,643.057800 107.039589,642.992981 C107.688644,643.066711 108.111305,642.836426 108.832062,642.435181 C122.966934,633.122375 134.966888,628.353333 140.107224,629.609741 C137.548065,632.312317 134.801315,635.213074 131.914108,637.891113 C131.499680,637.976807 131.225693,638.285095 130.951706,638.593323 C131.297318,638.390198 131.642929,638.187073 132.382172,637.993652 C135.088745,637.565674 137.401703,637.128113 139.817749,636.802124 C139.920853,636.913757 140.126572,637.137390 140.011444,637.455811 C129.298569,645.436707 121.888863,655.427063 117.630646,668.056824 C117.293686,668.722717 117.217545,669.240845 117.026672,670.539856 C117.867462,669.401428 118.212105,668.934814 118.791527,668.242065 C125.521049,660.585083 133.211639,654.841919 142.688812,651.597168 C142.990265,651.961853 143.116837,652.102722 143.106293,652.547180 C140.983566,655.237061 138.997955,657.623291 136.770752,660.093262 C136.595444,660.357544 136.661758,660.538025 136.728058,660.718506 C136.840820,660.669373 137.053391,660.610901 137.049820,660.572571 C137.029999,660.359192 136.957809,660.150574 137.230713,660.188110 C140.611511,659.161987 143.665131,657.888123 146.718735,656.614258 C139.505234,666.746948 136.969604,671.614136 134.856659,680.856567 C134.923050,680.898132 134.850998,680.929382 134.850998,680.929382 C134.850998,680.929382 134.819656,680.718933 135.132553,680.903625 C139.652023,676.915833 143.858612,672.743408 148.065186,668.570923 C145.246674,682.449951 145.216705,687.582520 149.043167,695.158081 C149.491119,693.962219 149.769119,693.073547 150.154327,692.233948 C150.522522,691.431519 151.002213,690.680176 151.416672,689.935486 C160.732376,710.350647 179.476822,712.898438 198.740570,715.859497 C196.391006,717.087524 194.406448,718.124756 192.421890,719.162048 C192.506561,719.404053 192.591248,719.646057 192.675919,719.888062 C197.650970,719.888062 202.626007,719.888062 207.601059,719.888062 C207.723328,720.179382 207.845612,720.470764 207.967880,720.762085 C205.050049,722.716675 202.132217,724.671204 199.118271,726.690125 C210.692520,725.778625 221.502121,723.043823 231.171326,716.386536 C246.011017,714.636719 258.029846,707.723755 268.198547,697.322754 C268.860413,696.645691 269.608887,695.652283 269.617584,694.798828 C269.717163,685.031250 269.680939,675.262329 269.680939,664.919983 C266.334778,664.919983 263.542725,664.932617 260.750793,664.917542 C253.484879,664.878479 250.641953,661.471924 251.868744,654.292297 C252.989929,647.730774 250.046280,642.895813 244.199478,642.147583 C243.674988,642.245178 243.386017,642.133728 243.159836,641.524658 C243.166382,639.210205 243.144119,637.305359 243.478699,635.319336 C245.563782,633.495789 247.292023,631.753357 249.393372,629.992188 C250.508484,629.907349 251.250519,629.841125 251.992554,629.774841 z"/><path fill="#F9F9F8" d="M209.332153,568.726929 C218.742249,575.110291 223.867264,584.294800 226.359467,595.279175 C225.594330,595.380798 225.024155,595.276184 224.453979,595.171570 C226.821350,598.802856 229.788864,601.610413 232.727844,604.447632 C236.396164,607.988892 240.041000,611.554565 243.695953,615.109680 C244.079681,616.195435 244.463425,617.281189 244.944489,619.072388 C244.177780,621.696045 243.313751,623.614258 242.449738,625.532532 C242.120621,624.901245 241.791504,624.269958 241.740646,624.172363 C239.305374,626.035950 236.849960,627.914917 234.003113,630.093384 C233.662231,625.836731 233.418716,622.795776 233.175201,619.754822 C230.187347,628.975159 225.465347,630.624146 218.323090,624.489929 C214.032608,620.804932 210.320969,616.427612 205.925980,612.886780 C198.166550,606.635193 189.442429,603.095154 178.433121,605.150757 C180.976257,605.938171 182.767960,606.492981 185.454285,607.324707 C178.480713,609.093933 173.658020,612.075989 172.669373,618.697144 C171.965210,623.413025 173.792130,627.277588 177.916748,630.119507 C178.070267,627.607178 178.204422,625.411987 178.423553,621.825867 C183.026352,630.531799 189.301041,635.054504 198.173615,637.790527 C193.794846,638.092529 190.680817,638.307312 187.521729,638.356567 C187.578018,638.219971 187.679382,638.248779 187.780762,638.277588 C187.693115,638.343079 187.605469,638.408569 187.872467,638.548889 C188.394592,638.871399 188.592789,639.105103 188.714630,639.373413 C188.764206,639.482666 188.659790,639.793884 188.605377,639.798950 C187.082275,639.941833 185.556580,640.057068 182.647629,640.285522 C186.675507,641.482727 189.347046,642.276794 192.260437,643.142761 C186.684677,646.304138 181.600235,649.186890 176.515808,652.069641 C176.661133,652.368286 176.806442,652.666931 176.951767,652.965576 C179.425369,652.624939 181.898956,652.284241 183.204849,652.104370 C179.081818,658.367493 174.754745,664.940552 170.250549,671.748169 C170.131592,672.255493 170.189743,672.528320 170.247894,672.801086 C170.580566,672.616394 170.913239,672.431702 171.544067,672.094055 C180.174255,661.460999 191.043839,654.954224 203.861923,651.694946 C203.739655,643.319885 205.999878,639.900879 212.383057,637.824646 C218.669617,635.779846 223.760010,638.537781 229.445419,642.175049 C228.796478,640.179749 228.421356,639.026245 228.046219,637.872803 C228.449249,637.541321 228.852295,637.209839 229.255325,636.878296 C231.589996,639.395874 233.924652,641.913391 236.022736,644.175781 C238.255234,643.471741 240.693130,642.702942 243.131042,641.934204 C243.386017,642.133728 243.674988,642.245178 244.420868,642.445435 C250.844131,647.532410 251.307602,651.165466 247.062256,659.273438 C252.419907,663.142822 251.182236,668.723267 250.925888,674.243164 C250.862259,674.660950 250.915359,674.833862 250.877625,675.174011 C250.786774,675.341187 250.887344,675.708130 250.478424,675.930664 C248.087997,676.192871 246.000076,676.660461 244.143311,676.198669 C235.799637,674.123413 227.297073,672.387695 219.271500,669.401489 C206.605606,664.688721 195.713318,667.351685 185.962234,675.834900 C179.102173,681.802979 174.032349,688.992859 173.517151,699.029785 C175.950577,698.853149 177.942963,698.910828 179.850784,698.536926 C191.418472,696.270264 202.965729,693.899536 214.522049,691.574646 C225.642517,689.337463 236.785309,688.098022 248.320526,691.083496 C248.742706,693.210571 248.851959,695.160645 248.997406,697.756958 C237.272629,693.673035 226.869965,695.178345 216.469818,697.550110 C225.212082,698.128967 234.302658,696.480225 243.741028,702.513000 C239.142975,707.395752 235.030762,711.762573 230.918549,716.129395 C221.502121,723.043823 210.692520,725.778625 199.118271,726.690125 C202.132217,724.671204 205.050049,722.716675 207.967880,720.762085 C207.845612,720.470764 207.723328,720.179382 207.601059,719.888062 C202.626007,719.888062 197.650970,719.888062 192.675919,719.888062 C192.591248,719.646057 192.506561,719.404053 192.421890,719.162048 C194.406448,718.124756 196.391006,717.087524 198.740570,715.859497 C179.476822,712.898438 160.732376,710.350647 151.416672,689.935486 C151.002213,690.680176 150.522522,691.431519 150.154327,692.233948 C149.769119,693.073547 149.491119,693.962219 149.043167,695.158081 C145.216705,687.582520 145.246674,682.449951 148.065186,668.570923 C143.858612,672.743408 139.652023,676.915833 135.147827,680.934570 C134.850189,680.780823 134.790283,680.815002 134.790283,680.815002 C136.969604,671.614136 139.505234,666.746948 146.718735,656.614258 C143.665131,657.888123 140.611511,659.161987 137.258896,660.203857 C136.959885,659.971863 137.012329,660.009521 137.012344,660.009521 C138.997955,657.623291 140.983566,655.237061 143.402252,652.414917 C143.394867,651.777100 142.954391,651.575195 142.513901,651.373352 C133.211639,654.841919 125.521049,660.585083 118.626770,668.100464 C118.227242,668.184937 117.891457,667.909119 117.891457,667.909119 C121.888863,655.427063 129.298569,645.436707 140.261551,637.427734 C140.825562,636.842468 141.024338,636.603699 141.223114,636.364990 C140.720291,636.473511 140.217484,636.582031 139.714661,636.690552 C137.401703,637.128113 135.088745,637.565674 132.401581,638.024597 C132.027359,638.045898 132.054550,638.113770 132.054550,638.113770 C134.801315,635.213074 137.548065,632.312317 140.107224,629.609741 C134.966888,628.353333 122.966934,633.122375 108.691017,642.261719 C108.251869,642.259155 107.936386,641.942261 107.936386,641.942261 C114.260666,631.442749 123.999001,624.887756 134.429657,619.196289 C138.019516,617.237488 141.828873,615.680908 146.626938,613.429565 C142.986771,613.429565 140.596466,613.429565 136.718964,613.429565 C143.615311,609.079224 149.506973,605.362610 156.634552,600.866394 C151.011429,601.137939 146.663971,601.347900 140.970535,601.622803 C143.821655,599.332764 146.012482,597.573059 148.203323,595.813293 C147.967606,595.348450 147.731888,594.883545 147.496170,594.418640 C142.039185,595.799683 136.582184,597.180664 130.712875,598.666077 C139.407578,588.918335 149.849930,583.027161 162.542862,579.912903 C159.101318,579.078613 155.659790,578.244263 151.604340,577.261169 C155.149841,576.300171 158.286484,575.450012 161.423126,574.599915 C161.529617,574.283936 161.636124,573.968018 161.742615,573.652100 C156.468430,572.277527 151.194244,570.902893 145.502838,569.419556 C158.968903,563.829773 172.368896,562.062439 186.728241,567.197205 C187.373520,567.264771 187.521530,567.130554 187.669525,566.996338 C187.425858,567.033020 187.182190,567.069702 186.938538,567.106445 C184.617172,564.242004 182.295822,561.377502 180.082123,558.195862 C180.189789,557.878662 180.155746,557.824158 180.155746,557.824158 C191.281494,559.916748 200.557022,565.497192 209.219589,574.089783 C209.070007,571.951355 208.996506,570.900696 209.034485,569.363037 C209.145950,568.876099 209.332153,568.726929 209.332153,568.726929 M230.132278,651.424561 C228.750137,650.243103 227.546448,648.565796 225.946396,647.989929 C223.155518,646.985596 220.135086,646.521729 217.171005,646.208496 C216.759811,646.165161 215.393143,648.925842 215.706284,649.273376 C217.823914,651.623596 220.266251,653.682922 222.631622,655.805115 C222.848511,655.999695 223.354401,656.144348 223.571060,656.026672 C227.925110,653.662415 230.373764,657.591370 234.673523,659.678162 C232.993515,656.470642 231.811600,654.214172 230.132278,651.424561 M244.775208,656.247803 C245.172882,655.534302 245.972015,654.769775 245.889145,654.117249 C245.682083,652.486572 245.074722,650.906677 244.627975,649.306396 C243.225616,649.962769 241.172623,650.250916 240.550919,651.349243 C239.073715,653.958984 238.274216,656.952393 236.995636,660.333435 C240.188446,658.763550 242.192520,657.778137 244.775208,656.247803 z"/><path fill="#0C100F" d="M243.159851,641.524658 C240.693130,642.702942 238.255234,643.471741 236.022736,644.175781 C233.924652,641.913391 231.589996,639.395874 229.255325,636.878296 C228.852295,637.209839 228.449249,637.541321 228.046219,637.872803 C228.421356,639.026245 228.796478,640.179749 229.445419,642.175049 C223.760010,638.537781 218.669617,635.779846 212.383057,637.824646 C205.999878,639.900879 203.739655,643.319885 203.861923,651.694946 C191.043839,654.954224 180.174255,661.460999 171.345032,671.904541 C170.707779,671.749878 170.567703,671.631714 170.427643,671.513611 C174.754745,664.940552 179.081818,658.367493 183.204849,652.104370 C181.898956,652.284241 179.425369,652.624939 176.951767,652.965576 C176.806442,652.666931 176.661133,652.368286 176.515808,652.069641 C181.600235,649.186890 186.684677,646.304138 192.260437,643.142761 C189.347046,642.276794 186.675507,641.482727 182.647629,640.285522 C185.556580,640.057068 187.082275,639.941833 188.605377,639.798950 C188.659790,639.793884 188.764206,639.482666 188.714630,639.373413 C188.592789,639.105103 188.394592,638.871399 187.913818,638.532959 C187.600555,638.442200 187.566788,638.522034 187.566788,638.522034 C190.680817,638.307312 193.794846,638.092529 198.173615,637.790527 C189.301041,635.054504 183.026352,630.531799 178.423553,621.825867 C178.204422,625.411987 178.070267,627.607178 177.916748,630.119507 C173.792130,627.277588 171.965210,623.413025 172.669373,618.697144 C173.658020,612.075989 178.480713,609.093933 185.454285,607.324707 C182.767960,606.492981 180.976257,605.938171 178.433121,605.150757 C189.442429,603.095154 198.166550,606.635193 205.925980,612.886780 C210.320969,616.427612 214.032608,620.804932 218.323090,624.489929 C225.465347,630.624146 230.187347,628.975159 233.175201,619.754822 C233.418716,622.795776 233.662231,625.836731 234.003113,630.093384 C236.849960,627.914917 239.305374,626.035950 241.740646,624.172363 C241.791504,624.269958 242.120621,624.901245 242.449738,625.532532 C243.313751,623.614258 244.177780,621.696045 245.091248,619.386414 C249.060822,618.536072 251.452774,619.653442 251.111740,624.231934 C250.996201,625.783020 251.674454,627.393188 251.991257,629.375610 C251.250519,629.841125 250.508484,629.907349 249.129852,629.720825 C243.202896,628.851074 242.950836,629.129456 243.121841,635.400452 C243.144119,637.305359 243.166382,639.210205 243.159851,641.524658 M201.727539,628.199341 C202.003906,622.564941 198.304016,623.809021 194.951935,624.044678 C196.920853,631.583862 202.771744,634.167419 212.057098,630.669495 C209.494492,630.090332 208.169601,629.733826 206.823273,629.501648 C205.295731,629.238281 203.748993,629.086243 201.727539,628.199341 z"/><path fill="#0C100F" d="M244.086395,615.023743 C240.041000,611.554565 236.396164,607.988892 232.727844,604.447632 C229.788864,601.610413 226.821350,598.802856 224.453979,595.171570 C225.024155,595.276184 225.594330,595.380798 226.418549,595.628418 C233.115326,600.835632 239.558044,605.899902 246.087830,611.266052 C245.608856,612.691223 245.042847,613.814514 244.086395,615.023743 z"/><path fill="#09170D" d="M231.171310,716.386536 C235.030762,711.762573 239.142975,707.395752 243.741028,702.513000 C234.302658,696.480225 225.212082,698.128967 216.469818,697.550110 C226.869965,695.178345 237.272629,693.673035 248.997406,697.756958 C248.851959,695.160645 248.742706,693.210571 248.302521,690.705200 C247.268585,688.005676 246.565598,685.861450 245.878906,683.523132 C245.895187,683.329041 246.099976,682.997559 246.300766,682.803772 C246.607941,682.260498 246.714325,681.911072 246.825974,681.252563 C246.801498,680.330811 246.771744,679.718079 247.086197,678.957153 C248.582733,677.775391 249.735046,676.741760 250.887360,675.708130 C250.887344,675.708130 250.786774,675.341187 251.038086,675.090149 C251.351227,674.736816 251.490067,674.591431 251.461258,674.539978 C251.350937,674.343018 251.186707,674.176331 251.042603,673.998291 C251.182236,668.723267 252.419907,663.142822 247.062256,659.273438 C251.307602,651.165466 250.844131,647.532410 244.622406,642.324463 C250.046280,642.895813 252.989929,647.730774 251.868744,654.292297 C250.641953,661.471924 253.484879,664.878479 260.750793,664.917542 C263.542725,664.932617 266.334778,664.919983 269.680939,664.919983 C269.680939,675.262329 269.717163,685.031250 269.617584,694.798828 C269.608887,695.652283 268.860413,696.645691 268.198547,697.322754 C258.029846,707.723755 246.011017,714.636719 231.171310,716.386536 z"/><path fill="#011307" d="M243.478699,635.319336 C242.950836,629.129456 243.202896,628.851074 248.756775,629.739441 C247.292023,631.753357 245.563782,633.495789 243.478699,635.319336 z"/><path fill="#F9F9F8" d="M118.391998,668.326538 C118.212105,668.934814 117.867462,669.401428 117.026672,670.539856 C117.217545,669.240845 117.293686,668.722717 117.630646,668.056824 C117.891457,667.909119 118.227242,668.184937 118.391998,668.326538 z"/><path fill="#F9F9F8" d="M132.007950,638.014893 C131.642929,638.187073 131.297318,638.390198 130.951706,638.593323 C131.225693,638.285095 131.499680,637.976807 131.914108,637.891113 C132.054550,638.113770 132.027359,638.045898 132.007950,638.014893 z"/><path fill="#F9F9F8" d="M106.813202,642.688965 C106.865517,643.057800 106.935944,643.425964 106.949783,643.796204 C106.951759,643.849060 106.679657,643.912170 106.534409,643.970520 C106.566048,643.706604 106.597687,643.442627 106.735680,642.966553 C106.842041,642.754456 106.813202,642.688965 106.813202,642.688965 z"/><path fill="#F9F9F8" d="M108.392914,642.432617 C108.111305,642.836426 107.688644,643.066711 107.039597,642.992981 C106.813202,642.688965 106.842041,642.754456 106.858322,642.777222 C107.029205,642.518127 107.226738,642.270447 107.701790,641.999634 C107.936386,641.942261 108.251869,642.259155 108.392914,642.432617 z"/><path fill="#F9F9F8" d="M134.834930,680.749878 C134.819656,680.718933 134.850998,680.929382 134.850998,680.929382 C134.850998,680.929382 134.923050,680.898132 134.856659,680.856567 C134.790283,680.815002 134.850189,680.780823 134.834930,680.749878 z"/><path fill="#F9F9F8" d="M209.055237,568.953552 C208.744476,568.838318 208.524445,568.645630 208.304428,568.452942 C208.573349,568.402283 208.842270,568.351624 209.221664,568.513916 C209.332153,568.726929 209.145950,568.876099 209.055237,568.953552 z"/><path fill="#F9F9F8" d="M136.931702,659.956116 C136.957809,660.150574 137.029999,660.359192 137.049820,660.572571 C137.053391,660.610901 136.840820,660.669373 136.728058,660.718506 C136.661758,660.538025 136.595444,660.357544 136.770737,660.093262 C137.012329,660.009521 136.959885,659.971863 136.931702,659.956116 z"/><path fill="#F9F9F8" d="M180.219971,557.867615 C180.250153,557.856567 180.025482,557.854126 180.025482,557.854126 C180.025482,557.854126 180.065643,557.950867 180.110687,557.887512 C180.155746,557.824158 180.189789,557.878662 180.219971,557.867615 z"/><path fill="#161918" d="M245.862610,683.717224 C246.565598,685.861450 247.268585,688.005676 247.989578,690.528198 C236.785309,688.098022 225.642517,689.337463 214.522049,691.574646 C202.965729,693.899536 191.418472,696.270264 179.850784,698.536926 C177.942963,698.910828 175.950577,698.853149 173.517151,699.029785 C174.032349,688.992859 179.102173,681.802979 185.962234,675.834900 C195.713318,667.351685 206.605606,664.688721 219.271500,669.401489 C227.297073,672.387695 235.799637,674.123413 244.143311,676.198669 C246.000076,676.660461 248.087997,676.192871 250.478424,675.930664 C249.735046,676.741760 248.582733,677.775391 246.674835,678.944946 C244.271500,679.117249 242.623734,679.153687 240.604553,679.043091 C234.828583,677.855408 229.185593,677.451050 224.104584,675.547058 C220.800446,674.308838 218.297974,671.508606 215.454605,675.896912 C211.909943,668.976196 207.936737,668.861328 203.334457,675.258301 C200.703247,666.872375 197.204407,674.501953 194.392731,675.137756 C193.454041,675.350037 193.367462,679.330811 192.891373,681.588928 C193.455505,681.730591 194.019638,681.872314 194.583786,682.013977 C195.409164,681.026611 196.234558,680.039185 197.151031,678.942810 C200.734299,684.217407 202.392273,680.685608 204.987122,677.737488 C205.412903,681.748291 205.838684,685.759033 206.298996,690.095154 C213.441696,689.734558 210.946960,681.138489 213.529144,679.964417 C223.920502,681.727966 232.460114,682.067932 241.330505,682.739990 C243.086426,683.118713 244.474503,683.417969 245.862610,683.717224 M203.604324,683.386719 C201.752075,684.082031 199.899841,684.777283 197.735184,685.589844 C197.413635,685.163940 196.662079,684.168335 195.396759,682.492188 C192.812424,685.974487 190.537964,689.039246 188.263489,692.104004 C188.554733,692.464294 188.845978,692.824585 189.137222,693.184814 C193.970032,692.377808 198.802826,691.570740 203.972351,690.707520 C203.972351,688.390564 203.972351,686.257935 203.604324,683.386719 M216.983978,688.124695 C224.461304,687.403625 231.938614,686.682556 239.415939,685.961487 C239.399094,685.440613 239.382233,684.919739 239.365372,684.398865 C231.078827,684.398865 222.792282,684.398865 213.851776,684.398865 C213.517807,685.122803 212.781113,686.719604 211.743942,688.967712 C213.684830,688.673950 214.934265,688.484802 216.983978,688.124695 z"/><path fill="#0E1311" d="M230.380981,651.691101 C231.811600,654.214172 232.993515,656.470642 234.673523,659.678162 C230.373764,657.591370 227.925110,653.662415 223.571060,656.026672 C223.354401,656.144348 222.848511,655.999695 222.631622,655.805115 C220.266251,653.682922 217.823914,651.623596 215.706284,649.273376 C215.393143,648.925842 216.759811,646.165161 217.171005,646.208496 C220.135086,646.521729 223.155518,646.985596 225.946396,647.989929 C227.546448,648.565796 228.750137,650.243103 230.380981,651.691101 z"/><path fill="#161918" d="M244.485901,656.520264 C242.192520,657.778137 240.188446,658.763550 236.995636,660.333435 C238.274216,656.952393 239.073715,653.958984 240.550919,651.349243 C241.172623,650.250916 243.225616,649.962769 244.627975,649.306396 C245.074722,650.906677 245.682083,652.486572 245.889145,654.117249 C245.972015,654.769775 245.172882,655.534302 244.485901,656.520264 z"/><path fill="#468C29" d="M139.817749,636.802124 C140.217484,636.582031 140.720291,636.473511 141.223114,636.364990 C141.024338,636.603699 140.825562,636.842468 140.376678,637.109253 C140.126572,637.137390 139.920853,636.913757 139.817749,636.802124 z"/><path fill="#468C29" d="M142.688812,651.597168 C142.954391,651.575195 143.394867,651.777100 143.539383,652.111328 C143.116837,652.102722 142.990265,651.961853 142.688812,651.597168 z"/><path fill="#0C100F" d="M187.559204,638.458130 C187.605469,638.408569 187.693115,638.343079 187.780762,638.277588 C187.679382,638.248779 187.578018,638.219971 187.521729,638.356567 C187.566788,638.522034 187.600555,638.442200 187.559204,638.458130 z"/><path fill="#161918" d="M250.925888,674.243164 C251.186707,674.176331 251.350937,674.343018 251.461258,674.539978 C251.490067,674.591431 251.351227,674.736816 251.128937,674.922974 C250.915359,674.833862 250.862259,674.660950 250.925888,674.243164 z"/><path fill="#0C100F" d="M171.046875,672.057495 C170.913239,672.431702 170.580566,672.616394 170.247894,672.801086 C170.189743,672.528320 170.131592,672.255493 170.250549,671.748169 C170.567703,671.631714 170.707779,671.749878 171.046875,672.057495 z"/><path fill="#468C29" d="M186.953308,567.076660 C187.182190,567.069702 187.425858,567.033020 187.669525,566.996338 C187.521530,567.130554 187.373520,567.264771 187.114716,567.194824 C187.003937,566.990723 186.968063,567.046814 186.953308,567.076660 z"/><path fill="#E1E1DF" d="M201.969070,628.542542 C203.748993,629.086243 205.295731,629.238281 206.823273,629.501648 C208.169601,629.733826 209.494492,630.090332 212.057098,630.669495 C202.771744,634.167419 196.920853,631.583862 194.951935,624.044678 C198.304016,623.809021 202.003906,622.564941 201.969070,628.542542 z"/><path fill="#D7D7D7" d="M240.975983,679.190063 C242.623734,679.153687 244.271500,679.117249 246.330612,679.093018 C246.771744,679.718079 246.801498,680.330811 246.580185,681.412537 C246.252731,682.253479 246.176346,682.625549 246.099976,682.997559 C246.099976,682.997559 245.895187,683.329041 245.878891,683.523132 C244.474503,683.417969 243.086426,683.118713 241.318909,682.392944 C240.951630,681.040955 240.963806,680.115479 240.975983,679.190063 z"/><path fill="#161918" d="M246.300751,682.803772 C246.176346,682.625549 246.252731,682.253479 246.574905,681.721558 C246.714325,681.911072 246.607941,682.260498 246.300751,682.803772 z"/><path fill="#EEEEEE" d="M240.604553,679.043091 C240.963806,680.115479 240.951630,681.040955 240.951065,682.313477 C232.460114,682.067932 223.920502,681.727966 213.529144,679.964417 C210.946960,681.138489 213.441696,689.734558 206.298996,690.095154 C205.838684,685.759033 205.412903,681.748291 204.987122,677.737488 C202.392273,680.685608 200.734299,684.217407 197.151031,678.942810 C196.234558,680.039185 195.409164,681.026611 194.583786,682.013977 C194.019638,681.872314 193.455505,681.730591 192.891373,681.588928 C193.367462,679.330811 193.454041,675.350037 194.392731,675.137756 C197.204407,674.501953 200.703247,666.872375 203.334457,675.258301 C207.936737,668.861328 211.909943,668.976196 215.454605,675.896912 C218.297974,671.508606 220.800446,674.308838 224.104584,675.547058 C229.185593,677.451050 234.828583,677.855408 240.604553,679.043091 z"/><path fill="#EEEEEE" d="M203.788330,683.756042 C203.972351,686.257935 203.972351,688.390564 203.972351,690.707520 C198.802826,691.570740 193.970032,692.377808 189.137222,693.184814 C188.845978,692.824585 188.554733,692.464294 188.263489,692.104004 C190.537964,689.039246 192.812424,685.974487 195.396759,682.492188 C196.662079,684.168335 197.413635,685.163940 197.735184,685.589844 C199.899841,684.777283 201.752075,684.082031 203.788330,683.756042 z"/><path fill="#D7D7D7" d="M216.583832,688.210205 C214.934265,688.484802 213.684830,688.673950 211.743942,688.967712 C212.781113,686.719604 213.517807,685.122803 213.851776,684.398865 C222.792282,684.398865 231.078827,684.398865 239.365372,684.398865 C239.382233,684.919739 239.399094,685.440613 239.415939,685.961487 C231.938614,686.682556 224.461304,687.403625 216.583832,688.210205 z"/></svg>