<svg xmlns="http://www.w3.org/2000/svg" viewBox="868.2 815.2 153.7 171.9"><path fill="#0E1311" d="M1002.884949,871.031860 C1003.931091,871.026306 1004.977173,871.020752 1006.411133,870.974915 C1011.622314,872.051086 1011.802368,872.651367 1009.173035,876.264648 C1008.565674,877.099365 1008.728088,878.859192 1009.127686,879.983032 C1009.877930,882.093750 1011.059570,884.051147 1012.034912,886.525513 C1012.007996,886.978821 1011.867493,887.120483 1011.574219,886.942810 C1009.523621,884.917786 1007.766296,883.070374 1005.875366,881.082520 C1008.335083,876.911865 1005.526062,873.996094 1002.884949,871.031860 z"/><path fill="#F7F8F7" d="M1011.574219,886.942810 C1012.127930,887.908386 1012.388428,888.696350 1012.813354,890.172485 C1012.364868,891.416138 1011.782471,892.413269 1011.133972,892.458252 C1005.077332,892.878479 998.836731,892.357544 992.992188,893.654236 C986.916870,895.002136 981.197998,898.004272 975.365295,900.386230 C967.810791,903.471375 960.252014,906.870361 951.865601,905.791748 C948.015625,905.296631 943.993652,904.110291 940.669983,902.173035 C937.851868,900.530396 936.688599,899.972839 935.397583,903.014099 C934.706726,904.641724 934.559631,906.500183 933.908630,909.409851 C935.394897,907.270203 936.177795,906.143066 937.277954,904.559204 C937.724670,905.756531 937.943604,906.329773 938.152954,906.906433 C942.452515,918.747681 946.515198,930.682068 951.127380,942.400269 C954.565247,951.135071 961.387695,956.179810 970.745972,957.320190 C983.181335,958.835632 995.526672,959.179871 1007.360962,952.808350 C1008.946960,957.230225 1008.094666,959.851807 1002.979187,960.419739 C996.750488,961.111328 990.594788,962.459717 984.407471,963.524048 C984.389709,963.759460 984.371887,963.994812 984.354126,964.230225 C989.731079,964.230225 995.108093,964.230225 1001.428223,964.230225 C999.258728,967.250427 997.579163,969.588623 995.899658,971.926758 C995.899597,971.926758 995.966309,971.963928 995.647583,971.961914 C995.049744,972.299683 994.770508,972.639526 994.491272,972.979309 C986.429321,979.393921 977.224609,982.657532 965.912109,983.174377 C968.631653,981.377625 970.559631,980.103821 972.487549,978.830078 C972.461426,978.535645 972.435242,978.241211 972.409119,977.946777 C964.878662,978.365601 957.348206,978.784363 949.817749,979.203125 C949.789429,979.003662 949.761047,978.804138 949.732727,978.604675 C950.689270,978.152161 951.645813,977.699707 953.170349,976.978516 C951.855469,976.030701 950.920532,975.356750 949.720337,974.491577 C952.347778,974.224365 954.530212,974.002502 956.000732,973.852966 C949.620361,969.440002 942.362122,965.679138 936.783020,960.206421 C931.219360,954.748962 927.338928,947.575562 922.724060,941.159424 C922.932373,942.922729 923.191650,945.118042 923.474548,947.513367 C918.043823,942.503967 916.036194,936.039795 915.281372,928.985474 C914.824707,928.863220 914.367981,928.741028 913.911255,928.618835 C912.131409,932.731873 910.351562,936.844910 908.723938,940.606262 C906.017090,937.021606 905.541870,931.823242 907.461060,923.416382 C907.401855,922.999512 907.458923,922.726868 907.515991,922.454163 C907.347534,922.641663 907.179077,922.829163 907.010620,923.016663 C903.550903,927.241516 900.091248,931.466431 896.332947,935.847778 C896.034363,936.004333 896.081604,936.025879 896.081604,936.025879 C895.742615,928.852661 897.642578,922.264099 901.624634,915.565918 C901.858643,914.651123 901.746094,914.299194 901.633545,913.947388 C901.306946,914.182373 900.980286,914.417419 900.653625,914.652405 C897.646790,916.767456 894.640015,918.882568 890.822571,921.567932 C891.713623,918.827881 892.367188,916.818176 893.296326,914.327087 C893.611572,913.427368 893.651245,913.009033 893.690857,912.590698 C893.247803,912.859314 892.804749,913.127991 892.361816,913.396729 C887.877686,919.071594 883.393555,924.746399 879.069580,930.218567 C880.304077,919.640747 884.494873,909.621460 890.856323,899.755493 C891.649597,898.621582 892.079529,897.985779 892.509460,897.349976 C892.311584,897.211731 892.113708,897.073486 891.915833,896.935242 C891.193115,897.536499 890.470398,898.137756 889.747681,898.739014 C888.098328,899.813599 886.448914,900.888184 884.269653,901.890259 C883.581238,901.713501 883.422791,901.609253 883.264282,901.504944 C884.621765,899.042725 885.979248,896.580444 887.696289,893.556396 C887.591553,892.883850 887.127258,892.773132 886.662903,892.662354 C882.329529,896.382080 877.996216,900.101807 873.233521,903.796204 C872.804260,903.770874 872.581299,903.520630 872.581299,903.520630 C876.397400,894.518494 882.139221,886.907104 889.113708,880.106323 C891.800354,877.486694 894.386230,875.208557 895.931458,871.010437 C897.635010,866.382141 903.188293,863.145691 907.145142,859.387695 C908.296814,858.293945 909.724426,857.490723 910.590027,855.562561 C907.002747,856.682007 903.415527,857.801392 899.522522,859.147827 C899.216797,859.374756 899.232422,859.422852 899.232422,859.422852 C900.352234,857.271606 901.472046,855.120300 903.046021,852.096619 C897.774658,854.126526 892.980164,855.972717 887.140015,858.221619 C894.370422,849.272522 902.223083,842.984436 912.167969,838.397766 C910.197693,838.211914 908.227417,838.026062 904.834351,837.705933 C908.437439,836.170166 910.939819,835.103516 914.867310,833.429443 C909.116821,832.463379 904.732117,831.726868 898.805664,830.731262 C912.966614,826.671021 925.770386,823.250671 939.821899,826.334412 C936.936890,824.079102 934.051941,821.823853 931.296936,819.670227 C939.947632,819.232666 951.659302,823.362122 963.234863,831.265259 C962.302002,829.179871 961.684509,827.799500 960.447815,825.034973 C968.320129,830.123596 974.639893,834.720642 976.605835,843.405518 C974.929016,843.438049 973.631958,843.172852 972.084717,842.856445 C975.058960,845.549072 977.628113,847.875061 980.389709,850.375183 C989.026001,846.460327 996.267639,849.165466 998.152954,857.530701 C994.616882,859.175842 991.086731,860.818237 987.461487,862.504883 C987.217163,860.517700 987.020020,858.914001 986.808655,857.194397 C985.300659,859.219666 984.116516,860.809937 982.325012,863.216003 C981.974243,860.169312 981.784058,858.517517 981.593933,856.865784 C979.653748,861.751648 977.746643,863.066345 973.228882,861.262146 C969.096191,859.611816 965.197571,857.338684 961.287964,855.173523 C949.537537,848.665771 941.392456,849.546082 931.559143,858.511902 C925.093140,864.407349 926.396851,871.735107 934.733765,875.552979 C935.152771,875.703979 935.396240,875.670959 935.639648,875.637939 C935.434692,875.417847 935.229797,875.197754 935.045776,874.606018 C934.724121,872.640076 934.381531,871.045776 934.318054,870.750244 C940.361511,872.615601 946.453613,874.495972 951.787170,876.142151 C950.284180,877.131714 947.723083,878.817932 944.564331,880.897583 C947.120544,881.038818 948.848572,881.134338 951.543579,881.283203 C948.190491,883.700439 945.553955,885.601074 942.672546,887.678284 C943.825256,887.960693 944.697021,888.174255 946.715759,888.668884 C941.596436,891.210938 937.191467,893.090210 933.104126,895.506775 C928.107117,898.460999 926.331970,902.990601 928.608154,908.041016 C929.923157,900.274963 934.188354,896.464294 940.756653,894.289124 C947.306396,892.120056 953.485229,888.838867 959.852234,886.104797 C961.565674,885.369080 963.372314,884.850403 965.120911,884.237427 C960.739868,876.982361 962.871704,870.636047 971.116333,868.930908 C975.911316,867.939209 981.082886,868.383728 986.041382,868.759033 C987.984924,868.906189 989.809021,870.630493 991.687561,871.636475 C991.659546,871.276550 991.631531,870.916626 991.603577,870.556641 C994.887878,870.428040 998.172119,870.299438 1001.456421,870.170776 C1001.456421,870.170776 1001.508484,870.070251 1001.607239,870.362671 C1002.141907,870.798401 1002.577820,870.941650 1003.013733,871.084961 C1003.013733,871.084961 1002.973145,870.999695 1002.929077,871.015747 C1005.526062,873.996094 1008.335083,876.911865 1005.875366,881.082520 C1007.766296,883.070374 1009.523621,884.917786 1011.574219,886.942810 M991.743408,881.246399 C991.974121,881.398743 992.204834,881.551025 992.435608,881.703308 C992.289978,881.468872 992.144348,881.234497 991.945679,880.309143 C987.968201,878.168579 984.158813,875.515076 979.933594,874.130310 C978.147278,873.544800 975.485962,875.628906 973.222351,876.499573 C975.116516,878.018127 976.861023,880.536194 978.936035,880.846924 C983.246948,881.492432 987.733032,880.967529 991.743408,881.246399 M1001.738037,874.818848 C1000.104736,875.302795 997.766052,875.302124 997.016541,876.393188 C996.076416,877.761841 996.439148,880.025574 996.239624,881.902954 C996.712891,882.013000 997.186218,882.122986 997.659546,882.233032 C997.787598,878.912292 1005.484924,881.232300 1001.738037,874.818848 M941.703796,888.501648 C941.703796,888.501648 941.601868,888.538330 941.703796,888.501648 M966.491455,885.897827 C966.568604,885.697998 966.645752,885.498169 966.722961,885.298340 C966.504272,885.360352 966.285583,885.422363 966.491455,885.897827 z"/><path fill="#0D1210" d="M1006.952820,952.651917 C995.526672,959.179871 983.181335,958.835632 970.745972,957.320190 C961.387695,956.179810 954.565247,951.135071 951.127380,942.400269 C946.515198,930.682068 942.452515,918.747681 938.152954,906.906433 C937.943604,906.329773 937.724670,905.756531 937.277954,904.559204 C936.177795,906.143066 935.394897,907.270203 933.908630,909.409851 C934.559631,906.500183 934.706726,904.641724 935.397583,903.014099 C936.688599,899.972839 937.851868,900.530396 940.669983,902.173035 C943.993652,904.110291 948.015625,905.296631 951.865601,905.791748 C960.252014,906.870361 967.810791,903.471375 975.365295,900.386230 C981.197998,898.004272 986.916870,895.002136 992.992188,893.654236 C998.836731,892.357544 1005.077332,892.878479 1011.133972,892.458252 C1011.782471,892.413269 1012.364868,891.416138 1012.994629,890.428589 C1013.446411,889.997314 1013.881348,889.998169 1014.642334,889.999268 C1017.907532,894.844360 1016.909546,899.333069 1013.178711,903.996887 C1012.649719,905.542114 1012.677551,906.715332 1012.705444,907.888489 C1012.088135,910.837891 1011.470764,913.787231 1010.389282,916.830566 C1009.762390,916.785095 1009.599548,916.645691 1009.546387,916.122070 C1010.089905,911.802368 1010.685669,907.873108 1010.839966,903.926636 C1010.876953,902.979614 1009.567993,901.808289 1008.608398,901.111023 C1008.359070,900.929810 1007.093201,902.147461 1006.303772,902.715759 C1003.817261,898.334045 1001.941895,897.991272 998.524902,901.395264 C995.828857,899.011780 989.789490,899.275940 987.076965,901.894958 C986.644836,902.312195 986.007019,903.166077 985.802185,903.073181 C981.557800,901.148376 979.982849,903.885498 978.937927,907.340332 C974.698975,903.543640 969.839539,905.064026 968.364563,910.531860 C965.370361,910.335571 962.159607,906.453308 960.488159,911.804993 C958.778870,911.092041 957.245239,910.452393 955.472229,909.712891 C954.170288,913.912537 955.712219,916.139893 959.061707,916.232483 C962.693909,916.332764 966.353210,915.450500 970.024414,915.369263 C971.126587,918.292847 972.204956,920.843872 973.927368,924.918335 C976.142334,919.463013 977.843628,915.272827 979.149780,912.055847 C981.514893,911.646301 983.441895,911.436462 985.291260,910.938232 C986.174561,910.700256 986.883362,909.498291 987.717407,909.444153 C993.839966,909.046387 999.974243,908.828552 1005.327698,908.588928 C1005.833740,911.872986 1006.212830,914.333374 1006.244141,916.859497 C1004.204834,917.714844 1002.513489,918.504517 1000.481079,919.453369 C1000.561462,919.914917 1000.752747,921.013306 1000.565369,922.071655 C996.004700,926.379028 995.442444,932.518311 998.205017,936.578186 C999.052612,932.507446 1000.042053,927.755310 1001.490967,923.003113 C1004.483643,922.946228 1007.016785,922.889343 1009.549927,922.832520 C1009.549927,922.832520 1009.735168,922.613586 1009.864441,923.047485 C1009.138855,925.014709 1008.470398,926.695679 1007.394470,928.053894 C1004.060181,932.263123 1004.331238,934.364746 1008.452698,937.513306 C1009.776550,938.524597 1011.549500,940.288696 1011.440857,941.565857 C1011.185669,944.567505 1008.668213,945.342590 1005.875854,944.519287 C1005.890808,941.773743 1005.890808,939.465332 1005.890808,935.788208 C1003.329163,939.682556 1001.552429,942.383545 999.596802,945.356567 C994.940430,945.739441 989.510986,946.185852 984.082031,946.222961 C984.055054,945.542175 984.027466,945.270691 984.378296,944.941284 C986.082825,944.755310 987.409058,944.627258 988.735229,944.499146 C988.900818,943.913757 989.066467,943.328369 989.232056,942.742920 C984.295105,940.233032 979.495544,937.379272 974.373230,935.333618 C970.929199,933.958130 967.055481,933.494934 963.323120,933.060547 C960.691833,932.754272 960.606567,934.184387 961.915527,936.151123 C961.403259,937.618835 961.188965,938.852844 960.599854,939.994568 C958.252319,939.112366 956.279541,938.322449 954.306763,937.532532 C954.046570,937.877136 953.786438,938.221680 953.526306,938.566284 C955.942139,940.875305 958.357971,943.184326 960.836792,945.832581 C961.840332,948.916382 963.402161,949.974121 966.055908,948.031738 C966.057068,947.992981 965.980286,947.981567 965.938354,948.361023 C968.608337,953.665894 971.786865,954.475159 975.882568,951.255920 C977.856018,954.427063 980.650391,952.031799 982.853455,952.455994 C988.780640,953.597412 994.024658,953.595520 998.936768,949.811035 C999.115540,949.673279 999.597229,950.003601 999.901855,949.941101 C1001.269104,949.660156 1002.623413,949.315979 1004.223877,949.180786 C1005.294617,950.461975 1006.123718,951.556946 1006.952820,952.651917 z"/><path fill="#0E1311" d="M934.558105,875.368896 C926.396851,871.735107 925.093140,864.407349 931.559143,858.511902 C941.392456,849.546082 949.537537,848.665771 961.287964,855.173523 C965.197571,857.338684 969.096191,859.611816 973.228882,861.262146 C977.746643,863.066345 979.653748,861.751648 981.593933,856.865784 C981.784058,858.517517 981.974243,860.169312 982.325012,863.216003 C984.116516,860.809937 985.300659,859.219666 986.808655,857.194397 C987.020020,858.914001 987.217163,860.517700 987.461487,862.504883 C991.086731,860.818237 994.616882,859.175842 998.152954,857.530701 C996.267639,849.165466 989.026001,846.460327 980.389709,850.375183 C977.628113,847.875061 975.058960,845.549072 972.084717,842.856445 C973.631958,843.172852 974.929016,843.438049 976.582336,843.769775 C981.176697,844.903015 985.401306,846.027893 989.656616,847.021301 C994.402283,848.129089 997.466370,851.088074 1000.663513,854.751343 C1005.152283,859.894531 1002.560486,864.470215 1001.430664,869.780518 C998.172119,870.299438 994.887878,870.428040 991.603577,870.556641 C991.631531,870.916626 991.659546,871.276550 991.687561,871.636475 C989.809021,870.630493 987.984924,868.906189 986.041382,868.759033 C981.082886,868.383728 975.911316,867.939209 971.116333,868.930908 C962.871704,870.636047 960.739868,876.982361 965.120911,884.237427 C963.372314,884.850403 961.565674,885.369080 959.852234,886.104797 C953.485229,888.838867 947.306396,892.120056 940.756653,894.289124 C934.188354,896.464294 929.923157,900.274963 928.608154,908.041016 C926.331970,902.990601 928.107117,898.460999 933.104126,895.506775 C937.191467,893.090210 941.596436,891.210938 946.715759,888.668884 C944.697021,888.174255 943.825256,887.960693 942.672546,887.678284 C945.553955,885.601074 948.190491,883.700439 951.543579,881.283203 C948.848572,881.134338 947.120544,881.038818 944.564331,880.897583 C947.723083,878.817932 950.284180,877.131714 951.787170,876.142151 C946.453613,874.495972 940.361511,872.615601 934.318054,870.750244 C934.381531,871.045776 934.724121,872.640076 934.929443,874.704224 C934.792175,875.174072 934.558105,875.368896 934.558105,875.368896 M959.724182,867.802979 C955.744202,869.824402 955.010132,867.213928 954.914673,863.469543 C952.386963,864.541870 950.413879,865.378906 948.008240,866.399414 C953.483826,871.841064 958.983704,870.300903 964.607178,867.464172 C963.060669,867.321777 961.514221,867.179443 959.724182,867.802979 z"/><path fill="#08160D" d="M1009.420532,922.518433 C1007.016785,922.889343 1004.483643,922.946228 1001.465698,922.780518 C1000.980957,922.558044 1000.944031,922.111694 1000.944031,922.111694 C1000.752747,921.013306 1000.561462,919.914917 1000.481079,919.453369 C1002.513489,918.504517 1004.204834,917.714844 1006.375122,917.144897 C1007.480347,917.872498 1008.106689,918.380432 1009.040405,918.919556 C1009.553162,918.967285 1009.758484,918.983765 1009.963867,919.000183 C1009.739624,920.068237 1009.515381,921.136230 1009.420532,922.518433 z"/><path fill="#0D1210" d="M1010.057678,918.727051 C1009.758484,918.983765 1009.553162,918.967285 1009.075806,918.606750 C1009.014709,917.677185 1009.225769,917.091675 1009.436768,916.506226 C1009.599548,916.645691 1009.762390,916.785095 1010.176514,917.131958 C1010.335693,917.710938 1010.243591,918.082397 1010.057678,918.727051 z"/><path fill="#F7F8F7" d="M896.022827,935.981201 C896.011353,935.958008 895.969788,936.105652 896.025696,936.065796 C896.081604,936.025879 896.034363,936.004333 896.022827,935.981201 z"/><path fill="#0E1311" d="M1002.852417,870.782959 C1002.577820,870.941650 1002.141907,870.798401 1001.556152,870.338257 C1001.834656,870.174622 1002.262878,870.327820 1002.852417,870.782959 z"/><path fill="#F7F8F7" d="M872.913330,903.898193 C872.766113,904.271240 872.509888,904.516907 872.253540,904.762451 C872.225891,904.486389 872.198242,904.210388 872.375977,903.727478 C872.581299,903.520630 872.804260,903.770874 872.913330,903.898193 z"/><path fill="#F7F8F7" d="M883.958252,902.000000 C883.846619,902.391968 883.516479,902.601685 883.186401,902.811401 C883.113403,902.545166 883.040466,902.278870 883.115845,901.758789 C883.422791,901.609253 883.581238,901.713501 883.958252,902.000000 z"/><path fill="#F7F8F7" d="M899.205383,859.352173 C898.948303,859.295898 898.702698,859.262146 898.457031,859.228394 C898.651001,859.155579 898.844971,859.082703 899.135742,859.216309 C899.232422,859.422852 899.216797,859.374756 899.205383,859.352173 z"/><path fill="#0E1311" d="M992.147156,880.923706 C987.733032,880.967529 983.246948,881.492432 978.936035,880.846924 C976.861023,880.536194 975.116516,878.018127 973.222351,876.499573 C975.485962,875.628906 978.147278,873.544800 979.933594,874.130310 C984.158813,875.515076 987.968201,878.168579 992.008057,880.633057 C992.070374,880.956970 992.147156,880.923767 992.147156,880.923706 z"/><path fill="#232424" d="M1001.995117,875.112915 C1005.484924,881.232300 997.787598,878.912292 997.659546,882.233032 C997.186218,882.122986 996.712891,882.013000 996.239624,881.902954 C996.439148,880.025574 996.076416,877.761841 997.016541,876.393188 C997.766052,875.302124 1000.104736,875.302795 1001.995117,875.112915 z"/><path fill="#EEEEEE" d="M1009.546387,916.122070 C1009.225769,917.091675 1009.014709,917.677185 1008.768372,918.575439 C1008.106689,918.380432 1007.480347,917.872498 1006.723022,917.079102 C1006.212830,914.333374 1005.833740,911.872986 1005.327698,908.588928 C999.974243,908.828552 993.839966,909.046387 987.717407,909.444153 C986.883362,909.498291 986.174561,910.700256 985.291260,910.938232 C983.441895,911.436462 981.514893,911.646301 979.149780,912.055847 C977.843628,915.272827 976.142334,919.463013 973.927368,924.918335 C972.204956,920.843872 971.126587,918.292847 969.871338,914.985962 C969.330872,912.886658 968.967224,911.543274 968.603516,910.199890 C969.839539,905.064026 974.698975,903.543640 978.937927,907.340332 C979.982849,903.885498 981.557800,901.148376 985.802185,903.073181 C986.007019,903.166077 986.644836,902.312195 987.076965,901.894958 C989.789490,899.275940 995.828857,899.011780 998.524902,901.395264 C1001.941895,897.991272 1003.817261,898.334045 1006.303772,902.715759 C1007.093201,902.147461 1008.359070,900.929810 1008.608398,901.111023 C1009.567993,901.808289 1010.876953,902.979614 1010.839966,903.926636 C1010.685669,907.873108 1010.089905,911.802368 1009.546387,916.122070 M1005.928101,907.510315 C1006.128174,907.576233 1006.328247,907.642151 1006.528381,907.708069 C1006.457947,907.499512 1006.387573,907.290894 1005.928101,907.510315 z"/><path fill="#EEEEEE" d="M1005.875793,944.519287 C1005.256042,946.085999 1004.651245,947.215576 1004.014404,948.669861 C1002.623413,949.315979 1001.269104,949.660156 999.901855,949.941101 C999.597229,950.003601 999.115540,949.673279 998.936768,949.811035 C994.024658,953.595520 988.780640,953.597412 982.853455,952.455994 C980.650391,952.031799 977.856018,954.427063 975.882568,951.255920 C971.786865,954.475159 968.608337,953.665894 966.228394,948.177979 C968.250732,944.691101 969.941284,941.766724 971.936768,938.887207 C972.971863,939.276062 973.702148,939.619934 974.566895,940.362549 C975.168640,943.130188 975.635803,945.499146 975.859253,946.632263 C979.137512,946.632263 981.609497,946.632263 984.081482,946.632263 C989.510986,946.185852 994.940430,945.739441 999.596802,945.356567 C1001.552429,942.383545 1003.329163,939.682556 1005.890808,935.788208 C1005.890808,939.465332 1005.890808,941.773743 1005.875793,944.519287 z"/><path fill="#E1E1DF" d="M974.432373,939.963806 C973.702148,939.619934 972.971863,939.276062 972.021240,938.538818 C971.909424,937.573730 972.017944,937.002014 972.126465,936.430237 C971.909180,936.336670 971.691895,936.243103 971.474609,936.149536 C970.492310,937.461853 969.510071,938.774170 968.539551,940.070801 C966.253784,938.570068 964.233704,937.243713 962.213562,935.917419 C960.606567,934.184387 960.691833,932.754272 963.323120,933.060547 C967.055481,933.494934 970.929199,933.958130 974.373230,935.333618 C979.495544,937.379272 984.295105,940.233032 989.232056,942.742920 C989.066467,943.328369 988.900818,943.913757 988.735229,944.499146 C987.409058,944.627258 986.082825,944.755310 984.044434,944.750671 C979.351440,945.005920 977.028687,942.223328 974.432373,939.963806 z"/><path fill="#E9E9E9" d="M968.364624,910.531860 C968.967224,911.543274 969.330872,912.886658 969.847595,914.613342 C966.353210,915.450500 962.693909,916.332764 959.061707,916.232483 C955.712219,916.139893 954.170288,913.912537 955.472229,909.712891 C957.245239,910.452393 958.778870,911.092041 960.488159,911.804993 C962.159607,906.453308 965.370361,910.335571 968.364624,910.531860 z"/><path fill="#232424" d="M961.915527,936.151123 C964.233704,937.243713 966.253784,938.570068 968.539551,940.070801 C969.510071,938.774170 970.492310,937.461853 971.474609,936.149536 C971.691895,936.243103 971.909180,936.336670 972.126465,936.430237 C972.017944,937.002014 971.909424,937.573730 971.716370,938.493896 C969.941284,941.766724 968.250732,944.691101 966.270264,947.798523 C965.980286,947.981567 966.057068,947.992981 966.027405,947.578369 C965.549194,945.493896 965.100586,943.824036 964.651978,942.154175 C963.401062,942.807556 962.150146,943.460999 961.030396,943.614258 C961.099304,942.105042 961.037048,941.095886 960.974731,940.086792 C961.188965,938.852844 961.403259,937.618835 961.915527,936.151123 z"/><path fill="#D7D7D7" d="M1000.565369,922.071655 C1000.944031,922.111694 1000.980957,922.558044 1001.006226,922.780640 C1000.042053,927.755310 999.052612,932.507446 998.205017,936.578186 C995.442444,932.518311 996.004700,926.379028 1000.565369,922.071655 z"/><path fill="#E9E9E9" d="M960.899292,944.114380 C962.150146,943.460999 963.401062,942.807556 964.651978,942.154175 C965.100586,943.824036 965.549194,945.493896 966.026245,947.617188 C963.402161,949.974121 961.840332,948.916382 960.928589,945.606079 C961.072937,944.723083 961.053589,944.414429 960.899292,944.114380 z"/><path fill="#323232" d="M974.566895,940.362549 C977.028687,942.223328 979.351440,945.005920 983.666077,944.808594 C984.027466,945.270691 984.055054,945.542175 984.082031,946.222961 C981.609497,946.632263 979.137512,946.632263 975.859253,946.632263 C975.635803,945.499146 975.168640,943.130188 974.566895,940.362549 z"/><path fill="#D7D7D7" d="M961.030396,943.614258 C961.053589,944.414429 961.072937,944.723083 960.865601,945.266846 C958.357971,943.184326 955.942139,940.875305 953.526306,938.566284 C953.786438,938.221680 954.046570,937.877136 954.306763,937.532532 C956.279541,938.322449 958.252319,939.112366 960.599976,939.994568 C961.037048,941.095886 961.099304,942.105042 961.030396,943.614258 z"/><path fill="#D7D7D7" d="M959.845947,867.420044 C961.514221,867.179443 963.060669,867.321777 964.607178,867.464172 C958.983704,870.300903 953.483826,871.841064 948.008240,866.399414 C950.413879,865.378906 952.386963,864.541870 954.914673,863.469543 C955.010132,867.213928 955.744202,869.824402 959.845947,867.420044 z"/></svg>