<svg xmlns="http://www.w3.org/2000/svg" viewBox="104.4 293.7 155.3 172.0"><path fill="#F9F9F8" d="M126.892906,340.899017 C132.352295,330.152100 141.803146,324.355927 152.646149,319.445465 C149.790512,319.445465 146.934860,319.445465 144.079208,319.445465 C144.056152,319.117157 144.033096,318.788849 144.010056,318.460541 C146.386871,317.449860 148.763672,316.439209 151.140488,315.428528 C151.163040,315.017578 151.185577,314.606598 151.208115,314.195648 C146.388519,313.679047 141.568924,313.162445 135.329193,312.493622 C140.609406,310.527008 144.602463,308.215881 148.834717,307.628601 C158.788757,306.247437 168.786774,303.082092 179.740952,305.867859 C176.792831,303.128601 173.844696,300.389374 170.985733,297.732971 C181.093216,298.613373 191.586807,303.615936 200.775253,312.114563 C201.357956,312.312317 201.526581,312.189697 201.695190,312.067078 C201.443390,312.077911 201.191605,312.088715 200.939804,312.099548 C200.714005,310.630463 200.488220,309.161377 200.291763,307.883118 C207.566437,310.825134 213.476242,318.135925 215.597855,327.874298 C213.655197,327.765503 212.055130,327.316772 209.109772,326.490814 C214.339020,330.593079 218.374466,333.758820 222.947601,337.346344 C229.128906,336.030334 235.068924,338.455994 237.896835,344.335052 C238.459518,345.504852 238.621933,348.146240 238.274750,348.277832 C234.591446,349.674042 230.823196,351.144714 226.957596,351.626892 C225.207474,351.845184 223.187180,349.897522 220.734268,348.650146 C218.428818,350.989197 215.212128,350.093506 212.095413,348.028595 C208.083008,345.370331 204.315216,342.301147 200.145401,339.930878 C191.442749,334.984070 182.623703,331.222748 173.066666,338.536011 C169.558701,341.220367 166.583359,343.878052 167.054565,348.606384 C167.465958,352.734558 169.690170,355.649780 173.835022,357.365570 C173.465942,355.047180 173.174164,353.214417 173.049072,352.428650 C179.386490,355.256012 185.875992,358.151215 191.655441,360.729645 C189.185410,362.005280 185.771225,363.768524 181.148102,366.156128 C185.216156,366.156128 187.907928,366.156128 190.206772,366.156128 C186.813690,370.478546 183.437759,374.779114 179.795044,378.960205 C179.456879,379.087097 179.385513,379.333435 179.314163,379.579834 C179.532654,379.375610 179.751144,379.171417 180.325058,379.039062 C182.247391,378.365387 183.814285,377.619904 185.926163,376.615082 C181.136292,385.928650 177.675583,394.848602 178.874420,404.933228 C180.124329,403.739258 180.557770,402.304779 180.987991,400.869324 C184.159302,390.288086 189.309830,380.967255 198.455170,374.377228 C200.145172,373.159454 202.445190,372.788208 204.690353,371.940643 C201.568344,368.539032 200.065475,364.145294 204.079269,359.767456 C207.379166,356.168243 211.735458,355.399658 216.443787,356.462799 C218.675568,356.966705 220.918701,357.420319 222.929947,358.164795 C223.072250,358.558197 223.441284,358.683563 223.810318,358.808960 C223.541779,358.538055 223.273254,358.267151 223.040787,357.600830 C225.999588,358.473572 228.922333,359.741760 231.817612,360.998016 C234.700546,360.998016 237.851654,360.998016 241.002747,360.998016 C244.685577,363.773468 247.831650,366.791199 245.682983,372.535278 C245.559982,373.386749 245.748764,373.760986 245.937561,374.135193 C246.254807,374.494965 246.572052,374.854767 247.273041,375.653809 C249.110809,378.394958 250.564835,380.696808 252.003632,383.372498 C252.092590,384.485504 252.196808,385.224731 252.215271,386.389343 C251.405182,387.137390 250.633896,387.813263 249.964294,387.724274 C246.204559,387.224487 242.463638,385.984161 238.726776,386.022369 C227.048920,386.141724 217.419876,391.658356 208.399185,398.471802 C207.345306,399.267792 206.388275,400.282928 205.213196,400.811523 C200.461761,402.948761 198.104462,405.612030 197.018707,409.803986 C203.155029,405.348267 209.512146,399.877167 216.644684,395.744324 C228.725586,388.744232 241.508194,385.293762 254.955841,392.601227 C255.314178,394.999939 255.672501,397.398682 255.642349,399.978516 C247.570236,393.753174 235.319855,393.968964 223.283478,400.822235 C228.335266,400.545868 233.230347,399.842468 238.067474,400.126312 C243.812393,400.463379 249.815262,401.052002 252.627884,407.508820 C252.345306,407.746643 252.291748,408.028076 252.544357,408.929901 C252.182816,413.673859 251.744110,417.840942 251.153915,422.364960 C247.254181,436.359406 239.965149,447.517670 227.955200,455.275238 C226.912872,455.948517 225.321243,455.771423 223.984756,455.989349 C224.412415,454.825592 224.840057,453.661804 225.267715,452.498047 C217.078613,455.870880 209.977234,460.427429 201.090607,461.684784 C205.128021,457.005127 208.610764,452.968384 212.440918,448.441956 C212.772842,447.670746 212.757324,447.389282 212.741791,447.107819 C212.332733,447.215729 211.923660,447.323608 211.514603,447.431458 C207.374725,448.487701 203.234863,449.543945 199.095001,450.600189 C198.937973,450.276794 198.780945,449.953400 198.623917,449.629974 C200.745361,447.936646 202.866806,446.243286 205.432831,444.195099 C175.209106,443.221649 163.740906,436.147369 159.537674,416.528320 C157.741653,420.969086 155.945633,425.409851 154.158600,429.828339 C149.768845,421.894592 150.124313,413.419281 153.209991,404.280518 C153.279312,403.619263 153.140442,403.460419 153.001556,403.301575 C153.035141,403.554382 153.068710,403.807159 153.102280,404.059967 C149.119385,407.920197 145.062897,411.708984 141.200058,415.685822 C140.094421,416.824097 139.549286,418.506866 137.735611,419.672241 C138.684814,415.529297 139.306244,411.274200 140.675140,407.274902 C142.052109,403.251984 144.172684,399.483612 145.321152,394.687073 C142.280426,396.819031 139.239700,398.950989 134.935486,401.968811 C138.158310,396.985962 140.596039,393.216919 143.033783,389.447906 C130.996475,394.548737 122.825516,403.547180 116.242409,414.291748 C118.690140,399.861206 124.855873,387.475281 136.138947,377.240906 C136.452942,376.663971 136.416306,376.479980 136.379669,376.295990 C136.257324,376.332367 136.032379,376.362915 136.029938,376.406097 C136.017624,376.622711 136.063553,376.842621 136.089020,377.061371 C133.144485,378.109924 130.199936,379.158447 126.940384,379.982056 C126.625374,379.757111 126.671951,379.780884 126.671951,379.780884 C129.415085,376.788452 132.158218,373.796051 135.377655,370.382202 C135.406006,369.740021 134.958038,369.519287 134.510071,369.298553 C125.773010,374.681610 117.035965,380.064697 108.408104,385.380493 C115.649002,371.594391 127.048813,361.595978 141.486496,352.899567 C138.504211,353.273315 136.795181,353.487518 133.542679,353.895142 C139.212204,348.705719 143.893005,344.421295 149.711868,339.095184 C144.859970,340.418427 141.294464,341.390808 137.363327,342.181030 C136.997696,341.998810 137.000900,342.000549 137.000900,342.000549 C138.505615,339.710205 140.010315,337.419830 141.515015,335.129486 C141.364426,334.780396 141.213852,334.431335 141.063263,334.082245 C136.725769,336.427765 132.388260,338.773285 127.605751,341.134979 C127.160751,341.151184 126.892906,340.899017 126.892906,340.899017 M228.449951,370.567017 C229.539795,370.977570 230.629654,371.388123 232.382645,372.048462 C228.807877,365.896149 223.766327,363.207550 217.864655,362.259979 C216.360703,362.018524 214.553711,363.664642 212.885971,364.443512 C213.820557,365.854736 214.446960,367.865845 215.759995,368.540405 C217.870575,369.624725 220.411270,369.983368 222.815872,370.344482 C224.408478,370.583649 226.080872,370.291412 228.449951,370.567017 M239.945755,371.222473 C240.813843,370.014648 241.681946,368.806824 242.550034,367.598999 C241.145309,366.911560 239.285599,365.282959 238.416367,365.703186 C235.045609,367.332672 235.196121,370.132751 237.287903,373.440613 C238.019135,372.605377 238.627075,371.910980 239.945755,371.222473 z"/><path fill="#0D1210" d="M180.061829,379.079712 C183.437759,374.779114 186.813690,370.478546 190.206772,366.156128 C187.907928,366.156128 185.216156,366.156128 181.148102,366.156128 C185.771225,363.768524 189.185410,362.005280 191.655441,360.729645 C185.875992,358.151215 179.386490,355.256012 173.049072,352.428650 C173.174164,353.214417 173.465942,355.047180 173.835022,357.365570 C169.690170,355.649780 167.465958,352.734558 167.054565,348.606384 C166.583359,343.878052 169.558701,341.220367 173.066666,338.536011 C182.623703,331.222748 191.442749,334.984070 200.145401,339.930878 C204.315216,342.301147 208.083008,345.370331 212.095413,348.028595 C215.212128,350.093506 218.428818,350.989197 220.734268,348.650146 C223.187180,349.897522 225.207474,351.845184 226.957596,351.626892 C230.823196,351.144714 234.591446,349.674042 238.274750,348.277832 C238.621933,348.146240 238.459518,345.504852 237.896835,344.335052 C235.068924,338.455994 229.128906,336.030334 222.947601,337.346344 C218.374466,333.758820 214.339020,330.593079 209.109772,326.490814 C212.055130,327.316772 213.655197,327.765503 215.630920,328.272217 C221.660660,331.195129 227.268066,334.157318 232.980560,336.900635 C240.291428,340.411591 242.969589,346.706909 243.899124,354.609375 C243.983719,355.012939 243.995651,354.980988 243.691772,355.060883 C243.240524,355.548370 243.093155,355.955994 242.945801,356.363586 C242.299988,357.687347 241.654190,359.011139 241.005569,360.666443 C237.851654,360.998016 234.700546,360.998016 231.817612,360.998016 C228.922333,359.741760 225.999588,358.473572 223.077301,357.573669 C223.077744,357.941956 223.156677,357.896729 223.156677,357.896729 C220.918701,357.420319 218.675568,356.966705 216.443787,356.462799 C211.735458,355.399658 207.379166,356.168243 204.079269,359.767456 C200.065475,364.145294 201.568344,368.539032 204.690353,371.940643 C202.445190,372.788208 200.145172,373.159454 198.455170,374.377228 C189.309830,380.967255 184.159302,390.288086 180.987991,400.869324 C180.557770,402.304779 180.124329,403.739258 178.874420,404.933228 C177.675583,394.848602 181.136292,385.928650 185.926163,376.615082 C183.814285,377.619904 182.247391,378.365387 180.349060,379.066406 C180.017624,379.021881 180.061844,379.079712 180.061829,379.079712 M200.475418,353.171326 C196.411880,354.823883 195.699524,352.504669 195.893341,348.768219 C193.265869,348.995911 190.776535,349.211670 187.793869,349.470154 C192.868866,355.622009 197.568008,356.746460 205.686646,353.609283 C203.501511,353.173279 202.278870,352.929352 200.475418,353.171326 z"/><path fill="#232424" d="M252.018890,382.998718 C250.564835,380.696808 249.110809,378.394958 247.468979,375.804138 C247.690247,375.393951 248.099319,375.272675 249.130463,374.984558 C250.834061,376.158722 251.915573,377.499817 253.074005,379.468781 C253.427551,380.410522 253.704163,380.724365 253.980774,381.038208 C253.980774,381.038208 254.123184,381.413269 253.856766,381.745728 C253.066528,382.385010 252.542709,382.691864 252.018890,382.998718 z"/><path fill="#232424" d="M254.995972,392.130249 C241.508194,385.293762 228.725586,388.744232 216.644684,395.744324 C209.512146,399.877167 203.155029,405.348267 197.018707,409.803986 C198.104462,405.612030 200.461761,402.948761 205.213196,400.811523 C206.388275,400.282928 207.345306,399.267792 208.399185,398.471802 C217.419876,391.658356 227.048920,386.141724 238.726776,386.022369 C242.463638,385.984161 246.204559,387.224487 249.964294,387.724274 C250.633896,387.813263 251.405182,387.137390 252.546600,386.391052 C253.624619,385.990936 254.285583,386.014435 254.946533,386.037964 C254.976395,387.911743 255.006256,389.785522 254.995972,392.130249 z"/><path fill="#0E1311" d="M252.838593,407.199890 C249.815262,401.052002 243.812393,400.463379 238.067474,400.126312 C233.230347,399.842468 228.335266,400.545868 223.283478,400.822235 C235.319855,393.968964 247.570236,393.753174 255.557678,400.346008 C254.924088,402.651886 253.986694,404.771423 252.838593,407.199890 z"/><path fill="#0E1311" d="M255.566055,408.808167 C255.520309,411.357544 254.726715,413.875153 254.740646,416.388336 C254.754395,418.871796 255.679184,421.394714 251.679565,421.994019 C251.744110,417.840942 252.182816,413.673859 252.711777,409.089478 C253.592010,408.706299 254.381958,408.740417 255.566055,408.808167 z"/><path fill="#011308" d="M254.961639,385.669922 C254.285583,386.014435 253.624619,385.990936 252.632355,385.965668 C252.196808,385.224731 252.092590,384.485504 252.003632,383.372498 C252.542709,382.691864 253.066528,382.385010 253.866455,381.946045 C254.420624,382.976593 254.698685,384.139221 254.961639,385.669922 z"/><path fill="#F9F9F8" d="M136.988464,341.994415 C136.923233,342.343903 136.867233,342.697784 136.811218,343.051666 C136.719849,342.740784 136.628494,342.429871 136.769012,342.059753 C137.000900,342.000549 136.997696,341.998810 136.988464,341.994415 z"/><path fill="#F9F9F8" d="M125.804955,341.734344 C125.804955,341.734344 125.777077,341.970367 125.777077,341.970367 C125.777077,341.970367 125.929199,342.003296 125.887115,341.899780 C125.845032,341.796234 125.804955,341.734344 125.804955,341.734344 z"/><path fill="#F9F9F8" d="M125.868294,341.824829 C126.000725,341.537323 126.174507,341.261902 126.652901,340.963135 C126.892906,340.899017 127.160751,341.151184 127.294632,341.279785 C127.069778,341.656708 126.711052,341.905090 126.078636,341.943909 C125.804955,341.734344 125.845032,341.796234 125.868294,341.824829 z"/><path fill="#F9F9F8" d="M126.601746,379.745911 C126.730217,379.972778 126.882324,380.210876 127.034439,380.448944 C126.897858,380.375397 126.761276,380.301849 126.648323,380.004578 C126.671951,379.780884 126.625374,379.757111 126.601746,379.745911 z"/><path fill="#161918" d="M228.083740,370.402039 C226.080872,370.291412 224.408478,370.583649 222.815872,370.344482 C220.411270,369.983368 217.870575,369.624725 215.759995,368.540405 C214.446960,367.865845 213.820557,365.854736 212.885956,364.443512 C214.553711,363.664642 216.360703,362.018524 217.864655,362.259979 C223.766327,363.207550 228.807877,365.896149 232.382645,372.048462 C230.629654,371.388123 229.539795,370.977570 228.083740,370.402039 z"/><path fill="#232424" d="M239.590393,371.219543 C238.627075,371.910980 238.019135,372.605377 237.287903,373.440613 C235.196121,370.132751 235.045609,367.332672 238.416367,365.703186 C239.285599,365.282959 241.145309,366.911560 242.550034,367.598999 C241.681946,368.806824 240.813843,370.014648 239.590393,371.219543 z"/><path fill="#E9E9E9" d="M200.765839,352.928345 C202.278870,352.929352 203.501511,353.173279 205.686646,353.609283 C197.568008,356.746460 192.868866,355.622009 187.793869,349.470154 C190.776535,349.211670 193.265869,348.995911 195.893341,348.768219 C195.699524,352.504669 196.411880,354.823883 200.765839,352.928345 z"/></svg>