<svg xmlns="http://www.w3.org/2000/svg" viewBox="844.8 523.2 224.6 247.8"><path fill="#468C29" d="M1015.048706,630.117371 C1031.694702,630.117371 1048.340576,630.117371 1065.456177,630.117371 C1065.456177,669.674622 1065.456177,708.875610 1065.456177,748.549072 C1053.703369,748.549072 1041.830078,748.549072 1029.251953,748.549072 C1029.251953,744.026062 1029.251953,739.497986 1029.251953,734.233276 C1016.096680,742.764282 1003.097290,749.144226 988.579773,752.291321 C920.600586,767.027344 866.500671,723.917236 855.031921,663.772034 C848.809265,631.138428 855.161499,600.778625 874.332397,573.576355 C891.770874,548.832458 916.083923,534.900574 945.989624,531.001831 C974.944702,527.226990 1002.040955,532.280151 1026.204102,549.506531 C1037.848389,557.808044 1047.505493,568.014526 1055.453735,580.919556 C1038.261230,592.057678 1021.277649,603.060425 1005.275024,613.427612 C997.099854,607.513855 989.639465,602.117126 982.023438,596.015503 C977.516479,579.709534 967.984985,567.905640 956.316040,563.609863 C957.582581,566.278442 958.875977,569.003723 960.783508,573.022949 C957.720764,571.057861 956.081360,569.626282 954.174744,568.856018 C949.097473,566.804626 943.905090,565.038147 938.955627,562.977905 C938.912354,562.644470 938.671936,562.491516 938.431458,562.338501 C938.579895,562.589294 938.728333,562.840088 939.045166,563.368774 C940.581665,565.041565 941.949768,566.436523 943.345459,567.824707 C943.372986,567.817871 943.427673,567.803040 943.080688,568.112549 C929.587402,564.574646 916.687073,564.811157 904.140503,570.514648 C908.874756,571.683960 913.569885,572.843628 918.265015,574.003235 C918.255127,574.398621 918.245178,574.794006 918.235291,575.189331 C915.958313,575.957397 913.681396,576.725464 910.437622,577.819641 C914.540894,578.800171 917.495789,579.506287 921.667480,580.503174 C909.842957,583.252502 900.611023,588.019653 893.764038,597.085449 C893.558472,597.344910 893.612366,597.536194 893.666260,597.727417 C893.787720,597.685059 894.014221,597.639771 894.013123,597.600708 C894.007080,597.379639 893.946472,597.159973 894.264771,597.141113 C898.918335,595.988770 903.211670,594.635132 907.505005,593.281494 C907.917847,593.917175 908.330688,594.552917 908.743530,595.188660 C906.608276,596.412720 904.472961,597.636780 902.337708,598.860901 C902.672485,599.190186 903.007324,599.519470 903.342163,599.848755 C907.253601,599.612061 911.165100,599.375305 915.609253,599.106323 C909.267273,603.432129 903.674866,607.246582 897.114380,611.721436 C899.722961,611.950134 900.809937,612.045410 901.934509,612.144043 C896.287781,615.971313 890.558716,619.373962 885.396790,623.488037 C880.221008,627.613159 875.610962,632.448059 870.752991,636.971863 C871.042725,637.242004 871.332397,637.512207 871.622131,637.782349 C879.623291,634.404602 887.624512,631.026855 895.733398,627.749756 C895.841064,627.850525 896.056091,628.052429 895.948364,628.373352 C892.531616,631.770020 889.222656,634.845764 885.655212,638.015625 C885.387207,638.355713 885.377808,638.601685 885.368347,638.847595 C885.747864,638.762146 886.127441,638.676697 886.843628,638.451721 C889.616699,637.430359 892.053162,636.548462 894.489563,635.666565 C885.466858,644.387024 878.683838,654.168213 874.781616,666.151489 C874.472351,666.608093 874.392578,666.914795 874.312805,667.221558 C874.548645,667.177002 874.985596,667.141296 874.988098,667.086365 C875.004944,666.705566 874.931335,666.320801 875.179504,666.193726 C881.149963,661.762756 886.827698,657.075317 892.719238,652.643372 C893.084961,653.060852 893.236816,653.222900 893.257446,653.696777 C891.601013,656.518311 890.075867,659.028198 888.364685,661.745972 C888.211304,662.214966 888.244080,662.475952 888.276794,662.737000 C888.542175,662.517578 888.807556,662.298157 889.408203,661.994812 C893.944153,659.433472 898.144714,656.956116 902.345337,654.478760 C897.209717,661.088135 893.663391,667.934814 892.253845,675.892639 C894.441162,674.408142 896.062927,672.532288 897.896118,670.892761 C899.643433,669.329956 901.611267,668.013733 904.213074,666.032593 C900.069885,678.381531 900.001160,684.312012 903.347778,691.067505 C904.747437,687.762207 906.274597,684.155823 908.161926,679.698914 C912.533691,704.932922 932.020203,710.176147 951.029236,716.741394 C948.403625,717.859863 945.810181,718.964661 943.216675,720.069458 C943.328186,720.703735 943.439636,721.337952 943.551086,721.972229 C950.207153,721.436279 956.863159,720.900330 963.683960,720.585083 C963.971924,720.941711 964.095215,721.077759 964.073853,721.522705 C961.703003,723.383789 959.476868,724.936035 956.899475,726.733215 C971.271912,725.763123 976.546631,724.064270 988.146057,716.993652 C1004.235657,715.756409 1016.910889,708.436829 1027.866699,697.677551 C1028.512817,697.043030 1029.066406,695.961914 1029.074219,695.083435 C1029.159180,685.331787 1029.127686,675.579163 1029.127686,665.098694 C1023.318909,665.098694 1018.059998,665.104309 1012.801147,665.097290 C1006.586609,665.088928 1004.628662,662.450134 1005.671387,656.223389 C1006.442139,651.620972 1005.895752,647.297546 1000.842041,645.139893 C1000.910828,645.120667 1000.913391,645.263367 1000.832031,644.927734 C1000.123230,644.432617 999.495850,644.273132 998.909546,644.099243 C998.950623,644.084778 998.939758,644.171265 998.870300,643.780273 C998.550537,641.309509 998.300232,639.229858 998.392334,637.052246 C1000.815125,634.965820 1002.895447,632.977356 1005.301880,630.840210 C1008.768250,630.500183 1011.908447,630.308777 1015.048706,630.117371 M891.817993,677.498901 C891.617798,677.484863 891.417542,677.470825 891.217346,677.456787 C891.309448,677.577148 891.401550,677.697510 891.817993,677.498901 z"/><path fill="#F9F9F8" d="M963.519226,720.364380 C956.863159,720.900330 950.207153,721.436279 943.551086,721.972229 C943.439636,721.337952 943.328186,720.703735 943.216675,720.069458 C945.810181,718.964661 948.403625,717.859863 951.029236,716.741394 C932.020203,710.176147 912.533691,704.932922 908.161926,679.698914 C906.274597,684.155823 904.747437,687.762207 903.347778,691.067505 C900.001160,684.312012 900.069885,678.381531 904.213074,666.032593 C901.611267,668.013733 899.643433,669.329956 897.896118,670.892761 C896.062927,672.532288 894.441162,674.408142 892.253845,675.892639 C893.663391,667.934814 897.209717,661.088135 902.345337,654.478760 C898.144714,656.956116 893.944153,659.433472 889.279480,661.857910 C888.815430,661.804993 888.550781,661.538025 888.550781,661.538025 C890.075867,659.028198 891.601013,656.518311 893.514526,653.504822 C893.437134,652.796753 892.971252,652.592346 892.505432,652.387878 C886.827698,657.075317 881.149963,661.762756 875.211426,666.208191 C874.950623,665.966248 875.011047,666.001709 875.011047,666.001709 C878.683838,654.168213 885.466858,644.387024 894.489563,635.666565 C892.053162,636.548462 889.616699,637.430359 886.703064,638.277466 C886.225830,638.242615 885.913757,637.921570 885.913757,637.921509 C889.222656,634.845764 892.531616,631.770020 896.230103,628.329895 C896.662537,627.745789 896.705444,627.526062 896.748352,627.306335 C896.374146,627.420593 895.999878,627.534851 895.625671,627.649048 C887.624512,631.026855 879.623291,634.404602 871.622131,637.782349 C871.332397,637.512207 871.042725,637.242004 870.752991,636.971863 C875.610962,632.448059 880.221008,627.613159 885.396790,623.488037 C890.558716,619.373962 896.287781,615.971313 901.934509,612.144043 C900.809937,612.045410 899.722961,611.950134 897.114380,611.721436 C903.674866,607.246582 909.267273,603.432129 915.609253,599.106323 C911.165100,599.375305 907.253601,599.612061 903.342163,599.848755 C903.007324,599.519470 902.672485,599.190186 902.337708,598.860901 C904.472961,597.636780 906.608276,596.412720 908.743530,595.188660 C908.330688,594.552917 907.917847,593.917175 907.505005,593.281494 C903.211670,594.635132 898.918335,595.988770 894.295471,597.158936 C893.965942,596.975464 894.023499,597.017212 894.023499,597.017212 C900.611023,588.019653 909.842957,583.252502 921.667480,580.503174 C917.495789,579.506287 914.540894,578.800171 910.437622,577.819641 C913.681396,576.725464 915.958313,575.957397 918.235291,575.189331 C918.245178,574.794006 918.255127,574.398621 918.265015,574.003235 C913.569885,572.843628 908.874756,571.683960 904.140503,570.514648 C916.687073,564.811157 929.587402,564.574646 942.820007,568.191528 C943.003418,568.197266 943.100464,568.433594 943.197510,568.669983 C943.237671,568.390503 943.277771,568.110962 943.317871,567.831482 C941.949768,566.436523 940.581665,565.041565 939.016235,563.386719 C938.818848,563.126831 938.758423,563.158447 938.758423,563.158447 C943.905090,565.038147 949.097473,566.804626 954.174744,568.856018 C956.081360,569.626282 957.720764,571.057861 960.783508,573.022949 C958.875977,569.003723 957.582581,566.278442 956.316040,563.609863 C967.984985,567.905640 977.516479,579.709534 981.895691,595.697510 C980.325378,595.245361 978.727234,594.406433 976.513306,593.313965 C975.304871,593.060486 974.712097,593.060486 972.771301,593.060486 C974.571777,593.865234 975.124817,594.112366 975.677795,594.359558 C980.134338,598.267883 984.703674,602.056641 989.011719,606.122375 C992.463135,609.379639 995.597107,612.973145 999.156189,617.101685 C999.691040,620.228455 1000.395996,622.743469 1000.022217,625.086365 C999.797302,626.496216 997.135498,628.876465 996.859558,628.707825 C994.221619,627.096313 993.341187,629.411621 991.778076,630.438965 C990.476990,631.294067 988.842163,631.641479 987.518616,632.150818 C987.080933,628.373230 986.694763,625.040344 986.308533,621.707458 C983.999512,631.686707 979.182129,633.708313 971.229614,627.488464 C966.779785,624.008118 962.802979,619.927551 958.402344,616.378784 C951.704834,610.977722 944.154724,607.876404 935.328247,608.927246 C934.939575,608.973450 934.583923,609.297302 934.039185,609.582886 C935.050171,609.986694 935.780823,610.278564 937.003906,610.767090 C930.593811,612.955383 923.983093,614.629028 923.728088,622.617004 C923.565491,627.710083 926.209167,631.442444 930.888916,634.007568 C930.888916,631.212341 930.888916,628.886353 930.888916,625.403870 C935.479919,634.244934 942.779053,637.815186 950.712158,640.974426 C946.955750,642.222778 943.658447,643.318542 939.646606,644.651733 C942.684326,645.349670 945.020935,645.886475 948.219910,646.621460 C944.231995,648.309937 940.878235,649.729919 937.314514,651.238831 C938.710144,651.681885 939.698303,651.995605 941.369263,652.526062 C936.538635,654.094299 932.317993,655.117859 928.399109,656.831482 C924.245178,658.647827 922.441528,662.502747 923.247986,667.456787 C926.137085,657.767212 933.583740,657.141846 941.607300,657.080811 C945.542297,657.050903 949.456482,655.859314 953.405823,655.430176 C955.165588,655.239014 956.988831,655.632080 959.161072,655.786987 C957.953430,650.164001 958.616394,644.275269 965.748352,641.408325 C972.168579,638.827332 977.681763,641.509277 983.175232,645.052002 C983.041992,643.270081 982.943970,641.959106 982.845947,640.648132 C983.260376,640.400024 983.674805,640.151917 984.089233,639.903809 C986.083862,642.236206 988.078552,644.568542 989.481812,646.209351 C992.786499,645.497192 995.863098,644.834229 998.939758,644.171265 C998.939758,644.171265 998.950623,644.084778 998.986389,644.461548 C999.652588,644.980042 1000.282959,645.121704 1000.913391,645.263367 C1000.913391,645.263367 1000.910828,645.120667 1000.740173,645.509277 C1004.202515,649.932617 1005.146057,654.261292 1002.119995,659.102356 C1001.801208,659.612427 1001.597534,660.691284 1001.887146,661.011047 C1006.761963,666.393005 1005.761475,672.562744 1004.604980,678.354309 C994.517029,679.903564 984.689270,681.464172 974.845032,682.912842 C959.464844,685.176208 944.604736,677.955872 937.082214,664.545654 C938.121521,664.266724 939.119263,663.998962 940.658386,663.585938 C933.228333,661.869995 931.702576,662.664673 930.873047,667.985229 C930.600464,668.245361 930.533752,668.622864 930.467041,669.000427 C930.639099,668.663635 930.811035,668.326904 931.328491,667.956299 C932.674011,666.417358 933.602417,665.081055 935.316345,667.337891 C937.127197,669.722290 939.395691,671.790894 941.000122,674.294922 C948.468018,685.949280 959.013184,688.670410 972.164307,686.603333 C982.307007,685.009033 992.692383,684.565247 1002.980408,684.433899 C1009.325867,684.352905 1009.959045,686.479370 1007.282776,690.676086 C995.631287,691.363159 984.958008,691.992615 974.284668,692.622070 C974.302185,693.045105 974.319763,693.468079 974.337280,693.891113 C983.358154,694.367249 992.592834,693.373596 1001.271729,697.286987 C999.194641,705.901245 993.833801,711.693665 987.694336,716.945984 C976.546631,724.064270 971.271912,725.763123 956.899475,726.733215 C959.476868,724.936035 961.703003,723.383789 964.337158,721.401062 C964.756592,720.726196 964.768066,720.481750 964.779541,720.237366 C964.359375,720.279724 963.939331,720.322021 963.519226,720.364380 M977.850830,659.193298 C981.903748,656.730652 984.698914,659.991211 988.639771,662.216309 C986.061768,655.289246 982.243835,650.910645 976.033142,649.320923 C974.441956,648.913696 972.337708,650.511353 970.469177,651.187927 C971.107300,652.923096 971.366211,654.981506 972.491272,656.301697 C973.593262,657.594727 975.577271,658.136108 977.850830,659.193298 M994.430603,654.151855 C993.553040,656.664001 992.675537,659.176208 991.607605,662.233582 C994.375671,660.721130 996.447754,660.230164 997.378540,658.925110 C998.668152,657.117065 999.099670,654.696960 999.898621,652.538940 C998.241882,652.896179 996.585083,653.253418 994.430603,654.151855 z"/><path fill="#0C100E" d="M998.870300,643.780273 C995.863098,644.834229 992.786499,645.497192 989.481812,646.209351 C988.078552,644.568542 986.083862,642.236206 984.089233,639.903809 C983.674805,640.151917 983.260376,640.400024 982.845947,640.648132 C982.943970,641.959106 983.041992,643.270081 983.175232,645.052002 C977.681763,641.509277 972.168579,638.827332 965.748352,641.408325 C958.616394,644.275269 957.953430,650.164001 959.161072,655.786987 C956.988831,655.632080 955.165588,655.239014 953.405823,655.430176 C949.456482,655.859314 945.542297,657.050903 941.607300,657.080811 C933.583740,657.141846 926.137085,657.767212 923.247986,667.456787 C922.441528,662.502747 924.245178,658.647827 928.399109,656.831482 C932.317993,655.117859 936.538635,654.094299 941.369263,652.526062 C939.698303,651.995605 938.710144,651.681885 937.314514,651.238831 C940.878235,649.729919 944.231995,648.309937 948.219910,646.621460 C945.020935,645.886475 942.684326,645.349670 939.646606,644.651733 C943.658447,643.318542 946.955750,642.222778 950.712158,640.974426 C942.779053,637.815186 935.479919,634.244934 930.888916,625.403870 C930.888916,628.886353 930.888916,631.212341 930.888916,634.007568 C926.209167,631.442444 923.565491,627.710083 923.728088,622.617004 C923.983093,614.629028 930.593811,612.955383 937.003906,610.767090 C935.780823,610.278564 935.050171,609.986694 934.039185,609.582886 C934.583923,609.297302 934.939575,608.973450 935.328247,608.927246 C944.154724,607.876404 951.704834,610.977722 958.402344,616.378784 C962.802979,619.927551 966.779785,624.008118 971.229614,627.488464 C979.182129,633.708313 983.999512,631.686707 986.308533,621.707458 C986.694763,625.040344 987.080933,628.373230 987.518616,632.150818 C988.842163,631.641479 990.476990,631.294067 991.778076,630.438965 C993.341187,629.411621 994.221619,627.096313 996.859558,628.707825 C997.135498,628.876465 999.797302,626.496216 1000.022217,625.086365 C1000.395996,622.743469 999.691040,620.228455 999.359253,617.388062 C1002.943481,617.609436 1002.943481,617.609436 1002.215454,622.390198 C1006.223083,624.714417 1010.393005,627.132751 1014.805786,629.834229 C1011.908447,630.308777 1008.768250,630.500183 1004.917725,630.843567 C1000.252808,631.143982 998.118896,633.114075 998.049927,637.150146 C998.300232,639.229858 998.550537,641.309509 998.870300,643.780273 M958.559692,635.593201 C960.311707,635.314453 962.063721,635.035767 963.815674,634.757019 C963.857483,634.277771 963.899231,633.798523 963.941040,633.319275 C962.388184,633.136658 960.802612,633.092224 959.290955,632.735168 C957.545715,632.322815 954.447571,631.762878 954.382874,631.046326 C953.891907,625.605225 950.189636,627.514832 946.891052,627.182678 C948.746460,632.869141 952.785461,634.823730 958.559692,635.593201 z"/><path fill="#09170D" d="M931.078918,668.102600 C931.702576,662.664673 933.228333,661.869995 940.658386,663.585938 C939.119263,663.998962 938.121521,664.266724 937.082214,664.545654 C944.604736,677.955872 959.464844,685.176208 974.845032,682.912842 C984.689270,681.464172 994.517029,679.903564 1004.604980,678.354309 C1005.761475,672.562744 1006.761963,666.393005 1001.887146,661.011047 C1001.597534,660.691284 1001.801208,659.612427 1002.119995,659.102356 C1005.146057,654.261292 1004.202515,649.932617 1000.671387,645.528442 C1005.895752,647.297546 1006.442139,651.620972 1005.671387,656.223389 C1004.628662,662.450134 1006.586609,665.088928 1012.801147,665.097290 C1018.059998,665.104309 1023.318909,665.098694 1029.127686,665.098694 C1029.127686,675.579163 1029.159180,685.331787 1029.074219,695.083435 C1029.066406,695.961914 1028.512817,697.043030 1027.866699,697.677551 C1016.910889,708.436829 1004.235657,715.756409 988.146057,716.993652 C993.833801,711.693665 999.194641,705.901245 1001.271729,697.286987 C992.592834,693.373596 983.358154,694.367249 974.337280,693.891113 C974.319763,693.468079 974.302185,693.045105 974.284668,692.622070 C984.958008,691.992615 995.631287,691.363159 1007.282776,690.676086 C1009.959045,686.479370 1009.325867,684.352905 1002.980408,684.433899 C992.692383,684.565247 982.307007,685.009033 972.164307,686.603333 C959.013184,688.670410 948.468018,685.949280 941.000122,674.294922 C939.395691,671.790894 937.127197,669.722290 935.316345,667.337891 C933.602417,665.081055 932.674011,666.417358 931.355225,667.982056 C931.036560,668.041626 931.078918,668.102600 931.078918,668.102600 z"/><path fill="#011307" d="M998.392334,637.052246 C998.118896,633.114075 1000.252808,631.143982 1004.591675,630.992188 C1002.895447,632.977356 1000.815125,634.965820 998.392334,637.052246 z"/><path fill="#F9F9F8" d="M874.918701,665.951782 C874.931335,666.320801 875.004944,666.705566 874.988098,667.086365 C874.985596,667.141296 874.548645,667.177002 874.312805,667.221558 C874.392578,666.914795 874.472351,666.608093 874.781616,666.151489 C875.011047,666.001709 874.950623,665.966248 874.918701,665.951782 z"/><path fill="#09170D" d="M1000.832031,644.927734 C1000.282959,645.121704 999.652588,644.980042 998.945312,644.476074 C999.495850,644.273132 1000.123230,644.432617 1000.832031,644.927734 z"/><path fill="#F9F9F8" d="M886.366394,638.416870 C886.127441,638.676697 885.747864,638.762146 885.368347,638.847595 C885.377808,638.601685 885.387207,638.355713 885.655212,638.015686 C885.913757,637.921570 886.225830,638.242615 886.366394,638.416870 z"/><path fill="#F9F9F8" d="M893.935181,596.957642 C893.946472,597.159973 894.007080,597.379639 894.013123,597.600708 C894.014221,597.639771 893.787720,597.685059 893.666260,597.727417 C893.612366,597.536194 893.558472,597.344910 893.764038,597.085449 C894.023499,597.017212 893.965942,596.975464 893.935181,596.957642 z"/><path fill="#F9F9F8" d="M888.944214,661.941895 C888.807556,662.298157 888.542175,662.517578 888.276794,662.737000 C888.244080,662.475952 888.211304,662.214966 888.364685,661.745972 C888.550781,661.538025 888.815430,661.804993 888.944214,661.941895 z"/><path fill="#F9F9F8" d="M891.655823,677.658325 C891.401550,677.697510 891.309448,677.577148 891.217346,677.456787 C891.417542,677.470825 891.617798,677.484863 891.655823,677.658325 z"/><path fill="#F9F9F8" d="M938.847778,563.108887 C938.728333,562.840088 938.579895,562.589294 938.431458,562.338501 C938.671936,562.491516 938.912354,562.644470 938.955627,562.977966 C938.758423,563.158447 938.818848,563.126831 938.847778,563.108887 z"/><path fill="#0E1311" d="M977.512451,659.100342 C975.577271,658.136108 973.593262,657.594727 972.491272,656.301697 C971.366211,654.981506 971.107300,652.923096 970.469177,651.187927 C972.337708,650.511353 974.441956,648.913696 976.033142,649.320923 C982.243835,650.910645 986.061768,655.289246 988.639771,662.216309 C984.698914,659.991211 981.903748,656.730652 977.512451,659.100342 z"/><path fill="#161918" d="M994.679443,653.881226 C996.585083,653.253418 998.241882,652.896179 999.898621,652.538940 C999.099670,654.696960 998.668152,657.117065 997.378540,658.925110 C996.447754,660.230164 994.375671,660.721130 991.607605,662.233582 C992.675537,659.176208 993.553040,656.664001 994.679443,653.881226 z"/><path fill="#09170D" d="M931.009766,668.015869 C930.811035,668.326904 930.639099,668.663635 930.467041,669.000427 C930.533752,668.622864 930.600464,668.245361 930.873047,667.985229 C931.078918,668.102600 931.036560,668.041626 931.009766,668.015869 z"/><path fill="#011307" d="M975.888672,594.114929 C975.124817,594.112366 974.571777,593.865234 972.771301,593.060486 C974.712097,593.060486 975.304871,593.060486 976.189087,593.204590 C976.353516,593.522583 976.226562,593.696411 975.888672,594.114929 z"/><path fill="#468C29" d="M895.733398,627.749756 C895.999878,627.534851 896.374146,627.420593 896.748352,627.306335 C896.705444,627.526062 896.662537,627.745789 896.337891,628.008972 C896.056091,628.052429 895.841064,627.850525 895.733398,627.749756 z"/><path fill="#468C29" d="M892.719238,652.643372 C892.971252,652.592346 893.437134,652.796753 893.645874,653.193115 C893.236816,653.222900 893.084961,653.060852 892.719238,652.643372 z"/><path fill="#468C29" d="M943.345459,567.824707 C943.277771,568.110962 943.237671,568.390503 943.197510,568.669983 C943.100464,568.433594 943.003418,568.197266 943.166992,567.881958 C943.427673,567.803040 943.372986,567.817871 943.345459,567.824707 z"/><path fill="#468C29" d="M963.683960,720.585083 C963.939331,720.322021 964.359375,720.279724 964.779541,720.237366 C964.768066,720.481750 964.756592,720.726196 964.481812,721.092224 C964.095215,721.077759 963.971924,720.941711 963.683960,720.585083 z"/><path fill="#E9E9E9" d="M958.170410,635.557495 C952.785461,634.823730 948.746460,632.869141 946.891052,627.182678 C950.189636,627.514832 953.891907,625.605225 954.382874,631.046326 C954.447571,631.762878 957.545715,632.322815 959.290955,632.735168 C960.802612,633.092224 962.388184,633.136658 963.941040,633.319275 C963.899231,633.798523 963.857483,634.277771 963.815674,634.757019 C962.063721,635.035767 960.311707,635.314453 958.170410,635.557495 z"/></svg>