<?xml version="1.0" encoding="UTF-8"?>
<svg xmlns="http://www.w3.org/2000/svg"
     width="1254" height="1254"
     viewBox="0 0 1254 1254"
     role="img" aria-labelledby="title desc">
  <title id="title">Green G with gorilla logo</title>
  <desc id="desc">A bright green capital G on a dark green background with a white and black gorilla head integrated into the letter.</desc>

  <defs>
    <radialGradient id="backgroundGradient" cx="50%" cy="47%" r="75%">
      <stop offset="0%" stop-color="#064929"/>
      <stop offset="100%" stop-color="#002d1b"/>
    </radialGradient>
    <linearGradient id="letterGradient" x1="0%" y1="0%" x2="100%" y2="100%">
      <stop offset="0%" stop-color="#5fb63b"/>
      <stop offset="100%" stop-color="#45a72f"/>
    </linearGradient>
  </defs>

  <g id="background">
    <rect width="1254" height="1254" fill="url(#backgroundGradient)"/>
  </g>

  <g id="letter-g">
    <path d="M 332 233 L 299 265 L 266 304 L 241 340 L 216 384 L 194 435 L 179 483 L 169 531 L 163 583 L 162 635 L 167 694 L 174 732 L 189 784 L 206 826 L 226 865 L 252 905 L 287 948 L 311 973 L 346 1004 L 374 1025 L 421 1054 L 455 1071 L 492 1086 L 538 1100 L 576 1108 L 627 1114 L 685 1114 L 724 1110 L 762 1103 L 803 1092 L 846 1076 L 891 1054 L 918 1037 L 920 1071 L 919 1092 L 1084 1092 L 1084 575 L 819 575 L 814 586 L 825 604 L 828 616 L 828 637 L 822 657 L 828 668 L 834 688 L 836 701 L 835 731 L 918 731 L 920 734 L 919 859 L 887 887 L 861 905 L 835 920 L 801 935 L 777 943 L 752 949 L 708 955 L 696 955 L 696 953 L 691 956 L 669 963 L 623 971 L 620 970 L 648 955 L 660 946 L 674 932 L 656 935 L 632 935 L 625 933 L 644 924 L 658 912 L 634 916 L 597 916 L 577 913 L 542 902 L 523 892 L 507 880 L 492 865 L 481 850 L 470 829 L 465 815 L 461 796 L 460 770 L 462 753 L 466 738 L 453 747 L 437 763 L 424 782 L 422 782 L 424 762 L 431 737 L 447 706 L 464 684 L 442 692 L 424 702 L 407 714 L 390 729 L 379 741 L 378 740 L 387 716 L 404 690 L 430 663 L 444 653 L 436 653 L 402 663 L 385 671 L 382 670 L 390 659 L 404 645 L 424 631 L 408 634 L 383 642 L 360 652 L 338 664 L 318 677 L 298 693 L 276 715 L 266 728 L 265 727 L 272 706 L 281 688 L 295 666 L 311 646 L 333 624 L 353 608 L 374 594 L 398 582 L 385 582 L 366 585 L 352 589 L 350 588 L 358 580 L 375 568 L 404 554 L 388 555 L 366 559 L 322 572 L 275 593 L 256 604 L 240 616 L 238 615 L 252 597 L 265 584 L 284 568 L 307 552 L 336 535 L 370 518 L 420 497 L 387 500 L 384 499 L 416 474 L 452 451 L 429 449 L 410 451 L 394 456 L 393 455 L 405 437 L 423 421 L 407 423 L 387 429 L 366 439 L 351 449 L 348 449 L 352 440 L 361 428 L 379 410 L 393 399 L 416 385 L 448 371 L 468 366 L 445 361 L 425 360 L 426 358 L 438 352 L 455 347 L 461 347 L 451 343 L 430 339 L 399 339 L 376 343 L 373 342 L 392 329 L 410 320 L 439 310 L 466 305 L 502 305 L 520 308 L 538 314 L 529 304 L 513 292 L 498 284 L 496 282 L 497 281 L 510 281 L 532 285 L 551 291 L 581 304 L 617 323 L 637 337 L 651 349 L 671 370 L 693 401 L 710 419 L 751 449 L 773 469 L 785 484 L 791 495 L 792 500 L 793 498 L 1041 342 L 1018 304 L 989 268 L 958 237 L 918 205 L 882 182 L 847 164 L 804 147 L 763 135 L 718 126 L 669 121 L 612 121 L 578 124 L 536 131 L 494 142 L 448 159 L 406 180 L 366 206 Z"
          fill="url(#letterGradient)"
          fill-rule="evenodd"/>
  </g>

  <g id="gorilla-white">
    <path d="M 663 763 L 655 779 L 668 773 Z M 803 729 L 790 721 L 784 719 L 781 723 L 778 717 L 764 714 L 740 714 L 736 715 L 734 719 L 730 716 L 720 718 L 716 720 L 713 732 L 710 735 L 701 725 L 684 733 L 676 739 L 676 744 L 681 755 L 680 768 L 697 762 L 703 750 L 705 742 L 710 735 L 719 742 L 730 738 L 734 732 L 737 735 L 764 734 L 776 736 L 779 732 L 783 738 L 802 743 Z M 635 528 L 634 530 L 637 531 Z M 589 516 L 596 530 L 604 538 L 614 544 L 624 547 L 639 547 L 650 543 L 644 537 L 638 540 L 629 540 L 625 538 L 618 529 L 626 529 L 620 522 L 622 519 L 617 516 L 609 514 L 596 514 Z M 497 282 L 524 299 L 539 314 L 538 315 L 528 311 L 502 306 L 466 306 L 452 308 L 432 313 L 410 321 L 392 330 L 374 342 L 399 338 L 430 338 L 451 342 L 461 345 L 462 347 L 438 353 L 426 360 L 445 360 L 458 362 L 469 366 L 445 373 L 426 381 L 393 400 L 379 411 L 362 428 L 353 440 L 348 450 L 366 438 L 382 430 L 407 422 L 423 420 L 424 421 L 415 428 L 401 443 L 394 455 L 410 450 L 429 448 L 452 449 L 453 451 L 416 475 L 385 498 L 387 499 L 420 496 L 421 497 L 419 499 L 370 519 L 336 536 L 307 553 L 284 569 L 265 585 L 239 615 L 275 592 L 322 571 L 366 558 L 396 553 L 405 554 L 375 569 L 358 581 L 351 588 L 377 582 L 399 582 L 374 595 L 353 609 L 333 625 L 312 646 L 296 666 L 282 688 L 273 706 L 266 727 L 275 715 L 298 692 L 318 676 L 338 663 L 360 651 L 383 641 L 408 633 L 424 630 L 424 632 L 404 646 L 391 659 L 382 671 L 402 662 L 420 656 L 443 651 L 445 653 L 430 664 L 405 690 L 388 716 L 378 741 L 390 728 L 415 707 L 442 691 L 464 683 L 465 685 L 455 696 L 442 716 L 432 737 L 426 757 L 423 782 L 436 763 L 453 746 L 465 738 L 466 743 L 463 753 L 461 770 L 463 802 L 471 829 L 482 850 L 493 865 L 507 879 L 523 891 L 542 901 L 568 910 L 597 915 L 634 915 L 658 911 L 659 913 L 647 923 L 626 933 L 656 934 L 674 930 L 675 932 L 660 947 L 648 956 L 633 965 L 621 970 L 669 962 L 706 949 L 728 938 L 747 926 L 761 915 L 780 896 L 797 873 L 807 853 L 813 835 L 813 816 L 805 808 L 789 801 L 758 796 L 731 797 L 711 801 L 707 800 L 733 791 L 767 785 L 794 785 L 811 788 L 831 798 L 835 782 L 834 772 L 816 763 L 794 759 L 769 759 L 737 764 L 692 777 L 651 793 L 575 830 L 558 840 L 556 838 L 567 821 L 586 797 L 620 762 L 658 732 L 696 711 L 723 702 L 743 699 L 755 699 L 785 704 L 796 708 L 815 718 L 818 711 L 816 691 L 810 675 L 794 652 L 802 639 L 804 631 L 802 615 L 794 601 L 787 594 L 779 589 L 773 587 L 762 587 L 748 595 L 740 577 L 731 568 L 719 563 L 716 563 L 722 571 L 727 582 L 726 583 L 711 572 L 693 564 L 673 563 L 659 568 L 650 574 L 641 583 L 633 598 L 631 609 L 634 624 L 640 635 L 637 635 L 631 630 L 625 632 L 605 646 L 585 665 L 571 682 L 554 708 L 539 739 L 531 762 L 530 757 L 533 740 L 544 702 L 561 664 L 577 639 L 542 655 L 540 654 L 564 634 L 590 608 L 603 591 L 579 591 L 565 588 L 567 586 L 574 586 L 592 582 L 576 578 L 576 576 L 593 575 L 614 569 L 599 566 L 581 560 L 556 547 L 536 530 L 526 516 L 525 532 L 532 550 L 530 551 L 524 547 L 513 536 L 505 522 L 503 514 L 503 499 L 505 491 L 512 478 L 525 465 L 534 459 L 549 454 L 537 451 L 519 451 L 521 449 L 534 445 L 553 443 L 579 447 L 591 451 L 611 461 L 638 480 L 684 522 L 694 529 L 702 532 L 713 531 L 718 528 L 723 522 L 729 508 L 730 493 L 733 497 L 736 508 L 736 525 L 734 533 L 730 540 L 740 544 L 749 544 L 756 541 L 767 530 L 769 531 L 769 535 L 766 546 L 774 545 L 788 539 L 794 525 L 793 504 L 784 484 L 772 469 L 751 450 L 710 420 L 692 401 L 663 362 L 637 338 L 603 316 L 561 296 L 539 288 L 523 284 Z M 782 611 L 788 616 L 790 620 L 790 630 L 788 636 L 781 644 L 778 638 L 773 643 L 768 652 L 763 641 L 763 627 L 765 621 L 773 612 Z M 677 600 L 686 593 L 698 593 L 714 600 L 725 608 L 740 624 L 747 637 L 750 647 L 748 648 L 735 638 L 723 632 L 713 630 L 718 638 L 716 639 L 691 629 L 680 620 L 676 613 L 675 605 Z"
          fill="#ffffff"
          fill-rule="evenodd"/>
  </g>

  <g id="gorilla-details">
    <path d="M 831 800 L 824 795 L 809 789 L 788 786 L 755 788 L 715 798 L 735 795 L 765 795 L 783 798 L 796 802 L 807 808 L 815 817 L 816 822 L 816 820 L 823 813 Z M 815 720 L 792 708 L 779 704 L 761 701 L 731 702 L 708 708 L 693 714 L 656 735 L 613 770 L 580 806 L 557 839 L 576 828 L 643 795 L 693 775 L 719 767 L 748 760 L 775 757 L 799 758 L 816 762 L 815 760 L 819 741 L 818 730 Z M 663 761 L 670 773 L 668 775 L 654 780 L 653 779 L 658 771 L 661 762 Z M 805 729 L 803 744 L 784 740 L 780 737 L 779 734 L 776 737 L 737 737 L 735 733 L 731 739 L 720 743 L 717 743 L 711 736 L 707 741 L 704 752 L 699 761 L 696 764 L 680 770 L 678 769 L 680 759 L 678 750 L 674 742 L 675 738 L 683 732 L 699 724 L 702 724 L 710 734 L 715 719 L 718 717 L 731 715 L 734 718 L 735 714 L 744 712 L 768 713 L 778 715 L 781 721 L 783 718 L 794 721 Z M 805 630 L 803 640 L 795 652 L 808 669 L 814 681 L 819 698 L 819 714 L 817 718 L 819 713 L 833 698 L 833 692 L 827 669 L 820 657 L 821 652 Z M 781 612 L 774 613 L 768 619 L 765 625 L 764 638 L 768 650 L 772 642 L 777 637 L 780 638 L 781 642 L 788 632 L 788 619 L 785 614 Z M 679 599 L 677 603 L 677 612 L 680 618 L 687 625 L 697 631 L 716 637 L 711 630 L 712 629 L 724 631 L 736 637 L 748 646 L 745 636 L 737 622 L 718 604 L 708 598 L 696 594 L 687 594 Z M 788 541 L 773 547 L 765 547 L 764 545 L 767 537 L 767 532 L 760 540 L 751 545 L 742 546 L 731 542 L 729 539 L 733 531 L 735 522 L 735 512 L 731 496 L 730 510 L 724 523 L 714 532 L 700 533 L 683 523 L 642 485 L 623 470 L 590 452 L 562 445 L 544 445 L 522 450 L 539 450 L 551 454 L 549 456 L 540 458 L 523 468 L 515 476 L 507 490 L 504 503 L 504 511 L 507 523 L 513 534 L 519 541 L 530 549 L 523 530 L 524 515 L 526 514 L 534 526 L 545 537 L 557 546 L 580 558 L 601 565 L 614 567 L 616 569 L 614 571 L 596 576 L 578 577 L 592 580 L 594 582 L 587 585 L 568 588 L 605 590 L 588 612 L 570 630 L 543 653 L 576 638 L 578 639 L 562 665 L 547 698 L 537 730 L 532 757 L 537 740 L 553 707 L 563 691 L 579 670 L 602 647 L 630 628 L 639 635 L 631 619 L 630 604 L 635 590 L 647 575 L 658 567 L 667 563 L 676 561 L 686 561 L 695 563 L 710 570 L 725 581 L 715 563 L 717 561 L 730 566 L 740 575 L 747 587 L 749 594 L 758 587 L 765 585 L 773 586 L 772 572 L 785 561 L 788 554 Z M 633 528 L 635 527 L 639 531 L 635 533 L 633 531 Z M 587 516 L 589 514 L 599 512 L 616 514 L 623 518 L 621 521 L 627 528 L 626 530 L 620 529 L 624 536 L 634 539 L 644 535 L 651 544 L 642 548 L 635 549 L 621 548 L 615 546 L 606 541 L 597 533 Z"
          fill="#111111"
          fill-rule="evenodd"/>
  </g>
</svg>
