<?xml version="1.0" encoding="UTF-8"?>
<svg xmlns="http://www.w3.org/2000/svg"
     width="1254" height="1254"
     viewBox="0 0 1254 1254"
     role="img" aria-labelledby="title desc">
  <title id="title">Green G with roaring gorilla logo</title>
  <desc id="desc">A bright green capital G on a dark green background with a white and black roaring gorilla head integrated into the letter.</desc>

  <defs>
    <radialGradient id="backgroundGradient" cx="50%" cy="47%" r="75%">
      <stop offset="0%" stop-color="#064929"/>
      <stop offset="100%" stop-color="#002d1b"/>
    </radialGradient>
    <linearGradient id="letterGradient" x1="0%" y1="0%" x2="100%" y2="100%">
      <stop offset="0%" stop-color="#5fb63b"/>
      <stop offset="100%" stop-color="#45a72f"/>
    </linearGradient>
  </defs>

  <g id="background">
    <rect width="1254" height="1254" fill="url(#backgroundGradient)"/>
  </g>

  <g id="letter-g">
    <path d="M 332 233 L 299 265 L 266 304 L 241 340 L 216 384 L 194 435 L 179 483 L 169 531 L 163 583 L 162 635 L 167 694 L 174 732 L 189 784 L 206 826 L 226 865 L 252 905 L 287 948 L 311 973 L 346 1004 L 374 1025 L 421 1054 L 455 1071 L 492 1086 L 538 1100 L 576 1108 L 627 1114 L 685 1114 L 724 1110 L 762 1103 L 803 1092 L 846 1076 L 891 1054 L 918 1037 L 920 1071 L 919 1092 L 1084 1092 L 1084 575 L 819 575 L 814 586 L 825 604 L 828 616 L 828 637 L 822 657 L 828 668 L 834 688 L 836 701 L 835 731 L 918 731 L 920 734 L 919 859 L 887 887 L 861 905 L 835 920 L 801 935 L 777 943 L 752 949 L 708 955 L 696 955 L 696 953 L 691 956 L 669 963 L 623 971 L 620 970 L 648 955 L 660 946 L 674 932 L 656 935 L 632 935 L 625 933 L 644 924 L 658 912 L 634 916 L 597 916 L 577 913 L 542 902 L 523 892 L 507 880 L 492 865 L 481 850 L 470 829 L 465 815 L 461 796 L 460 770 L 462 753 L 466 738 L 453 747 L 437 763 L 424 782 L 422 782 L 424 762 L 431 737 L 447 706 L 464 684 L 442 692 L 424 702 L 407 714 L 390 729 L 379 741 L 378 740 L 387 716 L 404 690 L 430 663 L 444 653 L 436 653 L 402 663 L 385 671 L 382 670 L 390 659 L 404 645 L 424 631 L 408 634 L 383 642 L 360 652 L 338 664 L 318 677 L 298 693 L 276 715 L 266 728 L 265 727 L 272 706 L 281 688 L 295 666 L 311 646 L 333 624 L 353 608 L 374 594 L 398 582 L 385 582 L 366 585 L 352 589 L 350 588 L 358 580 L 375 568 L 404 554 L 388 555 L 366 559 L 322 572 L 275 593 L 256 604 L 240 616 L 238 615 L 252 597 L 265 584 L 284 568 L 307 552 L 336 535 L 370 518 L 420 497 L 387 500 L 384 499 L 416 474 L 452 451 L 429 449 L 410 451 L 394 456 L 393 455 L 405 437 L 423 421 L 407 423 L 387 429 L 366 439 L 351 449 L 348 449 L 352 440 L 361 428 L 379 410 L 393 399 L 416 385 L 448 371 L 468 366 L 445 361 L 425 360 L 426 358 L 438 352 L 455 347 L 461 347 L 451 343 L 430 339 L 399 339 L 376 343 L 373 342 L 392 329 L 410 320 L 439 310 L 466 305 L 502 305 L 520 308 L 538 314 L 529 304 L 513 292 L 498 284 L 496 282 L 497 281 L 510 281 L 532 285 L 551 291 L 581 304 L 617 323 L 637 337 L 651 349 L 671 370 L 693 401 L 710 419 L 751 449 L 773 469 L 785 484 L 791 495 L 792 500 L 793 498 L 1041 342 L 1018 304 L 989 268 L 958 237 L 918 205 L 882 182 L 847 164 L 804 147 L 763 135 L 718 126 L 669 121 L 612 121 L 578 124 L 536 131 L 494 142 L 448 159 L 406 180 L 366 206 Z"
          fill="url(#letterGradient)"
          fill-rule="evenodd"/>
  </g>

  <g id="gorilla-white">
    <path transform="translate(-4961.00 -2089.33) scale(4.17508)" fill="#F7F8F7" d="M1285.023438,590.005737 C1286.705322,588.571228 1288.387085,587.136719 1290.638550,585.216309 C1286.442749,585.401855 1282.913940,585.557922 1279.385132,585.713928 C1279.287720,585.227112 1279.190308,584.740295 1279.093018,584.253540 C1283.067261,582.431519 1286.934692,580.301514 1291.046143,578.875122 C1295.065430,577.480896 1299.333496,576.804382 1304.568237,575.556335 C1301.099976,574.640320 1298.661499,573.996338 1295.088745,573.052734 C1298.254761,572.079407 1300.400269,571.419800 1304.176514,570.258789 C1298.599365,568.625061 1294.370850,567.386353 1290.142334,566.147705 C1290.102905,565.908325 1290.063354,565.669006 1290.023926,565.429688 C1297.361328,565.429688 1304.698730,565.429688 1312.531494,565.516846 C1313.438110,565.585876 1313.849243,565.567871 1314.260376,565.549805 C1313.851074,565.354614 1313.441650,565.159424 1313.032349,564.964233 C1311.956909,564.117737 1310.881348,563.271301 1309.805908,562.424805 C1309.871216,562.135437 1309.936523,561.846008 1310.001831,561.556580 C1315.390869,562.575439 1320.779907,563.594238 1327.336914,564.833923 C1324.010986,561.918701 1321.445312,559.669922 1318.351807,556.958496 C1328.542480,558.317017 1336.926880,562.444336 1345.265991,567.657410 C1344.855957,566.702759 1344.446045,565.748108 1344.082031,564.337341 C1344.128174,563.881226 1344.326294,563.701416 1344.326294,563.701416 C1353.024902,568.765503 1361.134033,574.361572 1363.298340,585.381592 C1362.387207,585.801453 1361.773804,585.893738 1361.198120,585.980286 C1363.689819,588.603882 1366.052856,591.091858 1367.265503,592.368774 C1372.530884,592.729004 1376.690430,593.013550 1380.849976,593.298096 C1380.849976,593.298096 1380.846558,593.173889 1380.649658,593.534363 C1381.251221,594.313660 1382.049561,594.732544 1382.848022,595.151428 C1382.848022,595.151428 1382.985474,595.053284 1382.939941,595.467102 C1384.035645,597.767578 1385.176758,599.654236 1386.364868,601.618530 C1382.245972,603.185303 1378.837036,604.481934 1375.324463,605.818054 C1375.179932,603.781738 1375.066162,602.180298 1374.932129,600.292236 C1373.404053,602.158264 1372.098267,603.752808 1370.516113,605.684753 C1369.907837,602.787842 1369.485352,600.776489 1369.062988,598.765198 C1367.567993,603.801453 1365.803101,604.976807 1361.400513,603.174805 C1359.118042,602.240540 1357.026489,600.829163 1354.875732,599.586487 C1350.572876,597.100586 1346.460449,594.205872 1341.962280,592.153198 C1331.423706,587.344177 1325.263916,592.371948 1317.354614,598.594360 C1316.382690,599.359070 1315.757568,600.748169 1315.316650,601.972107 C1313.518555,606.964478 1316.884033,612.383118 1321.548096,612.652893 C1321.214233,612.888062 1321.115845,613.019592 1321.017578,613.151123 C1321.271484,612.953979 1321.525269,612.756836 1321.453369,612.326416 C1321.127563,610.258789 1321.127563,608.424377 1321.127563,607.908691 C1327.276367,610.692383 1333.298584,613.418762 1338.504761,615.775696 C1337.217041,616.549988 1335.037964,617.860107 1332.005737,619.683167 C1334.433472,620.591248 1335.667603,621.052917 1337.149536,621.607239 C1331.916016,626.805542 1326.876221,631.811401 1321.504639,636.847534 C1320.852905,637.133667 1320.533081,637.389404 1320.213379,637.645142 C1320.969727,637.629456 1321.726196,637.613708 1322.810791,637.463867 C1325.550781,636.087341 1327.962524,634.844849 1330.181763,633.701477 C1326.883179,644.230225 1323.692139,654.415710 1320.501099,664.601196 C1321.111938,664.845764 1321.722778,665.090271 1322.333618,665.334839 C1323.156860,663.556702 1324.078125,661.816772 1324.787476,659.994324 C1329.432617,648.058838 1336.016357,637.371826 1345.494385,628.687744 C1347.090088,627.225647 1349.752197,626.927124 1351.984985,626.328003 C1352.490723,626.546753 1352.932861,626.528503 1353.375122,626.510254 C1353.035889,626.192261 1352.696655,625.874329 1352.160522,625.265259 C1347.617920,619.509705 1347.947266,614.092468 1353.601562,611.278137 C1356.588623,609.791443 1360.505615,609.982422 1364.021484,609.818604 C1366.255737,609.714539 1368.524658,610.349915 1370.383789,610.720642 C1370.122681,611.134338 1370.255493,611.481140 1370.388428,611.827881 C1370.477661,611.432922 1370.566895,611.038025 1370.679688,610.349976 C1372.566406,611.029175 1374.398560,612.069336 1376.305542,612.946716 C1377.348389,613.426575 1378.514893,613.893005 1379.630981,613.905945 C1382.025879,613.933838 1384.424194,613.663696 1386.821167,613.515625 C1387.980225,614.357605 1389.139160,615.199524 1390.702393,616.499756 C1391.722168,618.634277 1393.244629,620.633850 1392.783813,621.925964 C1391.388428,625.838196 1393.470337,627.943909 1395.896118,630.140442 C1395.896118,630.140442 1395.966431,630.055298 1395.945068,630.483765 C1396.494019,633.822327 1397.064209,636.732483 1397.810547,640.541626 C1383.411133,631.165649 1363.899536,631.320679 1351.189941,640.983582 C1327.710083,658.835022 1318.447021,683.348145 1319.250488,712.198120 C1319.304810,714.146179 1320.329346,716.067200 1320.902588,718.000854 C1321.592163,717.174500 1321.393677,716.594666 1321.324097,715.999756 C1321.252930,715.392090 1321.308350,714.769714 1321.308350,713.785217 C1329.503784,725.854553 1341.176270,727.406372 1353.755493,725.611633 C1356.342041,725.242615 1358.607910,722.626221 1361.406982,721.087585 C1361.421875,723.021729 1361.051270,724.913879 1360.680664,726.806091 C1360.680664,726.806091 1360.837402,726.886169 1360.535522,726.766785 C1359.795776,727.081604 1359.358032,727.515808 1358.920166,727.950012 C1358.920166,727.950012 1359.006104,727.880005 1358.574707,727.883728 C1351.717651,728.889771 1345.292114,729.892090 1338.136230,731.008301 C1343.063721,731.380310 1347.427246,731.709778 1351.790771,732.039185 C1345.065430,738.434692 1335.091064,740.507996 1323.510620,737.698914 C1325.131348,736.896973 1326.433716,736.252563 1327.696655,735.627686 C1322.743164,733.249329 1317.855713,730.902771 1313.036743,728.223267 C1313.105225,727.890320 1313.073608,727.936951 1313.073608,727.936951 C1314.824585,728.323608 1316.575562,728.710266 1318.326538,729.096924 C1307.766602,719.381226 1305.906616,706.554077 1304.474731,693.367554 C1304.192261,694.992676 1303.909668,696.617798 1303.596680,698.418274 C1295.806641,688.326233 1292.893555,677.507568 1297.540405,665.168579 C1297.034058,665.015381 1296.527832,664.862244 1296.021606,664.709045 C1292.736938,669.106201 1289.452271,673.503296 1286.112427,677.974243 C1285.903198,671.449829 1287.307129,665.320374 1291.110596,659.235474 C1291.247192,658.631165 1291.116211,658.500671 1290.985107,658.370117 C1291.034058,658.605164 1291.082886,658.840149 1291.131836,659.075195 C1286.545410,661.869690 1281.834351,664.484619 1277.429688,667.541199 C1275.488892,668.888062 1274.170654,671.132446 1272.186646,673.408936 C1272.677979,663.645752 1276.062378,655.679138 1282.205322,648.269348 C1282.450684,647.666626 1282.404419,647.475464 1282.358154,647.284241 C1282.235962,647.315796 1282.012085,647.338623 1282.008545,647.380310 C1281.990112,647.594666 1282.028320,647.813904 1282.046631,648.031372 C1275.728882,650.947327 1269.411133,653.863281 1263.591675,656.549194 C1266.083740,649.611694 1272.015747,643.826172 1277.884399,637.605652 C1275.052124,638.307617 1272.219849,639.009644 1269.387573,639.711609 C1269.229248,639.506348 1269.070923,639.301147 1268.912720,639.095886 C1272.201172,636.647949 1275.489624,634.200012 1278.778076,631.752075 C1278.584473,631.290344 1278.390869,630.828613 1278.197266,630.366882 C1273.342041,632.188660 1268.354492,633.726807 1263.667725,635.910400 C1258.776001,638.189514 1254.173950,641.090454 1248.552246,644.216003 C1256.220581,632.566772 1265.742065,624.490295 1277.198608,618.045044 C1274.387329,618.289856 1271.576172,618.534607 1267.349609,618.902649 C1271.922852,616.345032 1275.391724,614.405029 1278.860718,612.465027 C1278.693848,611.929077 1278.526978,611.393188 1278.360107,610.857300 C1268.960938,613.346985 1259.561890,615.836670 1250.213989,618.312805 C1260.126587,609.684204 1271.882080,604.172668 1284.311523,599.555786 C1282.292969,599.555786 1280.274414,599.555786 1278.255859,599.555786 C1278.172241,599.343445 1278.088501,599.131165 1278.004883,598.918823 C1283.934814,596.107605 1289.864624,593.296448 1296.383179,590.206177 C1292.517944,590.206177 1289.172241,590.206177 1285.402344,590.089478 C1284.978394,589.972717 1285.023438,590.005737 1285.023438,590.005737 M1370.556274,616.721436 C1369.798218,616.402466 1369.061646,616.011230 1368.278198,615.777344 C1365.247925,614.872559 1361.694214,613.547363 1360.372314,617.532654 C1360.092529,618.376099 1364.162354,621.626282 1366.588867,622.176392 C1370.187134,622.992188 1374.107422,622.387512 1378.601685,622.387512 C1376.116821,620.572449 1373.687988,618.798340 1370.556274,616.721436 M1386.630981,617.753052 C1382.177734,618.419189 1381.407349,620.909912 1383.065430,624.744141 C1389.931641,621.150696 1389.931641,621.150696 1386.630981,617.753052 M1279.457275,637.745056 C1279.562378,637.674316 1279.667603,637.603577 1279.772705,637.532776 C1279.682861,637.443604 1279.598877,637.292114 1279.501587,637.282898 C1279.403687,637.273621 1279.292358,637.406311 1279.457275,637.745056 z"/>
    <path transform="translate(-4961.00 -2089.33) scale(4.17508)" fill="#E1E1DF" d="M1384.460449,663.957520 C1374.801636,677.247864 1367.944946,691.485718 1364.000732,707.126282 C1363.268433,710.030701 1366.230469,713.310547 1362.666016,716.424072 C1361.716309,717.791077 1361.118774,718.635742 1360.505127,719.471252 C1360.488892,719.462036 1360.459961,719.438232 1360.459961,719.438232 C1358.751831,720.128174 1357.043701,720.818054 1355.154053,720.852661 C1354.524048,719.396912 1354.075317,718.596313 1353.626587,717.795776 C1354.181396,717.560364 1354.736206,717.324890 1355.677002,717.373169 C1356.298706,717.699036 1356.534546,717.741150 1356.770264,717.783203 C1356.712402,717.354797 1356.654663,716.926392 1356.596924,716.498047 C1357.109497,715.609680 1357.416016,714.421875 1358.178833,713.897095 C1359.641846,712.890442 1361.363892,712.260193 1362.955811,711.484802 C1362.431763,710.481750 1361.472290,709.528748 1361.616699,708.792297 C1365.146484,690.799438 1372.378784,674.493713 1384.084595,660.278015 C1384.387207,659.910461 1384.898438,659.714661 1385.629883,659.655029 C1385.484253,661.123779 1385.021240,662.376221 1384.460449,663.957520 z"/>
    <path transform="translate(-4961.00 -2089.33) scale(4.17508)" fill="#F7F8F7" d="M1313.124634,727.869873 C1312.875854,727.847961 1312.605469,727.864380 1312.341064,727.831909 C1312.276978,727.824097 1312.232910,727.654968 1312.179688,727.559998 C1312.395508,727.598938 1312.611450,727.637939 1312.950439,727.806946 C1313.073608,727.936951 1313.105225,727.890320 1313.124634,727.869873 z"/>
    <path transform="translate(-4961.00 -2089.33) scale(4.17508)" fill="#F7F8F7" d="M1284.958008,589.953674 C1284.874390,589.989136 1284.811279,590.043579 1284.885742,590.051880 C1285.023438,590.005737 1284.978394,589.972717 1284.958008,589.953674 z"/>
    <path transform="translate(-4961.00 -2089.33) scale(4.17508)" fill="#E1E1DF" d="M1386.213501,659.994873 C1386.254395,659.742798 1386.621704,659.544617 1387.092529,659.654297 C1386.977295,659.990967 1386.758545,660.019836 1386.213501,659.994873 z"/>
    <path transform="translate(-4961.00 -2089.33) scale(4.17508)" fill="#F7F8F7" d="M1344.030029,563.972107 C1343.721802,563.811523 1343.511841,563.560059 1343.302002,563.308594 C1343.544678,563.291809 1343.787476,563.275024 1344.178223,563.479858 C1344.326294,563.701416 1344.128174,563.881226 1344.030029,563.972107 z"/>
    <path transform="translate(-4961.00 -2089.33) scale(4.17508)" fill="#F7F8F7" d="M1332.031494,687.182861 C1331.548462,683.816956 1331.075806,680.922546 1330.609253,678.064392 C1338.272583,674.064697 1343.374756,678.397278 1345.789795,690.500061 C1345.789795,686.936523 1345.789795,683.373047 1345.789795,679.575745 C1351.444092,679.929626 1353.555176,683.691467 1353.758667,687.845093 C1354.031616,693.419067 1353.611206,699.160339 1352.501465,704.629517 C1351.477539,709.674561 1346.230713,712.218079 1341.631958,710.827881 C1340.544922,710.499207 1339.169189,710.044495 1338.617920,709.197571 C1334.758789,703.269592 1330.008789,697.585510 1332.036743,689.646912 C1332.196167,689.023010 1332.047607,688.320435 1332.031494,687.182861 z"/>
    <path transform="translate(-4961.00 -2089.33) scale(4.17508)" fill="#E9E9E9" d="M1391.490723,658.199829 C1391.229492,658.748230 1391.054688,659.031311 1390.853271,659.565796 C1390.433105,659.885803 1390.039307,659.954407 1389.347900,659.987671 C1388.569458,655.869141 1388.088745,651.785950 1387.500122,646.786438 C1382.012939,644.561707 1375.275024,643.417236 1368.106445,645.878052 C1367.037720,646.244934 1365.408203,644.978577 1364.496338,644.638672 C1362.144775,649.780945 1359.803345,654.900879 1357.462036,660.020813 C1357.078857,659.859253 1356.695801,659.697632 1356.312622,659.536011 C1355.427490,655.474792 1354.542480,651.413574 1353.318359,647.280090 C1352.979492,647.207825 1353.051514,647.271118 1353.051514,647.271118 C1352.715576,643.252319 1355.000732,640.950012 1358.476807,640.016663 C1360.152832,639.566711 1362.141113,640.280762 1364.515747,640.521118 C1364.657593,634.653992 1370.364990,638.108276 1373.332031,637.580261 C1377.998901,636.749817 1383.694336,637.093018 1387.872070,639.143982 C1395.068359,642.676941 1395.164429,645.058594 1392.398682,656.048218 C1392.069458,656.937927 1391.823242,657.436218 1391.490723,658.199829 z"/>
    <path transform="translate(-4961.00 -2089.33) scale(4.17508)" fill="#E9E9E9" d="M1353.204102,717.853760 C1354.075317,718.596313 1354.524048,719.396912 1354.995605,720.565063 C1350.801025,723.709717 1346.130859,723.238953 1341.670288,722.215210 C1337.556030,721.270935 1333.599976,719.566467 1329.647095,718.011658 C1325.845825,716.516418 1325.319336,711.889404 1328.576416,709.470947 C1328.814697,709.294006 1329.229370,709.372314 1329.505493,709.225586 C1331.658325,708.081787 1333.797363,706.911865 1336.757446,705.307251 C1336.039795,709.072632 1335.466309,712.081116 1334.822266,715.459839 C1340.942383,716.295410 1346.862061,717.103638 1353.204102,717.853760 z"/>
    <path transform="translate(-4961.00 -2089.33) scale(4.17508)" fill="#E1E1DF" d="M1352.952881,647.167969 C1351.765625,648.951599 1350.604980,650.775024 1349.444214,652.598450 C1348.712769,652.258911 1347.981323,651.919312 1347.249878,651.579712 C1347.896973,649.827515 1348.412720,648.001099 1349.319824,646.395813 C1349.472168,646.126221 1351.317993,646.813599 1352.716431,647.164978 C1353.051514,647.271118 1352.979492,647.207825 1352.952881,647.167969 z"/>
    <path transform="translate(-4961.00 -2089.33) scale(4.17508)" fill="#D7D7D7" d="M1351.070435,607.993835 C1346.625488,611.292542 1341.755249,610.697815 1335.771851,605.652039 C1338.499023,604.840271 1340.654053,604.198792 1343.008789,603.497864 C1342.968140,608.511353 1344.424194,609.384949 1348.117188,607.485718 C1348.767822,607.151123 1349.865479,607.685669 1351.070435,607.993835 z"/>
  </g>

  <g id="gorilla-details">
    <path transform="translate(-4961.00 -2089.33) scale(4.17508)" fill="#0E1311" d="M1361.021484,721.045654 C1358.607910,722.626221 1356.342041,725.242615 1353.755493,725.611633 C1341.176270,727.406372 1329.503784,725.854553 1321.308350,713.785217 C1321.308350,714.769714 1321.252930,715.392090 1321.324097,715.999756 C1321.393677,716.594666 1321.592163,717.174500 1320.902588,718.000854 C1320.329346,716.067200 1319.304810,714.146179 1319.250488,712.198120 C1318.447021,683.348145 1327.710083,658.835022 1351.189941,640.983582 C1363.899536,631.320679 1383.411133,631.165649 1397.810547,640.541626 C1397.064209,636.732483 1396.494019,633.822327 1395.892578,630.500854 C1396.717651,630.313293 1397.573975,630.537048 1398.739868,630.898071 C1400.997314,636.437988 1400.409424,641.664246 1398.022705,646.795044 C1396.511841,650.042786 1395.086182,653.330139 1393.160645,656.677490 C1392.699097,656.755127 1392.315796,656.439758 1392.398682,656.048218 C1395.164429,645.058594 1395.068359,642.676941 1387.872070,639.143982 C1383.694336,637.093018 1377.998901,636.749817 1373.332031,637.580261 C1370.364990,638.108276 1364.657593,634.653992 1364.515747,640.521118 C1362.141113,640.280762 1360.152832,639.566711 1358.476807,640.016663 C1355.000732,640.950012 1352.715576,643.252319 1352.716431,647.164978 C1351.317993,646.813599 1349.472168,646.126221 1349.319824,646.395813 C1348.412720,648.001099 1347.896973,649.827515 1347.249878,651.579712 C1347.981323,651.919312 1348.712769,652.258911 1349.444214,652.598450 C1350.604980,650.775024 1351.765625,648.951599 1353.291748,647.240234 C1354.542480,651.413574 1355.427490,655.474792 1356.312622,659.536011 C1356.695801,659.697632 1357.078857,659.859253 1357.462036,660.020813 C1359.803345,654.900879 1362.144775,649.780945 1364.496338,644.638672 C1365.408203,644.978577 1367.037720,646.244934 1368.106445,645.878052 C1375.275024,643.417236 1382.012939,644.561707 1387.500122,646.786438 C1388.088745,651.785950 1388.569458,655.869141 1389.043945,659.958374 C1389.037720,659.964417 1389.026123,659.975586 1389.026123,659.975586 C1388.623047,659.978516 1388.219849,659.981445 1387.402832,659.665466 C1386.621704,659.544617 1386.254395,659.742798 1385.887085,659.940918 C1385.887085,659.940918 1385.966064,659.948486 1385.639160,659.693604 C1384.898438,659.714661 1384.387207,659.910461 1384.084595,660.278015 C1372.378784,674.493713 1365.146484,690.799438 1361.616699,708.792297 C1361.472290,709.528748 1362.431763,710.481750 1362.955811,711.484802 C1361.363892,712.260193 1359.641846,712.890442 1358.178833,713.897095 C1357.416016,714.421875 1357.109497,715.609680 1356.425049,716.633667 C1356.253174,716.769287 1355.934937,717.070007 1355.613037,717.079712 C1354.736206,717.324890 1354.181396,717.560364 1353.204102,717.853760 C1346.862061,717.103638 1340.942383,716.295410 1334.822266,715.459839 C1335.466309,712.081116 1336.039795,709.072632 1336.757446,705.307251 C1333.797363,706.911865 1331.658325,708.081787 1329.505493,709.225586 C1329.229370,709.372314 1328.814697,709.294006 1328.576416,709.470947 C1325.319336,711.889404 1325.845825,716.516418 1329.647095,718.011658 C1333.599976,719.566467 1337.556030,721.270935 1341.670288,722.215210 C1346.130859,723.238953 1350.801025,723.709717 1355.177002,721.220276 C1357.043701,720.818054 1358.751831,720.128174 1360.614258,719.835327 C1360.852905,720.503357 1360.937134,720.774475 1361.021484,721.045654 M1332.042114,687.654419 C1332.047607,688.320435 1332.196167,689.023010 1332.036743,689.646912 C1330.008789,697.585510 1334.758789,703.269592 1338.617920,709.197571 C1339.169189,710.044495 1340.544922,710.499207 1341.631958,710.827881 C1346.230713,712.218079 1351.477539,709.674561 1352.501465,704.629517 C1353.611206,699.160339 1354.031616,693.419067 1353.758667,687.845093 C1353.555176,683.691467 1351.444092,679.929626 1345.789795,679.575745 C1345.789795,683.373047 1345.789795,686.936523 1345.789795,690.500061 C1343.374756,678.397278 1338.272583,674.064697 1330.609253,678.064392 C1331.075806,680.922546 1331.548462,683.816956 1332.042114,687.654419 z"/>
    <path transform="translate(-4961.00 -2089.33) scale(4.17508)" fill="#0D1210" d="M1386.843384,613.125366 C1384.424194,613.663696 1382.025879,613.933838 1379.630981,613.905945 C1378.514893,613.893005 1377.348389,613.426575 1376.305542,612.946716 C1374.398560,612.069336 1372.566406,611.029175 1370.708130,610.374878 C1370.713135,610.692871 1370.777954,610.653687 1370.777954,610.653687 C1368.524658,610.349915 1366.255737,609.714539 1364.021484,609.818604 C1360.505615,609.982422 1356.588623,609.791443 1353.601562,611.278137 C1347.947266,614.092468 1347.617920,619.509705 1352.052246,625.399475 C1352.140869,625.824768 1351.921509,626.090942 1351.921509,626.090942 C1349.752197,626.927124 1347.090088,627.225647 1345.494385,628.687744 C1336.016357,637.371826 1329.432617,648.058838 1324.787476,659.994324 C1324.078125,661.816772 1323.156860,663.556702 1322.333618,665.334839 C1321.722778,665.090271 1321.111938,664.845764 1320.501099,664.601196 C1323.692139,654.415710 1326.883179,644.230225 1330.181763,633.701477 C1327.962524,634.844849 1325.550781,636.087341 1322.656250,637.263062 C1322.061035,637.070007 1321.948730,636.943665 1321.836426,636.817322 C1326.876221,631.811401 1331.916016,626.805542 1337.149536,621.607239 C1335.667603,621.052917 1334.433472,620.591248 1332.005737,619.683167 C1335.037964,617.860107 1337.217041,616.549988 1338.504761,615.775696 C1333.298584,613.418762 1327.276367,610.692383 1321.127563,607.908691 C1321.127563,608.424377 1321.127563,610.258789 1321.402344,612.340332 C1321.677002,612.587341 1321.783691,612.549316 1321.783691,612.549316 C1316.884033,612.383118 1313.518555,606.964478 1315.316650,601.972107 C1315.757568,600.748169 1316.382690,599.359070 1317.354614,598.594360 C1325.263916,592.371948 1331.423706,587.344177 1341.962280,592.153198 C1346.460449,594.205872 1350.572876,597.100586 1354.875732,599.586487 C1357.026489,600.829163 1359.118042,602.240540 1361.400513,603.174805 C1365.803101,604.976807 1367.567993,603.801453 1369.062988,598.765198 C1369.485352,600.776489 1369.907837,602.787842 1370.516113,605.684753 C1372.098267,603.752808 1373.404053,602.158264 1374.932129,600.292236 C1375.066162,602.180298 1375.179932,603.781738 1375.324463,605.818054 C1378.837036,604.481934 1382.245972,603.185303 1386.364868,601.618530 C1385.176758,599.654236 1384.035645,597.767578 1382.881592,595.528198 C1387.946045,594.929871 1387.903076,599.023865 1388.885132,602.635742 C1384.205811,603.282776 1383.062012,604.985718 1384.962524,608.875549 C1385.592285,610.164246 1386.230957,611.448669 1386.843384,613.125366 M1350.756714,607.818909 C1349.865479,607.685669 1348.767822,607.151123 1348.117188,607.485718 C1344.424194,609.384949 1342.968140,608.511353 1343.008789,603.497864 C1340.654053,604.198792 1338.499023,604.840271 1335.771851,605.652039 C1341.755249,610.697815 1346.625488,611.292542 1350.756714,607.818909 z"/>
    <path transform="translate(-4961.00 -2089.33) scale(4.17508)" fill="#0E1311" d="M1395.929810,629.708374 C1393.470337,627.943909 1391.388428,625.838196 1392.783813,621.925964 C1393.244629,620.633850 1391.722168,618.634277 1390.989746,616.617676 C1392.456909,615.815186 1394.041138,615.353149 1395.625244,614.891174 C1396.305298,617.377136 1397.447388,619.847961 1397.529297,622.353455 C1397.604126,624.641602 1396.530884,626.967224 1395.929810,629.708374 z"/>
    <path transform="translate(-4961.00 -2089.33) scale(4.17508)" fill="#0D1210" d="M1380.828125,592.927917 C1376.690430,593.013550 1372.530884,592.729004 1367.265503,592.368774 C1366.052856,591.091858 1363.689819,588.603882 1361.198120,585.980286 C1361.773804,585.893738 1362.387207,585.801453 1363.362549,585.723572 C1369.418335,588.011230 1375.112305,590.284485 1380.828125,592.927917 z"/>
    <path transform="translate(-4961.00 -2089.33) scale(4.17508)" fill="#323232" d="M1352.163086,731.984497 C1347.427246,731.709778 1343.063721,731.380310 1338.136230,731.008301 C1345.292114,729.892090 1351.717651,728.889771 1358.538940,727.841309 C1356.801636,729.173401 1354.668579,730.551575 1352.163086,731.984497 z"/>
    <path transform="translate(-4961.00 -2089.33) scale(4.17508)" fill="#323232" d="M1361.406982,721.087524 C1360.937134,720.774475 1360.852905,720.503357 1360.614258,719.835266 C1360.459961,719.438232 1360.488892,719.462036 1360.885742,719.624268 C1361.816162,719.858643 1362.349854,719.930847 1362.883545,720.002991 C1365.083130,722.834595 1363.372070,724.815613 1361.049072,726.774902 C1361.051270,724.913879 1361.421875,723.021729 1361.406982,721.087524 z"/>
    <path transform="translate(-4961.00 -2089.33) scale(4.17508)" fill="#0E1311" d="M1390.857422,659.849365 C1390.557495,660.727051 1390.257568,661.604736 1389.957520,662.482422 C1389.627930,661.881836 1389.298462,661.281311 1388.997559,660.328125 C1389.026123,659.975586 1389.037720,659.964417 1389.341675,659.993713 C1390.039307,659.954407 1390.433105,659.885803 1390.834839,659.825562 C1390.842896,659.834045 1390.857422,659.849365 1390.857422,659.849365 z"/>
    <path transform="translate(-4961.00 -2089.33) scale(4.17508)" fill="#0E1311" d="M1362.947266,719.705261 C1362.349854,719.930847 1361.816162,719.858643 1360.901855,719.633484 C1361.118774,718.635742 1361.716309,717.791077 1362.585693,716.782471 C1362.896240,716.881042 1362.935059,717.143616 1363.031982,717.800659 C1363.063599,718.599365 1363.037354,719.003418 1362.947266,719.705261 z"/>
    <path transform="translate(-4961.00 -2089.33) scale(4.17508)" fill="#0D1210" d="M1382.988037,594.787354 C1382.049561,594.732544 1381.251221,594.313660 1380.594360,593.562683 C1381.533325,593.628113 1382.330566,594.025696 1382.988037,594.787354 z"/>
    <path transform="translate(-4961.00 -2089.33) scale(4.17508)" fill="#0E1311" d="M1392.890381,656.913208 C1392.926636,657.643066 1392.771484,658.214783 1392.183838,658.782715 C1391.751343,658.778931 1391.404297,658.465149 1391.490723,658.199829 C1391.823242,657.436218 1392.069458,656.937927 1392.315674,656.439697 C1392.315796,656.439758 1392.699097,656.755127 1392.890381,656.913208 z"/>
    <path transform="translate(-4961.00 -2089.33) scale(4.17508)" fill="#323232" d="M1359.244141,727.943359 C1359.358032,727.515808 1359.795776,727.081604 1360.556152,726.681274 C1360.441772,727.122314 1360.004883,727.529541 1359.244141,727.943359 z"/>
    <path transform="translate(-4961.00 -2089.33) scale(4.17508)" fill="#0E1311" d="M1391.923828,658.937012 C1391.872681,659.397339 1391.649048,659.699646 1391.141357,659.925659 C1390.857422,659.849365 1390.842896,659.834045 1390.861328,659.574219 C1391.054688,659.031311 1391.229492,658.748230 1391.404297,658.465210 C1391.404297,658.465149 1391.751343,658.778931 1391.923828,658.937012 z"/>
    <path transform="translate(-4961.00 -2089.33) scale(4.17508)" fill="#161918" d="M1370.907715,616.872803 C1373.687988,618.798340 1376.116821,620.572449 1378.601685,622.387512 C1374.107422,622.387512 1370.187134,622.992188 1366.588867,622.176392 C1364.162354,621.626282 1360.092529,618.376099 1360.372314,617.532654 C1361.694214,613.547363 1365.247925,614.872559 1368.278198,615.777344 C1369.061646,616.011230 1369.798218,616.402466 1370.907715,616.872803 z"/>
    <path transform="translate(-4961.00 -2089.33) scale(4.17508)" fill="#161918" d="M1387.046387,617.810730 C1389.931641,621.150696 1389.931641,621.150696 1383.065430,624.744141 C1381.407349,620.909912 1382.177734,618.419189 1387.046387,617.810730 z"/>
    <path transform="translate(-4961.00 -2089.33) scale(4.17508)" fill="#0D1210" d="M1322.327881,637.397095 C1321.726196,637.613708 1320.969727,637.629456 1320.213379,637.645142 C1320.533081,637.389404 1320.852905,637.133667 1321.504639,636.847656 C1321.948730,636.943665 1322.061035,637.070007 1322.327881,637.397095 z"/>
    <path transform="translate(-4961.00 -2089.33) scale(4.17508)" fill="#0D1210" d="M1352.249146,625.690552 C1352.696655,625.874329 1353.035889,626.192261 1353.375122,626.510254 C1352.932861,626.528503 1352.490723,626.546753 1351.984985,626.328003 C1351.921509,626.090942 1352.140869,625.824768 1352.249146,625.690552 z"/>
    <path transform="translate(-4961.00 -2089.33) scale(4.17508)" fill="#0E1311" d="M1356.425049,716.633667 C1356.654663,716.926392 1356.712402,717.354797 1356.770264,717.783203 C1356.534546,717.741150 1356.298706,717.699036 1355.999023,717.363525 C1355.934937,717.070007 1356.253174,716.769287 1356.425049,716.633667 z"/>
  </g>
</svg>
