<svg xmlns="http://www.w3.org/2000/svg" viewBox="78.7 40.5 163.7 282.1"><path fill="#F4F4F5" d="M189.982040,154.007294 C190.145645,153.441132 190.309250,152.874985 190.619446,151.713043 C194.803345,143.088074 198.840637,135.058884 202.839355,127.106438 C203.528137,127.996758 204.390671,129.111679 205.253204,130.226593 C205.634720,128.149429 205.581680,126.087044 204.582184,124.713219 C200.754486,119.451973 200.565796,113.190247 200.974243,107.447342 C201.417252,101.218475 204.062927,95.146255 205.882950,88.642151 C206.095367,87.507301 206.172913,86.736046 206.559662,86.046112 C212.105026,86.360252 209.364822,81.644348 210.921982,79.594620 C209.631668,79.055275 208.341339,78.515930 206.741974,77.837387 C204.029007,75.053055 201.625076,72.407921 199.221130,69.762787 C199.221146,69.762779 199.051758,69.941383 199.034286,69.494354 C195.874207,59.203663 199.165573,54.275692 208.292435,55.157166 C208.457260,55.173088 208.661011,55.096436 208.785629,55.168465 C209.709824,55.702618 210.618546,56.263527 211.532135,56.816029 C210.776215,57.956516 210.217651,59.808880 209.222076,60.084877 C207.324371,60.610966 205.177307,60.237495 202.996262,60.237495 C204.112381,62.074997 204.936523,64.952911 206.110199,65.103325 C211.469910,65.790154 213.695755,68.913742 214.909027,73.874069 C215.399521,72.053337 215.889999,70.232605 216.605438,67.576828 C219.535049,69.848343 222.212311,71.924187 224.810410,73.938652 C224.810410,72.010231 224.924988,70.268578 224.775726,68.549835 C224.646240,67.059029 224.217880,65.594185 223.884247,63.931656 C224.199524,63.685139 224.964386,63.087124 225.887268,62.363960 C226.244141,62.051399 226.396744,61.831837 226.698669,61.368492 C227.123917,60.633900 227.353592,60.110947 227.882751,59.431850 C232.685394,63.343578 229.603806,68.334663 229.843170,72.921516 C229.843170,72.921516 229.939209,72.932739 229.632446,73.083206 C227.506271,74.966667 225.686874,76.699661 223.981506,78.324028 C225.821121,78.905563 227.844315,79.545128 229.867493,80.184700 C229.867493,80.184700 229.871078,80.090630 229.775696,80.457771 C228.822586,81.017822 227.964859,81.210732 227.041931,81.418312 C228.280807,83.210419 229.378342,84.798058 230.791382,86.842087 C229.515839,86.742920 228.777924,86.685547 227.684097,86.600502 C230.091888,91.150658 232.310532,95.343391 234.342560,99.695297 C234.155930,99.854469 233.792542,100.184013 233.416351,100.132919 C232.845184,100.791000 232.346191,101.578621 232.505585,102.196381 C233.399734,105.662117 234.452667,109.086884 235.747025,113.543579 C234.113998,112.015091 233.356293,111.305885 232.690216,110.682449 C233.262451,116.335121 233.817184,121.814957 234.371918,127.294792 C234.069656,127.351006 233.767395,127.407211 233.465149,127.463417 C232.842545,126.280304 232.219955,125.097191 231.628723,123.973701 C230.996948,128.487656 230.637680,132.786118 229.666443,136.941513 C229.374069,138.192383 227.379929,139.045502 225.860840,139.826904 C225.192474,137.325455 224.828598,135.077957 224.352966,132.140045 C221.950104,135.566772 223.425690,140.152008 218.359116,141.241104 C216.110321,141.724503 216.977936,149.023224 219.036102,148.757706 C223.229126,148.216766 222.098984,151.289215 223.003006,153.077911 C223.531509,154.123596 224.290344,155.052856 225.150757,156.056946 C225.355942,156.079376 225.768005,156.054108 225.841171,156.457840 C225.886353,158.226746 225.858353,159.591919 225.467361,160.979767 C221.592728,162.482422 222.619781,165.334183 223.002380,168.250946 C222.726715,168.698761 222.441574,168.883926 221.867249,168.966797 C219.819855,169.593796 218.061646,170.323074 216.011810,171.173309 C216.011810,169.969254 216.011810,168.988678 216.204620,167.888641 C216.385635,167.438477 216.373856,167.107758 216.362061,166.777054 C216.237335,167.180588 216.112625,167.584122 215.689423,168.149689 C212.656219,171.685196 211.234238,176.484940 205.618042,176.932495 C205.129242,176.260406 204.928925,175.696976 205.044861,174.942871 C210.910477,164.859924 213.948029,154.567215 210.723969,144.464493 C209.722321,148.456238 208.606598,153.569977 207.137115,158.579971 C205.516342,164.105774 201.645844,167.759308 196.564758,170.279175 C196.167908,170.475983 196.163757,171.464600 195.657440,172.350616 C195.738831,180.077911 194.247528,187.449158 195.395355,195.064499 C196.158173,200.125488 193.831955,205.652084 192.528503,210.979233 C187.995926,213.325104 183.823242,215.661987 179.352615,218.165756 C180.140762,218.753586 180.987061,219.384811 182.076691,220.299774 C184.853912,221.273361 187.387817,221.963196 190.288345,222.752853 C190.652985,224.664658 191.167526,227.362274 191.727646,230.298920 C192.228195,229.845306 192.683289,229.432922 193.378296,229.044067 C193.618225,229.067627 194.098434,229.113770 194.098434,229.113770 C194.098434,229.113770 194.576706,229.050613 194.645752,229.454468 C192.936264,239.983429 191.157715,250.108551 189.384018,260.206085 C188.026138,259.884705 186.649414,259.558868 184.756119,259.110779 C184.756119,257.816559 184.756119,256.074615 184.756119,254.165359 C183.095306,257.711853 181.584183,260.938690 179.910828,263.953583 C179.201584,263.292206 178.107880,262.645264 178.188354,262.422516 C179.754211,258.088348 176.554276,257.674225 173.739212,256.547333 C172.157349,254.512253 170.606644,252.829117 169.040466,250.746796 C169.027145,249.548798 169.029312,248.749985 169.441910,247.996124 C171.725876,246.578140 173.599396,245.115173 175.203049,243.862946 C171.938782,244.110626 171.263641,240.672348 171.022430,238.729767 C168.910797,240.049133 166.748520,241.307037 164.720093,242.752762 C164.351974,243.015106 164.531906,244.046371 164.047089,244.832184 C159.977509,245.621750 156.319702,246.301834 152.727173,246.546509 C152.802094,244.455307 152.661179,242.782257 152.848709,241.146866 C153.490021,235.554153 158.094910,231.659317 164.225983,230.280930 C168.988571,229.210190 169.693909,232.231277 170.973007,235.380554 C171.186798,233.846268 171.400604,232.311966 171.607498,230.827255 C180.496231,230.435349 185.350006,236.628098 182.822266,244.387131 C182.250763,246.141403 182.966949,248.315201 183.159866,251.410950 C189.925507,236.082840 183.037323,229.076279 169.732147,225.997040 C165.712357,227.333542 160.707993,228.155350 156.659332,230.575745 C152.446182,233.094467 149.155899,237.156891 145.302139,240.690994 C149.965897,241.232254 150.032257,245.153152 151.172577,248.682800 C151.474121,249.481918 151.592300,250.047363 151.449402,250.794006 C150.354034,253.123230 149.519730,255.271271 148.696930,257.389648 C147.132767,256.581726 145.559967,255.769348 143.832581,254.627594 C139.596802,251.050735 136.805298,254.809570 133.570251,256.158813 C134.133163,256.761322 134.696091,257.363831 135.479614,258.240967 C134.087936,259.749817 132.475647,260.984039 130.921951,262.173401 C129.817001,261.356323 128.902527,260.680115 128.022415,259.643799 C128.940384,254.553848 129.823990,249.823959 131.010818,244.915482 C132.442230,243.178284 133.570404,241.619690 134.698578,240.061096 C134.257385,240.049530 133.816177,240.037964 133.374969,240.026398 C133.075546,236.672775 132.847137,233.310089 132.421326,229.972595 C132.327652,229.238419 131.532928,228.593658 131.051041,227.501556 C131.017624,225.732895 130.994217,224.370407 130.978699,222.657501 C130.986572,221.181137 130.986572,220.055176 130.986572,218.557648 C132.017044,219.302597 132.499741,219.651550 133.191132,220.260239 C135.450378,222.478271 137.500931,224.436554 139.727982,226.576630 C140.143646,226.723618 140.382812,226.688812 140.621979,226.654007 C140.431152,226.420776 140.240326,226.187561 140.090790,225.668182 C139.977753,225.031296 139.823410,224.680557 139.880264,224.073059 C140.223251,223.638107 140.355057,223.459915 140.810608,223.356232 C142.188568,223.802368 143.242752,224.174026 143.026093,224.097641 C144.403778,222.929306 145.015503,222.089859 145.829132,221.779190 C148.537384,220.745041 151.318146,219.900772 154.449280,219.033051 C156.534973,218.065033 158.242477,217.047638 160.306732,215.981796 C163.190018,214.626373 165.716568,213.319412 168.371292,212.390259 C167.272415,214.558914 166.045364,216.349762 165.007462,217.864563 C168.107071,218.048218 171.403030,218.243500 176.096756,218.521622 C168.296387,215.298477 171.586746,209.113754 170.325333,204.499832 C168.972763,199.552429 171.668304,195.625534 176.013245,193.214264 C182.672623,189.518524 183.290436,182.205261 183.152985,176.692032 C183.013458,171.094650 184.125488,167.249466 187.684692,163.645187 C187.994034,163.978745 188.120132,164.109955 188.383209,164.453033 C193.413727,164.524246 189.663437,161.575439 190.045685,159.969162 C190.071503,159.528381 190.097321,159.087585 190.109894,157.933182 C190.058441,156.148804 190.020248,155.078049 189.982040,154.007294 M224.541992,101.119217 C224.550140,105.160713 225.108246,109.300308 224.409775,113.215752 C223.728851,117.032829 221.524429,120.554199 220.469437,124.339333 C219.994492,126.043373 220.687698,128.072998 220.850891,129.954895 C226.516220,119.018814 229.498749,108.089005 223.304428,96.787460 C223.623611,97.999046 223.942810,99.210632 224.541992,101.119217 M216.527908,149.666641 C216.599045,149.735001 216.670166,149.803375 216.527908,149.666641 M161.502090,243.518814 C161.502090,243.518814 161.492432,243.483170 161.502090,243.518814 z"/><path fill="#EFEFEF" d="M178.968338,146.028427 C178.961685,146.349564 179.056702,146.637115 179.531967,147.369324 C180.119339,149.717209 180.428101,151.586823 180.655670,152.964813 C178.547424,153.300156 176.942703,153.160172 175.787460,153.814178 C172.484634,155.683899 170.871414,154.885132 170.595535,150.446121 C167.732376,155.977890 164.568329,153.626389 161.513184,151.450653 C159.364792,149.920639 157.506363,147.925262 155.232864,146.644775 C152.738968,145.240158 149.624786,145.055573 148.470169,148.195053 C147.512238,150.799728 143.680389,154.083069 149.187912,156.732666 C150.885620,157.549393 153.570480,159.495239 151.687103,162.738220 C150.890167,164.110474 150.709488,165.840637 150.042358,167.645538 C149.347229,168.848282 148.858429,169.813644 148.369629,170.778992 C148.682129,170.937576 148.994629,171.096161 149.307129,171.254745 C149.970016,170.260773 150.632904,169.266800 151.591003,168.100677 C153.896561,166.251587 156.369339,164.900391 157.825500,162.833099 C161.372055,157.798126 164.852570,156.058823 170.089066,157.788757 C172.019272,158.426422 174.618362,158.955246 175.519775,160.401611 C177.539154,163.641769 178.731964,167.408340 180.116745,171.016068 C180.262344,171.395416 179.442520,172.145325 178.906921,172.395630 C171.558914,167.825165 162.714951,169.248215 155.525085,175.845764 C155.110260,176.205643 154.936218,176.484955 154.442352,176.982391 C154.230408,177.564072 154.338272,177.927628 154.446136,178.291183 C154.910934,178.013702 155.375748,177.736221 155.940918,177.412613 C156.041275,177.366486 156.298462,177.013184 156.650665,176.876282 C163.785156,171.419617 171.111740,170.340622 179.267334,174.178482 C181.427979,178.317917 177.543213,189.259201 173.660919,190.595093 C172.882294,190.863022 171.637222,190.033203 170.993958,190.395752 C165.979568,193.221832 161.597198,190.202789 156.926529,189.233704 C148.073090,187.396790 144.653046,184.144287 143.133987,175.372162 C143.041473,174.837891 142.378204,174.402451 141.567917,173.861832 C140.997696,171.944794 140.840088,170.086975 140.680237,168.202957 C139.886581,168.459885 139.203934,168.680893 137.986221,169.075104 C138.407028,166.913986 138.737000,165.219376 139.156433,163.065353 C137.578049,163.398392 136.357864,163.655853 134.623489,164.021805 C135.496841,160.999756 136.185944,158.615219 136.988678,155.837540 C135.727722,156.175156 135.096848,156.344070 134.280334,156.311523 C133.967941,155.978577 133.841202,155.847076 133.857391,155.418518 C140.041687,152.420654 136.429077,146.458679 138.166214,142.675415 C137.116196,142.113800 136.084091,141.561768 135.052002,141.009750 C135.649414,140.575409 136.246826,140.141068 137.287781,139.330688 C139.516617,137.862610 141.301910,136.770538 143.087204,135.678482 C142.698914,135.311783 142.310608,134.945068 141.922302,134.578369 C142.627335,133.778656 143.332367,132.978928 144.393799,131.774948 C142.180176,131.774948 140.306824,131.774948 138.433487,131.774948 C138.371658,131.365936 138.309845,130.956909 138.248016,130.547897 C142.740356,129.508026 147.232697,128.468140 151.922256,127.382622 C150.872955,126.513771 149.676971,125.523468 148.481003,124.533165 C148.587585,124.245712 148.694168,123.958267 148.800751,123.670815 C153.843567,125.181953 158.886368,126.693085 163.929169,128.204224 C163.931641,128.518494 164.057770,128.771011 164.615967,129.325058 C165.695297,130.601181 166.466202,131.514023 167.237106,132.426865 C167.237106,132.426865 167.320114,132.659073 167.562866,133.039612 C169.278076,135.463058 168.181229,139.446548 172.357758,139.447083 C172.357758,139.447083 172.445953,139.569183 172.650833,139.871979 C173.971008,141.256821 175.086319,142.338867 176.201614,143.420914 C176.201614,143.420914 176.313721,143.680542 176.571625,143.943787 C177.226364,144.462067 177.623215,144.717072 178.020065,144.972076 C178.020065,144.972076 178.000000,145.000610 178.090271,145.226883 C178.364410,145.752686 178.627014,145.944443 178.968338,146.028427 M162.717926,160.938797 C162.925980,164.277603 162.925980,164.277603 170.498535,164.532700 C168.625076,161.901550 167.317581,158.865219 162.717926,160.938797 z"/><path fill="#0F0F0F" d="M204.728607,175.133560 C204.928925,175.696976 205.129242,176.260406 205.659073,177.301300 C204.876648,180.239883 203.764709,182.700974 202.652771,185.162079 C202.934998,185.282959 203.217239,185.403839 203.499466,185.524719 C205.453751,184.237106 207.408035,182.949478 210.292282,181.049149 C209.124146,184.321732 208.361130,186.459381 207.435577,188.773773 C207.354126,189.225098 207.435226,189.499680 207.516327,189.774246 C207.746292,189.586441 207.976227,189.398636 208.550735,189.170349 C210.879669,187.941162 212.864044,186.752457 214.848419,185.563751 C214.966888,190.460251 215.287521,195.364624 215.097748,200.249146 C215.028244,202.037933 213.080170,203.799438 213.131561,205.539642 C213.421112,215.343307 206.997391,222.246811 202.795471,230.073517 C202.075806,231.414017 199.896759,231.971039 198.118011,232.542206 C201.033463,226.987656 204.222778,221.780884 207.055862,217.155670 C206.927826,216.801804 207.190369,217.527405 207.870758,219.407883 C208.382568,216.440323 208.744110,214.595764 209.005249,212.737106 C209.165634,211.595734 208.791077,210.210449 209.312134,209.316833 C212.005325,204.697952 212.444946,198.221329 209.941833,194.023941 C208.728577,197.283325 209.404938,200.585175 207.063583,203.786133 C203.878769,208.140213 202.673950,213.940308 200.586853,219.106888 C200.492813,219.339676 200.071732,219.440353 199.735260,219.643448 C199.209656,218.563919 198.687881,217.492249 197.807663,215.684357 C197.121414,220.252380 196.353424,223.814240 196.132492,227.409714 C195.997360,229.608643 196.702393,231.859207 197.030121,234.086578 C195.507019,241.424774 194.050339,248.777710 192.425903,256.093414 C191.833099,258.763092 191.784653,260.797150 194.645584,262.361755 C210.644119,271.111176 213.686493,291.365875 206.723221,305.500824 C204.848572,309.306244 202.659897,312.956970 200.153595,316.709473 C199.691803,316.740234 199.375168,316.472015 199.512848,316.131622 C201.335678,312.482574 203.194351,309.247955 204.648224,305.840637 C205.712936,303.345337 206.245987,300.623230 207.114594,297.605164 C208.468399,290.298981 207.096725,283.641083 204.232605,277.494904 C202.305634,273.359772 201.173615,268.159882 195.729095,266.581299 C195.597198,266.543030 195.512360,266.342377 195.405609,266.217407 C191.626663,261.795105 188.899094,261.228546 183.905914,263.875977 C182.156982,264.803314 180.444855,265.800079 178.715927,266.765137 C178.608536,266.567017 178.501144,266.368927 178.393753,266.170807 C178.953506,265.502380 179.513275,264.833954 180.073059,264.165527 C181.584183,260.938690 183.095306,257.711853 184.756119,254.165359 C184.756119,256.074615 184.756119,257.816559 184.756119,259.110779 C186.649414,259.558868 188.026138,259.884705 189.384018,260.206085 C191.157715,250.108551 192.936264,239.983429 194.780258,229.194489 C194.809479,227.974380 194.773254,227.418121 194.675446,225.916672 C193.894516,227.493637 193.516449,228.257080 193.138382,229.020523 C192.683289,229.432922 192.228195,229.845306 191.727646,230.298920 C191.167526,227.362274 190.652985,224.664658 190.288345,222.752853 C187.387817,221.963196 184.853912,221.273361 182.314789,220.016068 C187.434845,218.617630 191.123901,215.994614 192.888428,210.970261 C193.831955,205.652084 196.158173,200.125488 195.395355,195.064499 C194.247528,187.449158 195.738831,180.077911 195.647797,172.727554 C196.806793,175.832748 197.655762,178.826385 198.592697,182.130188 C200.858215,179.546890 202.793411,177.340225 204.728607,175.133560 z"/><path fill="#0F0F0F" d="M139.669083,224.329834 C139.823410,224.680557 139.977753,225.031296 139.966217,225.778229 C139.800369,226.174454 139.551483,226.394836 139.551483,226.394836 C137.500931,224.436554 135.450378,222.478271 133.174683,219.879181 C130.896118,215.864304 128.842682,212.490234 126.458740,208.573059 C126.049301,212.991989 125.716812,216.580353 125.384331,220.168732 C125.020638,220.155945 124.656937,220.143173 124.293243,220.130386 C123.411667,217.886719 122.530083,215.643066 121.162827,212.163345 C120.849518,215.176056 120.677681,216.828430 120.505836,218.480820 C119.975380,218.638580 119.444923,218.796356 118.914474,218.954117 C116.865059,213.956436 114.815643,208.958740 112.771812,203.974670 C112.558083,204.209991 111.812874,205.030518 110.471313,206.507660 C109.956009,202.058838 109.538094,198.450836 109.120178,194.842850 C105.921295,201.078369 106.314690,207.531891 106.799767,214.621033 C107.785889,213.507721 108.249443,212.984390 108.633453,212.550842 C109.776375,217.413300 110.901649,222.200699 112.026932,226.988098 C107.379730,223.098358 105.369270,217.980652 104.985664,212.064255 C104.803955,209.261749 106.023491,206.114548 102.577927,204.054291 C101.989471,203.702423 102.486191,200.937897 102.990440,199.461777 C104.978302,193.642578 105.489952,188.177170 100.431961,183.499069 C100.043152,183.139450 100.148804,182.245239 100.328026,181.391953 C103.810585,183.773758 106.989738,186.363113 110.168892,188.952469 C110.408775,188.670685 110.648666,188.388901 110.888550,188.107117 C110.129883,185.577133 109.371216,183.047134 108.239204,179.272125 C111.054985,181.698364 112.775444,183.180832 114.725113,184.795792 C115.192986,184.870087 115.431656,184.811874 115.670319,184.753662 C115.538658,184.411774 115.406998,184.069870 115.275215,183.296799 C115.166862,180.600357 115.058624,178.335098 114.963478,176.050964 C114.976570,176.032089 115.001175,175.998703 115.336273,176.077164 C117.553474,178.301117 119.435570,180.446625 121.923279,183.282486 C123.252090,178.932053 124.284866,175.550812 125.586258,172.183563 C126.141495,172.987640 126.570221,173.756378 126.692574,174.571136 C127.815155,182.046570 128.884598,189.529984 129.923019,197.394287 C132.117905,210.128220 143.410187,219.531250 154.071106,218.983704 C151.318146,219.900772 148.537384,220.745041 145.829132,221.779190 C145.015503,222.089859 144.403778,222.929306 143.026093,224.097641 C143.242752,224.174026 142.188568,223.802368 140.537659,223.134216 C139.850327,223.335098 139.759705,223.832458 139.669083,224.329834 z"/><path fill="#181918" d="M179.070602,172.723297 C179.442520,172.145325 180.262344,171.395416 180.116745,171.016068 C178.731964,167.408340 177.539154,163.641769 175.519775,160.401611 C174.618362,158.955246 172.019272,158.426422 170.089066,157.788757 C164.852570,156.058823 161.372055,157.798126 157.825500,162.833099 C156.369339,164.900391 153.896561,166.251587 151.333527,167.879318 C150.603455,167.689453 150.426086,167.548798 150.248703,167.408127 C150.709488,165.840637 150.890167,164.110474 151.687103,162.738220 C153.570480,159.495239 150.885620,157.549393 149.187912,156.732666 C143.680389,154.083069 147.512238,150.799728 148.470169,148.195053 C149.624786,145.055573 152.738968,145.240158 155.232864,146.644775 C157.506363,147.925262 159.364792,149.920639 161.513184,151.450653 C164.568329,153.626389 167.732376,155.977890 170.595535,150.446121 C170.871414,154.885132 172.484634,155.683899 175.787460,153.814178 C176.942703,153.160172 178.547424,153.300156 180.655670,152.964813 C180.428101,151.586823 180.119339,149.717209 179.735229,147.478363 C183.345627,148.733246 181.672546,151.797760 181.702209,154.455475 C181.722321,156.257477 181.404709,158.665588 182.393143,159.723923 C184.219437,161.679382 186.913818,162.192184 189.695953,160.022003 C189.663437,161.575439 193.413727,164.524246 188.603928,164.275818 C188.646027,163.599319 188.604370,163.311935 188.562714,163.024567 C188.208954,163.164001 187.855209,163.303436 187.501450,163.442856 C184.125488,167.249466 183.013458,171.094650 183.152985,176.692032 C183.290436,182.205261 182.672623,189.518524 176.013245,193.214264 C171.668304,195.625534 168.972763,199.552429 170.325333,204.499832 C171.586746,209.113754 168.296387,215.298477 176.096756,218.521622 C171.403030,218.243500 168.107071,218.048218 165.007462,217.864563 C166.045364,216.349762 167.272415,214.558914 168.506927,212.002991 C167.730026,209.137878 166.945633,207.037796 166.228134,204.551331 C162.859528,195.449707 154.511505,193.278412 147.123672,189.842255 C147.097244,189.891663 147.203110,189.854904 147.190964,189.483063 C142.459152,186.414825 138.155838,183.435135 139.035004,176.678589 C139.021759,175.930710 138.909119,175.500961 139.157013,175.052979 C140.338547,174.663513 141.159531,174.292267 141.980515,173.921036 C142.378204,174.402451 143.041473,174.837891 143.133987,175.372162 C144.653046,184.144287 148.073090,187.396790 156.926529,189.233704 C161.597198,190.202789 165.979568,193.221832 170.993958,190.395752 C171.637222,190.033203 172.882294,190.863022 173.660919,190.595093 C177.543213,189.259201 181.427979,178.317917 179.290802,173.881851 C179.078247,173.119965 179.074417,172.921631 179.070602,172.723297 z"/><path fill="#DDDCDC" d="M112.010880,226.988190 C110.901649,222.200699 109.776375,217.413300 108.633453,212.550842 C108.249443,212.984390 107.785889,213.507721 106.799767,214.621033 C106.314690,207.531891 105.921295,201.078369 109.120178,194.842850 C109.538094,198.450836 109.956009,202.058838 110.471313,206.507660 C111.812874,205.030518 112.558083,204.209991 112.771812,203.974670 C114.815643,208.958740 116.865059,213.956436 118.914474,218.954117 C119.444923,218.796356 119.975380,218.638580 120.505836,218.480820 C120.677681,216.828430 120.849518,215.176056 121.162827,212.163345 C122.530083,215.643066 123.411667,217.886719 124.293243,220.130386 C124.656937,220.143173 125.020638,220.155945 125.384331,220.168732 C125.716812,216.580353 126.049301,212.991989 126.458740,208.573059 C128.842682,212.490234 130.896118,215.864304 132.965988,219.619446 C132.499741,219.651550 132.017044,219.302597 130.986572,218.557648 C130.986572,220.055176 130.986572,221.181137 130.636169,222.729523 C130.217667,225.009918 130.149567,226.867889 130.081451,228.725876 C130.407990,228.453156 130.734512,228.180450 131.061050,227.907730 C131.532928,228.593658 132.327652,229.238419 132.421326,229.972595 C132.847137,233.310089 133.075546,236.672775 133.374969,240.026398 C133.816177,240.037964 134.257385,240.049530 134.698578,240.061096 C133.570404,241.619690 132.442230,243.178284 130.690887,244.752533 C129.059769,241.243408 128.051804,237.718628 126.889290,233.653381 C126.371109,235.762299 125.984901,237.334091 125.416733,239.646469 C123.502708,236.692917 121.969650,234.327225 120.374802,231.866196 C119.873474,232.982208 119.472023,233.875900 119.070572,234.769577 C119.125916,234.472168 119.044380,234.218811 118.513611,233.585083 C116.704369,229.937332 115.207481,226.714005 113.808739,223.701996 C113.214973,224.780670 112.614449,225.871628 112.013931,226.962585 C112.013931,226.962585 111.994835,226.988266 112.010880,226.988190 M125.419212,221.074966 C125.304573,221.184830 125.106270,221.289368 125.098846,221.406052 C125.091431,221.522568 125.275146,221.651215 125.375076,221.774536 C125.489601,221.664688 125.604118,221.554855 125.419212,221.074966 z"/><path fill="#1C1C1C" d="M141.567917,173.861832 C141.159531,174.292267 140.338547,174.663513 138.899887,175.004181 C137.888351,174.638123 137.494492,174.302658 137.118835,173.577240 C135.942001,166.670486 133.368759,163.555939 129.068787,163.750549 C129.068787,160.160599 129.068787,156.582458 129.141113,152.668121 C128.748291,151.557877 128.283142,150.783844 127.849548,149.621918 C126.619453,146.947571 128.509949,143.025238 124.267319,142.014557 C123.883820,141.161118 123.506500,140.575699 123.108215,139.633881 C121.442024,137.055389 119.796791,134.833298 118.067963,132.287582 C116.972145,130.975418 115.959946,129.986908 115.062057,128.682861 C114.793289,128.335342 114.410194,128.303360 113.900940,128.040527 C113.893860,127.305458 114.012947,126.801231 114.427994,126.162720 C115.708084,123.491722 116.692207,120.955017 117.822304,118.074776 C117.998283,116.529655 118.028297,115.328072 118.357147,114.113098 C119.128677,112.843483 120.208672,111.455452 119.969559,110.353706 C118.900078,105.425987 117.454544,100.579895 116.171272,95.452477 C116.006462,94.738564 115.815163,94.276497 115.647369,93.380386 C115.670876,88.277290 115.670876,83.608246 115.670876,79.119263 C118.007301,76.438782 120.463745,73.620613 122.946548,71.101898 C122.981300,71.601593 122.989693,71.801819 122.998077,72.002052 C123.176498,75.414238 123.205338,78.747139 119.353531,80.443817 C118.945938,80.623360 118.411072,81.168098 118.417580,81.534843 C118.506592,86.547409 117.512482,91.966759 119.090126,96.480247 C121.901108,104.522194 123.140717,112.579987 120.955605,120.538307 C119.821678,124.668121 119.867439,128.520233 121.378609,131.664688 C123.294441,135.651184 126.839973,138.923630 130.031860,142.159637 C130.563889,142.699020 132.871384,141.487152 134.705231,141.047134 C136.084091,141.561768 137.116196,142.113800 138.166214,142.675415 C136.429077,146.458679 140.041687,152.420654 133.556046,155.579559 C133.171967,156.401581 133.232162,156.765472 133.292343,157.129379 C133.683548,156.923920 134.074768,156.718445 134.465973,156.512985 C135.096848,156.344070 135.727722,156.175156 136.988678,155.837540 C136.185944,158.615219 135.496841,160.999756 134.623489,164.021805 C136.357864,163.655853 137.578049,163.398392 139.156433,163.065353 C138.737000,165.219376 138.407028,166.913986 137.986221,169.075104 C139.203934,168.680893 139.886581,168.459885 140.680237,168.202957 C140.840088,170.086975 140.997696,171.944794 141.567917,173.861832 z"/><path fill="#151616" d="M94.977959,47.981194 C98.505119,45.763706 102.015686,43.478046 106.766151,45.670612 C107.779640,50.812584 108.523201,55.461952 109.131981,59.268543 C110.561584,57.285759 111.627052,54.422947 113.625359,53.421471 C115.671150,52.396202 118.630760,53.194332 121.034660,53.194332 C120.203484,51.065735 119.319443,48.801754 118.435394,46.537773 C119.591011,47.306789 121.427834,47.840488 121.788368,48.884159 C123.699814,54.417439 125.412262,60.037926 126.766869,65.729774 C127.043144,66.890625 125.491684,68.486450 124.341553,69.899147 C123.900337,69.916534 123.717392,69.750877 123.842667,69.315491 C123.936531,66.077042 123.682091,63.254246 123.927971,60.475727 C124.264999,56.667248 122.464546,55.418297 119.011208,55.534519 C117.859024,55.573296 116.666367,55.171150 115.551140,55.346157 C114.266678,55.547714 113.047470,56.165146 111.799927,56.601971 C112.614304,57.895542 113.155304,59.632938 114.323318,60.352398 C115.397560,61.014095 117.146553,60.580364 118.717545,60.739540 C118.836800,60.849876 119.075142,61.070721 118.965919,61.459030 C118.351295,63.075371 117.845886,64.303398 117.303566,65.621147 C112.140045,65.566093 109.973236,67.267838 107.067879,74.108604 C106.515930,73.304565 106.086533,72.679054 105.764664,71.683151 C104.525627,71.404823 103.179077,71.496887 101.508591,71.594391 C100.033157,73.365944 98.881653,75.132057 97.499496,77.048126 C97.507660,77.811943 97.746483,78.425804 97.609970,79.131897 C95.489037,79.630951 93.743431,80.037781 91.269516,80.614357 C92.765388,81.643089 93.385780,82.069748 93.913155,82.432434 C92.541588,86.284401 91.180664,90.106491 89.598648,94.025116 C89.130913,94.371460 89.039459,94.668976 88.886200,95.155060 C88.417313,95.527756 88.165428,95.759583 87.913544,95.991409 C87.735245,91.570770 87.555145,87.150185 87.386276,82.729179 C87.380531,82.578545 87.441154,82.366913 87.548721,82.278801 C93.591301,77.329010 90.892410,72.580643 87.269836,67.811043 C87.021469,67.484039 87.022163,66.806221 87.160164,66.371986 C88.855782,61.036507 90.598656,55.716042 92.801155,50.309128 C93.272995,50.226562 93.561829,50.468884 93.477905,50.771820 C94.344521,51.475636 95.295059,51.876518 95.956741,52.155575 C96.061760,53.614750 96.183960,55.312748 96.145782,57.339897 C95.083679,57.048668 94.181961,56.428291 92.811195,55.485210 C92.278427,62.395092 88.179077,68.892288 93.494751,74.511940 C96.266403,71.167076 98.879112,68.014030 101.588585,64.744202 C99.896545,63.574543 98.781799,62.803951 97.415947,61.859779 C98.981285,61.125565 100.093498,60.603882 101.475449,60.093880 C102.104622,60.086639 102.464050,60.067726 103.052391,60.378098 C106.164108,61.912071 106.844185,60.138309 106.835403,57.885799 C106.825188,55.265465 106.603439,52.640560 106.363708,50.027714 C105.951431,45.534161 104.514404,45.033745 100.167061,47.902542 C99.513962,47.986511 99.144203,48.064018 98.438095,48.107567 C97.227509,48.229702 96.353271,48.385799 95.354103,48.401421 C95.229172,48.260944 94.977959,47.981194 94.977959,47.981194 z"/><path fill="#DFDFDF" d="M114.495903,184.663284 C112.775444,183.180832 111.054985,181.698364 108.239204,179.272125 C109.371216,183.047134 110.129883,185.577133 110.888550,188.107117 C110.648666,188.388901 110.408775,188.670685 110.168892,188.952469 C106.989738,186.363113 103.810585,183.773758 100.336975,181.012970 C100.079758,180.533203 99.984299,180.273666 99.446663,179.651947 C98.059418,175.501419 96.981659,171.761887 96.157791,167.871445 C96.940269,167.147797 97.468857,166.575058 98.130157,166.263092 C98.806358,166.496094 99.349854,166.468292 99.893349,166.440491 C99.718666,165.176270 99.543983,163.912048 99.369301,162.647827 C99.694557,162.575150 100.019821,162.502472 100.345078,162.429794 C101.057678,163.628235 101.770279,164.826675 102.482880,166.025116 C102.794548,165.660278 103.106216,165.295441 103.417885,164.930618 C104.219765,165.602829 105.374153,166.116180 105.761330,166.975296 C107.283356,170.352524 107.926949,174.362808 113.418411,175.507538 C110.589088,164.847183 106.859123,154.712006 110.260117,144.007935 C110.679115,143.999344 110.846733,143.996506 111.018890,144.387665 C111.359734,146.850098 111.696037,148.918564 112.071991,151.376617 C112.738075,154.618805 113.143974,157.546783 114.082619,160.292633 C114.562599,161.696732 115.996773,162.774643 117.038193,164.341461 C118.375061,166.463486 119.673416,168.244034 121.069214,170.183777 C121.437889,170.225296 121.709114,170.107635 122.157814,169.748047 C122.891792,169.316330 123.448296,169.126526 124.020798,169.309433 C124.463745,170.511292 124.890694,171.340439 125.317642,172.169571 C124.284866,175.550812 123.252090,178.932053 121.923279,183.282486 C119.435570,180.446625 117.553474,178.301117 115.294106,175.819733 C114.716232,175.505585 114.515625,175.527313 114.315018,175.549042 C114.526810,175.722641 114.738594,175.896240 114.950378,176.069839 C115.058624,178.335098 115.166862,180.600357 115.069901,183.521912 C114.741776,184.339905 114.618835,184.501587 114.495903,184.663284 z"/><path fill="#0F0F0F" d="M95.903900,168.022354 C96.981659,171.761887 98.059418,175.501419 99.250656,179.565399 C97.800949,178.356110 95.349220,177.075607 94.827568,175.245087 C92.500870,167.080658 87.697502,159.117126 91.050407,150.186981 C93.353470,144.053009 89.082237,139.730240 86.776161,135.354172 C83.154633,128.481857 81.794991,121.554344 82.030655,114.035667 C82.122025,111.120674 81.666382,108.125801 82.200394,105.307632 C82.613823,103.125778 84.179779,101.162315 85.965363,99.097519 C87.135941,98.891891 87.574547,98.690506 88.461761,98.440689 C88.875343,99.241730 88.840340,100.091194 88.536728,101.138618 C87.972893,102.162071 87.677658,102.987579 87.195221,104.070824 C86.659752,105.551926 86.311485,106.775291 85.742035,108.413246 C86.016266,109.003471 86.511681,109.179100 87.227402,109.306160 C87.772011,109.548775 88.096329,109.839958 88.255569,110.422287 C87.314941,114.416107 86.407471,118.097473 85.804886,121.828087 C85.307411,124.907898 86.519035,125.140770 88.600677,123.546173 C88.678101,125.307213 88.752037,126.658638 88.695129,128.434540 C88.997429,130.903809 89.387634,134.705231 89.870491,134.717026 C93.939651,134.816513 92.366516,138.475174 93.651917,140.410614 C93.768715,141.213272 93.960289,141.739624 94.167488,142.363586 C94.183121,142.461166 94.260612,142.643417 94.248970,143.056931 C94.372337,144.286407 94.507355,145.102356 94.394844,146.158752 C93.672371,147.905762 93.197426,149.412354 92.572769,151.220093 C92.446686,151.744186 92.470291,151.967148 92.356956,152.423462 C92.267265,153.006256 92.314522,153.355667 92.253273,154.019104 C92.162033,155.211502 92.179283,156.089844 92.075462,157.343567 C92.647209,159.475082 93.340027,161.231247 93.982574,163.339478 C94.589500,165.135162 95.246704,166.578751 95.903900,168.022354 M84.319519,112.092888 C84.376038,112.493111 84.432556,112.893326 84.489082,113.293549 C84.689194,112.887886 84.889305,112.482224 85.822464,111.700325 C85.811562,111.069633 85.800652,110.438942 85.789749,109.808250 C85.453094,110.487648 85.116432,111.167046 84.319519,112.092888 z"/><path fill="#1C1C1C" d="M225.729233,62.489113 C224.964386,63.087124 224.199524,63.685139 223.884247,63.931656 C224.217880,65.594185 224.646240,67.059029 224.775726,68.549835 C224.924988,70.268578 224.810410,72.010231 224.810410,73.938652 C222.212311,71.924187 219.535049,69.848343 216.605438,67.576828 C215.889999,70.232605 215.399521,72.053337 214.909027,73.874069 C213.695755,68.913742 211.469910,65.790154 206.110199,65.103325 C204.936523,64.952911 204.112381,62.074997 202.996262,60.237495 C205.177307,60.237495 207.324371,60.610966 209.222076,60.084877 C210.217651,59.808880 210.776215,57.956516 211.532135,56.816029 C210.618546,56.263527 209.709824,55.702618 208.785629,55.168465 C208.661011,55.096436 208.457260,55.173088 208.292435,55.157166 C199.165573,54.275692 195.874207,59.203663 199.133179,69.421082 C198.191284,68.519791 196.110428,67.120163 196.248016,65.990807 C196.921066,60.466171 196.845001,54.551582 202.203857,50.192581 C203.692169,50.235229 205.120407,50.478817 205.113266,50.533016 C204.409851,55.864307 207.684357,52.760857 209.479507,52.994659 C209.695999,51.190926 209.869049,49.749130 210.196533,47.020443 C211.047424,50.348076 211.570679,52.288742 212.035873,54.243225 C212.511566,56.241642 212.930328,58.253609 213.373993,60.259644 C213.770782,60.311039 214.167557,60.362434 214.564331,60.413830 C215.007385,56.631874 215.450439,52.849918 216.252563,48.778671 C216.705200,51.508629 216.756317,54.530083 216.912796,57.546074 C216.977112,58.785946 217.268356,60.014042 217.456390,61.247494 C218.402756,60.372929 219.349350,59.498600 220.295441,58.623734 C220.886795,58.076874 221.477417,57.529205 222.058945,57.380089 C221.506668,60.130402 221.488510,62.121162 225.040070,61.986443 C225.415253,62.275902 225.572250,62.382507 225.729233,62.489113 z"/><path fill="#1C1C1C" d="M234.529175,99.536133 C232.310532,95.343391 230.091888,91.150658 227.684097,86.600502 C228.777924,86.685547 229.515839,86.742920 230.791382,86.842087 C229.378342,84.798058 228.280807,83.210419 227.041931,81.418312 C227.964859,81.210732 228.822586,81.017822 229.733292,80.478195 C230.516464,81.181885 231.569214,82.134956 231.920639,83.299652 C233.395111,88.186272 234.118561,93.370224 236.124741,98.009537 C239.334167,105.431412 236.059402,112.755699 236.702881,120.090950 C236.857254,121.850883 236.330887,123.703758 235.933395,125.472481 C234.870193,130.203354 235.133606,135.197525 231.104797,139.168106 C228.300781,141.931610 227.124847,145.748123 228.716324,150.188187 C230.904053,156.291809 228.651688,162.017822 225.627472,167.134644 C225.524261,164.834152 225.677322,162.895615 225.830383,160.957092 C225.858353,159.591919 225.886353,158.226746 225.934174,156.103424 C226.284897,154.226761 226.615814,153.108261 227.021240,151.573196 C226.785629,147.464691 226.475494,143.772751 226.165359,140.080826 C227.379929,139.045502 229.374069,138.192383 229.666443,136.941513 C230.637680,132.786118 230.996948,128.487656 231.628723,123.973701 C232.219955,125.097191 232.842545,126.280304 233.465149,127.463417 C233.767395,127.407211 234.069656,127.351006 234.371918,127.294792 C233.817184,121.814957 233.262451,116.335121 232.690216,110.682449 C233.356293,111.305885 234.113998,112.015091 235.747025,113.543579 C234.452667,109.086884 233.399734,105.662117 232.505585,102.196381 C232.346191,101.578621 232.845184,100.791000 233.464294,100.452591 C234.156387,101.123093 234.424332,101.422829 234.692276,101.722572 C234.637909,100.993759 234.583542,100.264946 234.529175,99.536133 z"/><path fill="#DDDCDC" d="M197.043076,233.845215 C196.702393,231.859207 195.997360,229.608643 196.132492,227.409714 C196.353424,223.814240 197.121414,220.252380 197.807663,215.684357 C198.687881,217.492249 199.209656,218.563919 199.735260,219.643448 C200.071732,219.440353 200.492813,219.339676 200.586853,219.106888 C202.673950,213.940308 203.878769,208.140213 207.063583,203.786133 C209.404938,200.585175 208.728577,197.283325 209.941833,194.023941 C212.444946,198.221329 212.005325,204.697952 209.312134,209.316833 C208.791077,210.210449 209.165634,211.595734 209.005249,212.737106 C208.744110,214.595764 208.382568,216.440323 207.870758,219.407883 C207.190369,217.527405 206.927826,216.801804 207.055862,217.155670 C204.222778,221.780884 201.033463,226.987656 197.737427,232.534744 C197.297546,233.006348 197.106003,233.249283 197.043076,233.845215 z"/><path fill="#181918" d="M205.748077,89.005730 C204.062927,95.146255 201.417252,101.218475 200.974243,107.447342 C200.565796,113.190247 200.754486,119.451973 204.582184,124.713219 C205.581680,126.087044 205.634720,128.149429 205.253204,130.226593 C204.390671,129.111679 203.528137,127.996758 202.839355,127.106438 C198.840637,135.058884 194.803345,143.088074 190.524353,151.431274 C188.631271,145.730911 190.570786,140.153732 194.659256,136.359955 C200.826553,130.637177 200.022598,124.264084 198.967285,117.262039 C198.467972,113.949043 198.607101,110.439011 199.069717,107.103233 C199.979340,100.544128 201.317200,94.044403 202.788055,87.586029 C203.981522,88.103203 204.864792,88.554466 205.748077,89.005730 z"/><path fill="#DFDFDF" d="M215.000443,185.318085 C212.864044,186.752457 210.879669,187.941162 208.399384,189.016251 C207.903458,188.902618 207.598114,188.597015 207.598114,188.597015 C208.361130,186.459381 209.124146,184.321732 210.292282,181.049149 C207.408035,182.949478 205.453751,184.237106 203.499466,185.524719 C203.217239,185.403839 202.934998,185.282959 202.652771,185.162079 C203.764709,182.700974 204.876648,180.239883 205.947571,177.409973 C211.234238,176.484940 212.656219,171.685196 215.695160,168.155548 C215.999344,167.999359 216.011810,168.008102 216.011810,168.008102 C216.011810,168.988678 216.011810,169.969254 216.011810,171.173309 C218.061646,170.323074 219.819855,169.593796 221.849777,169.291443 C222.095154,170.142288 222.068817,170.566193 221.878998,171.071442 C221.635590,171.242630 221.470428,171.379532 221.489792,171.414581 C221.600952,171.615982 221.755859,171.793274 221.888855,172.324280 C220.742325,175.732971 219.602844,178.796097 218.463379,181.859222 C217.359741,182.930283 216.256104,184.001343 215.000443,185.318085 z"/><path fill="#0F0F0F" d="M119.083786,235.129837 C119.472023,233.875900 119.873474,232.982208 120.374802,231.866196 C121.969650,234.327225 123.502708,236.692917 125.416733,239.646469 C125.984901,237.334091 126.371109,235.762299 126.889290,233.653381 C128.051804,237.718628 129.059769,241.243408 130.387665,244.931137 C129.823990,249.823959 128.940384,254.553848 127.801804,259.824524 C127.733398,261.979462 127.919968,263.593597 128.058456,265.566772 C126.998283,267.947418 125.986198,269.968994 124.727829,271.994202 C124.481552,271.997833 123.990005,272.030060 123.990005,272.030060 C123.882271,270.025604 123.552025,268.002167 123.721085,266.021332 C123.951180,263.325500 124.070015,260.454590 125.095764,258.020905 C129.514984,247.535904 128.956070,244.709290 120.340530,237.531326 C119.761238,237.048691 119.504013,236.179504 119.083786,235.129837 z"/><path fill="#1C1C1C" d="M163.903046,127.819809 C158.886368,126.693085 153.843567,125.181953 148.800751,123.670815 C148.694168,123.958267 148.587585,124.245712 148.481003,124.533165 C149.676971,125.523468 150.872955,126.513771 151.922256,127.382622 C147.232697,128.468140 142.740356,129.508026 138.248016,130.547897 C138.309845,130.956909 138.371658,131.365936 138.433487,131.774948 C140.306824,131.774948 142.180176,131.774948 144.393799,131.774948 C143.332367,132.978928 142.627335,133.778656 141.922302,134.578369 C142.310608,134.945068 142.698914,135.311783 143.087204,135.678482 C141.301910,136.770538 139.516617,137.862610 137.397919,139.072021 C134.677139,133.015930 134.784393,128.045776 142.864029,126.628723 C143.391388,126.536232 143.597549,124.995293 144.090622,124.215012 C144.566788,123.461494 145.085861,122.482834 145.820511,122.188858 C148.898483,120.957169 161.585266,124.751076 163.903046,127.819809 z"/><path fill="#E2E1E1" d="M118.425438,46.523975 C119.319443,48.801754 120.203484,51.065735 121.034660,53.194332 C118.630760,53.194332 115.671150,52.396202 113.625359,53.421471 C111.627052,54.422947 110.561584,57.285759 109.131981,59.268543 C108.523201,55.461952 107.779640,50.812584 107.142792,45.776150 C107.249519,45.389088 107.174301,45.376225 107.583755,45.303699 C108.999283,45.116013 110.005356,45.000847 111.011436,44.885685 C111.011436,44.885685 111.334045,45.113884 111.787529,45.411995 C114.288780,45.972073 116.336540,46.234039 118.384308,46.496006 C118.384308,46.496006 118.415482,46.510181 118.425438,46.523975 z"/><path fill="#DDDCDC" d="M215.893494,49.067966 C215.450439,52.849918 215.007385,56.631874 214.564331,60.413830 C214.167557,60.362434 213.770782,60.311039 213.373993,60.259644 C212.930328,58.253609 212.511566,56.241642 212.035873,54.243225 C211.570679,52.288742 211.047424,50.348076 210.196533,47.020443 C209.869049,49.749130 209.695999,51.190926 209.479507,52.994659 C207.684357,52.760857 204.409851,55.864307 205.113266,50.533016 C205.120407,50.478817 203.692169,50.235229 202.513611,50.021679 C203.201004,48.690155 204.308823,47.417007 206.036942,46.004539 C207.111679,45.855118 207.566132,45.845020 208.020569,45.834923 C208.020569,45.834923 208.318909,46.082474 208.633362,46.404575 C209.330963,46.505608 209.714111,46.284542 210.097275,46.063477 C210.097275,46.063473 210.021805,46.027527 210.246429,46.016403 C210.773056,45.991528 211.037888,45.885216 211.265564,45.686352 C211.265564,45.686352 211.459900,45.687580 211.879272,45.574715 C213.421066,45.460709 214.543518,45.459568 215.665955,45.458431 C215.665955,45.458431 215.825729,45.216442 215.810699,45.562202 C215.876053,46.236622 215.956421,46.565285 216.052292,47.108879 C216.067795,47.323807 216.052307,47.754505 215.872375,47.934998 C215.806305,48.435360 215.920151,48.755230 215.997955,49.091171 C215.961929,49.107246 215.893494,49.067966 215.893494,49.067966 z"/><path fill="#262627" d="M123.727066,272.275330 C123.990005,272.030060 124.481552,271.997833 124.733536,272.345764 C125.489128,273.772491 125.992752,274.851318 126.285614,276.202148 C125.560516,278.518524 125.046181,280.562897 124.370743,282.923340 C124.209633,284.331573 124.209633,285.423706 124.209633,286.515869 C124.361130,286.529602 124.512627,286.543304 124.664124,286.557037 C124.909821,285.475189 125.155525,284.393372 125.603584,283.072510 C126.053307,282.496918 126.300674,282.160339 126.548050,281.823792 C126.674156,281.918152 126.887955,281.993134 126.913689,282.109680 C127.822609,286.225800 128.713898,290.345856 129.462341,294.592834 C129.317047,294.720337 129.025909,294.974731 129.025909,294.974731 C128.507248,294.344452 128.069687,293.618713 127.457413,293.098663 C121.303719,287.871765 119.855751,280.489777 123.727066,272.275330 z"/><path fill="#E5E4E4" d="M216.052307,47.754505 C216.052307,47.754505 216.067795,47.323807 216.336365,47.174755 C217.077927,46.696381 217.550903,46.367058 218.023895,46.037731 C218.764450,46.040726 219.505020,46.043720 220.797195,46.191410 C221.348816,46.336105 221.823822,46.449677 221.823822,46.449677 C221.819153,46.703632 221.908524,46.918472 222.361191,47.623821 C223.071121,48.511944 223.511795,48.870438 223.941010,49.325943 C223.929565,49.422951 224.042252,49.793232 223.611084,49.684334 C222.769485,52.064899 222.359024,54.554363 221.989685,57.049927 C222.030792,57.056034 222.068375,56.981899 222.068375,56.981903 C221.477417,57.529205 220.886795,58.076874 220.295441,58.623734 C219.349350,59.498600 218.402756,60.372929 217.456390,61.247494 C217.268356,60.014042 216.977112,58.785946 216.912796,57.546074 C216.756317,54.530083 216.705200,51.508629 216.252563,48.778671 C215.893494,49.067966 215.961929,49.107246 216.250427,48.764435 C216.376709,48.199253 216.214508,47.976879 216.052307,47.754505 z"/><path fill="#1C1C1C" d="M230.193024,72.767570 C229.603806,68.334663 232.685394,63.343578 227.662445,59.213409 C226.988602,59.013088 226.834549,58.875065 226.767593,58.374451 C227.565735,55.344528 228.276794,52.677208 229.042267,49.960529 C229.096680,49.911171 229.207092,49.814224 229.207092,49.814224 C229.354355,49.885639 229.599518,49.925014 229.634857,50.033054 C232.069382,57.472439 235.095261,64.893242 230.193024,72.767570 z"/><path fill="#262627" d="M133.639893,313.529633 C133.089325,312.640808 132.538757,311.752014 132.007065,310.441315 C132.405487,309.144867 132.652084,308.177307 133.187622,307.411865 C135.475571,304.141632 136.083542,301.276855 131.809525,299.047485 C131.042862,298.647644 130.632751,297.564209 130.017914,296.403625 C129.977798,296.010864 130.113510,295.880280 130.501724,295.941589 C134.057419,297.311340 137.224899,298.619751 140.333633,300.292419 C137.836746,304.499298 135.398605,308.341949 133.119904,312.511719 C133.408127,313.044464 133.536865,313.250092 133.658112,313.473816 C133.650650,313.491943 133.639893,313.529633 133.639893,313.529633 z"/><path fill="#1C1C1C" d="M205.882950,88.642151 C204.864792,88.554466 203.981522,88.103203 203.050186,87.328110 C204.436005,82.242966 203.854797,77.987175 200.260254,74.227509 C199.464005,73.394676 199.478897,71.786346 199.170715,70.148941 C201.625076,72.407921 204.029007,75.053055 206.738754,78.178207 C206.779861,81.093750 206.515152,83.529266 206.250458,85.964783 C206.172913,86.736046 206.095367,87.507301 205.882950,88.642151 z"/><path fill="#0F0F0F" d="M222.042480,170.990097 C222.068817,170.566193 222.095154,170.142288 222.138977,169.393738 C222.441574,168.883926 222.726715,168.698761 223.238586,167.929962 C223.979141,167.473953 224.492981,167.601562 225.006805,167.729156 C224.209427,171.414658 223.627472,175.168076 222.498260,178.748932 C222.101059,180.008438 220.362518,180.844925 218.849915,181.866882 C219.602844,178.796097 220.742325,175.732971 222.023773,172.091690 C222.124664,171.339050 222.083557,171.164581 222.042480,170.990097 z"/><path fill="#0F0F0F" d="M112.016617,227.343048 C112.614449,225.871628 113.214973,224.780670 113.808739,223.701996 C115.207481,226.714005 116.704369,229.937332 118.319412,233.514008 C113.895004,234.329895 112.727463,231.266663 112.016617,227.343048 z"/><path fill="#1C1C1C" d="M229.861481,79.813095 C227.844315,79.545128 225.821121,78.905563 223.981506,78.324028 C225.686874,76.699661 227.506271,74.966667 229.605194,73.043274 C229.874969,75.049080 229.865219,77.245285 229.861481,79.813095 z"/><path fill="#CBCBCA" d="M225.032425,167.687683 C224.492981,167.601562 223.979141,167.473953 223.229111,167.667328 C222.619781,165.334183 221.592728,162.482422 225.467377,160.979767 C225.677322,162.895615 225.524261,164.834152 225.245041,167.171356 C225.118881,167.570038 225.058044,167.646225 225.032425,167.687683 z"/><path fill="#1C1C1C" d="M172.423981,139.085144 C168.181229,139.446548 169.278076,135.463058 167.666504,133.106415 C171.384155,132.926437 171.858749,135.890457 172.423981,139.085144 z"/><path fill="#1C1C1C" d="M176.372406,143.073761 C175.086319,142.338867 173.971008,141.256821 172.709152,139.919647 C173.889465,140.685211 175.216339,141.705902 176.372406,143.073761 z"/><path fill="#151616" d="M118.502998,46.147518 C116.336540,46.234039 114.288780,45.972073 111.985016,45.405800 C114.026573,45.334007 116.324135,45.566517 118.502998,46.147518 z"/><path fill="#1C1C1C" d="M223.952454,49.228935 C223.511795,48.870438 223.071121,48.511944 222.511841,47.719810 C223.885635,47.266899 225.378006,47.247623 226.887268,47.674637 C226.904160,48.120918 226.724274,48.331356 226.316422,48.336090 C225.256531,48.636864 224.604492,48.932899 223.952454,49.228935 z"/><path fill="#1C1C1C" d="M167.394913,132.080627 C166.466202,131.514023 165.695297,130.601181 164.822891,129.393539 C165.665161,129.977295 166.608932,130.855850 167.394913,132.080627 z"/><path fill="#151616" d="M110.949364,44.580788 C110.005356,45.000847 108.999283,45.116013 107.619827,45.307114 C108.460068,45.013996 109.673676,44.644939 110.949364,44.580788 z"/><path fill="#1C1C1C" d="M215.560669,45.110462 C214.543518,45.459568 213.421066,45.460709 211.960297,45.521072 C212.899750,45.307697 214.177567,45.035095 215.560669,45.110462 z"/><path fill="#1C1C1C" d="M207.970062,45.564938 C207.566132,45.845020 207.111679,45.855118 206.317596,45.833618 C206.625153,45.633003 207.272354,45.463978 207.970062,45.564938 z"/><path fill="#1C1C1C" d="M217.790756,45.793911 C217.550903,46.367058 217.077927,46.696381 216.320862,46.959824 C215.956421,46.565285 215.876053,46.236622 215.706482,45.663002 C216.264069,45.462059 216.910843,45.506073 217.790756,45.793911 z"/><path fill="#181918" d="M189.736496,154.224060 C190.020248,155.078049 190.058441,156.148804 190.008942,157.614197 C189.777817,156.819489 189.634384,155.630157 189.736496,154.224060 z"/><path fill="#F4F4F5" d="M87.890091,96.246765 C88.165428,95.759583 88.417313,95.527756 89.095024,95.343735 C89.064354,96.298225 88.607857,97.204918 87.965736,97.938614 C87.656616,97.650032 87.533112,97.534447 87.409607,97.418854 C87.561951,97.113274 87.714294,96.807701 87.890091,96.246765 z"/><path fill="#1C1C1C" d="M226.995377,48.016792 C227.718277,48.357361 228.349976,48.802052 229.094376,49.530487 C229.207092,49.814224 229.096680,49.911171 228.787140,49.833199 C227.893173,49.280602 227.308716,48.805977 226.724274,48.331352 C226.724274,48.331356 226.904160,48.120918 226.995377,48.016792 z"/><path fill="#F4F4F5" d="M88.013161,98.489120 C87.574547,98.690506 87.135941,98.891891 86.326477,99.048637 C86.281525,98.576355 86.607422,98.148712 87.171463,97.569962 C87.533112,97.534447 87.656616,97.650032 87.944145,98.037689 C88.108177,98.309753 88.013161,98.489120 88.013161,98.489120 z"/><path fill="#1C1C1C" d="M177.972397,144.680237 C177.623215,144.717072 177.226364,144.462067 176.701569,143.999542 C177.023987,143.990814 177.474350,144.189606 177.972397,144.680237 z"/><path fill="#1C1C1C" d="M179.115875,145.878784 C178.627014,145.944443 178.364410,145.752686 178.104279,145.216248 C178.439835,145.229263 178.851624,145.479202 179.115875,145.878784 z"/><path fill="#151616" d="M123.229927,71.832222 C122.989693,71.801819 122.981300,71.601593 122.983238,70.864136 C123.124748,69.996567 123.366028,69.804558 123.717392,69.750877 C123.717392,69.750877 123.900337,69.916534 123.991577,70.000977 C123.875801,70.611076 123.668793,71.136734 123.229927,71.832222 z"/><path fill="#151616" d="M93.129074,50.104813 C93.112938,49.679337 93.304672,49.423553 93.873268,49.199852 C94.186172,49.183998 94.400978,49.401577 94.314240,49.616905 C94.059631,50.100933 93.837738,50.313148 93.561829,50.468884 C93.561829,50.468884 93.272995,50.226562 93.129074,50.104813 z"/><path fill="#1C1C1C" d="M221.826477,46.252708 C221.823822,46.449677 221.348816,46.336105 221.167099,46.172729 C221.266632,46.024815 221.547882,46.040276 221.826477,46.252708 z"/><path fill="#1C1C1C" d="M209.748749,46.074314 C209.714111,46.284542 209.330963,46.505608 208.825928,46.426773 C208.936096,46.112968 209.168152,46.099060 209.748749,46.074314 z"/><path fill="#151616" d="M94.079796,49.074211 C94.111084,48.669556 94.308586,48.422523 94.771935,48.102261 C94.977959,47.981194 95.229172,48.260944 95.217552,48.594284 C94.986588,49.168785 94.718269,49.326767 94.400978,49.401577 C94.400978,49.401577 94.186172,49.183998 94.079796,49.074211 z"/><path fill="#1C1C1C" d="M211.031036,45.606079 C211.037888,45.885216 210.773056,45.991528 210.259537,46.056099 C210.176468,45.757053 210.425980,45.563351 211.031036,45.606079 z"/><path fill="#262627" d="M129.908325,296.074463 C129.624100,295.904053 129.424057,295.658142 129.132309,295.187500 C129.025909,294.974731 129.317047,294.720337 129.605789,294.803192 C129.967529,295.217468 130.040512,295.548859 130.113510,295.880280 C130.113510,295.880280 129.977798,296.010864 129.908325,296.074463 z"/><path fill="#F9F9F9" d="M179.930939,300.852448 C180.451935,300.314240 180.972916,299.776031 182.082123,299.110565 C183.625641,298.271149 184.580917,297.558960 185.536209,296.846771 C184.991577,296.937195 184.446945,297.027588 183.902313,297.118011 C180.827286,291.527252 177.752274,285.936462 174.673492,280.338867 C174.733276,280.316406 173.838287,280.652405 172.943298,280.988373 C174.002869,279.070129 175.062454,277.151886 176.753143,275.050659 C180.370926,273.593536 180.091187,271.908386 177.847229,269.731750 C177.128662,269.304596 176.560211,269.140656 175.813660,268.766235 C175.093216,269.025604 174.550888,269.495483 173.674835,270.125824 C169.392715,273.490692 165.716415,271.415283 162.008316,269.347534 C159.677765,265.023712 157.332520,261.071106 155.054596,257.080048 C153.919678,255.091599 152.908066,253.032761 151.737671,250.930878 C151.634689,250.855972 151.710464,250.612808 151.710464,250.612808 C151.592300,250.047363 151.474121,249.481918 151.455185,248.613678 C151.923584,247.867889 152.292740,247.424896 152.661896,246.981918 C156.319702,246.301834 159.977509,245.621750 164.188446,244.736328 C164.741577,244.530991 165.017532,244.732590 165.022980,245.133789 C166.368912,246.346970 167.709381,247.158951 169.029587,247.981491 C169.009323,247.992050 169.031464,247.951157 169.031464,247.951157 C169.029312,248.749985 169.027145,249.548798 169.001892,250.971039 C168.978821,251.594437 168.755692,251.991013 168.385818,251.993683 C165.710464,253.057724 163.404984,254.119095 161.099503,255.180450 C161.255508,255.718750 161.411514,256.257050 161.567535,256.795349 C162.921249,256.795349 164.274963,256.795349 165.954071,256.691345 C167.476303,257.593109 168.673157,258.598907 169.867416,259.602539 C170.166550,259.082642 170.474121,258.548035 171.024445,257.930511 C171.507721,257.610596 171.748291,257.373596 172.277893,257.047150 C172.968063,256.938232 173.369217,256.918762 173.770355,256.899292 C176.554276,257.674225 179.754211,258.088348 178.188354,262.422516 C178.107880,262.645264 179.201584,263.292206 179.910828,263.953583 C179.513275,264.833954 178.953506,265.502380 178.393753,266.170807 C178.501144,266.368927 178.608536,266.567017 178.715927,266.765137 C180.444855,265.800079 182.156982,264.803314 183.905914,263.875977 C188.899094,261.228546 191.626663,261.795105 195.405609,266.217407 C195.512360,266.342377 195.597198,266.543030 195.729095,266.581299 C201.173615,268.159882 202.305634,273.359772 204.232605,277.494904 C207.096725,283.641083 208.468399,290.298981 206.767258,297.657959 C205.269150,299.289337 204.296280,300.555389 203.147125,301.633667 C201.164093,303.494354 199.071487,305.238312 197.011536,307.015686 C196.998230,307.000092 196.966705,306.973785 196.952393,306.606384 C194.621323,301.552460 192.304550,296.865875 189.585754,291.366028 C189.534286,294.928528 189.589020,298.339264 189.401840,301.736603 C189.261322,304.287323 189.604233,307.385803 188.298889,309.221313 C186.609436,311.596924 183.494568,312.958832 179.930923,315.521118 C179.930923,310.009369 179.930923,305.430908 179.930939,300.852448 M180.486298,268.569824 C180.486298,268.569824 180.437317,268.480377 180.486298,268.569824 z"/><path fill="#FDFDFD" d="M137.100632,173.967194 C137.494492,174.302658 137.888351,174.638123 138.539337,175.022400 C138.909119,175.500961 139.021759,175.930710 138.655746,176.691193 C136.053329,178.848526 136.291840,187.049347 138.620712,187.809418 C141.407227,188.718857 144.335968,189.192505 147.203110,189.854904 C147.203110,189.854904 147.097244,189.891663 147.130280,190.204102 C152.557449,195.060394 157.924515,199.637283 163.379654,204.106689 C164.070267,204.672485 165.222763,204.674515 166.161255,204.937729 C166.945633,207.037796 167.730026,209.137878 168.378754,211.625198 C165.716568,213.319412 163.190018,214.626373 159.868439,215.982880 C145.617432,216.182816 135.995041,208.726639 131.991211,194.584793 C131.548569,190.215805 131.053986,186.306366 130.659836,182.386841 C130.380585,179.610138 129.948898,176.802765 130.112015,174.040192 C130.283905,171.128555 131.291016,170.910706 133.995148,172.584213 C134.949936,173.175095 136.060944,173.513504 137.100632,173.967194 z"/><path fill="#262627" d="M152.727173,246.546509 C152.292740,247.424896 151.923584,247.867889 151.271820,248.380005 C150.032257,245.153152 149.965897,241.232254 145.302139,240.690994 C149.155899,237.156891 152.446182,233.094467 156.659332,230.575745 C160.707993,228.155350 165.712357,227.333542 169.732147,225.997040 C183.037323,229.076279 189.925507,236.082840 183.159866,251.410950 C182.966949,248.315201 182.250763,246.141403 182.822266,244.387131 C185.350006,236.628098 180.496231,230.435349 171.607498,230.827255 C171.400604,232.311966 171.186798,233.846268 170.973007,235.380554 C169.693909,232.231277 168.988571,229.210190 164.225983,230.280930 C158.094910,231.659317 153.490021,235.554153 152.848709,241.146866 C152.661179,242.782257 152.802094,244.455307 152.727173,246.546509 z"/><path fill="#E2E1E1" d="M205.044861,174.942871 C202.793411,177.340225 200.858215,179.546890 198.592697,182.130188 C197.655762,178.826385 196.806793,175.832748 195.967468,172.462158 C196.163757,171.464600 196.167908,170.475983 196.564758,170.279175 C201.645844,167.759308 205.516342,164.105774 207.137115,158.579971 C208.606598,153.569977 209.722321,148.456238 210.723969,144.464493 C213.948029,154.567215 210.910477,164.859924 205.044861,174.942871 z"/><path fill="#D9D9D9" d="M131.982208,195.040039 C135.995041,208.726639 145.617432,216.182816 159.511703,216.031342 C158.242477,217.047638 156.534973,218.065033 154.449280,219.033051 C143.410187,219.531250 132.117905,210.128220 130.170410,197.247528 C130.970276,196.158386 131.476242,195.599213 131.982208,195.040039 z"/><path fill="#E5E4E4" d="M225.860840,139.826904 C226.475494,143.772751 226.785629,147.464691 226.646774,151.608643 C225.780380,153.385284 225.362961,154.709900 224.945557,156.034500 C224.290344,155.052856 223.531509,154.123596 223.003006,153.077911 C222.098984,151.289215 223.229126,148.216766 219.036102,148.757706 C216.977936,149.023224 216.110321,141.724503 218.359116,141.241104 C223.425690,140.152008 221.950104,135.566772 224.352966,132.140045 C224.828598,135.077957 225.192474,137.325455 225.860840,139.826904 z"/><path fill="#262627" d="M151.449402,250.794006 C151.710464,250.612808 151.634689,250.855972 151.675735,251.304031 C151.790329,252.498718 151.863876,253.245361 151.841751,254.247681 C151.816162,254.671356 151.886230,254.839325 151.878754,255.402649 C152.493179,258.439148 153.185181,261.080292 154.068283,264.450867 C152.136230,263.443726 150.737305,262.750702 149.372269,261.996307 C144.825897,259.483734 140.232483,259.304749 135.552490,261.616852 C133.082123,262.837311 130.589264,264.012238 128.106537,265.207703 C127.919968,263.593597 127.733398,261.979462 127.767441,260.184631 C128.902527,260.680115 129.817001,261.356323 130.921951,262.173401 C132.475647,260.984039 134.087936,259.749817 135.945847,258.168030 C138.427963,257.641357 140.688797,257.592560 142.882217,257.182770 C143.372040,257.091278 143.625092,255.732376 143.987167,254.956970 C145.559967,255.769348 147.132767,256.581726 148.696930,257.389648 C149.519730,255.271271 150.354034,253.123230 151.449402,250.794006 z"/><path fill="#E8E7E7" d="M224.401993,100.770714 C223.942810,99.210632 223.623611,97.999046 223.304428,96.787460 C229.498749,108.089005 226.516220,119.018814 220.850891,129.954895 C220.687698,128.072998 219.994492,126.043373 220.469437,124.339333 C221.524429,120.554199 223.728851,117.032829 224.409775,113.215752 C225.108246,109.300308 224.550140,105.160713 224.401993,100.770714 z"/><path fill="#3F3F40" d="M165.017532,244.732605 C165.017532,244.732590 164.741577,244.530991 164.600204,244.626831 C164.531906,244.046371 164.351974,243.015106 164.720093,242.752762 C166.748520,241.307037 168.910797,240.049133 171.022430,238.729767 C171.263641,240.672348 171.938782,244.110626 175.203049,243.862946 C173.599396,245.115173 171.725876,246.578140 169.441910,247.996124 C169.031464,247.951157 169.009323,247.992050 168.990509,247.625702 C168.656631,246.456421 168.341568,245.653488 167.776566,244.672607 C167.329178,244.548187 167.131760,244.601715 166.617737,244.545471 C165.873276,244.534683 165.445404,244.633636 165.017532,244.732605 z"/><path fill="#CBCBCA" d="M192.528503,210.979233 C191.123901,215.994614 187.434845,218.617630 182.071472,219.732330 C180.987061,219.384811 180.140762,218.753586 179.352615,218.165756 C183.823242,215.661987 187.995926,213.325104 192.528503,210.979233 z"/><path fill="#D9D9D9" d="M206.559662,86.046112 C206.515152,83.529266 206.779861,81.093750 207.047791,78.317413 C208.341339,78.515930 209.631668,79.055275 210.921982,79.594620 C209.364822,81.644348 212.105026,86.360252 206.559662,86.046112 z"/><path fill="#D3D3D3" d="M143.832581,254.627594 C143.625092,255.732376 143.372040,257.091278 142.882217,257.182770 C140.688797,257.592560 138.427963,257.641357 135.725220,257.893402 C134.696091,257.363831 134.133163,256.761322 133.570251,256.158813 C136.805298,254.809570 139.596802,251.050735 143.832581,254.627594 z"/><path fill="#3F3F40" d="M173.739212,256.547333 C173.369217,256.918762 172.968063,256.938232 171.977081,257.010559 C171.185394,257.380096 170.983551,257.696777 170.781708,258.013458 C170.474121,258.548035 170.166550,259.082642 169.867416,259.602539 C168.673157,258.598907 167.476303,257.593109 165.809921,256.363831 C166.478821,254.757248 167.617249,253.374130 168.755676,251.990997 C168.755692,251.991013 168.978821,251.594437 169.017380,251.370209 C170.606644,252.829117 172.157349,254.512253 173.739212,256.547333 z"/><path fill="#D9D9D9" d="M131.051041,227.501556 C130.734512,228.180450 130.407990,228.453156 130.081451,228.725876 C130.149567,226.867889 130.217667,225.009918 130.628296,223.079926 C130.994217,224.370407 131.017624,225.732895 131.051041,227.501556 z"/><path fill="#CBCBCA" d="M225.150757,156.056946 C225.362961,154.709900 225.780380,153.385284 226.572266,152.025238 C226.615814,153.108261 226.284897,154.226761 225.860992,155.699677 C225.768005,156.054108 225.355942,156.079376 225.150757,156.056946 z"/><path fill="#DDDCDC" d="M193.378296,229.044067 C193.516449,228.257080 193.894516,227.493637 194.675446,225.916672 C194.773254,227.418121 194.809479,227.974380 194.711212,228.790619 C194.576706,229.050613 194.098434,229.113770 194.098434,229.113770 C194.098434,229.113770 193.618225,229.067627 193.378296,229.044067 z"/><path fill="#1C1C1C" d="M227.362961,59.369553 C227.353592,60.110947 227.123917,60.633900 226.535889,61.181816 C226.177521,61.206776 225.834747,60.849129 225.863739,60.551571 C226.155319,59.748356 226.417908,59.242699 226.680511,58.737045 C226.834549,58.875065 226.988602,59.013088 227.362961,59.369553 z"/><path fill="#DFDFDF" d="M215.993622,167.993500 C216.112625,167.584122 216.237335,167.180588 216.362061,166.777054 C216.373856,167.107758 216.385635,167.438477 216.204620,167.888641 C216.011810,168.008102 215.999344,167.999359 215.993622,167.993500 z"/><path fill="#E5E4E4" d="M216.634613,149.769196 C216.670166,149.803375 216.599045,149.735001 216.634613,149.769196 z"/><path fill="#1C1C1C" d="M226.340317,61.393456 C226.396744,61.831837 226.244141,62.051399 225.887268,62.363964 C225.572250,62.382507 225.415253,62.275902 225.124329,61.750690 C225.271851,61.171101 225.553299,61.010117 225.834747,60.849129 C225.834747,60.849129 226.177521,61.206776 226.340317,61.393456 z"/><path fill="#0F0F0F" d="M139.924927,226.064392 C140.240326,226.187561 140.431152,226.420776 140.621979,226.654007 C140.382812,226.688812 140.143646,226.723618 139.727982,226.576630 C139.551483,226.394836 139.800369,226.174454 139.924927,226.064392 z"/><path fill="#3F3F40" d="M161.497253,243.500992 C161.492432,243.483170 161.502090,243.518814 161.497253,243.500992 z"/><path fill="#313232" d="M178.906921,172.395630 C179.074417,172.921631 179.078247,173.119965 179.058609,173.614944 C171.111740,170.340622 163.785156,171.419617 156.545685,176.552246 C155.980972,176.165161 155.873428,175.965179 155.765884,175.765198 C162.714951,169.248215 171.558914,167.825165 178.906921,172.395630 z"/><path fill="#262627" d="M162.999222,160.679840 C167.317581,158.865219 168.625076,161.901550 170.498535,164.532700 C162.925980,164.277603 162.925980,164.277603 162.999222,160.679840 z"/><path fill="#181918" d="M151.038315,168.051468 C150.632904,169.266800 149.970016,170.260773 149.307129,171.254745 C148.994629,171.096161 148.682129,170.937576 148.369629,170.778992 C148.858429,169.813644 149.347229,168.848282 150.042358,167.645538 C150.426086,167.548798 150.603455,167.689453 151.038315,168.051468 z"/><path fill="#313232" d="M155.840546,177.458740 C155.375748,177.736221 154.910934,178.013702 154.446136,178.291183 C154.338272,177.927628 154.230408,177.564072 154.702560,177.170593 C155.468552,177.246704 155.654556,177.352722 155.840546,177.458740 z"/><path fill="#313232" d="M156.193481,176.689163 C156.298462,177.013184 156.041275,177.366486 155.940918,177.412613 C155.654556,177.352722 155.468552,177.246704 155.022369,176.952484 C154.936218,176.484955 155.110260,176.205643 155.525085,175.845764 C155.873428,175.965179 155.980972,176.165161 156.193481,176.689163 z"/><path fill="#DFDFDF" d="M208.054810,189.056732 C207.976227,189.398636 207.746292,189.586441 207.516327,189.774246 C207.435226,189.499680 207.354126,189.225098 207.435577,188.773773 C207.598114,188.597015 207.903458,188.902618 208.054810,189.056732 z"/><path fill="#F4F4F5" d="M131.991211,194.584793 C131.476242,195.599213 130.970276,196.158386 130.216919,196.864319 C128.884598,189.529984 127.815155,182.046570 126.692574,174.571136 C126.570221,173.756378 126.141495,172.987640 125.586258,172.183563 C124.890694,171.340439 124.463745,170.511292 124.018799,168.888000 C124.698875,163.653137 125.273018,159.185928 126.212303,154.796844 C126.376274,154.030655 128.077530,153.593445 129.068787,153.004303 C129.068787,156.582458 129.068787,160.160599 129.068787,163.750549 C133.368759,163.555939 135.942001,166.670486 137.118835,173.577240 C136.060944,173.513504 134.949936,173.175095 133.995148,172.584213 C131.291016,170.910706 130.283905,171.128555 130.112015,174.040192 C129.948898,176.802765 130.380585,179.610138 130.659836,182.386841 C131.053986,186.306366 131.548569,190.215805 131.991211,194.584793 z"/><path fill="#F4F4F5" d="M139.880264,224.073059 C139.759705,223.832458 139.850327,223.335098 140.213898,223.059723 C140.355057,223.459915 140.223251,223.638107 139.880264,224.073059 z"/><path fill="#DFDFDF" d="M115.070023,183.953094 C115.406998,184.069870 115.538658,184.411774 115.670319,184.753662 C115.431656,184.811874 115.192986,184.870087 114.725113,184.795792 C114.618835,184.501587 114.741776,184.339905 115.070023,183.953094 z"/><path fill="#F4F4F5" d="M166.228134,204.551331 C165.222763,204.674515 164.070267,204.672485 163.379654,204.106689 C157.924515,199.637283 152.557449,195.060394 147.156708,190.154694 C154.511505,193.278412 162.859528,195.449707 166.228134,204.551331 z"/><path fill="#F4F4F5" d="M147.190964,189.483063 C144.335968,189.192505 141.407227,188.718857 138.620712,187.809418 C136.291840,187.049347 136.053329,178.848526 138.556335,177.009308 C138.155838,183.435135 142.459152,186.414825 147.190964,189.483063 z"/><path fill="#F4F4F5" d="M187.684692,163.645187 C187.855209,163.303436 188.208954,163.164001 188.562714,163.024567 C188.604370,163.311935 188.646027,163.599319 188.466949,164.063919 C188.120132,164.109955 187.994034,163.978745 187.684692,163.645187 z"/><path fill="#F4F4F5" d="M168.006607,298.606476 C167.475815,298.999237 167.062347,299.009125 166.328979,298.594421 C165.094711,294.928864 164.182602,291.687225 163.265289,288.447083 C162.513351,285.791168 161.352463,283.177002 161.083481,280.473633 C160.519501,274.805664 156.646652,269.720306 151.178940,268.197662 C148.955597,267.578491 146.686523,267.057953 144.546402,266.217255 C136.876251,263.204224 129.446762,265.364380 129.576004,275.973755 C128.256348,275.970673 127.376366,275.950439 126.496376,275.930176 C125.992752,274.851318 125.489128,273.772491 124.979813,272.342133 C125.986198,269.968994 126.998283,267.947418 128.058456,265.566772 C130.589264,264.012238 133.082123,262.837311 135.552490,261.616852 C140.232483,259.304749 144.825897,259.483734 149.372269,261.996307 C150.737305,262.750702 152.136230,263.443726 154.068283,264.450867 C153.185181,261.080292 152.493179,258.439148 152.037231,255.305328 C152.161316,254.539093 152.049362,254.265549 151.937408,253.991989 C151.863876,253.245361 151.790329,252.498718 151.778717,251.378937 C152.908066,253.032761 153.919678,255.091599 155.054596,257.080048 C157.332520,261.071106 159.677765,265.023712 161.721878,269.594055 C161.982056,271.801849 162.515564,273.407806 163.049088,275.013733 C165.105927,281.701202 167.231598,288.369202 169.135544,295.099915 C169.383270,295.975677 168.489151,297.174469 168.006607,298.606476 z"/><path fill="#D9D9D9" d="M172.664886,281.186707 C173.838287,280.652405 174.733276,280.316406 174.673492,280.338867 C177.752274,285.936462 180.827286,291.527252 183.902313,297.118011 C184.446945,297.027588 184.991577,296.937195 185.536209,296.846771 C184.580917,297.558960 183.625641,298.271149 182.342590,298.994751 C180.674591,297.858246 179.494370,296.393341 177.964523,295.621185 C173.145935,293.189087 172.075653,289.403564 173.169235,284.463531 C173.373611,283.540344 172.670700,282.416351 172.664886,281.186707 z"/><path fill="#D3D3D3" d="M163.405518,274.989166 C162.515564,273.407806 161.982056,271.801849 161.734970,269.949402 C165.716415,271.415283 169.392715,273.490692 173.697266,270.435608 C174.392700,271.070404 174.732010,271.555847 175.071335,272.041321 C172.714691,274.367645 170.358047,276.694000 168.137375,278.886108 C166.447495,277.371552 165.104721,276.168091 163.405518,274.989166 z"/><path fill="#F4F4F5" d="M175.367554,272.090668 C174.732010,271.555847 174.392700,271.070404 174.030975,270.275146 C174.550888,269.495483 175.093216,269.025604 175.962357,269.033875 C176.858551,269.673035 177.427948,269.834015 177.997345,269.995026 C180.091187,271.908386 180.370926,273.593536 177.037979,274.875610 C176.349045,273.969025 176.006409,273.054504 175.367554,272.090668 z"/><path fill="#0F0F0F" d="M125.568924,221.259979 C125.604118,221.554855 125.489601,221.664688 125.375076,221.774536 C125.275146,221.651215 125.091431,221.522568 125.098846,221.406052 C125.106270,221.289368 125.304573,221.184830 125.568924,221.259979 z"/><path fill="#FDFDFD" d="M129.141113,152.668121 C128.077530,153.593445 126.376274,154.030655 126.212303,154.796844 C125.273018,159.185928 124.698875,163.653137 124.002800,168.515274 C123.448296,169.126526 122.891792,169.316330 121.905731,169.755875 C121.308044,170.011948 121.139908,170.018265 120.971771,170.024582 C119.673416,168.244034 118.375061,166.463486 117.295944,164.105255 C116.856773,158.836182 116.598618,153.969818 112.032333,150.987015 C111.696037,148.918564 111.359734,146.850098 111.267380,144.159637 C111.511314,142.546112 111.511314,141.554596 111.511314,140.563095 C111.112808,140.597122 110.714302,140.631134 110.315796,140.665161 C110.213440,141.781342 110.111084,142.897522 110.008728,144.013702 C106.859123,154.712006 110.589088,164.847183 113.418411,175.507538 C107.926949,174.362808 107.283356,170.352524 105.761330,166.975296 C105.374153,166.116180 104.219765,165.602829 103.417885,164.930618 C103.106216,165.295441 102.794548,165.660278 102.482880,166.025116 C101.770279,164.826675 101.057678,163.628235 100.345078,162.429794 C100.019821,162.502472 99.694557,162.575150 99.369301,162.647827 C99.543983,163.912048 99.718666,165.176270 99.893349,166.440491 C99.349854,166.468292 98.806358,166.496094 98.124474,165.888947 C97.038147,163.458313 96.090210,161.662643 95.118454,159.544739 C95.410118,156.823578 94.250565,156.320923 92.196541,156.968201 C92.179283,156.089844 92.162033,155.211502 92.642891,154.054230 C94.916840,151.480164 96.692680,149.185013 98.346390,147.047699 C101.039665,150.685394 103.132111,153.511566 105.985825,157.365952 C104.473106,150.374374 103.240753,144.678619 102.005737,138.597656 C101.340256,136.141861 100.677452,134.071289 100.013222,131.666840 C100.010155,130.887878 100.008507,130.442780 100.186089,129.745377 C100.256714,127.990738 100.148109,126.488396 100.019501,124.566223 C99.011322,118.096062 98.023163,112.045715 97.247086,105.793823 C97.459175,102.916893 97.459175,100.241516 97.459175,97.566139 C97.044922,97.500114 96.630669,97.434090 96.216415,97.368065 C95.471649,100.238457 94.726883,103.108849 93.725685,106.226585 C93.300697,107.644905 93.132133,108.815880 92.509247,109.989815 C90.843498,110.038902 89.632072,110.085022 88.420647,110.131142 C88.096329,109.839958 87.772011,109.548775 87.135284,109.024307 C86.536324,108.526901 86.249771,108.262772 85.963226,107.998650 C86.311485,106.775291 86.659752,105.551926 87.596069,104.117493 C89.030724,103.454651 89.877335,103.002884 90.723938,102.551117 C90.084396,102.014297 89.444862,101.477486 88.805328,100.940674 C88.840340,100.091194 88.875343,99.241730 88.461761,98.440689 C88.013161,98.489120 88.108177,98.309753 88.129768,98.210678 C88.607857,97.204918 89.064354,96.298225 89.312027,95.202866 C89.039459,94.668976 89.130913,94.371460 90.013100,94.044662 C97.413681,93.650566 101.220268,86.394234 98.164650,79.746918 C98.173386,79.376122 98.055641,79.139740 97.922501,78.946915 C97.907112,78.990471 97.985306,79.039673 97.985306,79.039673 C97.746483,78.425804 97.507660,77.811943 97.878922,77.035446 C99.786736,76.213242 101.121666,75.616974 102.374397,74.880821 C104.946770,73.369232 103.634125,72.421509 101.832520,71.588951 C103.179077,71.496887 104.525627,71.404823 105.562355,71.956871 C105.480957,73.810646 105.796638,76.087379 105.925308,76.076874 C112.266655,75.558426 110.120003,79.993805 110.269920,83.196007 C110.375938,85.460518 110.715515,87.739769 111.214241,89.953072 C111.719925,92.197250 112.322899,94.629944 115.623856,93.814430 C115.815163,94.276497 116.006462,94.738564 116.007652,95.801498 C115.277451,98.264420 114.000664,100.276344 114.342987,101.958847 C115.184639,106.095459 116.771294,110.080490 118.058304,114.126488 C118.028297,115.328072 117.998283,116.529655 117.532883,117.902733 C116.579842,117.687897 116.062195,117.301567 115.568169,116.932869 C114.721458,118.940384 113.652641,120.847740 113.167252,122.893509 C112.929558,123.895302 113.776161,125.154373 114.132034,126.296997 C114.012947,126.801231 113.893860,127.305458 114.009583,128.211578 C114.440659,128.811539 114.675110,128.939835 114.947739,128.998383 C115.959946,129.986908 116.972145,130.975418 118.034966,132.697784 C118.707344,136.432541 118.358849,140.179596 123.129181,139.990280 C123.506500,140.575699 123.883820,141.161118 124.187347,142.490479 C124.531029,145.939758 121.998314,150.258133 127.818008,150.009796 C128.283142,150.783844 128.748291,151.557877 129.141113,152.668121 z"/><path fill="#F4F4F5" d="M115.647369,93.380386 C112.322899,94.629944 111.719925,92.197250 111.214241,89.953072 C110.715515,87.739769 110.375938,85.460518 110.269920,83.196007 C110.120003,79.993805 112.266655,75.558426 105.925308,76.076874 C105.796638,76.087379 105.480957,73.810646 105.454834,72.327263 C106.086533,72.679054 106.515930,73.304565 107.067879,74.108604 C109.973236,67.267838 112.140045,65.566093 117.303566,65.621147 C117.845886,64.303398 118.351295,63.075371 119.196167,61.421394 C119.223190,60.873375 118.910736,60.751289 118.598289,60.629208 C117.146553,60.580364 115.397560,61.014095 114.323318,60.352398 C113.155304,59.632938 112.614304,57.895542 111.799927,56.601971 C113.047470,56.165146 114.266678,55.547714 115.551140,55.346157 C116.666367,55.171150 117.859024,55.573296 119.011208,55.534519 C122.464546,55.418297 124.264999,56.667248 123.927971,60.475727 C123.682091,63.254246 123.936531,66.077042 123.842667,69.315491 C123.366028,69.804558 123.124748,69.996567 122.956879,70.564674 C120.463745,73.620613 118.007301,76.438782 115.670876,79.119263 C115.670876,83.608246 115.670876,88.277290 115.647369,93.380386 z"/><path fill="#F4F4F5" d="M118.357147,114.113098 C116.771294,110.080490 115.184639,106.095459 114.342987,101.958847 C114.000664,100.276344 115.277451,98.264420 115.981163,96.053345 C117.454544,100.579895 118.900078,105.425987 119.969559,110.353706 C120.208672,111.455452 119.128677,112.843483 118.357147,114.113098 z"/><path fill="#F4F4F5" d="M114.427994,126.162720 C113.776161,125.154373 112.929558,123.895302 113.167252,122.893509 C113.652641,120.847740 114.721458,118.940384 115.568169,116.932869 C116.062195,117.301567 116.579842,117.687897 117.386909,118.246269 C116.692207,120.955017 115.708084,123.491722 114.427994,126.162720 z"/><path fill="#F4F4F5" d="M127.849548,149.621918 C121.998314,150.258133 124.531029,145.939758 124.193527,142.758484 C128.509949,143.025238 126.619453,146.947571 127.849548,149.621918 z"/><path fill="#F4F4F5" d="M123.108215,139.633881 C118.358849,140.179596 118.707344,136.432541 118.118576,133.021423 C119.796791,134.833298 121.442024,137.055389 123.108215,139.633881 z"/><path fill="#EFEFEF" d="M134.280334,156.311523 C134.074768,156.718445 133.683548,156.923920 133.292343,157.129379 C133.232162,156.765472 133.171967,156.401581 133.413116,155.876633 C133.841202,155.847076 133.967941,155.978577 134.280334,156.311523 z"/><path fill="#F4F4F5" d="M115.062057,128.682861 C114.675110,128.939835 114.440659,128.811539 114.135750,128.442413 C114.410194,128.303360 114.793289,128.335342 115.062057,128.682861 z"/><path fill="#E5E4E4" d="M101.205711,60.082199 C100.093498,60.603882 98.981285,61.125565 97.415947,61.859779 C98.781799,62.803951 99.896545,63.574543 101.588585,64.744202 C98.879112,68.014030 96.266403,71.167076 93.494751,74.511940 C88.179077,68.892288 92.278427,62.395092 92.811195,55.485210 C94.181961,56.428291 95.083679,57.048668 96.445305,57.392433 C98.223267,57.079155 99.541321,57.042488 100.984375,57.375256 C101.141495,58.523857 101.173607,59.303028 101.205711,60.082199 z"/><path fill="#F4F4F5" d="M98.038170,79.881332 C101.220268,86.394234 97.413681,93.650566 90.234192,93.948120 C91.180664,90.106491 92.541588,86.284401 93.913155,82.432434 C93.385780,82.069748 92.765388,81.643089 91.269516,80.614357 C93.743431,80.037781 95.489037,79.630951 97.609970,79.131897 C97.985306,79.039673 97.907112,78.990471 97.922470,79.193993 C97.937828,79.397514 98.038170,79.881332 98.038170,79.881332 z"/><path fill="#E2E1E1" d="M100.450409,47.896072 C104.514404,45.033745 105.951431,45.534161 106.363708,50.027714 C106.603439,52.640560 106.825188,55.265465 106.835403,57.885799 C106.844185,60.138309 106.164108,61.912071 103.096069,59.944038 C102.090698,55.419151 101.270554,51.657612 100.450409,47.896072 z"/><path fill="#DFDFDF" d="M100.859375,57.005821 C99.541321,57.042488 98.223267,57.079155 96.605698,57.063286 C96.183960,55.312748 96.061760,53.614750 95.956741,52.155575 C95.295059,51.876518 94.344521,51.475636 93.477905,50.771820 C93.837738,50.313148 94.059631,50.100933 94.314240,49.616905 C94.718269,49.326767 94.986588,49.168785 95.342484,48.734764 C96.353271,48.385799 97.227509,48.229702 98.603470,48.448765 C99.689911,51.551224 100.274643,54.278522 100.859375,57.005821 z"/><path fill="#3F3F40" d="M100.984375,57.375256 C100.274643,54.278522 99.689911,51.551224 98.939819,48.482727 C99.144203,48.064018 99.513962,47.986511 100.167068,47.902542 C101.270554,51.657612 102.090698,55.419151 102.867172,59.614754 C102.464050,60.067726 102.104622,60.086639 101.475449,60.093872 C101.173607,59.303028 101.141495,58.523857 100.984375,57.375256 z"/><path fill="#F4F4F5" d="M101.508591,71.594391 C103.634125,72.421509 104.946770,73.369232 102.374397,74.880821 C101.121666,75.616974 99.786736,76.213242 98.109589,76.885498 C98.881653,75.132057 100.033157,73.365944 101.508591,71.594391 z"/><path fill="#F4F4F5" d="M112.071991,151.376617 C116.598618,153.969818 116.856773,158.836182 117.257431,163.763779 C115.996773,162.774643 114.562599,161.696732 114.082619,160.292633 C113.143974,157.546783 112.738075,154.618805 112.071991,151.376617 z"/><path fill="#E8E7E7" d="M95.142273,159.866959 C96.090210,161.662643 97.038147,163.458313 97.991760,165.628143 C97.468857,166.575058 96.940269,167.147797 96.157791,167.871445 C95.246704,166.578751 94.589500,165.135162 94.249939,163.123840 C94.759148,161.659729 94.950706,160.763336 95.142273,159.866959 z"/><path fill="#F4F4F5" d="M110.260117,144.007935 C110.111084,142.897522 110.213440,141.781342 110.315796,140.665161 C110.714302,140.631134 111.112808,140.597122 111.511314,140.563095 C111.511314,141.554596 111.511314,142.546112 111.262833,143.765640 C110.846733,143.996506 110.679115,143.999344 110.260117,144.007935 z"/><path fill="#0F0F0F" d="M114.963470,176.050964 C114.738594,175.896240 114.526810,175.722641 114.315018,175.549042 C114.515625,175.527313 114.716232,175.505585 114.959000,175.741272 C115.001175,175.998703 114.976570,176.032089 114.963470,176.050964 z"/><path fill="#F4F4F5" d="M121.069214,170.183777 C121.139908,170.018265 121.308044,170.011948 121.728256,169.997787 C121.709114,170.107635 121.437889,170.225296 121.069214,170.183777 z"/><path fill="#E8E7E7" d="M102.008408,138.982849 C103.240753,144.678619 104.473106,150.374374 105.985825,157.365952 C103.132111,153.511566 101.039665,150.685394 98.346390,147.047699 C96.692680,149.185013 94.916840,151.480164 92.751389,153.740204 C92.314522,153.355667 92.267265,153.006256 92.569847,152.305649 C93.037895,151.850388 93.271149,151.677032 93.256615,151.652893 C93.101112,151.394669 92.906418,151.160049 92.722473,150.918945 C93.197426,149.412354 93.672371,147.905762 94.705620,146.003204 C95.502342,144.742844 95.740768,143.878464 95.740570,142.761688 C95.051910,142.428223 94.601883,142.347107 94.151855,142.265991 C93.960289,141.739624 93.768715,141.213272 93.949966,140.187973 C95.029221,137.692307 95.735657,135.695572 96.825233,132.615906 C98.094246,136.063171 98.936897,138.352249 99.843430,140.814835 C100.789116,140.014603 101.398758,139.498734 102.008408,138.982849 z"/><path fill="#F4F4F5" d="M88.255569,110.422287 C89.632072,110.085022 90.843498,110.038902 92.796768,110.282135 C93.692558,113.709488 93.846504,116.847488 93.776718,120.245911 C91.901047,121.383072 90.249123,122.259811 88.597198,123.136551 C86.519035,125.140770 85.307411,124.907898 85.804886,121.828087 C86.407471,118.097473 87.314941,114.416107 88.255569,110.422287 z"/><path fill="#F4F4F5" d="M102.005737,138.597656 C101.398758,139.498734 100.789116,140.014603 99.843430,140.814835 C98.936897,138.352249 98.094246,136.063171 96.825233,132.615906 C95.735657,135.695572 95.029221,137.692307 94.024734,139.911682 C92.366516,138.475174 93.939651,134.816513 89.870491,134.717026 C89.387634,134.705231 88.997429,130.903809 89.072556,128.440430 C92.387970,129.014084 95.195107,130.006332 98.259750,131.111832 C99.016396,131.483612 99.515518,131.742157 100.014641,132.000702 C100.677452,134.071289 101.340256,136.141861 102.005737,138.597656 z"/><path fill="#FDFDFD" d="M98.002235,130.998581 C95.195107,130.006332 92.387970,129.014084 89.203415,128.015961 C88.752037,126.658638 88.678101,125.307213 88.600677,123.546165 C90.249123,122.259811 91.901047,121.383072 94.156403,120.306007 C95.840637,123.736656 96.921432,127.367615 98.002235,130.998581 z"/><path fill="#DFDFDF" d="M95.118454,159.544739 C94.950706,160.763336 94.759148,161.659729 94.300217,162.771759 C93.340027,161.231247 92.647209,159.475082 92.075462,157.343567 C94.250565,156.320923 95.410118,156.823578 95.118454,159.544739 z"/><path fill="#F4F4F5" d="M88.536728,101.138626 C89.444862,101.477486 90.084396,102.014297 90.723938,102.551117 C89.877335,103.002884 89.030724,103.454651 87.783272,103.859756 C87.677658,102.987579 87.972893,102.162071 88.536728,101.138626 z"/><path fill="#FDFDFD" d="M95.979187,143.014069 C95.740768,143.878464 95.502342,144.742844 94.953140,145.762787 C94.507355,145.102356 94.372337,144.286407 94.673325,143.175079 C95.399269,142.924484 95.689232,142.969269 95.979187,143.014069 z"/><path fill="#F4F4F5" d="M85.089417,112.076561 C84.889305,112.482224 84.689194,112.887886 84.489082,113.293549 C84.432556,112.893326 84.376038,112.493111 84.628357,112.025452 C84.937202,111.958008 85.089417,112.076561 85.089417,112.076561 z"/><path fill="#F4F4F5" d="M84.858490,111.902222 C85.116432,111.167046 85.453094,110.487648 85.789749,109.808250 C85.800652,110.438942 85.811562,111.069633 85.455940,111.888443 C85.089417,112.076561 84.937202,111.958008 84.858490,111.902222 z"/><path fill="#F4F4F5" d="M85.742035,108.413246 C86.249771,108.262772 86.536324,108.526901 86.914986,109.072876 C86.511681,109.179100 86.016266,109.003471 85.742035,108.413246 z"/><path fill="#F4F4F5" d="M95.740562,142.761688 C95.689232,142.969269 95.399269,142.924484 94.684967,142.761566 C94.260612,142.643417 94.183121,142.461166 94.167488,142.363586 C94.601883,142.347107 95.051910,142.428223 95.740562,142.761688 z"/><path fill="#FDFDFD" d="M92.572777,151.220093 C92.906418,151.160049 93.101112,151.394669 93.256615,151.652893 C93.271149,151.677032 93.037895,151.850388 92.706795,152.072266 C92.470291,151.967148 92.446686,151.744186 92.572777,151.220093 z"/><path fill="#D9D9D9" d="M225.863739,60.551571 C225.553299,61.010117 225.271851,61.171101 224.906158,61.567841 C221.488510,62.121162 221.506668,60.130402 222.058945,57.380081 C222.068375,56.981899 222.030792,57.056034 222.382538,56.958626 C223.170273,54.505222 223.606262,52.149227 224.042252,49.793232 C224.042252,49.793232 223.929565,49.422951 223.941010,49.325943 C224.604492,48.932899 225.256531,48.636864 226.316422,48.336090 C227.308716,48.805977 227.893173,49.280602 228.732727,49.882557 C228.276794,52.677208 227.565735,55.344528 226.767593,58.374451 C226.417908,59.242699 226.155319,59.748356 225.863739,60.551571 z"/><path fill="#F4F4F5" d="M234.342560,99.695297 C234.583542,100.264946 234.637909,100.993759 234.692276,101.722572 C234.424332,101.422829 234.156387,101.123093 233.840485,100.503685 C233.792542,100.184013 234.155930,99.854469 234.342560,99.695297 z"/><path fill="#F4F4F5" d="M221.878998,171.071442 C222.083557,171.164581 222.124664,171.339050 222.030853,171.746124 C221.755859,171.793274 221.600952,171.615982 221.489792,171.414581 C221.470428,171.379532 221.635590,171.242630 221.878998,171.071442 z"/><path fill="#1C1C1C" d="M215.872375,47.934998 C216.214508,47.976879 216.376709,48.199253 216.286453,48.748360 C215.920151,48.755230 215.806305,48.435360 215.872375,47.934998 z"/><path fill="#D9D9D9" d="M126.285614,276.202148 C127.376366,275.950439 128.256348,275.970673 129.825714,276.233368 C130.389740,278.634430 130.264374,280.793091 130.101257,283.349121 C129.649033,286.891785 131.685318,287.111938 133.988953,287.013062 C134.000000,287.000000 133.973801,287.021729 133.980469,287.354370 C135.759613,289.481415 139.045639,291.326416 138.987686,293.059570 C138.869080,296.605804 141.134415,296.885651 142.936478,298.259216 C141.989410,298.989014 141.190903,299.458588 140.392380,299.928162 C137.224899,298.619751 134.057419,297.311340 130.501724,295.941589 C130.040512,295.548859 129.967529,295.217468 129.751099,294.675690 C128.713898,290.345856 127.822609,286.225800 126.913689,282.109680 C126.887955,281.993134 126.674156,281.918152 126.548050,281.823792 C126.300674,282.160339 126.053307,282.496918 125.385956,282.896790 C124.821266,282.842529 124.676559,282.724915 124.531845,282.607300 C125.046181,280.562897 125.560516,278.518524 126.285614,276.202148 z"/><path fill="#D9D9D9" d="M125.183594,283.135803 C125.155525,284.393372 124.909821,285.475189 124.664124,286.557037 C124.512627,286.543304 124.361130,286.529602 124.209633,286.515869 C124.209633,285.423706 124.209633,284.331573 124.370743,282.923340 C124.676559,282.724915 124.821266,282.842529 125.183594,283.135803 z"/><path fill="#1C1C1C" d="M223.611084,49.684334 C223.606262,52.149227 223.170273,54.505222 222.341431,56.952518 C222.359024,54.554363 222.769485,52.064899 223.611084,49.684334 z"/><path fill="#F5F5F5" d="M140.333633,300.292419 C141.190903,299.458588 141.989410,298.989014 143.256927,298.259949 C144.155701,298.001404 144.585434,298.002319 145.015182,298.003235 C145.290329,299.746399 145.147369,301.706116 145.917358,303.193024 C148.440338,308.065002 147.933105,311.298004 143.813477,315.387970 C142.691483,316.501862 142.135117,318.170380 141.122787,319.426056 C140.968750,319.617157 139.744232,318.945251 139.128296,318.284851 C139.162796,317.933624 139.083847,317.970032 139.004883,318.006439 C137.649368,316.383575 136.293869,314.760712 134.567169,312.704285 C133.784149,312.242004 133.372299,312.213287 132.960449,312.184601 C135.398605,308.341949 137.836746,304.499298 140.333633,300.292419 z"/><path fill="#181918" d="M133.119904,312.511719 C133.372299,312.213287 133.784149,312.242004 134.225693,312.656921 C134.255386,313.043121 133.940140,313.220551 133.802856,313.338135 C133.536865,313.250092 133.408127,313.044464 133.119904,312.511719 z"/><path fill="#F4F4F5" d="M168.385803,251.993683 C167.617249,253.374130 166.478821,254.757248 165.484528,256.467865 C164.274963,256.795349 162.921249,256.795349 161.567535,256.795349 C161.411514,256.257050 161.255508,255.718750 161.099503,255.180450 C163.404984,254.119095 165.710464,253.057724 168.385803,251.993683 z"/><path fill="#F4F4F5" d="M165.022980,245.133789 C165.445404,244.633636 165.873276,244.534683 166.699158,244.744781 C167.406967,244.986099 167.716736,244.918335 168.026520,244.850555 C168.341568,245.653488 168.656631,246.456421 169.010773,247.615143 C167.709381,247.158951 166.368912,246.346970 165.022980,245.133789 z"/><path fill="#D3D3D3" d="M177.847229,269.731750 C177.427948,269.834015 176.858551,269.673035 176.140457,269.244385 C176.560211,269.140656 177.128662,269.304596 177.847229,269.731750 z"/><path fill="#F4F4F5" d="M180.461807,268.525085 C180.437317,268.480377 180.486298,268.569824 180.461807,268.525085 z"/><path fill="#F4F4F5" d="M171.024445,257.930511 C170.983551,257.696777 171.185394,257.380096 171.688049,257.100037 C171.748291,257.373596 171.507721,257.610596 171.024445,257.930511 z"/><path fill="#F9F9F9" d="M151.841751,254.247681 C152.049362,254.265549 152.161316,254.539093 152.114777,254.909973 C151.886230,254.839325 151.816162,254.671356 151.841751,254.247681 z"/><path fill="#F9F9F9" d="M167.776566,244.672607 C167.716736,244.918335 167.406967,244.986099 167.015747,244.854553 C167.131760,244.601715 167.329178,244.548187 167.776566,244.672607 z"/><path fill="#F9F9F9" d="M197.011536,307.015686 C196.919113,307.051117 196.813370,307.070984 196.837173,307.032318 C196.966705,306.973785 196.998230,307.000092 197.011536,307.015686 z"/><path fill="#FDFDFD" d="M130.139023,282.951721 C130.264374,280.793091 130.389740,278.634430 130.265381,276.216187 C129.446762,265.364380 136.876251,263.204224 144.546402,266.217255 C146.686523,267.057953 148.955597,267.578491 151.178940,268.197662 C156.646652,269.720306 160.519501,274.805664 161.083481,280.473633 C161.352463,283.177002 162.513351,285.791168 163.265289,288.447083 C164.182602,291.687225 165.094711,294.928864 166.018890,298.602173 C164.796646,303.886353 161.460403,306.758636 156.751205,309.024933 C155.421646,306.485138 154.195648,304.143188 152.975403,301.026550 C153.203979,297.374359 152.036499,295.805664 148.986740,296.009003 C148.990173,294.938934 148.993591,293.868896 149.210495,292.287598 C149.688339,291.576935 149.877487,291.321716 149.903198,290.851379 C149.542694,290.793884 149.270432,290.895721 148.996094,291.249542 C148.997849,291.669464 149.001663,291.837433 149.005493,292.005371 C148.085831,293.140503 147.166168,294.275665 145.712799,295.689667 C143.797989,294.891693 141.280777,293.864471 141.231171,292.729431 C141.009293,287.654266 137.889648,286.997589 133.973801,287.021729 C133.973801,287.021729 134.000000,287.000000 134.001556,286.667969 C134.084946,285.107452 134.166794,283.878937 134.274994,282.254425 C132.599106,282.536957 131.369064,282.744354 130.139023,282.951721 z"/><path fill="#F4F4F5" d="M133.980469,287.354370 C137.889648,286.997589 141.009293,287.654266 141.231171,292.729431 C141.280777,293.864471 143.797989,294.891693 145.562332,295.970337 C145.791565,296.529358 145.637573,297.086517 145.249390,297.823456 C144.585434,298.002319 144.155701,298.001404 143.405487,297.999756 C141.134415,296.885651 138.869080,296.605804 138.987686,293.059570 C139.045639,291.326416 135.759613,289.481415 133.980469,287.354370 z"/><path fill="#F4F4F5" d="M148.986053,296.382874 C152.036499,295.805664 153.203979,297.374359 152.966858,300.646790 C151.950562,301.041656 150.948593,301.041656 149.406830,301.041656 C149.281494,299.767395 149.133438,298.262054 148.986053,296.382874 z"/><path fill="#EDEDED" d="M98.259750,131.111832 C96.921432,127.367615 95.840637,123.736656 94.380142,120.045593 C93.846504,116.847488 93.692558,113.709488 93.251099,110.279175 C93.132133,108.815880 93.300697,107.644905 94.107254,106.231903 C95.508507,105.991714 96.271751,105.993538 97.034996,105.995361 C98.023163,112.045715 99.011322,118.096062 99.969170,124.912231 C99.961525,127.117928 99.984200,128.557800 100.006866,129.997665 C100.008507,130.442780 100.010155,130.887878 100.013222,131.666840 C99.515518,131.742157 99.016396,131.483612 98.259750,131.111832 z"/><path fill="#F4F4F5" d="M97.247086,105.793816 C96.271751,105.993538 95.508507,105.991714 94.363693,105.984558 C94.726883,103.108849 95.471649,100.238457 96.216415,97.368065 C96.630669,97.434090 97.044922,97.500114 97.459175,97.566139 C97.459175,100.241516 97.459175,102.916893 97.247086,105.793816 z"/><path fill="#F4F4F5" d="M100.186089,129.745377 C99.984200,128.557800 99.961525,127.117928 99.989182,125.332054 C100.148109,126.488396 100.256714,127.990738 100.186089,129.745377 z"/><path fill="#151616" d="M98.164650,79.746918 C98.038170,79.881332 97.937828,79.397514 97.937866,79.150436 C98.055641,79.139740 98.173386,79.376122 98.164650,79.746918 z"/><path fill="#151616" d="M118.717545,60.739540 C118.910736,60.751289 119.223190,60.873375 119.305389,61.033089 C119.075142,61.070721 118.836800,60.849876 118.717545,60.739540 z"/><path fill="#F4F4F5" d="M130.101257,283.349121 C131.369064,282.744354 132.599106,282.536957 134.274994,282.254425 C134.166794,283.878937 134.084946,285.107452 133.990509,286.681061 C131.685318,287.111938 129.649033,286.891785 130.101257,283.349121 z"/><path fill="#F4F4F5" d="M148.998169,290.997559 C149.270432,290.895721 149.542694,290.793884 149.654938,290.847168 C149.494934,291.002319 148.998169,290.997559 148.998169,290.997559 z"/><path fill="#E5E4E4" d="M148.996094,291.249542 C148.998169,290.997559 149.494934,291.002319 149.743195,291.006531 C149.877487,291.321716 149.688339,291.576935 149.209457,291.886353 C148.994934,291.996307 149.000015,292.000000 149.002747,292.002686 C149.001663,291.837433 148.997849,291.669464 148.996094,291.249542 z"/></svg>