<svg xmlns="http://www.w3.org/2000/svg" viewBox="69.0 396.7 180.6 270.3"><path fill="#F8F8F8" d="M76.032784,463.975006 C76.032784,463.975006 76.031876,463.549683 76.350113,463.203125 C78.264786,460.385651 79.861214,457.914795 81.701172,455.250549 C81.941750,454.693909 81.938789,454.330658 82.143860,454.025024 C82.369911,453.850647 82.387939,453.618652 82.405975,453.386627 C82.285736,453.613281 82.165489,453.839905 81.761589,453.961792 C81.240837,454.160767 81.003738,454.464478 80.435150,454.840698 C79.764290,454.615112 79.424934,454.317047 79.085579,454.018982 C79.337502,453.803070 79.589424,453.587158 80.126892,452.996979 C80.651291,452.175964 80.890137,451.729248 81.421631,451.101562 C84.766350,446.294708 87.818420,441.668823 90.842957,437.084656 C90.763176,437.061554 90.161179,436.887299 89.470726,436.687439 C89.586861,436.482330 89.671646,436.149567 89.801208,436.131134 C91.843025,435.840179 93.890594,435.589661 95.891075,435.335663 C94.641655,431.169739 96.845451,429.037354 104.463028,427.560028 C104.696457,428.948578 104.929085,430.332306 105.161705,431.716034 C107.311920,426.213440 111.140587,423.895111 116.559616,424.606171 C117.360321,422.772552 118.104111,421.069305 118.947304,419.138458 C114.758286,420.079071 112.176025,418.943848 112.105095,413.684753 C115.443291,414.012543 118.372215,414.115082 121.208694,414.680969 C122.175552,414.873901 123.638412,416.242371 123.626839,417.055939 C123.571014,420.977448 123.089233,424.892883 122.758591,428.810486 C122.758591,428.810486 122.859779,428.848206 122.580429,428.885101 C122.121094,429.230042 121.941109,429.538086 121.761124,429.846130 C121.761124,429.846130 121.864525,429.873749 121.605545,429.906799 C121.048050,430.152161 120.907722,430.441284 120.614594,430.997101 C117.573189,433.449890 114.842766,435.712708 111.705383,437.978271 C107.524788,439.767822 106.919296,442.608002 109.082932,447.983795 C109.807228,447.218750 110.583748,446.398560 111.515610,445.904663 C112.040909,448.515015 112.347626,450.811462 112.791870,453.080994 C114.609985,462.369171 113.650970,471.034821 107.134842,478.661835 C108.076706,479.267059 109.005951,479.864197 109.292000,480.048004 C112.312553,476.852478 114.983948,474.026337 117.617584,471.213135 C117.579826,471.226105 117.503189,471.248505 117.751266,470.846832 C120.613289,471.393646 123.253349,472.276459 125.836105,473.303406 C132.523117,475.962311 138.040237,480.000916 139.985260,487.291992 C140.781143,490.275452 142.135635,492.087067 144.901794,493.066620 C144.805664,494.017090 144.610916,495.169952 144.936172,495.342499 C149.326996,497.671570 153.754013,499.943817 158.277374,501.998322 C158.900513,502.281342 160.090332,501.316772 161.377045,500.972839 C162.703674,501.699219 163.671066,502.382538 164.283844,503.314026 C164.620621,505.485779 165.032700,507.585754 166.097916,509.273438 C166.856049,510.474609 168.493698,511.120605 169.984863,512.336792 C170.526794,515.828491 173.312943,519.328613 168.983215,521.657593 C168.808640,521.191650 168.655914,520.954346 168.503189,520.717102 C168.333618,521.101746 168.164047,521.486450 167.794342,521.953979 C167.594208,522.036926 167.161713,522.062744 166.809418,522.076782 C164.957458,522.733765 163.457779,523.376709 161.509155,524.023804 C149.847061,525.120605 142.150635,519.260742 135.471878,511.236481 C135.085220,510.771912 133.687729,511.148682 132.532043,510.819519 C131.917130,506.316711 131.530853,502.128357 131.420074,497.711243 C132.388702,493.938904 130.990936,492.176910 127.150711,492.244873 C126.780884,491.917175 126.730057,491.664886 126.891693,490.998657 C126.492813,490.008972 126.029015,489.403442 125.565216,488.797943 C125.622025,489.834686 125.678848,490.871460 125.818710,492.197571 C125.834396,493.978241 125.767044,495.469604 125.399925,496.867920 C123.311493,496.258698 121.522820,495.742554 119.734146,495.226410 C119.651543,495.589264 119.568947,495.952148 119.486351,496.315002 C115.804832,493.840271 112.123314,491.365540 107.967934,488.572266 C108.717155,495.552551 112.427429,500.078735 117.036285,504.364685 C117.030205,505.139984 117.097633,505.583374 116.819794,505.999695 C115.182335,504.915375 113.890129,503.858154 112.638931,502.834473 C112.300316,503.536926 111.795097,504.786285 111.698883,504.755524 C107.999084,503.573425 104.241707,502.478027 100.737251,500.844849 C99.878304,500.444519 97.435059,498.029572 101.057739,497.113342 C101.181465,497.283478 101.255806,497.329132 101.330139,497.374786 C101.216309,497.252747 101.102486,497.130707 100.948463,496.663605 C99.797409,494.719788 98.686562,493.121063 97.594467,491.549316 C90.646370,494.404663 89.473457,488.196686 87.357491,485.763855 C84.673820,485.763855 82.889977,485.763855 81.085205,485.763855 C81.036377,486.818878 80.968193,488.292145 80.842453,490.062683 C80.561920,490.891541 80.338943,491.423096 79.967377,491.654297 C79.525070,489.272217 79.231339,487.190460 79.043449,484.734436 C78.155380,483.559479 77.161476,482.758850 76.141502,481.551910 C73.630981,475.808472 75.706718,471.107269 78.149849,466.449707 C78.511543,465.760223 78.782593,465.023193 79.241425,463.975006 C77.925552,463.975006 76.979164,463.975006 76.032784,463.975006 M105.531860,480.172272 C105.595200,480.345001 105.658539,480.517731 105.721878,480.690460 C105.836372,480.641144 106.049362,480.589905 106.048431,480.542877 C106.044243,480.331299 105.979340,480.120941 106.645828,480.286896 C106.768440,479.940796 106.891045,479.594696 107.013649,479.248596 C106.682106,479.506500 106.350563,479.764435 105.531860,480.172272 M89.972099,475.013702 C90.145050,469.385742 90.836365,463.691925 88.700737,458.357269 C87.972572,458.333252 87.244400,458.309235 86.516235,458.285187 C85.798103,462.494385 85.079979,466.703552 84.361847,470.912750 C84.645859,470.857208 84.929878,470.801636 85.213890,470.746094 C86.115295,473.278015 87.016701,475.809906 88.094002,478.835907 C88.806297,477.632324 89.343758,476.724152 89.972099,475.013702 M90.378662,453.651581 C90.018936,454.104309 89.654121,454.553345 89.315819,455.021576 C89.300385,455.042969 89.524132,455.237183 89.636459,455.350861 C89.996750,454.898621 90.357048,454.446381 90.378662,453.651581 M79.252945,476.093689 C79.373116,476.408997 79.493286,476.724304 79.613457,477.039612 C79.594536,476.644073 79.575615,476.248535 79.252945,476.093689 M78.547142,479.514618 C78.547142,479.514618 78.487053,479.548431 78.547142,479.514618 z"/><path fill="#F6F5F6" d="M199.093475,425.981323 C199.093231,425.541931 199.092987,425.102509 199.180298,423.958313 C199.661011,420.072784 200.054169,416.892090 200.447327,413.711395 C200.447327,413.711395 200.613693,413.646881 201.061356,413.460144 C203.999817,413.157532 206.490616,413.041626 209.341431,412.970276 C210.529037,413.690430 211.356613,414.366028 212.071777,415.375336 C209.657028,417.017517 207.354706,418.325958 205.051300,419.635071 C205.316177,420.268188 205.980316,421.855560 206.626831,423.400848 C212.196625,422.339600 214.341064,426.471710 216.751343,430.782471 C217.156601,428.679016 217.486862,426.964874 217.972946,424.441895 C221.175797,426.481079 223.935165,428.237915 227.151321,430.285553 C226.536957,426.670502 226.030151,423.688416 225.463455,420.353882 C226.593613,418.738953 228.327255,416.261627 229.904709,414.007477 C234.811874,428.672638 231.760468,430.490540 225.390228,434.151672 C228.213379,434.151672 230.540802,434.151672 233.360214,434.151672 C232.261307,434.825195 231.658279,435.194794 231.847900,435.078552 C232.846313,437.574432 233.663742,439.617889 234.578949,441.825195 C234.834671,442.193207 235.025711,442.359283 235.435547,442.761108 C236.746414,444.367157 237.871613,445.699432 238.996796,447.031677 C238.979874,447.366791 239.085602,447.657288 239.625061,448.349976 C240.395569,449.739044 240.855011,450.681305 241.562759,452.132812 C240.296463,451.583069 239.641739,451.298828 238.936569,450.722137 C238.665771,450.491882 238.445419,450.554047 238.225067,450.616241 C238.265350,450.750885 238.308960,451.002350 238.345367,451.001343 C238.587952,450.994415 238.829010,450.933502 238.830597,451.218323 C239.783661,454.067352 242.642975,457.462067 241.863449,458.948547 C239.321396,463.796051 246.154541,467.237671 242.650925,472.531677 C240.773010,475.369141 242.738983,480.750580 242.989441,484.986725 C243.008530,484.989441 242.984177,484.959106 242.743011,484.959534 C242.501846,484.959961 242.097733,484.696655 242.145935,484.340271 C241.955414,482.662506 241.716675,481.341156 241.241638,478.711945 C240.269714,483.071594 239.610321,486.029297 238.704956,488.746094 C236.702133,487.070984 234.945297,485.636780 233.982574,484.850830 C230.891113,486.871338 227.988571,490.201385 224.839508,490.453644 C221.136963,490.750214 219.948593,492.192963 218.760254,495.015961 C218.268661,495.187714 218.018021,495.344727 217.767365,495.501709 C218.181168,495.665009 218.594971,495.828339 218.956528,496.337860 C215.837692,499.718292 212.400375,501.893158 207.724792,501.799622 C209.550430,496.247253 217.146500,493.059448 213.284378,485.785492 C210.118546,488.574951 209.096481,494.111694 203.384583,493.074402 C201.620819,492.754150 199.934372,492.008057 198.126587,491.198975 C198.083023,490.585388 198.125397,490.229767 198.392639,489.561584 C198.659286,488.450500 198.701065,487.651978 198.742844,486.853424 C198.496185,486.800140 198.249527,486.746857 198.002869,486.693542 C197.665909,487.442322 197.328934,488.191071 196.715103,489.207886 C195.566071,491.298279 194.693909,493.120636 194.447891,493.634705 C195.225555,501.074738 195.912079,507.642731 196.222076,514.187744 C193.883133,516.285522 192.062759,518.562866 189.930588,520.496399 C184.439774,525.475403 177.868744,523.534912 175.928528,516.594177 C175.651962,515.604858 174.434845,514.878540 173.437286,513.681641 C173.384857,511.473999 173.548187,509.615204 173.931747,507.549683 C176.202881,504.290619 178.321640,501.279510 180.228287,498.139587 C180.500519,497.691193 179.745621,496.619110 179.634918,495.540955 C181.055634,494.505402 182.307556,493.764496 182.327026,493.752960 C182.327026,490.783752 181.975311,488.632263 182.396103,486.644257 C183.456848,481.632690 186.097458,477.470795 190.129791,474.244049 C190.699036,474.089203 191.268295,473.934357 192.316483,473.373779 C194.942245,472.160278 197.035873,470.913208 199.248093,470.645325 C202.765244,470.219391 206.350449,470.122894 209.149323,473.279999 C210.918961,475.276062 213.169342,476.845917 215.204071,478.606934 C215.586548,478.233307 215.969025,477.859650 216.351501,477.485992 C209.142273,470.879395 207.252075,462.635590 208.678879,453.377350 C209.055756,450.931885 210.213623,448.323669 209.708557,446.084320 C208.652740,441.403259 211.086182,435.054443 204.184586,432.769928 C204.184586,432.769928 204.101501,432.900940 204.081665,432.582703 C203.536682,431.709625 203.011566,431.154785 202.486435,430.599945 C202.486435,430.599945 202.418045,430.579651 202.383362,430.377502 C202.243668,429.957336 202.074661,429.815826 201.841644,429.750763 C201.841644,429.750763 201.795059,429.378601 201.518311,429.038055 C200.681244,427.996735 200.120895,427.295990 199.560547,426.595245 C199.560547,426.595245 199.488602,426.487915 199.433563,426.290100 C199.378510,426.092316 199.093475,425.981323 199.093475,425.981323 M231.898895,454.761688 C234.263367,460.989594 230.848007,466.681335 230.292755,472.638458 C230.098007,474.727875 230.497757,476.872681 230.626038,478.992188 C235.382629,469.870331 237.890656,460.829956 231.111343,451.940155 C231.271820,452.672882 231.432297,453.405579 231.898895,454.761688 z"/><path fill="#F1F1F1" d="M135.359161,444.124725 C135.658264,444.129913 135.885178,444.004486 136.412811,443.416077 C138.444519,442.004578 140.103333,440.925446 141.762131,439.846283 C141.503326,439.632416 141.244507,439.418549 140.985703,439.204681 C141.333160,438.135590 141.680618,437.066528 141.912048,436.354492 C140.282242,435.904602 138.646500,435.453094 137.010773,435.001587 C137.010773,435.001587 137.000793,434.998413 137.372223,434.960205 C141.822968,433.618683 145.902283,432.315430 150.042892,430.992554 C148.967606,430.263519 147.578110,429.321472 146.188629,428.379395 C146.339844,427.969299 146.491074,427.559204 146.642288,427.149109 C152.102036,428.751801 157.561798,430.354523 163.021561,431.957214 C163.021561,431.957214 163.266266,432.173767 163.584229,432.478760 C165.335037,434.947418 167.678131,436.994537 167.973846,439.303772 C168.356613,442.293182 170.437180,441.592987 171.857269,442.398804 C172.617325,443.226532 173.377365,444.054291 174.508286,445.304749 C175.567993,446.183594 176.256805,446.639771 176.945618,447.095917 C176.945618,447.095917 176.964386,447.010986 177.066696,447.299744 C177.714111,448.134552 178.259232,448.680634 178.804352,449.226685 C178.804352,449.226685 178.863327,449.128296 178.824799,449.370483 C178.854706,449.930359 179.029938,450.169891 179.311966,450.331268 C179.311966,450.331268 179.358521,450.495087 179.529572,450.913513 C179.700607,453.050293 179.700607,454.768707 179.700607,457.433441 C176.827087,453.080597 171.023621,461.902588 170.280869,455.370819 C167.695419,455.428955 165.438065,456.062225 163.707703,455.372833 C161.489365,454.488983 159.889618,452.036499 157.668503,451.179810 C154.914520,450.117584 151.487015,449.017975 148.948166,449.821991 C147.313538,450.339630 146.526474,454.190308 145.856369,456.680817 C145.665405,457.390533 147.035889,458.832001 147.998428,459.480865 C150.663406,461.277313 153.273834,462.390961 150.509949,466.614532 C148.696594,469.385559 148.648651,473.311890 148.050369,475.743958 C150.645889,473.025085 153.648270,469.900940 156.619186,466.747162 C157.110214,466.225891 157.429352,465.546814 157.887390,464.989471 C159.082626,463.535034 160.054520,461.414459 161.591248,460.846252 C163.481842,460.147217 165.866074,460.915771 168.016647,460.763428 C175.678513,460.220795 181.341110,467.617615 178.864258,475.364136 C178.545425,475.471405 178.426987,475.517792 178.308563,475.564148 C178.502533,475.765656 178.696503,475.967163 179.011871,476.506592 C181.740799,480.669098 179.373962,490.423187 174.905884,492.889893 C173.709198,490.556580 172.739868,489.453735 170.173157,491.093506 C168.472397,492.180054 165.867584,493.172241 164.136627,492.650482 C158.232422,490.870789 152.536041,488.401733 146.445450,486.075470 C146.370514,486.269836 146.031952,487.147980 145.391571,487.757385 C144.031464,484.367371 142.973175,481.246094 141.910477,478.111725 C141.334671,478.582611 140.791534,479.026764 139.811996,479.827789 C139.811996,477.347839 139.811996,475.359039 139.811996,473.001923 C139.106964,473.752106 138.777023,474.103180 138.278320,474.281982 C138.109543,474.109680 137.767105,473.770020 137.735321,473.403992 C138.007370,471.857574 138.311203,470.677155 138.751495,469.255493 C138.829269,468.752563 138.770584,468.490967 138.711914,468.229370 C138.412338,468.422913 138.112747,468.616455 137.425293,468.836365 C135.792145,468.862732 134.546860,468.862732 133.660278,468.862732 C134.420792,466.594727 135.089432,464.600708 135.940948,462.422058 C136.161713,461.880676 136.199585,461.523865 136.237457,461.167053 C135.753448,461.369995 135.269470,461.572968 134.426819,461.826416 C133.436844,461.876953 132.805557,461.876953 132.585144,461.876953 C134.570129,458.228485 136.575592,454.542389 138.227341,451.506439 C136.180038,449.343597 134.812469,447.898865 133.444916,446.454132 C133.444916,446.454132 133.236694,446.220947 133.609360,446.147156 C134.441071,445.423798 134.900116,444.774261 135.359161,444.124725 M171.582794,474.909546 C173.040894,474.909546 174.498993,474.909546 176.403488,474.909546 C174.442947,470.475555 170.814240,471.957214 168.200424,472.196960 C161.195801,472.839417 155.917160,476.479919 152.714188,481.747406 C158.493774,479.554535 164.594681,477.239746 171.582794,474.909546 M165.097992,462.205933 C164.038055,462.914825 162.978119,463.623718 161.918182,464.332611 C164.356598,465.603271 166.795013,466.873932 169.233429,468.144592 C169.587265,467.578796 169.941116,467.012970 170.294952,466.447144 C168.789154,465.142059 167.283356,463.836975 165.097992,462.205933 z"/><path fill="#181918" d="M133.065552,446.453613 C134.812469,447.898865 136.180038,449.343597 138.227341,451.506439 C136.575592,454.542389 134.570129,458.228485 132.585144,461.876953 C132.805557,461.876953 133.436844,461.876953 134.664154,462.040894 C135.426132,462.338806 135.592102,462.472717 135.758057,462.606659 C135.089432,464.600708 134.420792,466.594727 133.660278,468.862732 C134.546860,468.862732 135.792145,468.862732 137.618073,469.017029 C138.337494,469.279816 138.476257,469.388306 138.615021,469.496765 C138.311203,470.677155 138.007370,471.857574 137.510193,473.552551 C137.355286,474.327484 137.393723,474.587860 137.432144,474.848236 C137.770447,474.716888 138.108765,474.585571 138.447083,474.454254 C138.777023,474.103180 139.106964,473.752106 139.811996,473.001923 C139.811996,475.359039 139.811996,477.347839 139.811996,479.827789 C140.791534,479.026764 141.334671,478.582611 141.910477,478.111725 C142.973175,481.246094 144.031464,484.367371 145.482635,488.060028 C155.081085,493.822876 164.465271,497.844574 175.187012,493.107544 C179.373962,490.423187 181.740799,480.669098 179.110703,476.301361 C179.088150,475.758240 179.064651,475.303253 179.064651,475.303253 C181.341110,467.617615 175.678513,460.220795 168.016647,460.763428 C165.866074,460.915771 163.481842,460.147217 161.591248,460.846252 C160.054520,461.414459 159.082626,463.535034 157.887390,464.989471 C157.429352,465.546814 157.110214,466.225891 156.619186,466.747162 C153.648270,469.900940 150.645889,473.025085 148.050369,475.743958 C148.648651,473.311890 148.696594,469.385559 150.509949,466.614532 C153.273834,462.390961 150.663406,461.277313 147.998428,459.480865 C147.035889,458.832001 145.665405,457.390533 145.856369,456.680817 C146.526474,454.190308 147.313538,450.339630 148.948166,449.821991 C151.487015,449.017975 154.914520,450.117584 157.668503,451.179810 C159.889618,452.036499 161.489365,454.488983 163.707703,455.372833 C165.438065,456.062225 167.695419,455.428955 170.280869,455.370819 C171.023621,461.902588 176.827087,453.080597 179.700607,457.433441 C179.700607,454.768707 179.700607,453.050293 179.584442,450.978638 C180.178116,452.323090 181.446548,454.006042 181.491959,455.721375 C181.622726,460.662292 180.825119,465.650116 181.206940,470.556091 C181.631653,476.013306 183.339172,476.572327 187.949570,473.745148 C188.388519,473.475952 189.137924,473.713043 189.936493,473.979553 C186.097458,477.470795 183.456848,481.632690 182.396103,486.644257 C181.975311,488.632263 182.327026,490.783752 182.327026,493.752960 C182.307556,493.764496 181.055634,494.505402 179.360229,495.696533 C176.926437,498.040741 174.940720,499.939514 172.944351,501.827026 C171.402679,503.284637 171.722824,505.802704 173.711517,507.756378 C173.548187,509.615204 173.384857,511.473999 173.399078,514.118774 C173.777512,518.878601 173.229614,523.129761 178.308044,525.547241 C170.017990,525.958740 168.981842,525.606689 167.161713,522.062744 C167.161713,522.062744 167.594208,522.036926 168.045807,522.036072 C168.666641,521.985596 168.835861,521.935913 169.005066,521.886292 C173.312943,519.328613 170.526794,515.828491 169.892120,511.997528 C167.915039,508.579224 166.276749,505.822540 164.638458,503.065887 C163.671066,502.382538 162.703674,501.699219 161.180023,500.696838 C155.430817,497.856293 150.237869,495.334778 145.044907,492.813263 C142.135635,492.087067 140.781143,490.275452 139.985260,487.291992 C138.040237,480.000916 132.523117,475.962311 125.836105,473.303406 C123.253349,472.276459 120.613289,471.393646 118.057533,470.742737 C118.022499,470.816315 117.929268,470.592316 117.836037,470.368317 C117.775810,470.645630 117.715584,470.922913 117.655350,471.200195 C114.983948,474.026337 112.312553,476.852478 109.292000,480.048004 C109.005951,479.864197 108.076706,479.267059 107.134842,478.661835 C113.650970,471.034821 114.609985,462.369171 112.791870,453.080994 C112.347626,450.811462 112.040909,448.515015 111.853165,445.733521 C112.597992,442.821655 115.108643,440.427795 112.112343,437.975555 C114.842766,435.712708 117.573189,433.449890 120.638741,431.295959 C120.983757,431.604462 120.993645,431.804108 121.003540,432.003754 C119.872627,433.628632 118.699226,435.226013 117.623955,436.886871 C116.731720,438.265045 115.143822,439.789062 115.260956,441.126099 C115.938309,448.858276 113.618462,456.472565 117.837105,464.492157 C120.397942,469.360291 123.216721,470.207367 127.038399,470.872742 C129.948517,471.379364 131.176651,469.659729 130.110764,466.505615 C129.586670,464.954773 129.802933,463.121033 129.844284,461.419220 C129.910431,458.697052 129.844452,455.929352 130.332718,453.272461 C130.762451,450.934174 131.875122,448.721344 133.065552,446.453613 z"/><path fill="#0F0F0F" d="M117.165054,506.026794 C117.097633,505.583374 117.030205,505.139984 117.480927,504.353790 C120.399315,504.011017 122.799568,504.011017 125.699684,504.011017 C125.699684,501.430328 125.699684,499.195618 125.699684,496.960938 C125.767044,495.469604 125.834396,493.978241 126.023499,492.169189 C126.351776,491.665192 126.578957,491.509003 126.826775,491.382843 C126.730057,491.664886 126.780884,491.917175 127.140594,492.649231 C127.828812,495.361511 128.355698,497.564331 128.987900,500.207489 C129.922836,499.224518 130.533707,498.582245 131.144577,497.939972 C131.530853,502.128357 131.917130,506.316711 132.524078,511.183868 C136.945114,521.038269 143.633423,526.660461 154.126724,526.953369 C154.762634,526.971069 155.380463,527.637756 155.638474,528.073975 C153.469864,528.785583 151.632217,529.339905 149.883438,530.098938 C148.874802,530.536682 148.009735,531.305359 146.929199,532.072937 C146.778320,532.220825 146.496689,532.535767 146.082825,532.489014 C144.507614,532.091919 143.346252,531.741638 140.998322,531.033386 C142.323120,532.831543 142.991333,533.738525 143.653976,534.632812 C143.648407,534.620178 143.724442,534.611877 143.384277,534.836792 C140.736343,533.687805 138.428558,532.313965 136.014252,530.580566 C133.664413,527.547546 131.421112,524.874146 128.513123,521.408569 C128.513123,525.175598 128.513123,527.988586 128.513123,531.697021 C127.023933,529.655762 126.158104,528.468933 124.921967,526.774475 C124.541847,530.368652 124.238480,533.237122 123.953903,536.072754 C123.972687,536.039917 124.017723,535.979065 123.670959,535.952820 C121.162857,532.917175 119.001534,529.907715 116.782822,526.818420 C116.475082,527.592468 116.013443,528.753540 115.021431,531.248718 C113.903709,526.966003 113.148849,524.073608 112.393990,521.181213 C111.962326,521.210510 111.530663,521.239746 111.099007,521.269043 C110.853172,526.953857 110.331894,532.638367 112.333771,539.132690 C112.902740,537.597900 113.223694,536.732117 113.649376,535.583801 C114.928894,539.255493 116.071602,542.534546 117.148331,545.874512 C117.082359,545.935425 116.954369,546.061401 116.954369,546.061401 C112.379868,545.595520 110.642899,541.773987 110.307297,538.442993 C109.751610,532.927551 105.316223,527.925293 108.595650,521.718567 C109.826492,519.389038 106.967422,518.164734 104.222580,517.920898 C98.228462,517.388550 93.880058,513.783203 90.385071,508.890289 C93.444077,509.576752 96.801796,510.141846 98.884872,512.078186 C103.227325,516.114746 109.804092,517.172485 114.722092,513.691772 C113.571640,512.596375 112.417923,511.500183 110.579475,509.753479 C114.270554,509.753479 117.067848,509.753479 119.865135,509.753479 C120.147018,509.328308 120.428902,508.903168 120.710785,508.477997 C119.528877,507.660919 118.346970,506.843872 117.165054,506.026794 z"/><path fill="#E3E3E3" d="M196.287292,629.848877 C195.901764,630.559875 195.516235,631.270935 194.729248,632.113464 C193.776886,632.030151 192.871216,631.497131 192.732285,631.651978 C191.786758,632.705994 191.002655,633.904907 189.838684,635.075562 C187.750885,635.154175 185.985565,635.320679 184.232895,635.233521 C183.217102,635.182983 182.216553,634.475952 181.217911,634.496338 C178.243607,634.556824 175.273621,634.830872 172.477173,634.711609 C173.085327,633.828308 173.518250,633.254883 174.273209,632.254883 C172.241714,632.443176 170.859161,632.571350 169.476624,632.699463 C169.265900,632.410706 169.055161,632.121887 168.844437,631.833069 C170.498627,630.906189 172.152817,629.979309 173.807007,629.052429 C173.508865,628.705933 173.210724,628.359436 172.912598,628.012939 C171.794907,627.943176 170.677231,627.873413 170.206573,627.843994 C171.914841,625.258850 173.574905,622.746704 175.071198,620.072388 C174.907425,619.910156 174.577011,619.588684 174.683090,619.252808 C175.430496,617.761780 176.619644,616.608093 176.622650,615.451355 C176.639832,608.833679 181.681595,606.506958 186.551331,603.847046 C186.254913,605.998535 185.627457,607.999268 184.870880,610.048706 C184.827835,610.064941 184.913910,610.032471 185.333618,610.000671 C186.112061,610.001709 186.556870,610.002075 187.000854,610.001221 C187.000000,610.000000 186.996948,609.997559 186.967422,610.322693 C186.951614,612.759521 186.965347,614.871216 186.850479,617.038025 C186.819733,617.068604 186.917557,617.044067 187.373718,616.975159 C198.896774,614.207520 198.585373,605.903870 197.550705,597.057251 C200.204575,601.247559 202.858444,605.437866 206.009262,610.412842 C208.813782,606.821472 212.030746,602.701904 215.319901,598.489929 C215.047012,598.299194 215.572632,598.666565 216.174515,599.427185 C215.804031,601.867859 215.357285,603.915283 214.910538,605.962708 C214.011215,607.051941 213.111893,608.141235 211.691986,609.604858 C209.964767,613.051147 208.758163,616.122986 207.551544,619.194824 C207.551544,619.194824 207.265335,619.413025 207.070999,619.718018 C206.693924,620.248474 206.608551,620.506287 206.620544,620.796265 C203.357971,623.846008 200.095383,626.895691 196.431519,629.966492 C196.030228,629.987549 195.985046,629.706604 195.985046,629.706604 C195.985046,629.706604 196.287308,629.848877 196.287292,629.848877 z"/><path fill="#121212" d="M175.234985,620.234558 C173.574905,622.746704 171.914841,625.258850 170.206573,627.843994 C170.677231,627.873413 171.794907,627.943176 172.912598,628.012939 C173.210724,628.359436 173.508865,628.705933 173.807007,629.052429 C172.152817,629.979309 170.498627,630.906189 168.844437,631.833069 C169.055161,632.121887 169.265900,632.410706 169.476624,632.699463 C170.859161,632.571350 172.241714,632.443176 174.273209,632.254883 C173.518250,633.254883 173.085327,633.828308 172.228958,634.929932 C168.634140,641.213501 169.432343,645.415039 174.741196,646.008606 C173.014297,649.994812 171.397766,653.726257 169.633514,657.798706 C172.321579,659.883118 175.447693,661.694702 178.231979,656.495056 C178.562164,655.878418 179.955017,655.716431 180.891357,655.560852 C183.327942,655.156189 184.491547,653.690125 184.825851,651.341797 C185.391205,647.370422 186.008087,643.406311 186.687119,638.880676 C187.656906,640.068420 188.142593,640.663330 188.678818,641.320129 C189.188446,639.174622 189.677460,637.115845 190.166473,635.057068 C191.002655,633.904907 191.786758,632.705994 192.732285,631.651978 C192.871216,631.497131 193.776886,632.030151 194.599487,632.413696 C191.266083,635.584778 192.032898,640.159485 190.619064,643.827332 C187.477234,651.977905 184.098587,661.160950 173.952515,663.249817 C170.417557,663.977600 166.364349,662.188049 162.326141,661.055786 C162.104477,660.563416 161.983429,660.120972 162.340759,660.104675 C162.837921,659.728394 162.977753,659.368347 163.071655,659.013672 C163.025711,659.018921 163.043579,659.109680 163.404358,659.110535 C163.531387,658.376282 163.297668,657.641113 163.035461,656.953125 C163.007004,657.000305 163.078629,656.916138 163.072540,656.543091 C162.118469,652.983948 161.170471,649.797852 160.238266,646.664795 C162.449966,647.281799 163.726181,647.637817 164.890182,648.356323 C165.133591,650.116211 165.489212,651.513733 165.844833,652.911194 C167.156540,652.161682 168.468246,651.412170 169.779938,650.662598 C168.536469,649.435242 167.292984,648.207947 166.181702,646.620544 C167.279144,646.031860 168.244400,645.803284 169.942734,645.401062 C166.658371,641.289856 163.745361,637.643433 161.754318,635.151184 C161.477982,633.057617 161.335693,631.979614 161.166748,630.578918 C161.082642,629.835754 161.025162,629.415222 161.036224,628.660034 C161.129425,627.870361 161.154083,627.415466 161.415833,626.791199 C162.167053,625.595947 162.681183,624.570068 163.465698,623.342529 C164.961334,621.412964 166.186569,619.684998 167.670334,617.892456 C168.122559,617.561768 168.316269,617.295837 168.979950,617.072876 C169.601501,616.840210 169.753067,616.564453 170.069458,616.086853 C171.172318,611.930603 172.110321,607.976318 173.333832,603.714844 C176.333862,596.480286 172.036301,590.529419 171.057358,583.918335 C171.335922,583.393555 171.575775,583.176392 172.283463,583.136230 C174.429672,581.805359 176.191772,580.390076 178.164795,578.846619 C178.628372,578.500305 178.829651,578.242126 179.360016,578.043152 C179.280151,580.133423 178.823166,582.125122 178.358536,584.115051 C178.000671,585.647705 177.633148,587.178162 177.222961,588.380310 C176.934372,588.028931 176.692780,588.006775 176.451172,587.984619 C176.728043,588.196533 177.004898,588.408386 177.348114,588.349854 C177.595306,588.037659 177.776154,587.995789 178.097595,588.097778 C178.238174,588.241516 178.539429,588.507874 178.380341,588.839478 C178.260666,592.480042 178.081757,595.941711 181.951172,597.462585 C184.493912,598.462036 187.125656,599.235168 189.695999,600.438965 C188.523056,601.744263 187.371674,602.720276 186.220291,603.696228 C181.681595,606.506958 176.639832,608.833679 176.622650,615.451355 C176.619644,616.608093 175.430496,617.761780 174.438461,619.468628 C174.199600,620.382568 174.311432,620.744629 174.423279,621.106750 C174.693863,620.816040 174.964432,620.525330 175.234985,620.234558 M168.241165,619.531616 C168.446091,619.060913 168.651016,618.590210 168.855942,618.119507 C168.613205,618.033875 168.178452,617.842163 168.157928,617.879272 C167.982330,618.197083 167.881775,618.556274 168.241165,619.531616 z"/><path fill="#151616" d="M238.950943,488.987000 C239.610321,486.029297 240.269714,483.071594 241.241638,478.711945 C241.716675,481.341156 241.955414,482.662506 242.177689,484.534363 C242.435547,485.042938 242.709854,485.001007 242.984177,484.959106 C242.984177,484.959106 243.008530,484.989441 243.250610,484.997894 C243.666901,485.011536 243.841095,485.016724 244.015274,485.021881 C242.167328,488.000336 240.372543,491.013550 238.455368,493.946747 C236.793091,496.489960 235.171753,499.096344 233.204254,501.393860 C231.044800,503.915436 228.526291,506.132507 226.132919,508.449921 C224.380661,510.146545 222.842072,512.396729 220.735199,513.315796 C217.617569,514.675842 214.112137,515.261658 210.714157,515.835938 C206.182770,516.601746 204.890121,519.089661 206.233734,523.235718 C208.356674,529.786438 205.574341,535.526245 201.963043,540.202148 C197.166626,546.412659 195.083771,552.868286 196.062363,560.454956 C196.195679,561.488586 197.024887,562.432373 197.755615,563.934570 C197.979340,564.451294 197.982117,564.869751 197.570679,564.913330 C195.783203,564.902100 194.407181,564.847229 193.022644,564.439087 C192.955109,563.618652 192.896088,563.151489 192.758057,562.265869 C193.601547,556.490234 194.687302,551.154114 195.379410,545.767395 C195.738937,542.969055 195.750076,540.021606 195.274261,537.252197 C194.873108,534.917603 193.541473,532.742859 192.725037,530.271973 C192.487640,529.964844 192.146912,529.883179 191.471039,529.882568 C189.109177,529.168518 187.082474,528.373413 185.055771,527.578369 C192.883438,525.873474 195.293747,520.532959 196.598587,514.210693 C195.912079,507.642731 195.225555,501.074738 194.447891,493.634705 C194.693909,493.120636 195.566071,491.298279 196.902237,489.376160 C197.633423,489.475677 197.900604,489.674927 198.167786,489.874146 C198.125397,490.229767 198.083023,490.585388 198.036209,491.533234 C198.366669,495.399231 198.701553,498.673004 199.080109,502.373596 C201.564163,502.022491 203.679504,501.723511 206.421021,501.336060 C204.678177,503.539459 203.320419,505.256012 201.638580,507.382294 C204.427673,507.772400 206.541000,508.067993 209.166351,508.435181 C207.341797,509.981537 206.011154,511.109253 204.424683,512.453796 C205.263260,512.882324 205.633347,513.132629 206.041412,513.270752 C213.288193,515.723877 218.604507,511.610352 223.706543,507.658081 C227.612335,504.632507 233.396332,502.904846 232.792206,495.960052 C232.685669,494.735291 235.464371,493.315613 236.806427,491.887970 C237.624359,491.017883 238.242859,489.960358 238.950943,488.987000 M204.515015,522.540527 C204.167343,521.728638 203.819656,520.916809 203.374344,519.876953 C200.893570,527.657166 198.508698,535.136658 196.123825,542.616150 C196.589127,542.757812 197.054443,542.899475 197.519745,543.041138 C201.725296,537.107056 205.173141,530.894775 204.515015,522.540527 z"/><path fill="#DFDFDF" d="M116.819801,505.999695 C118.346970,506.843872 119.528877,507.660919 120.710785,508.477997 C120.428902,508.903168 120.147018,509.328308 119.865135,509.753479 C117.067848,509.753479 114.270554,509.753479 110.579475,509.753479 C112.417923,511.500183 113.571640,512.596375 114.722092,513.691772 C109.804092,517.172485 103.227325,516.114746 98.884872,512.078186 C96.801796,510.141846 93.444077,509.576752 90.388412,508.514404 C90.230667,508.304169 90.133415,508.053497 89.550079,507.622742 C89.063416,507.080750 88.848122,506.802124 88.632835,506.523468 C88.632835,506.523468 88.557060,506.490051 88.501938,506.209381 C88.198822,505.498840 87.950836,505.068939 87.702835,504.639069 C87.702835,504.639069 87.661194,504.508148 87.529755,504.057220 C85.934486,499.731262 84.470657,495.856232 82.983238,491.639771 C82.273094,490.787354 81.586540,490.276367 80.900002,489.765381 C80.968193,488.292145 81.036377,486.818878 81.085205,485.763855 C82.889977,485.763855 84.673820,485.763855 87.357491,485.763855 C89.473457,488.196686 90.646370,494.404663 97.594467,491.549316 C98.686562,493.121063 99.797409,494.719788 100.954071,496.659271 C100.999886,497.000000 101.008362,496.988831 101.008362,496.988831 C97.435059,498.029572 99.878304,500.444519 100.737251,500.844849 C104.241707,502.478027 107.999084,503.573425 111.698883,504.755524 C111.795097,504.786285 112.300316,503.536926 112.638931,502.834473 C113.890129,503.858154 115.182335,504.915375 116.819801,505.999695 z"/><path fill="#151616" d="M123.147659,428.800629 C123.089233,424.892883 123.571014,420.977448 123.626839,417.055939 C123.638412,416.242371 122.175552,414.873901 121.208694,414.680969 C118.372215,414.115082 115.443291,414.012543 112.105095,413.684753 C112.176025,418.943848 114.758286,420.079071 118.947304,419.138458 C118.104111,421.069305 117.360321,422.772552 116.559616,424.606171 C111.140587,423.895111 107.311920,426.213440 105.161705,431.716034 C104.929085,430.332306 104.696457,428.948578 104.463028,427.560028 C96.845451,429.037354 94.641655,431.169739 95.891075,435.335663 C93.890594,435.589661 91.843025,435.840179 89.801208,436.131134 C89.671646,436.149567 89.586861,436.482330 89.470726,436.687439 C90.161179,436.887299 90.763176,437.061554 90.842957,437.084656 C87.818420,441.668823 84.766350,446.294708 81.379616,450.780426 C81.028526,450.424896 81.012108,450.209595 80.995674,449.994324 C83.024940,445.110840 85.424004,440.339142 86.946663,435.302551 C87.879921,432.215485 87.035286,428.623901 87.757713,425.432922 C89.063110,419.667023 90.944252,414.031464 92.910873,408.587921 C93.256538,409.559601 93.276299,410.284821 93.131607,411.358246 C92.061882,414.850677 91.346794,418.066101 90.204002,421.121521 C88.719650,425.090179 89.872787,428.291687 90.512085,429.359467 C94.329514,427.382874 98.146942,425.406281 102.320587,423.245270 C99.071716,420.707855 97.949287,419.831238 97.118683,418.888367 C97.609291,418.805267 97.808075,418.788422 98.320786,418.891205 C99.437698,418.678558 100.240677,418.346313 101.335876,418.011353 C102.017334,418.024963 102.406563,418.041229 103.039917,418.355286 C106.203293,419.571808 106.566650,417.896240 106.737892,415.548096 C107.000450,411.947845 107.573868,408.370209 108.281769,405.102600 C108.548187,409.602234 108.548187,413.782288 108.548187,417.962311 C109.038910,417.927032 109.529633,417.891724 110.020355,417.856445 C110.410461,416.190643 110.239838,413.766602 111.288383,412.991211 C115.674187,409.747925 113.484772,406.510437 111.935028,403.077850 C111.994942,403.013763 112.116043,402.886810 112.116043,402.886810 C114.700638,403.648071 117.285233,404.409332 119.623611,405.399231 C118.034279,405.159637 116.691154,404.691345 115.202240,404.172241 C115.202240,406.974457 115.202240,409.362427 115.202240,412.002258 C117.504227,412.002258 119.538399,412.002258 120.898254,412.002258 C120.640594,409.947784 120.389221,407.943512 120.137848,405.939209 C126.107323,410.936676 128.057648,424.049194 123.147659,428.800629 z"/><path fill="#181918" d="M234.481171,441.661346 C233.663742,439.617889 232.846313,437.574432 231.847900,435.078552 C231.658279,435.194794 232.261307,434.825195 233.360214,434.151672 C230.540802,434.151672 228.213379,434.151672 225.390228,434.151672 C231.760468,430.490540 234.811874,428.672638 229.904709,414.007477 C228.327255,416.261627 226.593613,418.738953 225.463455,420.353882 C226.030151,423.688416 226.536957,426.670502 227.151321,430.285553 C223.935165,428.237915 221.175797,426.481079 217.972946,424.441895 C217.486862,426.964874 217.156601,428.679016 216.751343,430.782471 C214.341064,426.471710 212.196625,422.339600 206.626831,423.400848 C205.980316,421.855560 205.316177,420.268188 205.051300,419.635071 C207.354706,418.325958 209.657028,417.017517 212.321442,415.396881 C213.016190,415.078766 213.348846,415.072845 213.645142,415.459137 C213.424530,416.343140 213.240280,416.834961 212.975525,417.414001 C212.903976,417.904480 213.096771,418.088593 213.865326,417.794647 C214.836548,413.353119 215.415924,409.170593 216.412140,405.036804 C217.012161,408.319000 217.149414,411.556000 217.402756,414.783905 C217.494446,415.951965 217.864182,417.098175 218.107040,418.254364 C219.026855,417.554169 219.963348,416.874420 220.859360,416.144958 C221.297440,415.788300 221.660141,415.339050 222.179184,415.273254 C222.873642,416.640625 223.445862,417.666473 224.018082,418.692291 C224.839218,418.007080 226.089371,417.477539 226.404572,416.608765 C227.547287,413.458954 228.376389,410.195343 229.323853,406.974701 C231.157898,413.265106 233.562973,419.466309 234.565781,425.886566 C235.013474,428.752808 233.350815,431.749573 236.304886,434.370178 C237.224274,435.185791 236.829178,437.483124 236.988846,439.580597 C236.941849,440.059052 236.787994,440.192444 236.452774,440.034180 C235.435211,439.458252 234.752869,439.040558 232.824265,437.859955 C234.188553,439.711853 234.632950,440.315094 234.921875,441.098938 C234.766403,441.279541 234.481171,441.661346 234.481171,441.661346 z"/><path fill="#D9D9D9" d="M133.045197,599.842529 C132.641083,599.279175 132.236969,598.715820 131.465027,597.671387 C129.826965,593.715332 128.556717,590.240356 127.243248,586.647156 C127.022911,586.682007 126.186234,586.814453 125.618469,586.904297 C125.868416,584.235657 126.089561,581.874512 126.304802,579.541260 C126.298897,579.569092 126.324707,579.619934 125.855675,579.516724 C125.768257,578.302124 126.149872,577.190735 126.983154,576.077271 C128.634171,576.053162 129.833527,576.031128 131.061035,576.357056 C131.350082,577.831177 131.610962,578.957336 131.719467,580.442017 C131.668671,583.745422 128.310074,587.714111 134.214935,589.168396 C135.279877,589.102905 136.125214,588.875671 137.183243,588.591309 C137.430344,589.065918 137.724640,590.351929 138.529160,591.048950 C141.651703,593.754456 142.629700,599.001587 147.963913,599.305908 C147.970596,599.510315 147.971558,599.921570 147.837173,600.203491 C146.407974,601.301941 145.113174,602.118408 143.430618,602.868164 C139.587646,602.229614 137.121689,598.315186 133.045197,599.842529 z"/><path fill="#0F0F0F" d="M126.531494,576.079407 C126.149872,577.190735 125.768257,578.302124 125.730400,579.131958 C125.730370,579.034729 125.386589,579.218994 125.042801,579.403259 C125.465431,579.440002 125.888069,579.476685 126.310707,579.513367 C126.089561,581.874512 125.868416,584.235657 125.618469,586.904297 C126.186234,586.814453 127.022911,586.682007 127.243248,586.647156 C128.556717,590.240356 129.826965,593.715332 131.235580,597.539307 C121.119659,592.640808 119.222168,586.978455 124.012955,576.790649 C124.853271,575.003662 124.765862,572.783020 125.122414,570.765381 C125.578171,568.186340 125.361435,565.175171 126.658066,563.123474 C129.332260,558.892090 128.388077,555.792297 125.015045,552.407837 C124.950577,552.050171 125.015198,551.978088 125.348404,551.852661 C125.816475,551.132019 125.951340,550.536865 126.025597,550.209167 C127.775230,551.264343 129.343979,552.210388 130.940155,553.559265 C130.260269,557.901917 132.443298,562.381348 128.473053,565.919434 C128.243515,566.447571 128.305130,566.822815 128.366730,567.197998 C128.736435,566.975525 129.106155,566.753052 129.785034,566.404297 C130.389511,567.030884 131.146667,568.018555 130.903183,568.497314 C129.582397,571.094116 128.014374,573.565125 126.531494,576.079407 z"/><path fill="#181918" d="M204.183060,433.185852 C211.086182,435.054443 208.652740,441.403259 209.708557,446.084320 C210.213623,448.323669 209.055756,450.931885 208.678879,453.377350 C207.252075,462.635590 209.142273,470.879395 216.351501,477.485992 C215.969025,477.859650 215.586548,478.233307 215.204071,478.606934 C213.169342,476.845917 210.918961,475.276062 209.149323,473.279999 C206.350449,470.122894 202.765244,470.219391 199.248093,470.645325 C197.035873,470.913208 194.942245,472.160278 192.438431,473.099701 C194.433548,471.817413 196.624649,469.793518 199.172440,469.120941 C203.963058,467.856354 208.049881,467.114502 206.238251,460.270203 C205.485580,457.426575 207.077591,453.969604 207.565811,450.785797 C207.713104,449.825287 207.983124,448.786926 207.771210,447.884155 C206.649490,443.105804 205.391968,438.359283 204.183060,433.185852 z"/><path fill="#313232" d="M197.982117,564.869751 C197.982117,564.869751 197.979340,564.451294 197.995331,564.242981 C205.891037,563.606262 209.939072,569.328308 213.464798,574.706848 C217.949677,581.548706 220.371063,589.396729 218.794556,597.780090 C218.274307,600.546570 216.697845,603.114441 215.257431,605.867920 C215.357285,603.915283 215.804031,601.867859 216.273621,599.021240 C215.787766,593.971069 215.302628,589.716919 214.744476,585.472412 C214.662384,584.848145 213.886841,584.177002 214.018143,583.683533 C215.782562,577.051819 208.743332,575.040100 206.748611,570.265625 C205.674591,567.694885 201.020752,566.619690 197.982117,564.869751 z"/><path fill="#181918" d="M244.271301,484.757538 C243.841095,485.016724 243.666901,485.011536 243.231537,484.995178 C242.738983,480.750580 240.773010,475.369141 242.650925,472.531677 C246.154541,467.237671 239.321396,463.796051 241.863449,458.948547 C242.642975,457.462067 239.783661,454.067352 238.811523,451.250610 C239.032379,450.954803 238.987015,451.014587 238.987015,451.014587 C239.641739,451.298828 240.296463,451.583069 241.562759,452.132812 C240.855011,450.681305 240.395569,449.739044 239.842209,448.444794 C244.545868,449.979523 244.229034,454.526947 244.933548,458.412598 C245.725143,462.778442 246.619354,467.224121 246.547821,471.620026 C246.477844,475.920898 245.248032,480.202911 244.271301,484.757538 z"/><path fill="#0F0F0F" d="M75.659210,464.055298 C76.979164,463.975006 77.925552,463.975006 79.241425,463.975006 C78.782593,465.023193 78.511543,465.760223 78.149849,466.449707 C75.706718,471.107269 73.630981,475.808472 75.999908,481.941406 C75.884369,484.303680 75.884369,485.870178 75.884369,487.344910 C77.058403,486.485046 77.998001,485.796875 78.937607,485.108734 C79.231339,487.190460 79.525070,489.272217 79.940628,491.981445 C80.154556,493.036804 80.246651,493.464691 80.338745,493.892578 C75.716148,492.352051 72.049683,486.848785 72.070976,480.642242 C72.086258,476.188385 72.615509,471.720306 73.196144,467.295410 C73.343803,466.170135 74.560265,465.185089 75.659210,464.055298 z"/><path fill="#181918" d="M162.964066,431.613464 C157.561798,430.354523 152.102036,428.751801 146.642288,427.149109 C146.491074,427.559204 146.339844,427.969299 146.188629,428.379395 C147.578110,429.321472 148.967606,430.263519 150.042892,430.992554 C145.902283,432.315430 141.822968,433.618683 137.371399,434.964233 C137.171722,431.832214 137.794952,429.169006 142.581039,430.872314 C141.258804,425.997437 144.180420,425.710754 147.453995,426.045349 C151.189423,426.427216 154.992050,426.647644 158.597198,427.585327 C160.241806,428.013123 161.482620,429.993469 162.964066,431.613464 z"/><path fill="#DFDFDF" d="M222.056961,414.931702 C221.660141,415.339050 221.297440,415.788300 220.859360,416.144958 C219.963348,416.874420 219.026855,417.554169 218.107040,418.254364 C217.864182,417.098175 217.494446,415.951965 217.402756,414.783905 C217.149414,411.556000 217.012161,408.319000 216.383942,404.807953 C215.938873,404.530334 215.977341,404.070801 216.353058,404.115021 C218.157120,403.760132 219.585480,403.361023 221.013840,402.961914 C221.013840,402.961914 221.272263,403.179565 221.662323,403.504669 C222.025864,407.578949 221.999344,411.328156 221.992920,415.040405 C222.013046,415.003448 222.056961,414.931702 222.056961,414.931702 z"/><path fill="#DFDFDF" d="M229.134766,406.795227 C228.376389,410.195343 227.547287,413.458954 226.404572,416.608765 C226.089371,417.477539 224.839218,418.007080 224.018082,418.692291 C223.445862,417.666473 222.873642,416.640625 222.179184,415.273254 C222.056961,414.931702 222.013046,415.003448 222.348770,414.927612 C223.369492,412.832001 224.904999,410.649292 224.556137,408.827454 C223.901505,405.408783 225.786819,405.642761 227.842682,405.521729 C228.210358,405.886383 228.578018,406.251068 229.134766,406.795227 z"/><path fill="#EDEDED" d="M215.977341,404.070801 C215.977341,404.070801 215.938873,404.530334 215.967072,404.759186 C215.415924,409.170593 214.836548,413.353119 213.794495,417.593689 C213.331818,417.651672 213.056030,417.326752 213.056030,417.326752 C213.240280,416.834961 213.424530,416.343140 213.762177,415.119995 C212.421921,410.784943 209.559036,407.507050 211.240417,403.147705 C211.240417,403.147705 211.650681,403.070099 212.213043,402.940643 C213.842728,403.231049 214.910034,403.650909 215.977341,404.070801 z"/><path fill="#181918" d="M136.642700,434.998077 C138.646500,435.453094 140.282242,435.904602 141.912048,436.354492 C141.680618,437.066528 141.333160,438.135590 140.985703,439.204681 C141.244507,439.418549 141.503326,439.632416 141.762131,439.846283 C140.103333,440.925446 138.444519,442.004578 136.459885,443.219299 C135.384033,441.896240 134.591492,440.457581 133.893600,438.974396 C132.734024,436.510040 133.576691,435.182007 136.642700,434.998077 z"/><path fill="#D9D9D9" d="M93.296066,411.010071 C93.276299,410.284821 93.256538,409.559601 93.265289,408.472229 C93.686478,407.776642 94.079163,407.443207 94.942139,407.322632 C97.809319,408.826599 96.124496,414.080017 100.905418,413.413513 C100.965584,414.099487 100.957153,414.495331 100.529938,414.922913 C99.409721,416.226959 98.708290,417.499298 98.006851,418.771606 C97.808075,418.788422 97.609291,418.805267 96.780167,418.826752 C95.198578,416.224274 94.247322,413.617188 93.296066,411.010071 z"/><path fill="#0F0F0F" d="M133.079376,600.190918 C137.121689,598.315186 139.587646,602.229614 143.201813,603.177490 C142.658539,604.289368 141.956314,605.025146 141.002182,605.877136 C140.104614,606.647034 139.458954,607.300781 138.611008,607.961548 C138.408722,607.968567 138.003937,607.974182 138.003937,607.974182 C136.373810,605.495850 134.743683,603.017578 133.079376,600.190918 z"/><path fill="#181918" d="M171.887787,441.990967 C170.437180,441.592987 168.356613,442.293182 167.973846,439.303772 C167.678131,436.994537 165.335037,434.947418 163.746918,432.463715 C168.006577,433.844055 171.513428,436.345459 171.887787,441.990967 z"/><path fill="#EDEDED" d="M203.080444,406.492737 C203.245255,406.122894 203.410065,405.753082 203.987762,405.061768 C204.679535,404.552490 204.883667,404.303436 205.013031,403.993134 C206.065018,403.979645 207.116989,403.966156 208.580124,404.475525 C208.976532,407.084808 208.961777,409.171173 208.532440,411.259796 C207.042236,411.190247 205.966599,411.118500 204.940567,410.745239 C204.723740,409.368103 204.457321,408.292511 203.926147,407.016113 C203.467758,406.707825 203.274109,406.600281 203.080444,406.492737 z"/><path fill="#0F0F0F" d="M83.006836,491.981201 C84.470657,495.856232 85.934486,499.731262 87.501953,503.994446 C85.429016,501.476318 83.252434,498.570068 81.406960,495.249939 C82.160995,493.884430 82.583916,492.932800 83.006836,491.981201 z"/><path fill="#181918" d="M227.718216,405.151001 C225.786819,405.642761 223.901505,405.408783 224.556137,408.827454 C224.904999,410.649292 223.369492,412.832001 222.328644,414.964569 C221.999344,411.328156 222.025864,407.578949 221.830399,403.487610 C223.603516,403.690369 225.598633,404.235352 227.718216,405.151001 z"/><path fill="#0F0F0F" d="M81.457642,455.443909 C79.861214,457.914795 78.264786,460.385651 76.352524,462.990479 C77.604683,460.317566 74.056252,456.193054 78.724281,454.055298 C79.424934,454.317047 79.764290,454.615112 80.606888,455.010620 C81.110123,455.108093 81.457634,455.443909 81.457642,455.443909 z"/><path fill="#3F3F40" d="M208.947037,411.257568 C208.961777,409.171173 208.976532,407.084808 208.949707,404.627258 C209.459671,403.889008 210.011215,403.521881 210.901581,403.151245 C209.559036,407.507050 212.421921,410.784943 213.798538,414.727783 C213.348846,415.072845 213.016190,415.078766 212.433868,415.063171 C211.356613,414.366028 210.529037,413.690430 209.349884,412.691986 C208.981216,411.998627 208.964127,411.628082 208.947037,411.257568 z"/><path fill="#DFDFDF" d="M100.836830,413.123383 C96.124496,414.080017 97.809319,408.826599 95.186646,407.227539 C94.960861,406.919586 95.012215,406.553131 95.422516,406.269226 C96.888641,405.989777 97.944458,405.994263 99.046143,406.406952 C99.673607,408.917908 100.255219,411.020660 100.836830,413.123383 z"/><path fill="#181918" d="M208.532440,411.259796 C208.964127,411.628082 208.981216,411.998627 208.989868,412.647461 C206.490616,413.041626 203.999817,413.157532 201.127380,413.400146 C200.906754,412.087402 201.067749,410.647858 201.632599,409.115936 C202.036438,409.023529 202.078262,409.050751 202.163727,409.347595 C203.129791,410.111877 204.010376,410.579285 204.890976,411.046753 C205.966599,411.118500 207.042236,411.190247 208.532440,411.259796 z"/><path fill="#181918" d="M216.353058,404.115021 C214.910034,403.650909 213.842728,403.231049 212.380188,402.815552 C214.722351,399.678192 217.742081,400.670654 220.906769,402.589905 C219.585480,403.361023 218.157120,403.760132 216.353058,404.115021 z"/><path fill="#151616" d="M100.928894,403.925415 C104.203476,401.020264 107.903564,400.807343 111.986588,402.542542 C112.116043,402.886810 111.994942,403.013763 111.574661,403.037811 C110.093124,403.347137 109.031868,403.632446 107.630417,404.057831 C105.285843,404.225708 103.281464,404.253479 101.189857,404.192444 C101.102638,404.103668 100.928894,403.925415 100.928894,403.925415 z"/><path fill="#181918" d="M200.060211,413.592102 C200.054169,416.892090 199.661011,420.072784 199.121216,423.634094 C199.207397,420.500702 199.440247,416.986755 200.060211,413.592102 z"/><path fill="#0F0F0F" d="M122.884430,550.111145 C120.960297,548.984314 119.036156,547.857483 117.033188,546.395996 C116.954369,546.061401 117.082359,545.935425 117.432014,546.057861 C118.156334,545.482727 118.530998,544.785156 118.994324,544.005676 C119.082977,543.923767 119.262817,543.762695 119.543388,543.942383 C120.892082,546.072815 121.960213,548.023560 122.992218,550.008362 C122.956085,550.042419 122.884430,550.111145 122.884430,550.111145 z"/><path fill="#313232" d="M207.876770,619.227905 C208.758163,616.122986 209.964767,613.051147 211.519653,609.858398 C210.645935,612.911987 209.423950,616.086426 207.876770,619.227905 z"/><path fill="#181918" d="M239.002792,446.626373 C237.871613,445.699432 236.746414,444.367157 235.672363,442.604340 C235.869003,442.052582 236.014496,441.931427 236.412521,441.748749 C236.706055,441.188995 236.747025,440.690704 236.787994,440.192444 C236.787994,440.192444 236.941849,440.059052 237.021301,439.994324 C237.736755,442.026733 238.372772,444.123901 239.002792,446.626373 z"/><path fill="#CBCBCA" d="M82.983238,491.639771 C82.583916,492.932800 82.160995,493.884430 81.369446,494.897827 C81.041313,494.635590 80.958717,494.346741 80.545898,493.992859 C80.246651,493.464691 80.154556,493.036804 80.089211,492.281799 C80.338943,491.423096 80.561920,490.891541 80.842438,490.062683 C81.586540,490.276367 82.273094,490.787354 82.983238,491.639771 z"/><path fill="#151616" d="M99.000290,405.998718 C97.944458,405.994263 96.888641,405.989777 95.445312,406.085632 C96.757164,405.449890 98.456512,404.713837 100.542374,403.951599 C100.928894,403.925415 101.102638,404.103668 101.118805,404.392639 C101.134979,404.681580 100.802238,404.945618 100.520615,404.959229 C99.826096,405.314819 99.413193,405.656769 99.000290,405.998718 z"/><path fill="#181918" d="M199.442932,426.946045 C200.120895,427.295990 200.681244,427.996735 201.356537,428.943237 C200.756104,428.558258 200.040726,427.927551 199.442932,426.946045 z"/><path fill="#121212" d="M135.145126,612.135132 C135.473129,611.093323 135.953384,610.194092 136.870438,609.298401 C137.307236,609.301941 137.613434,609.603882 137.509247,609.886719 C136.804031,610.967163 136.202988,611.764832 135.601944,612.562439 C135.601944,612.562439 135.297363,612.277588 135.145126,612.135132 z"/><path fill="#181918" d="M134.985809,444.144440 C134.900116,444.774261 134.441071,445.423798 133.733093,446.242676 C133.860245,445.662720 134.236343,444.913422 134.985809,444.144440 z"/><path fill="#181918" d="M176.898026,446.746979 C176.256805,446.639771 175.567993,446.183594 174.764954,445.425964 C175.383987,445.549042 176.117218,445.973541 176.898026,446.746979 z"/><path fill="#181918" d="M202.403320,430.949554 C203.011566,431.154785 203.536682,431.709625 204.147003,432.540924 C203.594879,432.311310 202.957550,431.805237 202.403320,430.949554 z"/><path fill="#181918" d="M178.815750,448.884216 C178.259232,448.680634 177.714111,448.134552 177.033020,447.327271 C177.540421,447.557953 178.183777,448.049866 178.815750,448.884216 z"/><path fill="#0F0F0F" d="M124.917358,552.085388 C124.270538,551.649475 123.656929,551.178406 122.963867,550.409180 C122.884430,550.111145 122.956085,550.042419 123.256592,550.127441 C124.043137,550.801025 124.529167,551.389587 125.015198,551.978088 C125.015198,551.978088 124.950577,552.050171 124.917358,552.085388 z"/><path fill="#0F0F0F" d="M80.747742,450.196259 C81.012108,450.209595 81.028526,450.424896 81.086975,450.961365 C80.890137,451.729248 80.651291,452.175964 80.181152,452.743713 C80.133179,452.042511 80.316490,451.220367 80.747742,450.196259 z"/><path fill="#151616" d="M121.243568,431.797485 C120.993645,431.804108 120.983757,431.604462 120.949722,431.106018 C120.907722,430.441284 121.048050,430.152161 121.582878,429.858337 C121.707329,430.381592 121.595467,430.986420 121.243568,431.797485 z"/><path fill="#EDEDED" d="M202.061493,407.849731 C202.277695,407.484070 202.493896,407.118408 202.895264,406.622742 C203.274109,406.600281 203.467758,406.707825 203.798676,407.272156 C203.602341,407.882843 203.268723,408.036682 202.722656,408.090088 C202.510193,407.989624 202.061493,407.849731 202.061493,407.849731 z"/><path fill="#3F3F40" d="M204.861603,403.873779 C204.883667,404.303436 204.679535,404.552490 204.166351,404.809387 C204.191452,404.503784 204.450821,404.129089 204.861603,403.873779 z"/><path fill="#121212" d="M137.791168,608.096619 C138.003937,607.974182 138.408722,607.968567 138.548615,608.215820 C138.330154,608.843262 137.971786,609.223572 137.613434,609.603882 C137.613434,609.603882 137.307236,609.301941 137.154175,609.151001 C137.119568,608.685059 137.311981,608.424744 137.791168,608.096619 z"/><path fill="#0F0F0F" d="M87.553085,504.952667 C87.950836,505.068939 88.198822,505.498840 88.515205,506.170135 C88.190178,506.029785 87.796761,505.648041 87.553085,504.952667 z"/><path fill="#181918" d="M201.757233,429.958496 C202.074661,429.815826 202.243668,429.957336 202.373901,430.343079 C202.399124,430.510864 201.950027,430.518494 201.950027,430.518494 C201.950027,430.518494 201.672806,430.166199 201.757233,429.958496 z"/><path fill="#181918" d="M179.381378,450.083252 C179.029938,450.169891 178.854706,449.930359 178.769348,449.385040 C178.985199,449.383331 179.217987,449.609253 179.381378,450.083252 z"/><path fill="#0F0F0F" d="M88.579491,506.821045 C88.848122,506.802124 89.063416,507.080750 89.330597,507.625244 C89.097038,507.633575 88.811592,507.376068 88.579491,506.821045 z"/><path fill="#151616" d="M122.022354,429.757935 C121.941109,429.538086 122.121094,429.230042 122.563034,428.833984 C122.644531,429.053894 122.464058,429.361847 122.022354,429.757935 z"/><path fill="#181918" d="M198.947678,426.082062 C199.093475,425.981323 199.378510,426.092316 199.387238,426.245056 C199.197937,426.326141 198.999908,426.254486 198.947678,426.082062 z"/><path fill="#181918" d="M202.035553,408.135406 C202.061493,407.849731 202.510193,407.989624 202.627686,408.275757 C202.563004,408.779541 202.340698,408.942505 202.078262,409.050751 C202.078262,409.050751 202.036438,409.023529 202.015320,409.009033 C201.999344,408.803406 202.004471,408.612244 202.035553,408.135406 z"/><path fill="#313232" d="M206.851471,620.724670 C206.608551,620.506287 206.693924,620.248474 207.039886,619.895203 C207.399597,620.094971 207.359360,620.390198 206.851471,620.724670 z"/><path fill="#EFEFEF" d="M126.983154,576.077271 C128.014374,573.565125 129.582397,571.094116 130.903183,568.497314 C131.146667,568.018555 130.389511,567.030884 129.609619,566.210999 C129.004745,566.018188 128.884476,565.892395 128.764206,565.766541 C132.443298,562.381348 130.260269,557.901917 131.135773,553.278503 C133.065735,550.934387 134.827530,549.273865 136.247742,547.935242 C135.949234,544.312500 128.900085,542.064514 133.458786,538.964905 C134.622345,535.457275 135.371567,533.198730 136.120789,530.940125 C138.428558,532.313965 140.736343,533.687805 143.143890,534.910889 C143.161362,534.868103 143.079041,534.976013 142.996750,535.083984 C143.217697,534.937866 143.438629,534.791687 143.659561,534.645508 C142.991333,533.738525 142.323120,532.831543 140.998322,531.033386 C143.346252,531.741638 144.507614,532.091919 146.293427,532.597534 C147.196945,532.654175 147.476028,532.555603 147.755096,532.456970 C147.530075,532.279663 147.305069,532.102356 147.080048,531.925049 C148.009735,531.305359 148.874802,530.536682 149.883438,530.098938 C151.632217,529.339905 153.469864,528.785583 155.979187,528.054993 C158.444794,526.649597 160.201447,525.334656 161.958099,524.019653 C163.457779,523.376709 164.957458,522.733765 166.809418,522.076782 C168.981842,525.606689 170.017990,525.958740 178.308044,525.547241 C173.229614,523.129761 173.777512,518.878601 173.614838,514.467529 C174.434845,514.878540 175.651962,515.604858 175.928528,516.594177 C177.868744,523.534912 184.439774,525.475403 189.930588,520.496399 C192.062759,518.562866 193.883133,516.285522 196.222076,514.187744 C195.293747,520.532959 192.883438,525.873474 185.055771,527.578369 C187.082474,528.373413 189.109177,529.168518 191.666580,530.066284 C192.338760,530.278381 192.480240,530.387878 192.621719,530.497314 C193.541473,532.742859 194.873108,534.917603 195.274261,537.252197 C195.750076,540.021606 195.738937,542.969055 195.379410,545.767395 C194.687302,551.154114 193.601547,556.490234 192.413620,562.394958 C190.820557,563.443237 189.492905,563.943970 188.187073,564.436462 C188.093994,563.061646 187.995758,561.611023 187.798004,558.690491 C185.971329,563.795898 184.674423,567.420654 183.088760,571.852417 C184.768707,570.497681 185.750290,569.706055 187.002502,569.091064 C185.894058,571.192505 184.514969,573.117310 183.099426,574.771973 C182.933731,574.237305 182.804474,573.972717 182.675217,573.708069 C182.512665,573.862183 182.192795,574.127319 182.211365,574.153625 C182.459320,574.504944 182.754623,574.822876 183.146729,575.381714 C183.168320,576.411926 183.081329,577.209473 182.728058,577.814026 C181.142593,576.019409 179.863953,574.855042 178.979584,577.943848 C178.829651,578.242126 178.628372,578.500305 177.908798,578.639404 C177.289673,577.703125 177.137482,576.845947 177.111359,575.945435 C177.161835,575.939514 177.086227,575.976990 176.630157,576.069214 C173.022324,575.834106 169.794952,575.544128 166.336136,575.102661 C165.518372,574.519104 164.932083,574.087219 164.240784,573.424438 C163.838593,573.047974 163.541397,572.902344 163.129364,572.522095 C162.693146,572.175598 162.371765,572.063721 161.952423,571.678772 C161.435089,571.322876 161.015717,571.240051 160.596329,571.157227 C160.878830,571.644592 161.161316,572.131897 161.563049,572.794006 C161.868011,573.185974 162.085205,573.364990 162.463821,573.706665 C162.811279,574.144043 163.058578,574.343750 163.545151,574.795166 C164.815994,575.747559 165.877289,576.411255 166.968384,577.038696 C166.998169,577.002441 166.940033,577.072021 166.766281,577.447876 C167.039154,577.903381 167.485779,577.983032 167.960480,578.028564 C167.988525,577.994507 167.915421,578.044495 167.587463,578.293335 C168.484665,580.405945 169.709808,582.269653 170.934937,584.133362 C172.036301,590.529419 176.333862,596.480286 173.089813,603.556763 C172.044296,603.137939 171.528290,602.570190 171.009552,601.571167 C170.777084,587.234192 161.109146,570.829163 147.852448,567.733765 C143.161224,566.638428 139.180923,566.403015 135.788574,570.573303 C134.611786,572.019958 132.619736,572.803345 130.996506,574.247375 C130.996582,575.080994 131.000214,575.556946 131.001556,576.017761 C130.999268,576.002625 131.032883,576.009155 131.032883,576.009155 C129.833527,576.031128 128.634171,576.053162 126.983154,576.077271 M138.321472,565.799072 C138.612930,565.666687 138.830429,565.457458 139.889313,565.066101 C145.765823,564.956177 151.890976,563.789795 156.913422,568.885559 C155.695374,564.924438 154.477325,560.963257 152.967468,556.053162 C152.367996,558.808899 151.947861,560.740295 151.508865,562.758301 C149.308655,561.723694 148.021042,558.717468 144.879196,561.706116 C143.177032,563.325378 139.641205,563.017029 136.932541,563.578247 C137.252808,564.374756 137.573059,565.171326 138.321472,565.799072 M155.763229,546.424927 C157.478653,544.215271 158.853699,541.580444 160.977203,539.880615 C166.101837,535.778442 171.330566,536.743042 173.832428,542.223694 C174.183212,540.527283 174.453125,539.221863 174.711777,537.971008 C182.943909,538.021301 187.389450,542.885315 185.963486,549.638062 C185.511353,551.779236 185.892822,554.096436 185.892822,556.333008 C186.981293,554.554749 186.894012,552.660400 187.500626,551.023071 C190.050705,544.139954 186.503510,537.392883 179.361435,535.561462 C177.234116,535.015869 175.250977,533.907959 173.241577,533.074280 C168.870010,534.516907 163.747070,535.368652 159.563614,537.822266 C155.320709,540.310791 152.005722,544.381409 149.008423,547.101929 C150.606140,549.323364 152.366699,551.771240 154.708374,555.027039 C155.002335,551.986511 155.237976,549.549072 155.763229,546.424927 M167.958572,549.232971 C167.442383,549.631592 166.926208,550.030273 165.853958,550.858337 C168.240601,551.044983 169.852631,551.171021 171.466782,551.297241 C172.057083,552.924683 172.578232,554.361511 172.886292,555.210815 C174.368698,553.426086 175.818756,551.680237 176.793213,550.507019 C175.634537,548.556763 174.451035,546.564636 173.868652,545.584351 C172.160049,546.760376 170.438141,547.945557 167.958572,549.232971 M173.934647,558.783630 C172.127228,559.955444 170.319809,561.127258 168.704758,562.174377 C170.325531,563.236816 171.766022,564.181091 173.013565,564.998840 C174.283127,564.104004 175.499405,563.246704 176.633377,562.447449 C175.896851,561.607422 174.985962,560.568604 173.934647,558.783630 M180.033325,551.488037 C179.848053,551.475525 179.662766,551.462952 179.477493,551.450439 C179.590363,551.489990 179.703247,551.529480 180.033325,551.488037 z"/><path fill="#DFDFDF" d="M125.399925,496.867920 C125.699684,499.195618 125.699684,501.430328 125.699684,504.011017 C122.799568,504.011017 120.399315,504.011017 117.554428,504.021912 C112.427429,500.078735 108.717155,495.552551 107.967934,488.572266 C112.123314,491.365540 115.804832,493.840271 119.486351,496.315002 C119.568947,495.952148 119.651543,495.589264 119.734146,495.226410 C121.522820,495.742554 123.311493,496.258698 125.399925,496.867920 z"/><path fill="#D3D3D3" d="M161.509155,524.023804 C160.201447,525.334656 158.444794,526.649597 156.347412,527.983521 C155.380463,527.637756 154.762634,526.971069 154.126724,526.953369 C143.633423,526.660461 136.945114,521.038269 132.752686,511.498291 C133.687729,511.148682 135.085220,510.771912 135.471878,511.236481 C142.150635,519.260742 149.847061,525.120605 161.509155,524.023804 z"/><path fill="#E8E7E7" d="M89.926651,475.414856 C89.343758,476.724152 88.806297,477.632324 88.094002,478.835907 C87.016701,475.809906 86.115295,473.278015 85.213890,470.746094 C84.929878,470.801636 84.645859,470.857208 84.361847,470.912750 C85.079979,466.703552 85.798103,462.494385 86.516235,458.285187 C87.244400,458.309235 87.972572,458.333252 88.700737,458.357269 C90.836365,463.691925 90.145050,469.385742 89.926651,475.414856 z"/><path fill="#EFEFEF" d="M144.901794,493.066620 C150.237869,495.334778 155.430817,497.856293 160.820786,500.653809 C160.090332,501.316772 158.900513,502.281342 158.277374,501.998322 C153.754013,499.943817 149.326996,497.671570 144.936172,495.342499 C144.610916,495.169952 144.805664,494.017090 144.901794,493.066620 z"/><path fill="#DDDCDC" d="M111.705383,437.978271 C115.108643,440.427795 112.597992,442.821655 111.697815,445.407257 C110.583748,446.398560 109.807228,447.218750 109.082932,447.983795 C106.919296,442.608002 107.524788,439.767822 111.705383,437.978271 z"/><path fill="#DFDFDF" d="M131.420074,497.711243 C130.533707,498.582245 129.922836,499.224518 128.987900,500.207489 C128.355698,497.564331 127.828812,495.361511 127.312042,492.754333 C130.990936,492.176910 132.388702,493.938904 131.420074,497.711243 z"/><path fill="#EFEFEF" d="M164.283829,503.314026 C166.276749,505.822540 167.915039,508.579224 169.646088,511.675110 C168.493698,511.120605 166.856049,510.474609 166.097916,509.273438 C165.032700,507.585754 164.620621,505.485779 164.283829,503.314026 z"/><path fill="#CBCBCA" d="M79.043442,484.734436 C77.998001,485.796875 77.058403,486.485046 75.884369,487.344910 C75.884369,485.870178 75.884369,484.303680 76.025970,482.347687 C77.161476,482.758850 78.155380,483.559479 79.043442,484.734436 z"/><path fill="#DFDFDF" d="M126.891693,490.998657 C126.578957,491.509003 126.351776,491.665192 125.940460,491.879822 C125.678848,490.871460 125.622025,489.834686 125.565216,488.797943 C126.029015,489.403442 126.492813,490.008972 126.891693,490.998657 z"/><path fill="#E8E7E7" d="M90.548004,453.822876 C90.357048,454.446381 89.996750,454.898621 89.636459,455.350861 C89.524132,455.237183 89.300385,455.042969 89.315819,455.021576 C89.654121,454.553345 90.018936,454.104309 90.548004,453.822876 z"/><path fill="#CBCBCA" d="M79.404816,475.973328 C79.575615,476.248535 79.594536,476.644073 79.613457,477.039612 C79.493286,476.724304 79.373116,476.408997 79.404816,475.973328 z"/><path fill="#EFEFEF" d="M168.983215,521.657593 C168.835861,521.935913 168.666641,521.985596 168.245941,521.953125 C168.164047,521.486450 168.333618,521.101746 168.503189,520.717102 C168.655914,520.954346 168.808640,521.191650 168.983215,521.657593 z"/><path fill="#0F0F0F" d="M82.045235,454.066528 C82.165489,453.839905 82.285736,453.613281 82.405975,453.386627 C82.387939,453.618652 82.369911,453.850647 82.175156,454.045624 C81.998421,454.008575 82.045227,454.066528 82.045235,454.066528 z"/><path fill="#0F0F0F" d="M80.938385,454.938141 C81.003738,454.464478 81.240837,454.160767 81.761581,453.961792 C82.045227,454.066528 81.998421,454.008575 81.967133,453.987976 C81.938789,454.330658 81.941750,454.693909 81.701172,455.250549 C81.457634,455.443909 81.110123,455.108093 80.938385,454.938141 z"/><path fill="#DFDFDF" d="M100.994278,497.004333 C101.102486,497.130707 101.216309,497.252747 101.330139,497.374786 C101.255806,497.329132 101.181465,497.283478 101.057739,497.113342 C101.008362,496.988831 100.999886,497.000000 100.994278,497.004333 z"/><path fill="#181918" d="M105.936325,479.910126 C105.979340,480.120941 106.044243,480.331299 106.048431,480.542877 C106.049362,480.589905 105.836372,480.641144 105.721878,480.690460 C105.658539,480.517731 105.595200,480.345001 105.753815,480.069946 C105.975761,479.967651 105.936325,479.910126 105.936325,479.910126 z"/><path fill="#181918" d="M105.997391,479.994995 C106.350563,479.764435 106.682106,479.506500 107.013657,479.248596 C106.891045,479.594696 106.768440,479.940796 106.291077,480.098511 C105.936325,479.910126 105.975761,479.967651 105.997391,479.994995 z"/><path fill="#CBCBCA" d="M78.517097,479.531525 C78.487053,479.548431 78.547142,479.514618 78.517097,479.531525 z"/><path fill="#DFDFDF" d="M238.704956,488.746094 C238.242859,489.960358 237.624359,491.017883 236.806427,491.887970 C235.464371,493.315613 232.685669,494.735291 232.792206,495.960052 C233.396332,502.904846 227.612335,504.632507 223.706543,507.658081 C218.604507,511.610352 213.288193,515.723877 206.041412,513.270752 C205.633347,513.132629 205.263260,512.882324 204.424683,512.453796 C206.011154,511.109253 207.341797,509.981537 209.166351,508.435181 C206.541000,508.067993 204.427673,507.772400 201.638580,507.382294 C203.320419,505.256012 204.678177,503.539459 206.421021,501.336060 C203.679504,501.723511 201.564163,502.022491 199.080109,502.373596 C198.701553,498.673004 198.366669,495.399231 198.122162,491.791199 C199.934372,492.008057 201.620819,492.754150 203.384583,493.074402 C209.096481,494.111694 210.118546,488.574951 213.284378,485.785492 C217.146500,493.059448 209.550430,496.247253 207.724792,501.799622 C212.400375,501.893158 215.837692,499.718292 218.951614,496.342590 C218.998947,496.001099 218.990677,496.009552 219.233459,495.993713 C219.730118,495.820526 219.984009,495.663208 220.237885,495.505920 C219.824844,495.336884 219.411804,495.167847 218.999390,494.999390 C219.000000,495.000000 219.001221,495.001221 219.001221,495.001221 C219.948593,492.192963 221.136963,490.750214 224.839508,490.453644 C227.988571,490.201385 230.891113,486.871338 233.982574,484.850830 C234.945297,485.636780 236.702133,487.070984 238.704956,488.746094 z"/><path fill="#E8E7E7" d="M231.745834,454.449982 C231.432297,453.405579 231.271820,452.672882 231.111343,451.940155 C237.890656,460.829956 235.382629,469.870331 230.626038,478.992188 C230.497757,476.872681 230.098007,474.727875 230.292755,472.638458 C230.848007,466.681335 234.263367,460.989594 231.745834,454.449982 z"/><path fill="#EFEFEF" d="M173.931732,507.549683 C171.722824,505.802704 171.402679,503.284637 172.944351,501.827026 C174.940720,499.939514 176.926437,498.040741 179.191422,495.991241 C179.745621,496.619110 180.500519,497.691193 180.228287,498.139587 C178.321640,501.279510 176.202881,504.290619 173.931732,507.549683 z"/><path fill="#DFDFDF" d="M198.392639,489.561584 C197.900604,489.674927 197.633423,489.475677 197.179108,489.108154 C197.328934,488.191071 197.665909,487.442322 198.002869,486.693542 C198.249527,486.746857 198.496185,486.800140 198.742844,486.853424 C198.701065,487.651978 198.659286,488.450500 198.392639,489.561584 z"/><path fill="#DFDFDF" d="M219.003860,495.996399 C218.594971,495.828339 218.181168,495.665009 217.767365,495.501709 C218.018021,495.344727 218.268661,495.187714 218.760254,495.015961 C219.001221,495.001221 219.000000,495.000000 218.998016,495.252075 C218.994232,495.672638 218.992447,495.841095 218.990677,496.009552 C218.990677,496.009552 218.998947,496.001099 219.003860,495.996399 z"/><path fill="#181918" d="M242.743011,484.959534 C242.709854,485.001007 242.435547,485.042938 242.129486,484.890747 C242.097733,484.696655 242.501846,484.959961 242.743011,484.959534 z"/><path fill="#181918" d="M239.051468,450.922485 C238.829010,450.933502 238.587952,450.994415 238.345367,451.001343 C238.308960,451.002350 238.265350,450.750885 238.225067,450.616241 C238.445419,450.554047 238.665771,450.491882 238.936569,450.722137 C238.987015,451.014587 239.032379,450.954803 239.051468,450.922485 z"/><path fill="#181918" d="M235.486664,442.330536 C235.025711,442.359283 234.834671,442.193207 234.578949,441.825195 C234.481171,441.661346 234.766403,441.279541 235.187378,441.125305 C235.792221,441.250824 235.976089,441.530518 236.159973,441.810242 C236.014496,441.931427 235.869003,442.052582 235.486664,442.330536 z"/><path fill="#D9D9D9" d="M174.905884,492.889893 C164.465271,497.844574 155.081085,493.822876 145.784454,488.328766 C146.031952,487.147980 146.370514,486.269836 146.445450,486.075470 C152.536041,488.401733 158.232422,490.870789 164.136627,492.650482 C165.867584,493.172241 168.472397,492.180054 170.173157,491.093506 C172.739868,489.453735 173.709198,490.556580 174.905884,492.889893 z"/><path fill="#3F3F40" d="M171.139191,474.917236 C164.594681,477.239746 158.493774,479.554535 152.714188,481.747406 C155.917160,476.479919 161.195801,472.839417 168.200424,472.196960 C170.814240,471.957214 174.442947,470.475555 176.403488,474.909546 C174.498993,474.909546 173.040894,474.909546 171.139191,474.917236 z"/><path fill="#313232" d="M165.437775,462.368896 C167.283356,463.836975 168.789154,465.142059 170.294952,466.447144 C169.941116,467.012970 169.587265,467.578796 169.233429,468.144592 C166.795013,466.873932 164.356598,465.603271 161.918182,464.332611 C162.978119,463.623718 164.038055,462.914825 165.437775,462.368896 z"/><path fill="#181918" d="M135.022812,461.990387 C135.269470,461.572968 135.753448,461.369995 136.237457,461.167053 C136.199585,461.523865 136.161713,461.880676 135.940948,462.422058 C135.592102,462.472717 135.426132,462.338806 135.022812,461.990387 z"/><path fill="#3F3F40" d="M178.864258,475.364136 C179.064651,475.303253 179.088150,475.758240 178.989319,475.963470 C178.696503,475.967163 178.502533,475.765656 178.308563,475.564148 C178.426987,475.517792 178.545425,475.471405 178.864258,475.364136 z"/><path fill="#181918" d="M138.005951,468.990662 C138.112747,468.616455 138.412338,468.422913 138.711914,468.229370 C138.770584,468.490967 138.829269,468.752563 138.751480,469.255493 C138.476257,469.388306 138.337494,469.279816 138.005951,468.990662 z"/><path fill="#F8F8F8" d="M117.617599,471.213165 C117.715584,470.922913 117.775810,470.645630 117.836037,470.368317 C117.929268,470.592316 118.022499,470.816315 117.809464,471.144409 C117.503189,471.248505 117.579826,471.226105 117.617599,471.213165 z"/><path fill="#F1F1F1" d="M138.278320,474.281982 C138.108765,474.585571 137.770447,474.716888 137.432144,474.848236 C137.393723,474.587860 137.355286,474.327484 137.541977,473.918579 C137.767105,473.770020 138.109543,474.109680 138.278320,474.281982 z"/><path fill="#D9D9D9" d="M136.014252,530.580566 C135.371567,533.198730 134.622345,535.457275 133.458786,538.964905 C128.900085,542.064514 135.949234,544.312500 136.247742,547.935242 C134.827530,549.273865 133.065735,550.934387 131.108337,552.875732 C129.343979,552.210388 127.775230,551.264343 126.025597,550.209167 C125.951340,550.536865 125.816475,551.132019 125.348404,551.852661 C124.529167,551.389587 124.043137,550.801025 123.292725,550.093384 C121.960213,548.023560 120.892082,546.072815 119.456711,543.709839 C118.872231,543.297363 118.655006,543.297058 118.437775,543.296753 C118.593742,543.560364 118.749710,543.823975 118.905670,544.087585 C118.530998,544.785156 118.156334,545.482727 117.497986,545.996948 C116.071602,542.534546 114.928894,539.255493 113.649376,535.583801 C113.223694,536.732117 112.902740,537.597900 112.333771,539.132690 C110.331894,532.638367 110.853172,526.953857 111.099007,521.269043 C111.530663,521.239746 111.962326,521.210510 112.393990,521.181213 C113.148849,524.073608 113.903709,526.966003 115.021431,531.248718 C116.013443,528.753540 116.475082,527.592468 116.782822,526.818420 C119.001534,529.907715 121.162857,532.917175 123.721230,536.182373 C124.294083,536.331665 124.469887,536.225220 124.645706,536.118774 C124.408844,536.114380 124.171982,536.109985 123.935120,536.105591 C124.238480,533.237122 124.541847,530.368652 124.921967,526.774475 C126.158104,528.468933 127.023933,529.655762 128.513123,531.697021 C128.513123,527.988586 128.513123,525.175598 128.513123,521.408569 C131.421112,524.874146 133.664413,527.547546 136.014252,530.580566 z"/><path fill="#F9F9F9" d="M182.994339,578.007019 C183.081329,577.209473 183.168320,576.411926 183.157227,575.342285 C183.059158,575.070129 183.135895,575.042053 183.135895,575.042053 C184.514969,573.117310 185.894058,571.192505 187.203125,568.808228 C189.099121,567.163208 191.065140,565.977844 193.031158,564.792419 C194.407181,564.847229 195.783203,564.902100 197.570679,564.913330 C201.020752,566.619690 205.674591,567.694885 206.748611,570.265625 C208.743332,575.040100 215.782562,577.051819 214.018143,583.683533 C213.886841,584.177002 214.662384,584.848145 214.744476,585.472412 C215.302628,589.716919 215.787766,593.971069 216.197357,598.628052 C215.572632,598.666565 215.047012,598.299194 215.319901,598.489929 C212.030746,602.701904 208.813782,606.821472 206.009262,610.412842 C202.858444,605.437866 200.204575,601.247559 197.550705,597.057251 C198.585373,605.903870 198.896774,614.207520 187.365540,616.965210 C186.999039,616.999695 186.979065,616.982910 186.979065,616.982910 C186.965347,614.871216 186.951614,612.759521 187.197693,610.313232 C187.719177,609.862793 187.980881,609.747009 188.242584,609.631165 C188.161407,609.512634 188.080246,609.394043 187.999084,609.275513 C187.666626,609.517822 187.334152,609.760132 187.001678,610.002441 C186.556870,610.002075 186.112061,610.001709 185.333618,610.000671 C185.627457,607.999268 186.254913,605.998535 186.551331,603.847046 C187.371674,602.720276 188.523056,601.744263 189.984253,600.295898 C189.172119,597.359253 188.715759,593.930420 186.803772,592.611084 C181.017700,588.618469 180.641464,583.814270 182.994339,578.007019 z"/><path fill="#F9F9F9" d="M187.007202,617.009644 C186.917557,617.044067 186.819733,617.068604 186.850479,617.038025 C186.979065,616.982910 186.999039,616.999695 187.007202,617.009644 z"/><path fill="#F9F9F9" d="M184.870880,610.048706 C184.913910,610.032471 184.827835,610.064941 184.870880,610.048706 z"/><path fill="#E5E4E4" d="M137.509247,609.886719 C137.971786,609.223572 138.330154,608.843262 138.750916,608.208740 C139.458954,607.300781 140.104614,606.647034 141.336472,606.033875 C141.606857,610.051147 141.291046,614.027893 140.622742,618.049438 C139.637573,619.218384 138.204208,620.836914 138.532059,621.367859 C139.313751,622.633606 141.374969,624.477112 142.130844,624.166748 C146.701340,622.290100 151.940323,622.915405 156.095352,618.835388 C159.424149,615.566711 164.628998,614.208496 169.000610,612.001221 C169.000000,612.000000 168.998322,611.999023 168.938782,612.426819 C169.221039,613.999329 169.562836,615.144043 169.904633,616.288757 C169.753067,616.564453 169.601501,616.840210 168.647263,616.894531 C167.700348,617.101135 167.556091,617.529114 167.411835,617.957092 C166.186569,619.684998 164.961334,621.412964 163.265411,623.010559 C161.262924,622.895386 159.642090,622.592407 158.217667,622.991150 C155.148499,623.850403 152.121811,624.931641 149.182724,626.170959 C142.678497,628.913757 139.733994,628.316467 139.929535,635.192261 C138.761261,636.271545 137.592987,637.350891 135.461349,639.320190 C136.817734,635.791626 137.758728,633.343689 138.777740,630.237671 C138.244095,629.053406 137.632416,628.527344 137.020737,628.001221 C137.274170,623.539734 133.387009,619.146912 136.755478,614.582947 C136.822052,614.492737 135.914597,613.683716 135.531754,612.886230 C136.202988,611.764832 136.804031,610.967163 137.509247,609.886719 z"/><path fill="#EDEDED" d="M170.069473,616.086853 C169.562836,615.144043 169.221039,613.999329 169.062393,612.376099 C169.164108,611.932495 169.082672,611.967468 169.001251,612.002441 C164.628998,614.208496 159.424149,615.566711 156.095352,618.835388 C151.940323,622.915405 146.701340,622.290100 142.130844,624.166748 C141.374969,624.477112 139.313751,622.633606 138.532059,621.367859 C138.204208,620.836914 139.637573,619.218384 140.909760,617.933167 C142.435928,618.740295 143.322601,619.708557 144.140701,620.601990 C146.075729,618.159973 148.524689,615.069336 151.197723,612.220276 C153.922195,611.962769 156.422592,611.463745 159.150269,611.147644 C161.231506,610.885620 163.085464,610.440613 165.167725,609.886230 C165.595688,609.510742 165.795334,609.244690 165.996796,608.990723 C165.998611,609.002808 165.978363,608.987915 166.277649,608.967957 C167.046890,608.622803 167.516861,608.297607 167.994019,607.986755 C168.001221,608.001038 167.972458,607.986877 168.217102,607.816650 C168.637634,607.090576 168.813492,606.534851 168.996124,605.989319 C169.002884,605.999573 168.979050,605.995911 169.201538,605.878967 C169.615234,605.491272 169.806427,605.220520 170.121246,604.660034 C170.500671,603.580933 170.756470,602.791687 171.012268,602.002441 C171.528290,602.570190 172.044296,603.137939 172.804321,603.863831 C172.110321,607.976318 171.172318,611.930603 170.069473,616.086853 z"/><path fill="#D9D9D9" d="M182.728058,577.814026 C180.641464,583.814270 181.017700,588.618469 186.803772,592.611084 C188.715759,593.930420 189.172119,597.359253 190.005798,599.966553 C187.125656,599.235168 184.493912,598.462036 181.951172,597.462585 C178.081757,595.941711 178.260666,592.480042 178.532242,588.597900 C178.793228,587.754578 178.743240,587.484436 178.693253,587.214233 C178.447845,587.460815 178.202423,587.707397 177.957001,587.953979 C177.776154,587.995789 177.595306,588.037659 177.327057,588.366577 C177.239639,588.653625 177.269913,588.709595 177.269928,588.709595 C177.633148,587.178162 178.000671,585.647705 178.358536,584.115051 C178.823166,582.125122 179.280151,580.133423 179.360016,578.043152 C179.863953,574.855042 181.142593,576.019409 182.728058,577.814026 z"/><path fill="#D3D3D3" d="M166.567596,575.254150 C169.794952,575.544128 173.022324,575.834106 176.624695,576.062012 C176.999710,576.000000 176.985275,575.988831 176.985275,575.988831 C177.137482,576.845947 177.289673,577.703125 177.697876,578.767456 C176.191772,580.390076 174.429672,581.805359 172.196411,582.811157 C170.455292,580.949280 169.185349,579.496887 167.915421,578.044495 C167.915421,578.044495 167.988525,577.994507 168.037003,577.685791 C167.703659,577.275452 167.321854,577.173706 166.940033,577.072021 C166.940033,577.072021 166.998169,577.002441 167.110535,576.727661 C167.004471,576.053284 166.786041,575.653748 166.567596,575.254150 z"/><path fill="#313232" d="M167.587463,578.293335 C169.185349,579.496887 170.455292,580.949280 171.812286,582.726685 C171.575775,583.176392 171.335922,583.393555 171.057373,583.918335 C169.709808,582.269653 168.484665,580.405945 167.587463,578.293335 z"/><path fill="#E5E4E4" d="M167.999969,619.217407 C167.881775,618.556274 167.982330,618.197083 168.157928,617.879272 C168.178452,617.842163 168.613205,618.033875 168.855927,618.119507 C168.651016,618.590210 168.446091,619.060913 167.999969,619.217407 z"/><path fill="#D9D9D9" d="M177.260712,588.636963 C177.004898,588.408386 176.728043,588.196533 176.451172,587.984619 C176.692780,588.006775 176.934372,588.028931 177.222946,588.380310 C177.269913,588.709595 177.239639,588.653625 177.260712,588.636963 z"/><path fill="#E3E3E3" d="M175.071213,620.072388 C174.964432,620.525330 174.693863,620.816040 174.423279,621.106750 C174.311432,620.744629 174.199600,620.382568 174.332382,619.804565 C174.577011,619.588684 174.907425,619.910156 175.071213,620.072388 z"/><path fill="#EDEDED" d="M167.670349,617.892456 C167.556091,617.529114 167.700348,617.101135 168.177292,616.851501 C168.316269,617.295837 168.122559,617.561768 167.670349,617.892456 z"/><path fill="#D3D3D3" d="M204.632111,522.900635 C205.173141,530.894775 201.725296,537.107056 197.519745,543.041138 C197.054443,542.899475 196.589127,542.757812 196.123825,542.616150 C198.508698,535.136658 200.893570,527.657166 203.374344,519.876953 C203.819656,520.916809 204.167343,521.728638 204.632111,522.900635 z"/><path fill="#313232" d="M193.022644,564.439087 C191.065140,565.977844 189.099121,567.163208 186.932495,568.631531 C185.750290,569.706055 184.768707,570.497681 183.088760,571.852417 C184.674423,567.420654 185.971329,563.795898 187.798004,558.690491 C187.995758,561.611023 188.093994,563.061646 188.187073,564.436462 C189.492905,563.943970 190.820557,563.443237 192.492630,562.813477 C192.896088,563.151489 192.955109,563.618652 193.022644,564.439087 z"/><path fill="#EFEFEF" d="M192.001740,529.985229 C192.146912,529.883179 192.487640,529.964844 192.725037,530.271973 C192.480240,530.387878 192.338760,530.278381 192.001740,529.985229 z"/><path fill="#DFDFDF" d="M93.131607,411.358246 C94.247322,413.617188 95.198578,416.224274 96.488342,418.893005 C97.949287,419.831238 99.071716,420.707855 102.320587,423.245270 C98.146942,425.406281 94.329514,427.382874 90.512085,429.359467 C89.872787,428.291687 88.719650,425.090179 90.204002,421.121521 C91.346794,418.066101 92.061882,414.850677 93.131607,411.358246 z"/><path fill="#D9D9D9" d="M100.802238,404.945618 C100.802238,404.945618 101.134979,404.681580 101.206024,404.481415 C103.281464,404.253479 105.285843,404.225708 107.656776,404.273346 C108.023323,404.348785 108.015358,404.782990 108.015358,404.782990 C107.573868,408.370209 107.000450,411.947845 106.737892,415.548096 C106.566650,417.896240 106.203293,419.571808 103.094193,417.915466 C102.203636,413.100433 101.502937,409.023041 100.802238,404.945618 z"/><path fill="#E3E3E3" d="M108.281769,405.102600 C108.015358,404.782990 108.023323,404.348785 107.996964,404.133270 C109.031868,403.632446 110.093124,403.347137 111.514755,403.101898 C113.484772,406.510437 115.674187,409.747925 111.288383,412.991211 C110.239838,413.766602 110.410461,416.190643 110.020355,417.856445 C109.529633,417.891724 109.038910,417.927032 108.548187,417.962311 C108.548187,413.782288 108.548187,409.602234 108.281769,405.102600 z"/><path fill="#D3D3D3" d="M120.096268,405.948029 C120.389221,407.943512 120.640594,409.947784 120.898254,412.002258 C119.538399,412.002258 117.504227,412.002258 115.202240,412.002258 C115.202240,409.362427 115.202240,406.974457 115.202240,404.172241 C116.691154,404.691345 118.034279,405.159637 119.718430,405.749939 C120.059456,405.871979 120.054680,405.956848 120.096268,405.948029 z"/><path fill="#3F3F40" d="M100.520615,404.959229 C101.502937,409.023041 102.203636,413.100433 102.850052,417.617676 C102.406563,418.041229 102.017334,418.024963 101.343384,417.694946 C101.022011,416.551147 100.985367,415.721161 100.948723,414.891144 C100.957153,414.495331 100.965584,414.099487 100.905418,413.413513 C100.255219,411.020660 99.673607,408.917908 99.046143,406.406952 C99.413193,405.656769 99.826096,405.314819 100.520615,404.959229 z"/><path fill="#DFDFDF" d="M100.529938,414.922913 C100.985367,415.721161 101.022011,416.551147 101.051147,417.697601 C100.240677,418.346313 99.437698,418.678558 98.320793,418.891205 C98.708290,417.499298 99.409721,416.226959 100.529938,414.922913 z"/><path fill="#F6F5F6" d="M236.412521,441.748749 C235.976089,441.530518 235.792221,441.250824 235.342834,440.944702 C234.632950,440.315094 234.188553,439.711853 232.824265,437.859955 C234.752869,439.040558 235.435211,439.458252 236.452774,440.034180 C236.747025,440.690704 236.706055,441.188995 236.412521,441.748749 z"/><path fill="#3F3F40" d="M213.402634,417.852661 C213.096771,418.088593 212.903976,417.904480 212.975525,417.414001 C213.056030,417.326752 213.331818,417.651672 213.402634,417.852661 z"/><path fill="#E5E4E4" d="M134.380707,622.345032 C134.598495,622.617798 134.592117,623.121826 134.585724,623.625854 C134.442673,623.276001 134.299622,622.926147 134.380707,622.345032 z"/><path fill="#FDFDFD" d="M171.009567,601.571167 C170.756470,602.791687 170.500671,603.580933 169.904816,604.785217 C169.293396,605.409424 169.098160,605.674622 168.979050,605.995911 C168.979050,605.995911 169.002884,605.999573 168.755951,606.164551 C168.330170,606.882019 168.151306,607.434448 167.972443,607.986877 C167.972458,607.986877 168.001221,608.001038 167.696259,608.005798 C166.920319,608.336365 166.449356,608.662170 165.978363,608.987915 C165.978363,608.987915 165.998611,609.002808 165.775787,609.108704 C165.348450,609.474915 165.143921,609.735291 164.939392,609.995605 C163.085464,610.440613 161.231506,610.885620 159.161896,610.780518 C158.726746,609.461914 158.752289,608.394165 158.244186,607.978088 C156.304901,606.389954 157.177490,602.111206 153.120026,602.608948 C153.079605,599.739319 153.039185,596.869629 153.190521,593.880188 C153.370178,593.435425 153.358063,593.110535 153.345963,592.785583 C153.231064,593.191162 153.116150,593.596802 152.643433,594.047607 C150.842819,595.762390 149.400024,597.432007 147.957230,599.101562 C142.629700,599.001587 141.651703,593.754456 138.529160,591.048950 C137.724640,590.351929 137.430344,589.065918 137.183243,588.591309 C136.125214,588.875671 135.279877,589.102905 134.221008,588.740234 C134.126892,586.202087 134.509537,584.217163 134.245178,582.322449 C134.127945,581.482117 132.703125,580.824158 131.871841,580.083435 C131.610962,578.957336 131.350082,577.831177 131.061035,576.357117 C131.032883,576.009155 130.999268,576.002625 131.226196,575.856628 C131.302094,575.103638 131.151077,574.496704 131.000046,573.889709 C132.619736,572.803345 134.611786,572.019958 135.788574,570.573303 C139.180923,566.403015 143.161224,566.638428 147.852448,567.733765 C161.109146,570.829163 170.777084,587.234192 171.009567,601.571167 z"/><path fill="#FDFDFD" d="M150.973648,611.978699 C148.524689,615.069336 146.075729,618.159973 144.140701,620.601990 C143.322601,619.708557 142.435928,618.740295 141.262238,617.888306 C141.291046,614.027893 141.606857,610.051147 141.588394,605.917664 C141.956314,605.025146 142.658539,604.289368 143.589554,603.244263 C145.113174,602.118408 146.407974,601.301941 148.118134,600.485107 C149.346863,604.316101 150.160263,608.147400 150.973648,611.978699 z"/><path fill="#E5E4E4" d="M151.197723,612.220276 C150.160263,608.147400 149.346863,604.316101 148.252502,600.203186 C147.971558,599.921570 147.970596,599.510315 147.963913,599.305908 C149.400024,597.432007 150.842819,595.762390 152.642807,594.046387 C153.000000,594.000000 152.998779,594.000000 152.998779,594.000000 C153.039185,596.869629 153.079605,599.739319 153.120026,602.608948 C157.177490,602.111206 156.304901,606.389954 158.244186,607.978088 C158.752289,608.394165 158.726746,609.461914 158.934631,610.597534 C156.422592,611.463745 153.922195,611.962769 151.197723,612.220276 z"/><path fill="#EFEFEF" d="M131.719467,580.442017 C132.703125,580.824158 134.127945,581.482117 134.245178,582.322449 C134.509537,584.217163 134.126892,586.202087 134.001419,588.578491 C128.310074,587.714111 131.668671,583.745422 131.719467,580.442017 z"/><path fill="#D9D9D9" d="M126.304802,579.541260 C125.888069,579.476685 125.465431,579.440002 125.042801,579.403259 C125.386589,579.218994 125.730370,579.034729 126.199432,579.235229 C126.324707,579.619934 126.298897,579.569092 126.304802,579.541260 z"/><path fill="#EFEFEF" d="M129.300430,566.337280 C129.106155,566.753052 128.736435,566.975525 128.366730,567.197998 C128.305130,566.822815 128.243515,566.447571 128.473053,565.919434 C128.884476,565.892395 129.004745,566.018188 129.300430,566.337280 z"/><path fill="#3F3F40" d="M202.163727,409.347595 C202.340698,408.942505 202.563004,408.779541 202.840149,408.376221 C203.268723,408.036682 203.602341,407.882843 204.063416,407.472931 C204.457321,408.292511 204.723740,409.368103 204.940567,410.745239 C204.010376,410.579285 203.129791,410.111877 202.163727,409.347595 z"/><path fill="#262627" d="M155.618439,546.768311 C155.237976,549.549072 155.002335,551.986511 154.708374,555.027039 C152.366699,551.771240 150.606140,549.323364 149.008423,547.101929 C152.005722,544.381409 155.320709,540.310791 159.563614,537.822266 C163.747070,535.368652 168.870010,534.516907 173.241577,533.074280 C175.250977,533.907959 177.234116,535.015869 179.361435,535.561462 C186.503510,537.392883 190.050705,544.139954 187.500626,551.023071 C186.894012,552.660400 186.981293,554.554749 185.892822,556.333008 C185.892822,554.096436 185.511353,551.779236 185.963486,549.638062 C187.389450,542.885315 182.943909,538.021301 174.711777,537.971008 C174.453125,539.221863 174.183212,540.527283 173.832428,542.223694 C171.330566,536.743042 166.101837,535.778442 160.977203,539.880615 C158.853699,541.580444 157.478653,544.215271 155.618439,546.768311 z"/><path fill="#262627" d="M137.893341,565.967834 C137.573059,565.171326 137.252808,564.374756 136.932541,563.578247 C139.641205,563.017029 143.177032,563.325378 144.879196,561.706116 C148.021042,558.717468 149.308655,561.723694 151.508865,562.758301 C151.947861,560.740295 152.367996,558.808899 152.967468,556.053162 C154.477325,560.963257 155.695374,564.924438 156.913422,568.885559 C151.890976,563.789795 145.765823,564.956177 139.167389,565.073242 C138.261429,565.376160 138.077393,565.671997 137.893341,565.967834 z"/><path fill="#3F3F40" d="M168.337402,549.181885 C170.438141,547.945557 172.160049,546.760376 173.868652,545.584351 C174.451035,546.564636 175.634537,548.556763 176.793213,550.507019 C175.818756,551.680237 174.368698,553.426086 172.886292,555.210815 C172.578232,554.361511 172.057083,552.924683 171.466782,551.297241 C169.852631,551.171021 168.240601,551.044983 165.853958,550.858337 C166.926208,550.030273 167.442383,549.631592 168.337402,549.181885 z"/><path fill="#3F3F40" d="M174.004852,559.156677 C174.985962,560.568604 175.896851,561.607422 176.633377,562.447449 C175.499405,563.246704 174.283127,564.104004 173.013565,564.998840 C171.766022,564.181091 170.325531,563.236816 168.704758,562.174377 C170.319809,561.127258 172.127228,559.955444 174.004852,559.156677 z"/><path fill="#313232" d="M166.336136,575.102600 C166.786041,575.653748 167.004471,576.053284 167.080750,576.763916 C165.877289,576.411255 164.815994,575.747559 163.804306,574.590210 C164.017883,573.949524 164.181824,573.802429 164.345795,573.655334 C164.932083,574.087219 165.518372,574.519104 166.336136,575.102600 z"/><path fill="#313232" d="M161.443802,572.619263 C161.161316,572.131897 160.878830,571.644592 160.596329,571.157227 C161.015717,571.240051 161.435089,571.322876 161.794250,571.839722 C161.734024,572.273621 161.443802,572.619263 161.443802,572.619263 z"/><path fill="#3F3F40" d="M179.924713,551.528564 C179.703247,551.529480 179.590363,551.489990 179.477493,551.450439 C179.662766,551.462952 179.848053,551.475525 179.924713,551.528564 z"/><path fill="#D9D9D9" d="M130.996506,574.247375 C131.151077,574.496704 131.302094,575.103638 131.228470,575.871765 C131.000214,575.556946 130.996582,575.080994 130.996506,574.247375 z"/><path fill="#D9D9D9" d="M183.048645,575.109619 C182.754623,574.822876 182.459320,574.504944 182.211365,574.153625 C182.192795,574.127319 182.512665,573.862183 182.675217,573.708069 C182.804474,573.972717 182.933731,574.237305 183.099426,574.771973 C183.135895,575.042053 183.059158,575.070129 183.048645,575.109619 z"/><path fill="#0F0F0F" d="M146.929184,532.072937 C147.305069,532.102356 147.530075,532.279663 147.755096,532.456970 C147.476028,532.555603 147.196945,532.654175 146.707275,532.644287 C146.496689,532.535767 146.778320,532.220825 146.929184,532.072937 z"/><path fill="#0F0F0F" d="M143.653992,534.632874 C143.438629,534.791687 143.217697,534.937866 142.996750,535.083984 C143.079041,534.976013 143.161362,534.868103 143.484055,534.686035 C143.724442,534.611877 143.648407,534.620178 143.653992,534.632874 z"/><path fill="#313232" d="M166.766296,577.447876 C167.321854,577.173706 167.703659,577.275452 168.008942,577.719910 C167.485779,577.983032 167.039154,577.903381 166.766296,577.447876 z"/><path fill="#D3D3D3" d="M177.005157,576.007202 C177.086227,575.976990 177.161835,575.939514 177.111359,575.945435 C176.985275,575.988831 176.999710,576.000000 177.005157,576.007202 z"/><path fill="#313232" d="M163.594772,574.301575 C163.058578,574.343750 162.811279,574.144043 162.697449,573.526672 C162.948807,573.016174 163.096497,572.886475 163.244202,572.756714 C163.541397,572.902344 163.838593,573.047974 164.240784,573.424438 C164.181824,573.802429 164.017883,573.949524 163.594772,574.301575 z"/><path fill="#313232" d="M161.892212,572.112671 C162.371765,572.063721 162.693146,572.175598 163.129364,572.522095 C163.096497,572.886475 162.948807,573.016174 162.567505,573.325806 C162.085205,573.364990 161.868011,573.185974 161.563049,572.794006 C161.443802,572.619263 161.734024,572.273621 161.892212,572.112671 z"/><path fill="#FDFDFD" d="M138.107407,565.883423 C138.077393,565.671997 138.261429,565.376160 138.709702,565.125793 C138.830429,565.457458 138.612930,565.666687 138.107407,565.883423 z"/><path fill="#F6F5F6" d="M219.233459,495.993713 C218.992447,495.841095 218.994232,495.672638 218.997406,495.251495 C219.411804,495.167847 219.824844,495.336884 220.237885,495.505920 C219.984009,495.663208 219.730118,495.820526 219.233459,495.993713 z"/><path fill="#0F0F0F" d="M123.953903,536.072754 C124.171982,536.109985 124.408844,536.114380 124.645706,536.118774 C124.469887,536.225220 124.294083,536.331665 124.067993,536.208618 C124.017723,535.979065 123.972687,536.039917 123.953903,536.072754 z"/><path fill="#0F0F0F" d="M118.994324,544.005676 C118.749710,543.823975 118.593742,543.560364 118.437775,543.296753 C118.655006,543.297058 118.872231,543.297363 119.176132,543.530151 C119.262817,543.762695 119.082977,543.923767 118.994324,544.005676 z"/><path fill="#E3E3E3" d="M187.000839,610.001221 C187.334152,609.760132 187.666626,609.517822 187.999084,609.275513 C188.080246,609.394043 188.161407,609.512634 188.242584,609.631165 C187.980881,609.747009 187.719177,609.862793 187.227203,609.988098 C186.996948,609.997559 187.000000,610.000000 187.000839,610.001221 z"/><path fill="#E5E4E4" d="M168.217102,607.816650 C168.151306,607.434448 168.330170,606.882019 168.749176,606.154297 C168.813492,606.534851 168.637634,607.090576 168.217102,607.816650 z"/><path fill="#E5E4E4" d="M166.277649,608.967957 C166.449356,608.662170 166.920319,608.336365 167.689056,607.991516 C167.516861,608.297607 167.046890,608.622803 166.277649,608.967957 z"/><path fill="#E5E4E4" d="M169.201538,605.878967 C169.098160,605.674622 169.293396,605.409424 169.781204,605.075073 C169.806427,605.220520 169.615234,605.491272 169.201538,605.878967 z"/><path fill="#E5E4E4" d="M169.000626,612.001221 C169.082672,611.967468 169.164108,611.932495 169.121933,611.948303 C168.998322,611.999023 169.000000,612.000000 169.000626,612.001221 z"/><path fill="#E5E4E4" d="M165.167725,609.886230 C165.143921,609.735291 165.348450,609.474915 165.773987,609.096558 C165.795334,609.244690 165.595688,609.510742 165.167725,609.886230 z"/><path fill="#121212" d="M178.097595,588.097778 C178.202423,587.707397 178.447845,587.460815 178.693253,587.214233 C178.743240,587.484436 178.793228,587.754578 178.691315,588.266357 C178.539429,588.507874 178.238174,588.241516 178.097595,588.097778 z"/><path fill="#E5E4E4" d="M153.000626,594.001221 C153.116150,593.596802 153.231064,593.191162 153.345963,592.785583 C153.358063,593.110535 153.370178,593.435425 153.190536,593.880188 C152.998779,594.000000 153.000000,594.000000 153.000626,594.001221 z"/></svg>