<svg xmlns="http://www.w3.org/2000/svg" viewBox="376.4 397.3 185.8 266.8"><path fill="#F4F4F5" d="M526.785339,575.355713 C527.376831,576.730164 527.968323,578.104675 528.138489,579.642822 C527.717163,579.806519 527.638733,579.794678 527.638733,579.794678 C528.272034,582.557678 528.905396,585.320618 529.212585,588.544067 C528.783020,589.629395 528.679626,590.254211 528.576172,590.879028 C528.536682,593.028992 528.497253,595.178955 527.998901,597.465088 C527.206116,596.433167 526.872253,595.265137 526.866821,595.246155 C524.147034,598.556458 521.084412,602.284058 517.728149,606.104248 C515.638184,600.470215 508.217133,597.239685 510.050995,589.719177 C509.452576,592.805786 508.917816,595.913696 509.568329,598.749695 C510.774048,604.006226 509.217499,607.279541 504.031433,609.834106 C501.892822,610.887573 499.769043,612.603455 498.447937,614.563660 C494.734406,620.073486 491.943359,621.480042 486.039001,619.600769 C486.236237,618.066345 486.275543,616.898499 486.692810,615.822083 C488.661255,616.074036 490.299500,616.543091 491.828369,616.306091 C493.278076,616.081421 495.567352,615.389771 495.840424,614.433289 C497.360687,609.108398 500.479828,604.100342 499.760406,598.058350 C500.551727,597.558838 501.142334,597.220154 502.021210,596.825989 C502.477417,596.140930 502.999451,595.268066 502.759460,594.918640 C499.775055,590.573547 496.771118,586.233521 493.536377,582.075745 C492.887604,581.241882 491.252228,581.175537 490.090637,580.469604 C490.251404,579.829956 490.393250,579.476074 490.866211,578.954956 C491.580902,577.035339 495.424438,574.337708 489.938416,573.826050 C489.616882,572.805847 489.297577,572.147949 488.978302,571.490112 C485.101532,574.802734 481.466248,571.178894 477.425476,570.929688 C475.758453,569.732117 474.373566,568.702637 472.988678,567.673157 C472.705139,568.024231 472.421570,568.375244 472.138031,568.726318 C475.687866,572.903931 479.237701,577.081543 482.918884,581.645569 C483.685059,584.667175 484.319855,587.302368 484.463989,589.952515 C483.646179,589.978271 483.319061,589.989136 482.996490,589.999878 C483.001068,589.999756 483.003021,590.007324 482.908447,589.852539 C482.542206,589.798523 482.270508,589.899292 481.738953,589.761108 C480.690460,585.149231 480.185150,580.634094 476.583710,577.433960 C474.547943,575.625061 471.496552,574.404236 470.424408,572.183716 C468.327942,567.841858 465.034790,565.770325 460.799072,564.367371 C459.422699,563.911377 458.260193,562.809631 457.420715,561.928467 C461.227814,562.505066 464.614044,563.156372 467.871674,563.782959 C466.963104,560.127014 466.102783,556.665222 465.242432,553.203430 C465.002258,553.223511 464.762054,553.243591 464.521881,553.263672 C464.162018,555.096436 463.802155,556.929138 463.435211,558.797974 C458.718445,556.338257 450.056824,558.323669 445.385223,562.835022 C448.589386,562.545044 451.793518,562.255066 454.931458,562.326050 C449.928253,564.542725 446.466644,568.282532 442.918518,571.676575 C441.351471,571.341003 439.847260,571.320984 438.475098,570.969971 C439.666870,567.910400 440.726501,565.181885 441.852203,562.777710 C442.151459,563.063843 442.384644,563.025574 442.617828,562.987305 C442.349945,562.860291 442.082031,562.733276 441.483734,562.757263 C440.549011,562.966858 439.944672,563.025452 440.438202,562.977600 C441.545990,557.666260 442.648041,552.382446 444.119293,547.110352 C445.957489,546.170715 447.426453,545.219299 448.901428,544.264038 C444.645508,538.232849 442.171844,532.467407 446.617889,526.138977 C448.187164,527.825378 449.444122,529.299072 450.874573,530.578796 C451.005524,530.695984 452.246124,529.572815 453.110474,528.902283 C453.249512,528.778931 453.518677,528.522583 453.920044,528.623718 C455.582184,528.795593 456.842926,528.866394 457.952240,529.126526 C458.068268,529.377747 458.335754,529.439514 458.603271,529.501282 C458.393921,529.342529 458.184570,529.183838 457.986877,528.660767 C458.293671,527.782959 458.466492,526.994568 458.903412,526.800415 C461.915649,525.461792 464.983063,524.247253 468.397095,523.036560 C470.846741,522.038818 472.932007,520.997314 475.225098,519.693176 C479.053894,517.499207 480.664459,514.867126 479.077515,510.636017 C478.722870,509.690399 479.754547,508.224792 480.202057,507.038757 C480.256165,507.078888 480.290771,507.209106 480.219177,507.613098 C480.734222,509.010956 481.320892,510.004822 482.045593,511.403229 C482.571259,515.331238 482.905243,518.834290 478.482971,520.616089 C477.837860,521.018005 477.526581,521.458191 477.215302,521.898438 C477.459015,522.067993 477.702728,522.237549 477.946411,522.407104 C478.239349,521.778137 478.532257,521.149170 479.190247,520.766602 C482.009705,521.325378 484.464050,521.637817 486.442749,521.889771 C485.748810,517.460022 485.440002,513.399902 484.431824,509.521606 C482.736328,502.999573 482.001251,497.126434 489.488861,493.493988 C491.446289,492.544434 492.971222,490.703461 493.640839,490.147308 C493.859802,487.057465 493.648102,484.862152 494.223236,482.897156 C495.974762,476.912689 499.366486,472.085236 505.096924,469.186646 C505.851318,468.835052 506.605682,468.483521 508.117615,468.027863 C511.559143,469.164124 515.080078,466.251953 517.476196,469.806091 C517.925598,470.472687 520.210999,469.901489 520.739563,469.901489 C522.848816,472.130432 524.480042,473.854279 526.111328,475.578125 C526.492737,475.230988 526.874207,474.883850 527.255676,474.536713 C525.945862,471.927094 524.436951,469.396210 523.367310,466.691620 C521.071838,460.887787 521.531921,454.999908 522.532227,448.903198 C523.223145,444.691742 522.738037,440.161072 521.983337,435.914368 C521.752258,434.614105 518.887390,433.781921 517.228638,432.735413 C517.228638,432.735413 517.096558,432.906677 517.086304,432.567200 C516.532593,431.689240 515.989136,431.150726 515.445679,430.612244 C515.445679,430.612244 515.303162,430.699677 515.324341,430.432281 C515.230103,429.904236 515.034546,429.737396 514.758972,429.664398 C514.758972,429.664398 514.706665,429.434540 514.519287,429.072815 C513.610413,427.742401 512.888916,426.773773 512.167358,425.805115 C512.167358,425.805115 512.082214,425.890228 512.173035,425.482544 C512.572632,421.430359 512.881409,417.785889 513.190186,414.141418 C513.190186,414.141418 513.089966,414.060364 513.382812,414.033173 C514.093811,413.658661 514.512085,413.311310 515.249268,413.127808 C518.320679,413.620178 521.191101,417.197144 523.734253,412.754883 C524.249634,413.668365 524.652710,414.382874 524.908936,415.433075 C521.999756,417.003662 519.237427,418.238525 516.467346,419.358795 C516.459534,419.244202 516.612549,419.379822 516.612549,419.379822 C516.612549,419.379822 516.413330,419.395081 516.812744,419.536621 C517.946716,420.921326 518.681213,422.164520 519.495789,423.543243 C524.542480,422.643036 527.511230,425.876984 530.258545,430.041473 C530.258545,428.626068 530.258545,427.210663 530.258545,424.683899 C533.703247,426.392792 536.436218,427.748596 538.988464,429.014709 C539.357544,426.732117 539.678101,424.749634 539.994873,422.790802 C538.911011,422.256714 537.830017,421.724030 536.545776,421.091217 C537.611267,420.235474 538.335815,419.653534 539.037964,419.043854 C539.015503,419.016113 539.013855,419.087738 539.261719,418.982941 C539.700012,418.582245 539.890442,418.286316 540.044556,417.997253 C540.008179,418.004089 540.024048,418.076324 540.316772,417.824127 C540.767578,416.365784 540.925720,415.159637 541.031494,413.946075 C540.979126,413.938660 540.941772,414.037598 541.319092,414.213135 C545.719177,416.834991 544.512756,421.069275 545.141235,424.643372 C545.978699,429.405884 542.464355,431.602539 538.424988,434.079834 C541.449280,434.079834 543.559448,434.079834 546.147644,434.079834 C545.231567,434.768982 544.693359,435.173828 544.119385,435.605621 C545.439148,436.510956 547.805542,437.869812 547.700012,438.101135 C545.743713,442.390198 550.372009,442.960205 551.610962,445.356995 C551.610962,445.356995 551.924438,445.036560 551.831909,445.428406 C551.889526,446.106659 552.119324,446.296875 552.428833,446.390808 C552.428833,446.390808 552.499268,446.429413 552.597778,446.731812 C553.071838,447.425507 553.447327,447.816803 553.822876,448.208069 C553.822876,448.208069 553.923767,448.103271 553.927063,448.458008 C554.348389,449.740753 554.766418,450.668732 555.407227,452.091309 C554.275940,451.441406 553.729797,451.127686 553.069336,450.509460 C552.608459,450.255096 552.261841,450.305267 551.915283,450.355469 C552.125732,450.714844 552.336182,451.074280 552.648682,451.778320 C554.640381,458.503174 556.530029,464.883392 558.419678,471.263611 C558.136597,471.364532 557.853516,471.465454 557.570496,471.566406 C557.134033,470.949493 556.697510,470.332581 556.212952,469.809479 C556.164856,469.903259 556.143799,469.812317 556.143799,469.812317 C556.143799,469.812317 556.383667,469.736725 556.178894,470.128571 C556.350891,474.153442 556.727661,477.786469 557.104431,481.419495 C556.772278,481.489532 556.440125,481.559540 556.107971,481.629547 C555.571411,480.818909 555.034790,480.008240 554.433105,479.099152 C553.899841,481.223846 553.427734,483.105164 552.710815,484.761353 C552.171631,483.349396 551.877197,482.162598 551.552673,480.854431 C550.578857,481.926544 549.760559,482.827484 548.890015,483.785889 C548.111755,482.728821 547.584717,482.013000 546.965332,481.171753 C544.144165,485.426819 542.145020,490.287811 535.756653,487.649414 C532.393250,492.766876 531.263672,500.513062 522.473755,499.337311 C522.969788,496.591095 523.433533,494.023712 523.842773,491.758026 C521.026794,491.758026 519.047974,491.478790 517.187378,491.828583 C514.850281,492.267975 512.610107,493.222443 510.211670,493.581970 C510.147003,491.083466 510.198761,488.957642 510.512268,486.504517 C511.116394,485.006104 511.458801,483.834991 512.050232,481.811981 C507.464966,484.740265 507.464966,484.740265 508.670410,487.556763 C506.839539,492.269592 506.347748,496.409515 507.964935,501.107513 C509.806122,506.456268 508.850769,511.967743 505.653137,516.848694 C504.594269,516.693237 503.728699,516.417480 503.096832,516.687927 C499.449646,518.248779 495.857666,519.938721 492.294830,521.563110 C493.166443,521.897583 494.633667,522.460632 496.251587,523.316895 C498.676422,524.688354 500.950592,525.766724 504.030853,527.227295 C504.331116,528.662903 504.914886,531.453857 505.498627,534.244812 C505.921417,534.086304 506.344208,533.927795 506.924316,533.926636 C507.081635,534.084045 507.397064,534.398010 507.509766,534.818237 C506.886688,540.793152 506.762177,546.532959 505.160004,551.825378 C504.345581,554.515503 505.092163,558.720825 500.582642,559.937744 C499.787476,558.605408 499.394928,557.296387 498.801605,555.317749 C497.406647,559.658508 496.305084,563.086182 494.934509,567.351013 C497.798706,564.874695 499.979858,562.988892 502.605652,560.993286 C506.164703,560.869507 509.279083,560.855652 512.564026,561.150635 C514.791199,562.718018 517.078064,563.722717 518.832703,565.314148 C520.277161,566.624207 520.973206,568.722229 522.214478,570.303406 C523.613403,572.085388 525.251343,573.679749 526.785339,575.355713 M446.911194,535.694031 C446.820038,535.651184 446.728851,535.608337 446.637695,535.565491 C446.746063,535.720154 446.854431,535.874878 447.085144,536.301392 C447.179565,536.342896 447.273956,536.384338 447.368378,536.425842 C447.256287,536.270447 447.144165,536.115051 446.911194,535.694031 M483.878204,535.217712 C484.094910,536.237061 484.311584,537.256470 484.528259,538.275818 C484.789215,538.276245 485.050171,538.276672 485.311127,538.277039 C485.616730,536.820312 485.922333,535.363586 486.217072,533.958618 C494.950409,534.362427 498.471222,539.140503 496.596741,547.054260 C496.181122,548.808960 497.100128,550.879822 497.404602,552.805115 C498.650635,550.999756 498.469513,549.323547 498.897186,547.820557 C501.272461,539.473267 498.116150,533.803772 489.742554,531.420776 C487.932098,530.905518 486.248749,529.943787 484.422241,529.151001 C479.983704,530.643982 474.866486,531.553284 470.651886,534.010620 C466.411835,536.482849 463.069519,540.494812 459.982452,543.252625 C461.805145,545.255737 463.961914,547.625916 465.634155,549.463623 C467.126251,545.853088 468.075775,541.131592 470.736786,537.761475 C473.716492,533.987732 478.345337,531.847412 483.878204,535.217712 M549.858032,461.062408 C548.993469,460.027039 548.128967,458.991669 547.264404,457.956299 C546.636108,464.385925 540.932129,469.926788 545.609802,475.955566 C546.383423,470.991852 552.292908,467.632874 549.858032,461.062408 M476.741211,546.069763 C480.159210,547.115173 484.577148,546.876160 485.011932,552.327026 C485.427368,550.854309 485.842773,549.381653 486.248962,547.941711 C488.012695,547.840576 489.670349,547.745544 491.328003,547.650513 C491.348816,547.378906 491.369629,547.107361 491.390442,546.835754 C489.620575,546.214966 487.850708,545.594177 486.249237,545.032471 C486.036713,543.430481 485.860870,542.105347 485.685059,540.780151 C483.887054,545.452698 480.074463,546.051697 476.741211,546.069763 M482.689606,559.912903 C483.155975,560.554199 483.622314,561.195435 484.071045,561.812500 C485.563965,560.593567 486.936249,559.473206 488.049622,558.564148 C486.939606,557.043945 485.799438,555.482422 484.659271,553.920898 C485.076447,554.339355 485.493622,554.757812 485.910797,555.176331 C484.455383,556.878662 483.000000,558.581055 481.544586,560.283386 C480.974457,559.746338 480.404358,559.209290 479.834229,558.672241 C480.579529,558.997742 481.324799,559.323181 482.689606,559.912903 M527.484436,484.575104 C527.484436,484.575104 527.433655,484.482361 527.484436,484.575104 z"/><path fill="#F6F6F6" d="M480.147949,506.998596 C479.754547,508.224792 478.722870,509.690399 479.077515,510.636017 C480.664459,514.867126 479.053894,517.499207 474.772766,519.703674 C473.287781,519.973022 472.460327,520.010803 471.638489,519.959167 C459.143555,519.175049 448.937866,514.866821 444.050110,502.202301 C443.712646,501.327881 442.562408,500.767120 441.683044,499.648804 C441.704498,497.828949 441.833069,496.420776 442.220856,494.840332 C442.696594,493.490845 445.162628,492.593811 441.959991,491.131653 C439.494080,490.005859 438.075562,486.585785 436.191315,484.185852 C435.798645,484.408417 435.405975,484.630981 435.013306,484.853516 C435.429535,486.386932 435.845734,487.920319 436.371033,489.826050 C436.350616,491.476440 436.221039,492.754425 435.840027,493.840912 C434.733551,493.094666 433.948334,492.290131 433.011505,492.028473 C428.938843,490.890839 423.981964,492.841858 420.831390,488.424835 C420.307709,487.690643 419.413086,487.221039 418.689911,486.629181 C418.263184,486.872498 417.836456,487.115845 417.409760,487.359192 C419.347015,491.945221 421.284302,496.531250 423.035492,500.676819 C418.572815,501.318481 415.159912,501.809204 411.791779,502.293457 C411.407440,500.586609 410.969452,498.641296 410.527802,496.679932 C411.259674,496.371063 411.991547,496.062195 412.981598,495.644348 C411.702820,494.303101 410.838867,493.295837 409.866943,492.406525 C408.936981,491.555603 407.894745,490.827332 406.435059,489.677368 C405.536041,490.844696 404.867096,491.780548 404.129089,492.658325 C402.286011,494.850555 401.094086,493.882935 400.139343,491.804108 C397.475739,486.004456 397.028564,485.870117 391.314941,489.053650 C390.890350,488.831482 390.759247,488.711243 390.609497,488.679840 C390.534363,488.664062 390.355255,488.799133 390.342285,488.884094 C390.175293,489.979828 390.029785,491.078857 389.900604,492.140503 C389.922302,492.103973 389.974121,492.036621 389.647247,491.844788 C388.443695,488.038483 387.567017,484.424011 386.757568,480.777924 C386.824829,480.746307 386.957275,480.972931 386.957275,480.972931 C386.957275,480.972931 386.830048,480.728302 386.609863,481.031464 C386.102509,482.364899 385.815369,483.395172 385.528198,484.425446 C385.161835,484.353241 384.795441,484.281036 384.429077,484.208862 C385.174744,479.887817 385.920410,475.566803 386.678711,471.172729 C386.147186,471.473602 385.614349,471.775238 384.927612,471.933472 C384.773712,471.790039 384.450562,471.520630 384.541260,471.168945 C385.757568,468.037384 386.883209,465.257507 387.925262,462.684052 C387.028137,462.438446 386.247406,462.224731 385.711578,461.744812 C387.714203,458.908752 389.495392,456.354462 391.212921,453.758026 C391.635498,453.119171 392.277374,451.861847 392.097046,451.701813 C389.199585,449.130859 391.874115,447.511780 393.344666,446.438110 C395.835999,444.619171 396.351044,442.705658 395.120117,440.072174 C395.120117,440.072174 395.035461,440.031219 395.387726,439.993225 C397.409790,438.914276 399.079590,437.873260 400.945618,436.709961 C399.967010,436.239990 399.381897,435.958984 398.120239,435.353088 C399.861481,435.092865 400.815491,434.866394 401.776886,434.828644 C402.883179,434.785248 403.996002,434.908630 405.134460,434.960876 C404.816223,430.558075 407.319733,428.418579 413.813843,427.353180 C413.955078,428.731323 414.095764,430.104034 414.280762,431.909210 C418.465485,424.819550 420.586761,423.592285 426.096771,424.565155 C426.729614,422.824615 427.341736,421.141052 427.939514,419.496918 C421.969727,419.349121 420.848022,418.145966 422.456177,413.268433 C423.060455,413.289856 423.406799,413.276520 424.014038,413.571045 C426.257172,414.100861 428.328308,414.047394 430.188507,414.647644 C431.311981,415.010132 432.873535,416.354553 432.914917,417.314758 C433.070679,420.932281 432.683807,424.573151 432.500122,428.205292 C432.500122,428.205292 432.193024,428.383057 432.043762,428.596802 C431.738434,428.913940 431.658875,429.059143 431.655792,429.246185 C431.655792,429.246185 431.368073,429.359650 431.154358,429.596680 C430.733551,430.000885 430.612274,430.216309 430.576843,430.480042 C430.576843,430.480042 430.556641,430.552826 430.283234,430.742310 C429.575195,431.584473 429.140533,432.237152 428.705902,432.889862 C427.561981,433.695007 426.418060,434.500153 424.746643,435.604675 C423.649872,436.224426 422.594818,436.529083 422.583893,436.867462 C422.412811,442.162140 421.839447,447.521423 422.425171,452.746216 C423.513947,462.457825 422.639679,471.228577 414.332275,477.947968 C414.643158,478.308533 414.838165,478.394623 415.033173,478.480713 C414.752228,478.217285 414.471283,477.953827 414.533783,477.949738 C416.855713,477.122925 419.621918,478.770020 421.144073,475.451843 C423.925293,469.388794 427.738068,468.032959 434.015320,469.642303 C434.581177,469.787384 435.334503,469.201233 436.000763,468.954590 C436.000763,468.954590 436.409332,469.101593 436.804199,469.381653 C444.168976,473.718079 450.719025,478.109863 452.318024,486.929626 C452.425110,487.520386 453.894073,487.888184 454.751770,488.315216 C461.395050,491.622772 468.116394,494.783386 474.660522,498.276215 C477.984467,500.050262 480.377777,502.798615 480.147949,506.998596 M399.004150,478.979034 C399.004150,470.243805 399.004150,461.508575 399.004150,452.796753 C394.226166,459.004333 394.744263,466.228180 396.052185,473.484131 C396.505341,475.998047 397.665680,478.384460 398.502991,480.829132 C398.656006,480.610992 398.836090,480.406097 398.951691,480.169678 C399.019287,480.031372 398.983887,479.842773 399.004150,478.979034 M405.277313,488.159424 C405.401062,488.041870 405.524841,487.924347 405.648590,487.806793 C405.523682,487.826904 405.398773,487.847015 405.277313,488.159424 z"/><path fill="#EFEFEF" d="M472.024292,428.459717 C472.142151,428.608765 472.260010,428.757812 472.819550,429.258514 C478.105530,433.547180 479.638031,440.511597 485.758911,443.281555 C485.758911,443.281555 485.938080,443.065826 485.949005,443.414246 C486.452271,444.016083 486.944580,444.269531 487.436920,444.523010 C487.436920,444.523010 487.515808,444.511108 487.689819,444.858429 C489.194214,447.886017 490.524536,450.566284 491.854889,453.246582 C491.413910,453.519501 490.972931,453.792419 490.531952,454.065338 C487.901550,450.826141 483.192322,458.849243 481.336060,451.757996 C478.285126,454.942566 475.513214,453.972412 472.826691,451.758667 C471.420166,450.599670 470.148743,449.265839 468.685913,448.187958 C463.512329,444.375885 457.947449,446.664337 457.228088,452.993164 C457.059082,454.480133 456.402222,456.300262 459.676636,456.682861 C464.114838,457.201538 464.598114,460.942810 461.128723,464.891602 C462.537842,465.357513 464.347351,465.788300 465.213440,465.074493 C467.493530,463.195160 468.974609,460.042786 471.472412,458.790222 C478.013123,455.510162 483.959991,459.171753 490.762970,461.094177 C486.710876,465.167999 490.567322,467.364685 491.803955,470.515137 C491.726501,472.220917 491.052460,473.672516 491.391541,474.826355 C493.015076,480.351196 490.888763,484.924133 487.963989,489.089478 C485.957886,488.338654 484.040771,487.317505 482.356750,487.615143 C478.906860,488.224792 475.582001,489.542175 471.917786,490.566711 C471.081177,490.394745 470.532501,490.224243 470.148682,489.803650 C470.854095,489.236847 471.394653,488.920166 471.700043,488.741241 C467.337311,486.891022 462.872681,484.997620 458.307220,483.061432 C458.069977,483.413422 457.535400,484.206512 456.709167,484.790161 C455.357178,481.684937 454.296875,478.789215 453.187408,475.759186 C452.670593,476.307861 452.062012,476.953949 451.070068,478.006989 C451.250397,475.186310 451.387939,473.034607 451.543396,470.602325 C450.401306,471.280945 449.734985,471.676849 448.977478,471.974884 C448.886261,471.877014 448.705994,471.679291 448.668030,471.291534 C449.159607,469.108856 449.689178,467.313904 450.286255,465.290131 C448.703979,465.577484 447.356354,465.822205 445.651306,465.862244 C446.182434,463.229340 447.070953,460.801147 447.987000,458.297760 C446.306244,458.587952 444.869873,458.835938 443.970367,458.991211 C445.953064,455.120605 447.871674,451.375122 449.790283,447.629639 C449.228882,447.458435 448.667480,447.287201 447.940460,446.933838 C447.774811,446.751648 447.432556,446.397583 447.658936,446.126923 C448.266602,445.373901 448.647858,444.891541 448.915985,444.552368 C447.491516,443.983307 446.293762,443.504852 445.096039,443.026367 C445.419281,442.991699 445.692383,442.856079 446.305450,442.265717 C448.719940,440.427063 450.744354,438.942169 452.894226,437.365265 C452.061676,436.979218 451.474152,436.706787 450.828217,436.407288 C451.667236,435.660858 452.381470,435.025452 453.095703,434.390045 C452.948853,434.142273 452.802002,433.894470 452.655151,433.646698 C450.970215,434.051727 449.285248,434.456757 447.567810,434.420715 C448.134613,433.356445 448.733887,432.733307 449.333160,432.110138 C449.333160,432.110138 449.703522,432.129944 450.218292,431.967712 C454.097656,430.946472 457.462250,430.087524 461.077698,429.164490 C459.437164,428.168793 457.981506,427.285278 456.525818,426.401764 C456.694733,425.977814 456.863678,425.553864 457.032593,425.129913 C461.075592,426.398956 465.099060,427.737885 469.177673,428.879730 C470.021240,429.115875 471.070068,428.618835 472.024292,428.459717 M487.324249,470.925781 C486.528381,470.346222 485.732513,469.766693 484.049469,469.038727 C472.769348,468.304749 466.139221,472.030426 463.812103,480.614380 C467.026398,478.438629 470.089386,476.365326 473.652161,474.129578 C474.137329,473.949280 474.622498,473.768951 475.891174,473.543396 C476.909882,473.312744 477.928619,473.082062 479.728424,472.990326 C480.505981,472.860077 481.283508,472.729858 482.682404,472.704651 C483.098846,472.660370 483.515320,472.616058 484.736389,472.842041 C485.783234,472.192596 486.830109,471.543182 487.944519,470.760468 C487.944519,470.760468 488.108276,470.953979 488.108276,470.953979 C488.108276,470.953979 487.974762,470.823547 487.324249,470.925781 M480.876923,462.487762 C476.540802,458.549866 475.926514,458.516113 473.054962,462.997040 C475.223175,463.333466 476.968170,463.564667 478.694641,463.893036 C479.324066,464.012756 479.902496,464.498322 480.519104,464.530457 C480.713562,464.540558 480.956573,463.619019 480.876923,462.487762 z"/><path fill="#0F0F0F" d="M441.961670,495.012634 C441.833069,496.420776 441.704498,497.828949 441.554321,499.961700 C443.598846,515.157471 452.919037,523.002808 468.032715,522.992798 C464.983063,524.247253 461.915649,525.461792 458.903412,526.800415 C458.466492,526.994568 458.293671,527.782959 458.017456,528.636475 C458.036346,528.976624 458.103699,528.937134 458.103699,528.937134 C456.842926,528.866394 455.582184,528.795593 453.721436,528.451782 C452.875610,528.208923 452.629791,528.239197 452.383942,528.269531 C452.579773,528.521545 452.775604,528.773621 452.971436,529.025635 C452.246124,529.572815 451.005524,530.695984 450.874573,530.578796 C449.444122,529.299072 448.187164,527.825378 446.592285,525.865540 C444.061127,522.875305 441.820740,520.423950 439.166748,517.520142 C439.166748,520.850403 439.166748,523.746826 439.166748,527.702637 C437.689484,525.787048 436.885284,524.744202 435.309082,522.700256 C435.110626,526.753296 434.971741,529.590210 434.757660,533.962463 C431.746094,529.720154 429.522552,526.587952 427.334106,523.505249 C426.968170,524.521851 426.575165,525.613647 425.804871,527.753540 C424.531799,523.827026 423.616302,521.003357 422.700775,518.179688 C420.230316,523.751709 421.565430,529.270691 422.170624,534.777100 C418.864044,530.428162 416.545471,525.764038 418.942383,520.255432 C420.398346,516.909424 418.844666,515.828735 416.029144,514.966064 C412.429657,513.863342 408.683075,512.929016 405.410553,511.161621 C402.365051,509.516876 399.858246,506.874603 397.206635,504.187073 C397.298950,503.702667 397.600464,503.403961 397.855164,503.688232 C399.795746,504.740753 401.593140,505.333252 403.142578,506.316498 C405.758331,507.976379 408.017059,510.915192 410.787323,511.452362 C415.278351,512.323181 420.061615,511.686890 424.721527,511.686890 C424.776001,511.243256 424.830505,510.799622 424.884979,510.356018 C423.547485,509.341309 422.209991,508.326630 420.053436,506.690552 C424.260834,506.368713 427.080017,506.153046 430.367615,505.901550 C428.927124,503.844238 427.845886,502.299988 426.763977,500.754791 C429.890320,500.960327 432.785370,501.150635 436.091492,501.367981 C436.091492,498.570404 436.091492,496.301422 436.091492,494.032440 C436.221039,492.754425 436.350616,491.476440 436.695435,489.632751 C437.922424,491.263550 438.934143,493.459991 440.034210,495.848145 C440.531494,495.632599 441.246582,495.322632 441.961670,495.012634 z"/><path fill="#151616" d="M484.954712,589.937561 C484.319855,587.302368 483.685059,584.667175 483.058258,581.357849 C483.396393,580.441895 483.726501,580.200134 484.416046,580.042725 C486.179443,579.247070 487.583405,578.367004 489.247192,577.618591 C489.849701,578.207581 490.192383,578.664917 490.535095,579.122192 C490.393250,579.476074 490.251404,579.829956 489.846100,580.645752 C489.770844,582.323364 490.324463,583.616455 490.086060,584.741882 C488.836212,590.641846 489.940399,592.459717 495.619995,594.099121 C497.748016,594.713501 499.700439,595.936157 501.732941,596.881409 C501.142334,597.220154 500.551727,597.558838 499.435425,598.194214 C491.413940,601.828430 488.872620,608.785583 486.314850,615.730713 C486.275543,616.898499 486.236237,618.066345 485.726196,619.724609 C483.924652,621.350952 482.593811,622.486877 480.732635,624.075439 C482.666382,624.075439 483.888489,624.075439 485.110596,624.075439 C485.423248,624.472290 485.735901,624.869202 486.048523,625.266052 C484.740173,626.002441 483.431824,626.738770 482.005096,627.541748 C483.675446,628.152283 484.827393,628.573364 485.783417,629.108826 C485.331848,629.593018 485.076202,629.962830 484.500793,630.570435 C480.929718,634.081848 481.050964,637.802124 483.000885,641.578796 C483.284973,642.129089 484.761414,642.063843 486.985168,642.591858 C484.957428,646.141479 483.001831,649.564819 480.801392,653.108765 C480.755341,654.201477 480.690582,655.405273 481.259216,656.052612 C481.563568,656.399048 482.959106,655.786987 484.185669,655.454224 C484.946228,655.129578 485.383240,654.958191 485.866089,655.090332 C486.141785,655.742554 486.371643,656.091309 486.601501,656.439941 C486.886810,656.119324 487.172089,655.798706 487.457397,655.478149 C486.899231,655.260071 486.341064,655.041931 485.818909,654.510864 C486.308990,653.491821 486.763031,652.785645 487.486450,652.283875 C490.176697,652.687195 492.597565,652.886169 495.018402,653.085083 C492.261353,658.676392 487.763885,660.224854 482.231812,658.393066 C479.651245,657.538513 476.194000,657.304504 473.791656,658.329895 C467.343262,661.082092 462.305725,660.341492 457.189880,654.220093 C457.284027,653.717712 457.581390,653.423645 457.873047,653.672119 C458.627106,653.052673 459.089508,652.184753 459.671387,651.092529 C460.785980,654.039429 461.395538,657.503479 465.846100,656.217346 C466.247650,656.101318 466.985748,657.149658 467.915771,657.713379 C468.927307,657.769470 469.590637,657.769470 470.253967,657.769470 C470.166565,657.380798 470.079193,656.992126 469.991791,656.603455 C469.185760,656.975586 468.379730,657.347717 467.906677,657.399292 C468.380646,656.081726 468.521637,655.084656 468.573425,654.718140 C471.099152,654.718140 473.489227,654.718140 475.171387,654.718140 C473.941284,650.405090 472.976013,647.057617 472.111725,643.684265 C472.096832,643.626221 473.301147,643.255859 473.952698,643.399109 C474.798279,645.147339 475.328125,647.003113 476.544373,647.769348 C477.677490,648.483154 479.540985,648.037598 481.082977,648.102417 C480.972534,646.730469 481.043854,645.308167 480.682800,644.005798 C480.469574,643.236450 479.572021,642.656860 479.349945,642.023254 C480.015961,642.031250 480.323151,642.042480 480.608429,641.968811 C480.736389,641.935913 480.929688,641.645142 480.908936,641.619324 C477.738831,637.666504 474.551849,633.727112 471.766724,629.859741 C472.701508,630.033325 473.235168,630.134460 473.906799,630.516846 C474.312622,630.389832 474.580475,629.981689 474.701233,629.216919 C474.038300,626.907471 473.522491,624.954529 473.228577,622.748779 C476.193298,619.457764 480.041962,616.850769 481.431732,613.285278 C483.786835,607.243042 484.696503,600.616699 485.955505,594.185303 C486.210114,592.884583 485.318085,591.359314 484.954712,589.937561 M489.005524,608.491882 C488.791931,608.419067 488.578369,608.346252 488.364777,608.273499 C488.435760,608.491577 488.506744,608.709595 489.005524,608.491882 z"/><path fill="#E8E7E7" d="M484.463989,589.952515 C485.318085,591.359314 486.210114,592.884583 485.955505,594.185303 C484.696503,600.616699 483.786835,607.243042 481.431732,613.285278 C480.041962,616.850769 476.193298,619.457764 472.881287,622.605347 C469.197174,623.138794 465.888000,624.446350 463.005402,623.812927 C455.755920,622.219788 452.343628,625.838440 449.657227,631.889954 C448.834137,628.180664 448.436096,624.312744 447.842377,620.475159 C447.711182,619.627075 446.887634,618.886169 445.917694,617.367554 C446.178162,616.583496 446.994690,614.749084 447.350098,612.829346 C447.575043,611.614502 447.112427,610.272461 447.154175,608.876953 C447.604156,608.565186 447.730896,608.302429 447.730377,607.978271 C447.730377,607.978271 448.058685,607.745667 448.352722,607.398743 C449.512878,605.967468 450.378937,604.883057 451.653687,603.877930 C452.508026,605.601990 453.665497,607.448242 453.267700,608.854553 C452.006073,613.314880 452.044556,614.736328 455.094849,618.179260 C456.016205,616.254456 456.440613,613.372803 457.916595,612.655823 C462.474915,610.441467 461.987579,607.238037 461.360107,603.243896 C460.752380,599.375671 459.764557,595.099304 463.536255,591.430054 C464.017090,594.937073 464.433258,597.972656 464.849426,601.008179 C465.301910,600.707397 465.754364,600.406677 466.206818,600.105896 C469.525909,601.746948 469.705811,606.265320 471.791138,608.535278 C481.250366,605.502075 483.715759,598.669861 482.991913,590.000000 C483.319061,589.989136 483.646179,589.978271 484.463989,589.952515 M451.516357,617.418274 C451.516357,617.418274 451.572510,617.517639 451.516357,617.418274 z"/><path fill="#181918" d="M500.985229,559.961060 C505.092163,558.720825 504.345581,554.515503 505.160004,551.825378 C506.762177,546.532959 506.886688,540.793152 507.695496,534.605225 C507.712036,533.691528 507.655518,533.411133 507.598999,533.130615 C507.321655,533.343506 507.044312,533.556396 506.766968,533.769287 C506.344208,533.927795 505.921417,534.086304 505.498627,534.244812 C504.914886,531.453857 504.331116,528.662903 504.030853,527.227295 C500.950592,525.766724 498.676422,524.688354 496.638916,523.364990 C501.186340,522.973083 504.372559,521.163208 505.954376,516.980713 C508.850769,511.967743 509.806122,506.456268 507.964935,501.107513 C506.347748,496.409515 506.839539,492.269592 508.837982,487.539856 C509.475372,487.021942 509.862946,486.926880 510.250519,486.831787 C510.198761,488.957642 510.147003,491.083466 510.137360,493.975830 C510.223328,501.935394 515.514343,498.181427 519.267090,498.728973 C517.472351,500.680023 515.982056,502.300049 514.021057,504.431854 C516.632690,504.945465 518.661316,505.344452 521.256470,505.854828 C519.256226,507.274780 517.821167,508.293457 515.478271,509.956604 C521.534180,510.813202 526.189453,513.416321 531.180481,508.455444 C534.398132,505.257263 539.230286,503.683441 543.503540,501.535339 C543.668152,501.689087 543.997620,501.996429 543.997620,501.996429 C539.504395,507.710632 534.212036,512.183105 526.622803,512.963135 C524.981506,513.131836 523.187134,512.657104 521.685730,513.152771 C519.072510,514.015381 515.829956,515.057739 517.517578,518.935974 C520.775635,526.422913 516.733337,532.288330 513.261414,538.092407 C510.257812,543.113647 506.086670,547.118591 507.538300,554.160400 C508.427826,558.475525 511.393951,558.399414 513.634155,560.309570 C513.126709,560.732605 512.760132,560.787231 512.393494,560.841797 C509.279083,560.855652 506.164703,560.869507 502.352112,560.867798 C501.431030,560.555176 501.208130,560.258118 500.985229,559.961060 M509.102539,532.968750 C509.102539,534.808228 509.102539,536.647766 509.102539,538.493896 C514.210144,533.701294 516.526184,528.255554 514.398254,520.518616 C512.465820,524.978516 510.904755,528.581299 509.102539,532.968750 z"/><path fill="#181918" d="M488.158539,489.416077 C490.888763,484.924133 493.015076,480.351196 491.391541,474.826355 C491.052460,473.672516 491.726501,472.220917 492.132111,470.479736 C492.549927,470.036072 492.769287,470.019165 492.988678,470.002289 C494.392822,473.179199 495.976532,473.570190 498.728271,471.047333 C500.203583,469.694672 502.673309,469.426636 504.895630,468.927917 C499.366486,472.085236 495.974762,476.912689 494.223236,482.897156 C493.648102,484.862152 493.859802,487.057465 493.640839,490.147308 C492.971222,490.703461 491.446289,492.544434 489.488861,493.493988 C482.001251,497.126434 482.736328,502.999573 484.431824,509.521606 C485.440002,513.399902 485.748810,517.460022 486.442749,521.889771 C484.464050,521.637817 482.009705,521.325378 479.160858,520.805664 C478.766388,520.598450 478.816833,520.654358 478.816833,520.654358 C482.905243,518.834290 482.571259,515.331238 482.081970,511.045624 C481.417114,509.258698 480.853943,508.233917 480.290771,507.209106 C480.290771,507.209106 480.256165,507.078888 480.202057,507.038757 C480.377777,502.798615 477.984467,500.050262 474.660522,498.276215 C468.116394,494.783386 461.395050,491.622772 454.751770,488.315216 C453.894073,487.888184 452.425110,487.520386 452.318024,486.929626 C450.719025,478.109863 444.168976,473.718079 437.020447,469.362305 C438.263458,468.690674 439.685120,468.318512 441.543152,467.963501 C441.979553,467.980682 442.107300,468.098633 442.177399,468.414246 C442.852264,468.478394 443.457062,468.226929 444.033386,467.996521 C444.004974,468.017578 443.951630,468.064026 444.278076,468.082550 C444.758423,467.721222 444.912292,467.341400 445.038757,466.986755 C445.011383,467.011963 444.960358,467.066132 445.280762,467.054901 C445.754303,466.683075 445.907471,466.322479 446.042114,465.985413 C446.023590,466.008942 446.008698,466.066956 446.008698,466.066956 C447.356354,465.822205 448.703979,465.577484 450.286255,465.290131 C449.689178,467.313904 449.159607,469.108856 448.488983,471.434631 C448.432526,472.228546 448.517120,472.491577 448.601715,472.754608 C448.757355,472.527313 448.913025,472.300018 449.068695,472.072754 C449.734985,471.676849 450.401306,471.280945 451.543396,470.602325 C451.387939,473.034607 451.250397,475.186310 451.070068,478.006989 C452.062012,476.953949 452.670593,476.307861 453.187408,475.759186 C454.296875,478.789215 455.357178,481.684937 456.820923,485.123901 C461.477509,487.129333 465.730652,488.591522 469.983795,490.053741 C470.532501,490.224243 471.081177,490.394745 472.194031,490.794464 C478.288666,494.290955 483.188354,491.515930 488.158539,489.416077 z"/><path fill="#DDDCDC" d="M422.134644,534.787842 C421.565430,529.270691 420.230316,523.751709 422.700775,518.179688 C423.616302,521.003357 424.531799,523.827026 425.804871,527.753540 C426.575165,525.613647 426.968170,524.521851 427.334106,523.505249 C429.522552,526.587952 431.746094,529.720154 434.757660,533.962463 C434.971741,529.590210 435.110626,526.753296 435.309082,522.700256 C436.885284,524.744202 437.689484,525.787048 439.166748,527.702637 C439.166748,523.746826 439.166748,520.850403 439.166748,517.520142 C441.820740,520.423950 444.061127,522.875305 446.327148,525.600037 C442.171844,532.467407 444.645508,538.232849 448.901428,544.264038 C447.426453,545.219299 445.957489,546.170715 443.784515,547.272217 C442.497437,546.769958 441.914368,546.117554 441.282745,545.410828 C440.896118,546.707458 440.523285,547.957825 439.720734,550.649414 C438.243713,548.421936 437.382477,547.123108 436.529205,545.836304 C435.841339,546.786682 435.426849,547.359314 435.012390,547.932007 C434.578125,547.347900 434.143860,546.763794 433.353790,545.723083 C431.631256,543.527649 430.264526,541.788818 429.101318,539.910889 C429.002441,539.559509 428.700073,539.347229 428.397675,539.135010 C428.607056,539.414978 428.816406,539.695007 428.928223,540.317200 C428.578339,541.391785 428.326019,542.124084 428.073700,542.856445 C428.073700,542.856445 428.038696,542.931030 428.002899,542.574036 C426.602142,538.969910 425.237183,535.722717 423.878662,532.490906 C423.252472,533.307068 422.701233,534.025574 422.149963,534.744019 C422.149963,534.744019 422.098633,534.798645 422.134644,534.787842 z"/><path fill="#151616" d="M492.982361,469.611389 C492.769287,470.019165 492.549927,470.036072 492.002441,470.088348 C490.567322,467.364685 486.710876,465.167999 490.762970,461.094177 C483.959991,459.171753 478.013123,455.510162 471.472412,458.790222 C468.974609,460.042786 467.493530,463.195160 465.213440,465.074493 C464.347351,465.788300 462.537842,465.357513 461.128723,464.891602 C464.598114,460.942810 464.114838,457.201538 459.676636,456.682861 C456.402222,456.300262 457.059082,454.480133 457.228088,452.993164 C457.947449,446.664337 463.512329,444.375885 468.685913,448.187958 C470.148743,449.265839 471.420166,450.599670 472.826691,451.758667 C475.513214,453.972412 478.285126,454.942566 481.336060,451.757996 C483.192322,458.849243 487.901550,450.826141 490.531952,454.065338 C490.972931,453.792419 491.413910,453.519501 491.854889,453.246582 C490.524536,450.566284 489.194214,447.886017 487.703674,444.895874 C491.115173,444.402039 493.022919,445.950775 492.999847,449.674072 C492.959503,456.189362 492.980621,462.704987 492.982361,469.611389 z"/><path fill="#D9D9D9" d="M484.820557,630.332581 C485.076202,629.962830 485.331848,629.593018 486.139099,629.040894 C488.812378,627.920105 491.099518,625.941589 493.023193,626.247620 C497.856598,627.016663 501.132080,625.150085 504.487427,622.144348 C507.399109,619.536072 510.608765,617.113892 514.041931,615.271179 C518.401489,612.931335 519.565796,610.921997 518.021729,606.011597 C521.084412,602.284058 524.147034,598.556458 526.866821,595.246155 C526.872253,595.265137 527.206116,596.433167 527.808960,597.816284 C527.928894,598.829529 527.972351,599.733582 527.600525,600.408997 C524.467285,606.100281 521.707947,612.075073 517.925293,617.306030 C515.052368,621.278931 511.374390,626.020752 507.111603,627.315308 C500.983521,629.176270 502.297089,633.707703 500.564697,637.383057 C500.058655,637.208984 499.294098,636.945923 498.230438,636.591187 C497.735962,635.817810 497.540558,635.136108 497.077637,633.520874 C496.249939,635.551575 495.814880,636.618896 495.161804,638.221191 C493.986328,636.381226 493.175964,635.112793 492.420319,633.929993 C493.694580,633.278809 494.707306,632.761292 495.655792,632.276611 C491.725800,631.571472 488.273163,630.952026 484.820557,630.332581 z"/><path fill="#151616" d="M422.198303,413.233704 C420.848022,418.145966 421.969727,419.349121 427.939514,419.496918 C427.341736,421.141052 426.729614,422.824615 426.096771,424.565155 C420.586761,423.592285 418.465485,424.819550 414.280762,431.909210 C414.095764,430.104034 413.955078,428.731323 413.813843,427.353180 C407.319733,428.418579 404.816223,430.558075 405.134460,434.960876 C403.996002,434.908630 402.883179,434.785248 401.776886,434.828644 C400.815491,434.866394 399.861481,435.092865 398.120239,435.353088 C399.381897,435.958984 399.967010,436.239990 400.945618,436.709961 C399.079590,437.873260 397.409790,438.914276 395.406982,440.036133 C395.694000,438.067291 396.406616,436.039337 396.896057,433.958893 C397.151764,432.872070 396.919037,431.679718 397.073853,430.558044 C397.501801,427.457794 398.017487,424.369690 398.790802,421.694397 C399.435883,425.112640 399.788666,428.113251 400.164337,431.308777 C403.214478,428.495911 405.381531,426.567413 407.466187,424.553558 C409.239319,422.840729 410.315704,421.079651 407.137939,419.355957 C407.209656,418.736389 407.217285,418.486450 407.556580,418.356079 C408.711456,417.988922 410.266754,417.459869 410.241486,417.022125 C410.045837,413.637421 409.735779,410.226807 408.986145,406.932343 C408.824768,406.223083 406.734894,405.952667 405.533325,405.480072 C406.753510,404.982819 407.973663,404.485565 409.685669,404.078308 C410.177460,404.168304 410.382477,404.371521 410.199524,404.725098 C410.934692,409.421997 411.852783,413.765350 413.158264,419.941315 C414.743439,416.999420 415.740387,415.149200 416.659393,413.443634 C417.273743,414.907837 417.997711,416.633240 418.798157,418.540924 C419.905853,415.905884 420.661682,414.107880 421.612610,412.540955 C421.937897,412.925873 422.068085,413.079773 422.198303,413.233704 z"/><path fill="#181918" d="M539.060364,419.071594 C538.335815,419.653534 537.611267,420.235474 536.545776,421.091217 C537.830017,421.724030 538.911011,422.256714 539.994873,422.790802 C539.678101,424.749634 539.357544,426.732117 538.988464,429.014709 C536.436218,427.748596 533.703247,426.392792 530.258545,424.683899 C530.258545,427.210663 530.258545,428.626068 530.258545,430.041473 C527.511230,425.876984 524.542480,422.643036 519.495789,423.543243 C518.681213,422.164520 517.946716,420.921326 516.861450,419.529968 C516.510681,419.381805 516.475159,419.473389 516.475159,419.473389 C519.237427,418.238525 521.999756,417.003662 525.104736,415.433472 C525.447388,415.098145 525.836487,415.054169 525.990295,415.349792 C526.311707,416.292572 526.479248,416.939697 526.646851,417.586853 C527.090942,417.054413 527.535095,416.521973 528.200439,415.735840 C528.686462,413.053406 529.294983,410.596771 529.100952,408.205261 C528.960571,406.475372 527.754822,404.831879 526.734497,403.096558 C525.948303,403.299866 525.451660,403.556488 524.631470,403.885315 C524.121399,404.524139 523.934937,405.090729 523.469482,405.711334 C522.822449,405.793884 522.454346,405.822388 522.014526,405.518250 C520.959595,404.809296 519.976379,404.432983 518.993164,404.056671 C523.676880,402.109924 528.371216,400.266479 533.344238,402.893250 C531.258484,403.451752 529.624329,403.756134 530.419861,406.513031 C530.948059,408.343628 531.102173,410.338837 531.079346,412.256287 C531.055237,414.288818 530.623657,416.316528 530.370056,418.346344 C531.070068,418.523071 531.770081,418.699799 532.470032,418.876556 C533.455566,415.832397 534.441101,412.788269 535.721436,409.503815 C535.885498,412.114563 535.754761,414.965576 535.620239,417.899597 C536.638855,418.246613 537.849609,418.659119 539.060364,419.071594 z"/><path fill="#DDDCDC" d="M438.343018,571.301025 C439.847260,571.320984 441.351471,571.341003 442.916626,572.052368 C442.980621,573.494995 442.983704,574.246277 442.728333,575.239990 C442.335388,577.836792 442.200867,580.191223 442.066376,582.545654 C442.704987,582.357239 443.343567,582.168762 444.210144,581.760864 C444.972473,583.022156 445.506805,584.502808 446.049866,586.281982 C446.613373,589.440857 447.830597,588.058289 449.125977,587.347778 C450.858978,589.899414 452.457214,592.141602 454.055420,594.383850 C453.735901,594.680664 453.416412,594.977478 453.096893,595.274292 C454.805817,595.658813 456.514740,596.043335 458.223663,596.427856 C458.327423,596.735168 458.431183,597.042542 458.534912,597.349854 C457.059753,597.893005 455.584595,598.436096 453.726288,599.058472 C449.911438,598.061890 446.479736,596.986023 443.048035,595.910156 C443.048035,595.910156 443.016205,595.983215 442.980865,595.705261 C442.567474,594.821289 442.189392,594.215332 441.811340,593.609314 C441.811340,593.609314 441.785004,593.307617 441.535919,592.887451 C440.357178,589.244507 439.427490,586.021790 438.543671,582.958069 C437.930878,583.260986 437.194427,583.625122 435.671753,584.377930 C436.947510,580.560181 437.948273,577.565430 438.924561,574.643860 C437.846222,574.757996 436.982269,574.849487 436.118286,574.940979 C436.118286,574.940979 436.050903,574.549805 436.284546,574.255432 C436.870178,573.608643 437.222168,573.256165 437.846069,572.764465 C438.216675,572.262817 438.315369,571.900330 438.362701,571.488770 C438.311371,571.439575 438.343018,571.301025 438.343018,571.301025 z"/><path fill="#181918" d="M552.955566,484.986481 C553.427734,483.105164 553.899841,481.223846 554.433105,479.099152 C555.034790,480.008240 555.571411,480.818909 556.107971,481.629547 C556.440125,481.559540 556.772278,481.489532 557.104431,481.419495 C556.727661,477.786469 556.350891,474.153442 556.141968,470.159973 C556.309814,469.799500 556.261047,469.715698 556.261047,469.715698 C556.697510,470.332581 557.134033,470.949493 557.570496,471.566406 C557.853516,471.465454 558.136597,471.364532 558.419678,471.263611 C556.530029,464.883392 554.640381,458.503174 552.809448,451.624939 C552.868103,451.126923 553.183716,450.813995 553.183716,450.813995 C553.729797,451.127686 554.275940,451.441406 555.407227,452.091309 C554.766418,450.668732 554.348389,449.740753 553.858704,448.482849 C555.484131,450.560944 558.468262,452.879883 558.642273,455.393372 C559.214844,463.661469 559.051270,472.016235 558.577820,480.303833 C558.383423,483.707947 556.955933,486.720184 553.746216,489.386414 C549.934875,492.552460 547.591431,497.485626 544.304688,501.824707 C543.997620,501.996429 543.668152,501.689087 543.687073,501.210419 C545.604675,496.691376 547.503357,492.651031 549.558105,488.711670 C549.714172,488.812653 550.023804,489.018524 550.081543,489.355743 C550.203308,489.977875 550.242004,490.272522 550.345703,490.542175 C550.380310,490.632080 550.581726,490.657837 550.706848,490.712952 C551.456421,488.804138 552.205994,486.895294 552.955566,484.986481 z"/><path fill="#181918" d="M517.204590,433.110168 C518.887390,433.781921 521.752258,434.614105 521.983337,435.914368 C522.738037,440.161072 523.223145,444.691742 522.532227,448.903198 C521.531921,454.999908 521.071838,460.887787 523.367310,466.691620 C524.436951,469.396210 525.945862,471.927094 527.255676,474.536713 C526.874207,474.883850 526.492737,475.230988 526.111328,475.578125 C524.480042,473.854279 522.848816,472.130432 520.739563,469.901489 C520.210999,469.901489 517.925598,470.472687 517.476196,469.806091 C515.080078,466.251953 511.559143,469.164124 508.425415,467.898193 C510.169891,467.031036 512.527039,465.225952 514.521851,465.563385 C517.900757,466.134979 518.902283,465.570465 519.103027,462.126129 C519.366516,457.602814 521.027771,453.060181 520.697205,448.629578 C520.316223,443.522369 518.419250,438.528198 517.204590,433.110168 z"/><path fill="#181918" d="M414.216370,477.673462 C422.639679,471.228577 423.513947,462.457825 422.425171,452.746216 C421.839447,447.521423 422.412811,442.162140 422.583893,436.867462 C422.594818,436.529083 423.649872,436.224426 424.575958,435.854675 C424.950562,444.104156 425.131836,452.407410 424.909515,460.699860 C424.814423,464.246429 425.687866,466.290436 429.469940,466.750214 C431.652161,467.015503 433.770142,467.809509 435.958893,468.660095 C435.334503,469.201233 434.581177,469.787384 434.015320,469.642303 C427.738068,468.032959 423.925293,469.388794 421.144073,475.451843 C419.621918,478.770020 416.855713,477.122925 414.575378,477.966614 C414.273499,477.724091 414.216370,477.673462 414.216370,477.673462 z"/><path fill="#0F0F0F" d="M385.466705,462.010986 C386.247406,462.224731 387.028137,462.438446 387.925262,462.684052 C386.883209,465.257507 385.757568,468.037384 384.365204,471.449554 C384.098480,472.676331 384.098480,473.270752 384.098480,473.865204 C384.270050,473.881531 384.441620,473.897858 384.613159,473.914185 C384.769287,473.301727 384.925415,472.689301 385.081512,472.076843 C385.614349,471.775238 386.147186,471.473602 386.678711,471.172729 C385.920410,475.566803 385.174744,479.887817 384.429077,484.208862 C384.795441,484.281036 385.161835,484.353241 385.528198,484.425446 C385.815369,483.395172 386.102509,482.364899 386.591492,481.080261 C386.793335,480.825928 386.690338,480.809540 386.690338,480.809540 C387.567017,484.424011 388.443695,488.038483 389.722168,492.136292 C390.355011,492.475830 390.586060,492.332031 390.817078,492.188171 C390.504364,492.184448 390.191620,492.180725 389.878906,492.177032 C390.029785,491.078857 390.175293,489.979828 390.342285,488.884094 C390.355255,488.799133 390.534363,488.664062 390.609497,488.679840 C390.759247,488.711243 390.890350,488.831482 391.375122,489.414337 C393.680847,494.410461 395.640656,498.907196 397.600464,503.403961 C397.600464,503.403961 397.298950,503.702667 397.147888,503.851715 C392.702118,498.334900 387.923859,492.964844 384.232239,486.930023 C379.365448,478.974091 381.548248,470.544128 384.744781,462.168823 C385.186371,461.991882 385.466705,462.010986 385.466705,462.010986 z"/><path fill="#181918" d="M444.740417,443.061401 C446.293762,443.504852 447.491516,443.983307 448.915985,444.552368 C448.647858,444.891541 448.266602,445.373901 447.448669,446.318542 C446.879059,447.146210 446.746063,447.511566 446.613098,447.876892 C447.110779,447.623260 447.608429,447.369598 448.106110,447.115967 C448.667480,447.287201 449.228882,447.458435 449.790283,447.629639 C447.871674,451.375122 445.953064,455.120605 443.970367,458.991211 C444.869873,458.835938 446.306244,458.587952 447.987000,458.297760 C447.070953,460.801147 446.182434,463.229340 445.651306,465.862244 C446.008698,466.066956 446.023590,466.008942 445.612610,465.765900 C445.121216,466.037292 445.040771,466.551697 444.960358,467.066132 C444.960358,467.066132 445.011383,467.011963 444.637573,466.770508 C444.159729,467.040710 444.055664,467.552368 443.951599,468.064026 C443.951630,468.064026 444.004974,468.017578 443.759766,467.706604 C443.045502,467.629944 442.576385,467.864288 442.107300,468.098633 C442.107300,468.098633 441.979553,467.980682 441.913818,467.921967 C441.294922,461.496552 440.391205,455.129150 440.403839,448.763580 C440.407593,446.871887 442.986053,444.985321 444.740417,443.061401 z"/><path fill="#0F0F0F" d="M437.574158,572.903687 C437.222168,573.256165 436.870178,573.608643 436.282196,574.057007 C436.365234,567.974182 436.883942,561.796021 436.899780,555.616577 C436.905701,553.314270 435.736053,551.008911 435.057404,548.318481 C435.426849,547.359314 435.841339,546.786682 436.529205,545.836304 C437.382477,547.123108 438.243713,548.421936 439.720734,550.649414 C440.523285,547.957825 440.896118,546.707458 441.282745,545.410828 C441.914368,546.117554 442.497437,546.769958 443.415283,547.260498 C442.648041,552.382446 441.545990,557.666260 440.438202,562.977600 C439.944672,563.025452 440.549011,562.966858 441.478760,562.718628 C441.804199,562.529053 441.786133,562.453308 441.786133,562.453308 C440.726501,565.181885 439.666870,567.910400 438.475098,570.969971 C438.343018,571.301025 438.311371,571.439575 438.151917,571.668335 C437.853058,572.232605 437.713593,572.568176 437.574158,572.903687 z"/><path fill="#181918" d="M551.685547,445.003052 C550.372009,442.960205 545.743713,442.390198 547.700012,438.101135 C547.805542,437.869812 545.439148,436.510956 544.119385,435.605621 C544.693359,435.173828 545.231567,434.768982 546.147644,434.079834 C543.559448,434.079834 541.449280,434.079834 538.424988,434.079834 C542.464355,431.602539 545.978699,429.405884 545.141235,424.643372 C544.512756,421.069275 545.719177,416.834991 541.381592,413.855225 C541.601746,411.254852 542.136841,409.187988 542.671936,407.121094 C544.109741,412.608856 545.811707,418.045319 546.890503,423.602753 C547.585510,427.183105 546.655396,430.730042 549.455627,434.259918 C551.438477,436.759399 551.075806,441.119537 551.685547,445.003052 z"/><path fill="#EDEDED" d="M407.073822,419.725525 C410.315704,421.079651 409.239319,422.840729 407.466187,424.553558 C405.381531,426.567413 403.214478,428.495911 400.164337,431.308777 C399.788666,428.113251 399.435883,425.112640 399.178711,421.700928 C399.274292,421.289856 399.231201,421.273438 399.545959,421.028992 C400.287964,418.204102 400.715240,415.623627 401.142517,413.043152 C401.457794,413.022278 401.732574,412.905792 402.415222,412.531372 C403.566589,414.106506 404.159424,415.900970 405.018005,417.557709 C405.458282,418.407288 406.373322,419.010803 407.073822,419.725525 z"/><path fill="#151616" d="M432.864563,428.252991 C432.683807,424.573151 433.070679,420.932281 432.914917,417.314758 C432.873535,416.354553 431.311981,415.010132 430.188507,414.647644 C428.328308,414.047394 426.257172,414.100861 424.252716,413.327515 C424.390747,412.614868 424.550964,412.453613 424.990906,412.547607 C429.381683,413.345703 429.414703,410.032898 429.001312,407.842194 C428.764221,406.585907 426.121002,405.730652 424.496033,404.809509 C423.555817,404.276428 422.486511,403.970947 421.608521,403.419403 C421.741730,403.275787 422.006958,402.987549 422.006958,402.987549 C427.346100,402.640625 430.655823,404.558746 432.848938,409.968048 C435.408813,416.282135 436.661591,422.102448 432.864563,428.252991 z"/><path fill="#0F0F0F" d="M435.720947,575.045837 C436.982269,574.849487 437.846222,574.757996 438.924561,574.643860 C437.948273,577.565430 436.947510,580.560181 435.671753,584.377930 C437.194427,583.625122 437.930878,583.260986 438.543671,582.958069 C439.427490,586.021790 440.357178,589.244507 441.420990,592.788818 C438.456451,595.055908 435.945435,592.664551 435.672424,590.706848 C434.960938,585.604431 435.364685,580.346558 435.720947,575.045837 z"/><path fill="#151616" d="M472.001648,428.126953 C471.070068,428.618835 470.021240,429.115875 469.177673,428.879730 C465.099060,427.737885 461.075592,426.398956 457.032593,425.129913 C456.863678,425.553864 456.694733,425.977814 456.525818,426.401764 C457.981506,427.285278 459.437164,428.168793 461.077698,429.164490 C457.462250,430.087524 454.097656,430.946472 450.354736,431.842102 C452.464752,424.191467 454.474091,423.084412 462.039062,424.784576 C464.210327,425.272491 466.571930,424.924744 468.735016,425.433350 C469.935028,425.715485 470.905243,426.975128 472.001648,428.126953 z"/><path fill="#CBCBCA" d="M542.425842,406.967407 C542.136841,409.187988 541.601746,411.254852 541.004211,413.679688 C540.941772,414.037598 540.979126,413.938660 540.628296,414.065521 C540.192993,415.487030 540.108521,416.781677 540.024048,418.076324 C540.024048,418.076324 540.008179,418.004089 539.625183,417.886902 C539.166077,418.209045 539.089966,418.648376 539.013855,419.087738 C539.013855,419.087738 539.015503,419.016113 539.037964,419.043854 C537.849609,418.659119 536.638855,418.246613 535.620239,417.899597 C535.754761,414.965576 535.885498,412.114563 535.592346,409.018768 C535.146790,407.448944 535.125061,406.123901 535.483765,404.972473 C537.242615,405.065460 538.620911,404.984802 539.999268,404.904144 C540.726074,405.540649 541.452942,406.177185 542.425842,406.967407 z"/><path fill="#151616" d="M385.711578,461.744812 C385.466705,462.010986 385.186371,461.991882 385.052216,461.947144 C385.123535,453.356567 389.321716,446.554596 394.770294,440.109070 C396.351044,442.705658 395.835999,444.619171 393.344666,446.438110 C391.874115,447.511780 389.199585,449.130859 392.097046,451.701813 C392.277374,451.861847 391.635498,453.119171 391.212921,453.758026 C389.495392,456.354462 387.714203,458.908752 385.711578,461.744812 z"/><path fill="#CBCBCA" d="M522.086304,405.850891 C522.454346,405.822388 522.822449,405.793884 523.600586,406.091187 C524.955383,409.261200 525.900024,412.105408 526.593689,414.986450 C526.173950,415.033569 526.005188,415.043884 525.836487,415.054169 C525.836487,415.054169 525.447388,415.098145 525.251587,415.097778 C524.652710,414.382874 524.249634,413.668365 523.734253,412.754883 C521.191101,417.197144 518.320679,413.620178 515.323853,412.728485 C515.218750,410.572083 515.358093,408.978821 515.497498,407.385559 C515.497498,407.385559 515.348694,407.118622 515.609375,407.100067 C516.003174,406.752686 516.136230,406.423859 516.269226,406.095032 C516.269226,406.095032 516.630127,406.018219 517.005371,406.275299 C518.449402,408.338043 519.518127,410.143677 520.586853,411.949341 C520.979553,411.793304 521.372314,411.637268 521.765015,411.481201 C521.872131,409.604431 521.979187,407.727661 522.086304,405.850891 z"/><path fill="#E2E1E1" d="M405.515442,405.478546 C406.734894,405.952667 408.824768,406.223083 408.986145,406.932343 C409.735779,410.226807 410.045837,413.637421 410.241486,417.022125 C410.266754,417.459869 408.711456,417.988922 407.464966,418.052124 C406.401306,415.122498 405.760956,412.616486 405.375702,409.986450 C405.625671,409.589905 405.620575,409.317322 405.615448,409.044769 C405.241760,409.159180 404.868042,409.273621 404.263153,409.530060 C403.694946,409.769104 403.357971,409.866180 402.946564,409.639343 C402.884766,408.872406 402.897369,408.429321 402.910004,407.986237 C403.267670,407.629639 403.625336,407.273041 404.319733,406.570984 C404.924957,405.977051 405.193390,405.728546 405.461823,405.480042 C405.461823,405.480042 405.497559,405.477020 405.515442,405.478546 z"/><path fill="#0F0F0F" d="M443.070435,596.267822 C446.479736,596.986023 449.911438,598.061890 453.874634,599.408997 C453.352386,601.053101 452.298706,602.425903 451.245026,603.798706 C450.378937,604.883057 449.512878,605.967468 448.377930,607.199158 C446.436981,603.772827 444.764893,600.199219 443.070435,596.267822 z"/><path fill="#DFDFDF" d="M535.103333,404.798828 C535.125061,406.123901 535.146790,407.448944 535.297607,409.259064 C534.441101,412.788269 533.455566,415.832397 532.470032,418.876556 C531.770081,418.699799 531.070068,418.523071 530.370056,418.346344 C530.623657,416.316528 531.055237,414.288818 531.079346,412.256287 C531.102173,410.338837 530.948059,408.343628 530.419861,406.513031 C529.624329,403.756134 531.258484,403.451752 533.570496,403.192780 C534.055115,403.490387 534.268188,403.712402 534.829834,404.113525 C535.077698,404.389313 535.103333,404.798828 535.103333,404.798828 z"/><path fill="#3F3F40" d="M512.564026,561.150635 C512.760132,560.787231 513.126709,560.732605 513.768005,560.627380 C516.367981,561.987183 518.644409,563.487488 521.029785,564.787598 C524.910095,566.902527 527.477478,569.709106 526.780701,574.925720 C525.251343,573.679749 523.613403,572.085388 522.214478,570.303406 C520.973206,568.722229 520.277161,566.624207 518.832703,565.314148 C517.078064,563.722717 514.791199,562.718018 512.564026,561.150635 z"/><path fill="#181918" d="M512.810059,414.138672 C512.881409,417.785889 512.572632,421.430359 512.232483,425.473022 C510.816467,424.178406 508.548584,422.625458 508.253204,420.760162 C507.804626,417.927277 508.631622,414.815948 512.810059,414.138672 z"/><path fill="#151616" d="M485.789673,442.909546 C479.638031,440.511597 478.105530,433.547180 473.099731,429.310669 C477.338837,430.169098 480.812347,432.165619 482.161011,437.065277 C482.713654,439.072998 484.561676,440.724152 485.789673,442.909546 z"/><path fill="#181918" d="M447.600311,434.861816 C449.285248,434.456757 450.970215,434.051727 452.655151,433.646698 C452.802002,433.894470 452.948853,434.142273 453.095703,434.390045 C452.381470,435.025452 451.667236,435.660858 450.828217,436.407288 C451.474152,436.706787 452.061676,436.979218 452.894226,437.365265 C450.744354,438.942169 448.719940,440.427063 446.377319,442.044525 C445.789948,439.478546 445.520752,436.780029 445.679810,434.172607 C446.605469,434.463104 447.102875,434.662445 447.600311,434.861816 z"/><path fill="#0F0F0F" d="M422.114746,535.130249 C422.701233,534.025574 423.252472,533.307068 423.878662,532.490906 C425.237183,535.722717 426.602142,538.969910 428.044067,542.573975 C424.092407,542.101196 422.532806,539.259583 422.114746,535.130249 z"/><path fill="#F4F4F5" d="M522.014526,405.518250 C521.979187,407.727661 521.872131,409.604431 521.765015,411.481201 C521.372314,411.637268 520.979553,411.793304 520.586853,411.949341 C519.518127,410.143677 518.449402,408.338043 517.189331,406.261383 C517.535645,405.486389 518.073120,404.982391 518.801880,404.267517 C519.976379,404.432983 520.959595,404.809296 522.014526,405.518250 z"/><path fill="#3F3F40" d="M403.020966,409.963226 C403.357971,409.866180 403.694946,409.769104 404.412598,409.716827 C404.793274,409.761597 405.120636,410.110443 405.120636,410.110443 C405.760956,412.616486 406.401306,415.122498 407.133270,417.932495 C407.217285,418.486450 407.209656,418.736389 407.137939,419.355957 C406.373322,419.010803 405.458282,418.407288 405.018005,417.557709 C404.159424,415.900970 403.566589,414.106506 402.504639,412.322510 C402.100311,412.067749 402.055084,411.859558 402.224365,411.206543 C402.706421,410.549164 402.900482,410.282990 403.020966,409.963226 z"/><path fill="#151616" d="M410.076538,404.065125 C413.539917,401.174225 417.438110,400.946075 421.784607,402.719116 C422.006958,402.987549 421.741730,403.275787 421.242676,403.244507 C417.289917,403.599304 413.836182,403.985413 410.382477,404.371521 C410.382477,404.371521 410.177460,404.168304 410.076538,404.065125 z"/><path fill="#0F0F0F" d="M428.098328,543.239868 C428.326019,542.124084 428.578339,541.391785 428.898315,540.339478 C428.965942,540.019531 428.897827,540.049988 428.897827,540.049988 C430.264526,541.788818 431.631256,543.527649 433.105347,545.601746 C431.516144,545.165771 429.819550,544.394470 428.098328,543.239868 z"/><path fill="#151616" d="M400.826691,413.255493 C400.715240,415.623627 400.287964,418.204102 399.567566,421.032104 C399.686584,418.675690 400.098724,416.071777 400.826691,413.255493 z"/><path fill="#181918" d="M515.122070,407.450989 C515.358093,408.978821 515.218750,410.572083 515.004883,412.564636 C514.512085,413.311310 514.093811,413.658661 513.405884,414.093323 C513.672974,411.959229 514.209778,409.737823 515.122070,407.450989 z"/><path fill="#151616" d="M447.567810,434.420715 C447.102875,434.662445 446.605469,434.463104 445.993134,434.077332 C446.781616,433.280518 447.685028,432.670105 448.960815,432.084900 C448.733887,432.733307 448.134613,433.356445 447.567810,434.420715 z"/><path fill="#181918" d="M512.117554,426.186035 C512.888916,426.773773 513.610413,427.742401 514.428345,428.997864 C513.705688,428.378784 512.886658,427.472870 512.117554,426.186035 z"/><path fill="#151616" d="M402.946564,409.639343 C402.900482,410.282990 402.706421,410.549164 402.222839,410.886902 C402.099945,410.043152 402.193024,409.074219 402.598053,408.045776 C402.897369,408.429321 402.884766,408.872406 402.946564,409.639343 z"/><path fill="#181918" d="M535.483765,404.972473 C535.103333,404.798828 535.077698,404.389313 535.055420,404.185303 C536.507385,404.123962 537.981689,404.266602 539.727661,404.656677 C538.620911,404.984802 537.242615,405.065460 535.483765,404.972473 z"/><path fill="#D9D9D9" d="M528.836426,590.814453 C528.679626,590.254211 528.783020,589.629395 529.177612,588.950989 C529.344788,589.514893 529.220703,590.132446 528.836426,590.814453 z"/><path fill="#0F0F0F" d="M441.638123,593.919983 C442.189392,594.215332 442.567474,594.821289 443.017700,595.690063 C442.548187,595.378723 442.006531,594.804688 441.638123,593.919983 z"/><path fill="#151616" d="M429.074951,432.860901 C429.140533,432.237152 429.575195,431.584473 430.246796,430.752197 C430.137207,431.325745 429.790619,432.078827 429.074951,432.860901 z"/><path fill="#181918" d="M515.374329,430.965820 C515.989136,431.150726 516.532593,431.689240 517.171997,432.501221 C516.612915,432.289673 515.957947,431.804565 515.374329,430.965820 z"/><path fill="#0F0F0F" d="M447.154175,608.876953 C446.958221,608.987427 446.481293,608.987976 446.242950,608.990845 C446.404480,608.680908 446.804352,608.368164 447.467285,608.016846 C447.730896,608.302429 447.604156,608.565186 447.154175,608.876953 z"/><path fill="#181918" d="M553.834595,447.880859 C553.447327,447.816803 553.071838,447.425507 552.604004,446.771484 C552.956543,446.856995 553.401428,447.205322 553.834595,447.880859 z"/><path fill="#151616" d="M487.437378,444.195984 C486.944580,444.269531 486.452271,444.016083 485.844482,443.507690 C486.298615,443.458130 486.868195,443.663574 487.437378,444.195984 z"/><path fill="#181918" d="M552.453857,446.128906 C552.119324,446.296875 551.889526,446.106659 551.685303,445.597900 C551.913818,445.539368 552.196289,445.703186 552.453857,446.128906 z"/><path fill="#181918" d="M514.687256,429.897797 C515.034546,429.737396 515.230103,429.904236 515.369202,430.361755 C515.002808,430.653381 514.743713,430.510895 514.687256,429.897797 z"/><path fill="#151616" d="M430.821777,430.488190 C430.612274,430.216309 430.733551,430.000885 431.107117,429.743958 C431.492462,430.005951 431.423492,430.286652 430.821777,430.488190 z"/><path fill="#151616" d="M431.846619,429.316772 C431.658875,429.059143 431.738434,428.913940 432.016663,428.772156 C432.138885,428.733734 432.316315,429.096588 432.316315,429.096588 C432.316315,429.096588 432.037476,429.387390 431.846619,429.316772 z"/><path fill="#F4F4F5" d="M527.693237,579.842957 C527.983765,579.605164 528.298218,579.330994 528.612610,579.056763 C528.499512,579.254150 528.386353,579.451599 527.955994,579.721802 C527.638733,579.794678 527.717163,579.806519 527.693237,579.842957 z"/><path fill="#151616" d="M405.153442,405.480743 C405.193390,405.728546 404.924957,405.977051 404.399506,406.327759 C404.376678,406.113831 404.610870,405.797638 405.153442,405.480743 z"/><path fill="#181918" d="M516.008423,406.220215 C516.136230,406.423859 516.003174,406.752686 515.656616,407.245422 C515.544556,407.054657 515.646118,406.700012 516.008423,406.220215 z"/><path fill="#FDFDFD" d="M451.653687,603.877930 C452.298706,602.425903 453.352386,601.053101 454.257751,599.329712 C455.584595,598.436096 457.059753,597.893005 458.534912,597.349854 C458.431183,597.042542 458.327423,596.735168 458.223663,596.427856 C456.514740,596.043335 454.805817,595.658813 453.096893,595.274292 C453.416412,594.977478 453.735901,594.680664 454.055420,594.383850 C452.457214,592.141602 450.858978,589.899414 448.924072,587.085083 C447.738647,586.336426 446.889893,586.159973 446.041138,585.983459 C445.506805,584.502808 444.972473,583.022156 443.955292,581.520813 C443.310547,579.332581 443.148651,577.165100 442.986755,574.997559 C442.983704,574.246277 442.980621,573.494995 442.979462,572.367920 C446.466644,568.282532 449.928253,564.542725 455.260895,562.224915 C456.104340,561.842957 456.552094,561.923157 456.999847,562.003296 C458.260193,562.809631 459.422699,563.911377 460.799072,564.367371 C465.034790,565.770325 468.327942,567.841858 470.424408,572.183716 C471.496552,574.404236 474.547943,575.625061 476.583710,577.433960 C480.185150,580.634094 480.690460,585.149231 481.990021,589.765503 C482.668274,590.008362 482.835632,590.007874 483.003021,590.007324 C483.003021,590.007324 483.001068,589.999756 482.996490,589.999878 C483.715759,598.669861 481.250366,605.502075 471.791138,608.535278 C469.705811,606.265320 469.525909,601.746948 466.206818,600.105896 C465.754364,600.406677 465.301910,600.707397 464.849426,601.008179 C464.433258,597.972656 464.017090,594.937073 463.536255,591.430054 C459.764557,595.099304 460.752380,599.375671 461.360107,603.243896 C461.987579,607.238037 462.474915,610.441467 457.916595,612.655823 C456.440613,613.372803 456.016205,616.254456 455.094849,618.179260 C452.044556,614.736328 452.006073,613.314880 453.267700,608.854553 C453.665497,607.448242 452.508026,605.601990 451.653687,603.877930 z"/><path fill="#DDDCDC" d="M552.710815,484.761353 C552.205994,486.895294 551.456421,488.804138 550.706848,490.712952 C550.581726,490.657837 550.380310,490.632080 550.345703,490.542175 C550.242004,490.272522 550.203308,489.977875 550.315063,489.244385 C550.490417,488.403595 550.489868,488.011383 550.489380,487.619202 C550.126953,487.949707 549.764526,488.280212 549.402039,488.610718 C547.503357,492.651031 545.604675,496.691376 543.522461,501.056671 C539.230286,503.683441 534.398132,505.257263 531.180481,508.455444 C526.189453,513.416321 521.534180,510.813202 515.478271,509.956604 C517.821167,508.293457 519.256226,507.274780 521.256470,505.854828 C518.661316,505.344452 516.632690,504.945465 514.021057,504.431854 C515.982056,502.300049 517.472351,500.680023 519.267090,498.728973 C515.514343,498.181427 510.223328,501.935394 510.253784,494.348511 C512.610107,493.222443 514.850281,492.267975 517.187378,491.828583 C519.047974,491.478790 521.026794,491.758026 523.842773,491.758026 C523.433533,494.023712 522.969788,496.591095 522.473755,499.337311 C531.263672,500.513062 532.393250,492.766876 535.756653,487.649414 C542.145020,490.287811 544.144165,485.426819 546.965332,481.171753 C547.584717,482.013000 548.111755,482.728821 548.890015,483.785889 C549.760559,482.827484 550.578857,481.926544 551.552673,480.854431 C551.877197,482.162598 552.171631,483.349396 552.710815,484.761353 z"/><path fill="#E8E7E7" d="M517.728088,606.104248 C519.565796,610.921997 518.401489,612.931335 514.041931,615.271179 C510.608765,617.113892 507.399109,619.536072 504.487427,622.144348 C501.132080,625.150085 497.856598,627.016663 493.023193,626.247620 C491.099518,625.941589 488.812378,627.920105 486.335022,628.926514 C484.827393,628.573364 483.675446,628.152283 482.005096,627.541748 C483.431824,626.738770 484.740173,626.002441 486.048523,625.266052 C485.735901,624.869202 485.423248,624.472290 485.110596,624.075439 C483.888489,624.075439 482.666382,624.075439 480.732635,624.075439 C482.593811,622.486877 483.924652,621.350952 485.568298,620.091187 C491.943359,621.480042 494.734406,620.073486 498.447937,614.563660 C499.769043,612.603455 501.892822,610.887573 504.031433,609.834106 C509.217499,607.279541 510.774048,604.006226 509.568329,598.749695 C508.917816,595.913696 509.452576,592.805786 510.050995,589.719177 C508.217133,597.239685 515.638184,600.470215 517.728088,606.104248 z"/><path fill="#313232" d="M483.727051,534.831665 C478.345337,531.847412 473.716492,533.987732 470.736786,537.761475 C468.075775,541.131592 467.126251,545.853088 465.634155,549.463623 C463.961914,547.625916 461.805145,545.255737 459.982452,543.252625 C463.069519,540.494812 466.411835,536.482849 470.651886,534.010620 C474.866486,531.553284 479.983704,530.643982 484.422241,529.151001 C486.248749,529.943787 487.932098,530.905518 489.742554,531.420776 C498.116150,533.803772 501.272461,539.473267 498.897186,547.820557 C498.469513,549.323547 498.650635,550.999756 497.404602,552.805115 C497.100128,550.879822 496.181122,548.808960 496.596741,547.054260 C498.471222,539.140503 494.950409,534.362427 486.217072,533.958618 C485.922333,535.363586 485.616730,536.820312 485.311127,538.277039 C485.050171,538.276672 484.789215,538.276245 484.528259,538.275818 C484.311584,537.256470 484.094910,536.237061 483.727051,534.831665 z"/><path fill="#D3D3D3" d="M468.397095,523.036621 C452.919037,523.002808 443.598846,515.157471 441.661438,500.373413 C442.562408,500.767120 443.712646,501.327881 444.050110,502.202301 C448.937866,514.866821 459.143555,519.175049 471.638489,519.959167 C472.460327,520.010803 473.287781,519.973022 474.564972,519.966309 C472.932007,520.997314 470.846741,522.038818 468.397095,523.036621 z"/><path fill="#E8E7E7" d="M486.692810,615.822083 C488.872620,608.785583 491.413940,601.828430 499.234741,598.354980 C500.479828,604.100342 497.360687,609.108398 495.840424,614.433289 C495.567352,615.389771 493.278076,616.081421 491.828369,616.306091 C490.299500,616.543091 488.661255,616.074036 486.692810,615.822083 z"/><path fill="#3F3F40" d="M457.420715,561.928467 C456.552094,561.923157 456.104340,561.842957 455.327148,561.863892 C451.793518,562.255066 448.589386,562.545044 445.385223,562.835022 C450.056824,558.323669 458.718445,556.338257 463.435211,558.797974 C463.802155,556.929138 464.162018,555.096436 464.521881,553.263672 C464.762054,553.243591 465.002258,553.223511 465.242432,553.203430 C466.102783,556.665222 466.963104,560.127014 467.871674,563.782959 C464.614044,563.156372 461.227814,562.505066 457.420715,561.928467 z"/><path fill="#D9D9D9" d="M502.021210,596.825989 C499.700439,595.936157 497.748016,594.713501 495.619995,594.099121 C489.940399,592.459717 488.836212,590.641846 490.086060,584.741882 C490.324463,583.616455 489.770844,582.323364 489.827209,580.931458 C491.252228,581.175537 492.887604,581.241882 493.536377,582.075745 C496.771118,586.233521 499.775055,590.573547 502.759460,594.918640 C502.999451,595.268066 502.477417,596.140930 502.021210,596.825989 z"/><path fill="#E8E7E7" d="M549.913940,461.461304 C552.292908,467.632874 546.383423,470.991852 545.609802,475.955566 C540.932129,469.926788 546.636108,464.385925 547.264404,457.956299 C548.128967,458.991669 548.993469,460.027039 549.913940,461.461304 z"/><path fill="#3F3F40" d="M476.446899,546.272156 C480.074463,546.051697 483.887054,545.452698 485.685059,540.780151 C485.860870,542.105347 486.036713,543.430481 486.249237,545.032471 C487.850708,545.594177 489.620575,546.214966 491.390442,546.835754 C491.369629,547.107361 491.348816,547.378906 491.328003,547.650513 C489.670349,547.745544 488.012695,547.840576 486.248962,547.941711 C485.842773,549.381653 485.427368,550.854309 485.011932,552.327026 C484.577148,546.876160 480.159210,547.115173 476.446899,546.272156 z"/><path fill="#DDDCDC" d="M488.987366,577.486938 C487.583405,578.367004 486.179443,579.247070 484.352081,579.707214 C481.855011,576.557434 479.781342,573.827576 477.707642,571.097717 C481.466248,571.178894 485.101532,574.802734 488.978302,571.490112 C489.297577,572.147949 489.616882,572.805847 489.817780,574.082642 C489.462067,575.630066 489.224731,576.558533 488.987366,577.486938 z"/><path fill="#CBCBCA" d="M505.653137,516.848694 C504.372559,521.163208 501.186340,522.973083 496.488251,523.071777 C494.633667,522.460632 493.166443,521.897583 492.294830,521.563110 C495.857666,519.938721 499.449646,518.248779 503.096832,516.687927 C503.728699,516.417480 504.594269,516.693237 505.653137,516.848694 z"/><path fill="#4D4D4E" d="M477.425476,570.929688 C479.781342,573.827576 481.855011,576.557434 483.992645,579.622803 C483.726501,580.200134 483.396393,580.441895 482.926941,580.971436 C479.237701,577.081543 475.687866,572.903931 472.138031,568.726318 C472.421570,568.375244 472.705139,568.024231 472.988678,567.673157 C474.373566,568.702637 475.758453,569.732117 477.425476,570.929688 z"/><path fill="#3F3F40" d="M482.379822,559.780762 C481.324799,559.323181 480.579529,558.997742 479.834229,558.672241 C480.404358,559.209290 480.974457,559.746338 481.544586,560.283386 C483.000000,558.581055 484.455383,556.878662 485.910797,555.176331 C485.493622,554.757812 485.076447,554.339355 484.659271,553.920898 C485.799438,555.482422 486.939606,557.043945 488.049622,558.564148 C486.936249,559.473206 485.563965,560.593567 484.071045,561.812500 C483.622314,561.195435 483.155975,560.554199 482.379822,559.780762 z"/><path fill="#3F3F40" d="M500.582642,559.937744 C501.208130,560.258118 501.431030,560.555176 501.907471,560.977661 C499.979858,562.988892 497.798706,564.874695 494.934509,567.351013 C496.305084,563.086182 497.406647,559.658508 498.801605,555.317749 C499.394928,557.296387 499.787476,558.605408 500.582642,559.937744 z"/><path fill="#D9D9D9" d="M489.247192,577.618652 C489.224731,576.558533 489.462067,575.630066 489.820068,574.445007 C495.424438,574.337708 491.580902,577.035339 490.866211,578.954956 C490.192383,578.664917 489.849701,578.207581 489.247192,577.618652 z"/><path fill="#DDDCDC" d="M510.512268,486.504517 C509.862946,486.926880 509.475372,487.021942 508.920166,487.133911 C507.464966,484.740265 507.464966,484.740265 512.050232,481.811981 C511.458801,483.834991 511.116394,485.006104 510.512268,486.504517 z"/><path fill="#F6F6F6" d="M480.219177,507.613098 C480.853943,508.233917 481.417114,509.258698 481.943939,510.641113 C481.320892,510.004822 480.734222,509.010956 480.219177,507.613098 z"/><path fill="#D3D3D3" d="M478.482971,520.616089 C478.816833,520.654358 478.766388,520.598450 478.795776,520.559326 C478.532257,521.149170 478.239349,521.778137 477.946411,522.407104 C477.702728,522.237549 477.459015,522.067993 477.215302,521.898438 C477.526581,521.458191 477.837860,521.018005 478.482971,520.616089 z"/><path fill="#181918" d="M540.316772,417.824127 C540.108521,416.781677 540.192993,415.487030 540.680664,414.072937 C540.925720,415.159637 540.767578,416.365784 540.316772,417.824127 z"/><path fill="#DDDCDC" d="M447.032043,535.959656 C447.144165,536.115051 447.256287,536.270447 447.368378,536.425842 C447.273956,536.384338 447.179565,536.342896 447.042603,536.149292 C447.000031,535.997192 447.032043,535.959656 447.032043,535.959656 z"/><path fill="#DDDCDC" d="M446.981415,536.013367 C446.854431,535.874878 446.746063,535.720154 446.637695,535.565491 C446.728851,535.608337 446.820038,535.651184 446.971619,535.826843 C447.032043,535.959656 447.000031,535.997192 446.981415,536.013367 z"/><path fill="#181918" d="M552.707336,451.280334 C552.336182,451.074280 552.125732,450.714844 551.915283,450.355469 C552.261841,450.305267 552.608459,450.255096 553.069336,450.509460 C553.183716,450.813995 552.868103,451.126923 552.707336,451.280334 z"/><path fill="#181918" d="M556.346741,469.768127 C556.383667,469.736725 556.143799,469.812317 556.143799,469.812317 C556.143799,469.812317 556.164856,469.903259 556.212952,469.809479 C556.261047,469.715698 556.309814,469.799500 556.346741,469.768127 z"/><path fill="#0F0F0F" d="M458.005768,529.000854 C458.184570,529.183838 458.393921,529.342529 458.603271,529.501282 C458.335754,529.439514 458.068268,529.377747 457.952240,529.126526 C458.103699,528.937134 458.036346,528.976624 458.005768,529.000854 z"/><path fill="#DDDCDC" d="M527.459045,484.528748 C527.433655,484.482361 527.484436,484.575104 527.459045,484.528748 z"/><path fill="#181918" d="M539.261719,418.982941 C539.089966,418.648376 539.166077,418.209045 539.661499,417.880066 C539.890442,418.286316 539.700012,418.582245 539.261719,418.982941 z"/><path fill="#181918" d="M516.462036,419.388428 C516.413330,419.395081 516.612549,419.379822 516.612549,419.379822 C516.612549,419.379822 516.459534,419.244202 516.467346,419.358795 C516.475159,419.473389 516.510681,419.381805 516.462036,419.388428 z"/><path fill="#E8E7E7" d="M482.908447,589.852539 C482.835632,590.007874 482.668274,590.008362 482.249817,590.004395 C482.270508,589.899292 482.542206,589.798523 482.908447,589.852539 z"/><path fill="#0F0F0F" d="M441.809143,562.567688 C442.082031,562.733276 442.349945,562.860291 442.617828,562.987305 C442.384644,563.025574 442.151459,563.063843 441.852203,562.777710 C441.786133,562.453308 441.804199,562.529053 441.809143,562.567688 z"/><path fill="#E2E1E1" d="M397.855164,503.688232 C395.640656,498.907196 393.680847,494.410461 391.660889,489.553040 C397.028564,485.870117 397.475739,486.004456 400.139343,491.804108 C401.094086,493.882935 402.286011,494.850555 404.129089,492.658325 C404.867096,491.780548 405.536041,490.844696 406.435059,489.677368 C407.894745,490.827332 408.936981,491.555603 409.866943,492.406525 C410.838867,493.295837 411.702820,494.303101 412.981598,495.644348 C411.991547,496.062195 411.259674,496.371063 410.527802,496.679932 C410.969452,498.641296 411.407440,500.586609 411.791779,502.293457 C415.159912,501.809204 418.572815,501.318481 423.035492,500.676819 C421.284302,496.531250 419.347015,491.945221 417.409760,487.359192 C417.836456,487.115845 418.263184,486.872498 418.689911,486.629181 C419.413086,487.221039 420.307709,487.690643 420.831390,488.424835 C423.981964,492.841858 428.938843,490.890839 433.011505,492.028473 C433.948334,492.290131 434.733551,493.094666 435.840027,493.840912 C436.091492,496.301422 436.091492,498.570404 436.091492,501.367981 C432.785370,501.150635 429.890320,500.960327 426.763977,500.754791 C427.845886,502.299988 428.927124,503.844238 430.367615,505.901550 C427.080017,506.153046 424.260834,506.368713 420.053436,506.690552 C422.209991,508.326630 423.547485,509.341309 424.884979,510.356018 C424.830505,510.799622 424.776001,511.243256 424.721527,511.686890 C420.061615,511.686890 415.278351,512.323181 410.787323,511.452362 C408.017059,510.915192 405.758331,507.976379 403.142578,506.316498 C401.593140,505.333252 399.795746,504.740753 397.855164,503.688232 z"/><path fill="#E8E7E7" d="M398.999512,479.327911 C398.983887,479.842773 399.019287,480.031372 398.951691,480.169678 C398.836090,480.406097 398.656006,480.610992 398.502991,480.829132 C397.665680,478.384460 396.505341,475.998047 396.052185,473.484131 C394.744263,466.228180 394.226166,459.004333 399.004150,452.796753 C399.004150,461.508575 399.004150,470.243805 398.999512,479.327911 z"/><path fill="#D3D3D3" d="M442.220886,494.840332 C441.246582,495.322632 440.531494,495.632599 440.034210,495.848145 C438.934143,493.459991 437.922424,491.263550 436.586304,489.260376 C435.845734,487.920319 435.429535,486.386932 435.013306,484.853516 C435.405975,484.630981 435.798645,484.408417 436.191315,484.185852 C438.075562,486.585785 439.494080,490.005859 441.959991,491.131653 C445.162628,492.593811 442.696594,493.490845 442.220886,494.840332 z"/><path fill="#151616" d="M423.991852,413.019653 C423.406799,413.276520 423.060455,413.289856 422.456177,413.268433 C422.068085,413.079773 421.937897,412.925873 421.960510,412.350372 C422.585297,409.977112 423.057281,408.025482 423.529266,406.073853 C423.718079,406.104065 423.906860,406.134277 424.095673,406.164459 C424.300873,408.207092 424.506042,410.249695 424.711243,412.292328 C424.550964,412.453613 424.390747,412.614868 423.991852,413.019653 z"/><path fill="#E2E1E1" d="M405.275574,488.013275 C405.398773,487.847015 405.523682,487.826904 405.648590,487.806824 C405.524841,487.924347 405.401062,488.041870 405.275574,488.013275 z"/><path fill="#181918" d="M414.231934,477.707214 C414.471283,477.953827 414.752228,478.217285 415.033173,478.480713 C414.838165,478.394623 414.643158,478.308533 414.332275,477.947968 C414.216370,477.673462 414.273499,477.724091 414.231934,477.707214 z"/><path fill="#0F0F0F" d="M386.811707,480.777100 C386.830048,480.728302 386.957275,480.972931 386.957275,480.972931 C386.957275,480.972931 386.824829,480.746307 386.757568,480.777924 C386.690338,480.809540 386.793335,480.825928 386.811707,480.777100 z"/><path fill="#313232" d="M473.152374,474.292023 C470.089386,476.365326 467.026398,478.438629 463.812103,480.614380 C466.139221,472.030426 472.769348,468.304749 484.357056,469.381378 C484.420319,470.673248 484.176025,471.622498 483.931763,472.571747 C483.515320,472.616058 483.098846,472.660370 482.283020,472.342163 C480.569641,471.610046 479.255646,471.240448 476.807770,470.551941 C478.148193,471.992554 478.547791,472.421967 478.947357,472.851379 C477.928619,473.082062 476.909882,473.312744 475.388702,473.239746 C474.308289,473.388092 473.730316,473.840057 473.152374,474.292023 z"/><path fill="#D9D9D9" d="M487.963989,489.089478 C483.188354,491.515930 478.288666,494.290955 472.481934,490.795929 C475.582001,489.542175 478.906860,488.224792 482.356750,487.615143 C484.040771,487.317505 485.957886,488.338654 487.963989,489.089478 z"/><path fill="#D9D9D9" d="M470.148682,489.803650 C465.730652,488.591522 461.477509,487.129333 457.112610,485.333374 C457.535400,484.206512 458.069977,483.413422 458.307220,483.061432 C462.872681,484.997620 467.337311,486.891022 471.700043,488.741241 C471.394653,488.920166 470.854095,489.236847 470.148682,489.803650 z"/><path fill="#262627" d="M481.027161,462.805786 C480.956573,463.619019 480.713562,464.540558 480.519104,464.530457 C479.902496,464.498322 479.324066,464.012756 478.694641,463.893036 C476.968170,463.564667 475.223175,463.333466 473.054962,462.997040 C475.926514,458.516113 476.540802,458.549866 481.027161,462.805786 z"/><path fill="#4D4D4E" d="M484.334045,472.706909 C484.176025,471.622498 484.420319,470.673248 484.800629,469.455566 C485.732513,469.766693 486.528381,470.346222 487.632996,470.903290 C487.941742,470.880798 487.876953,470.893738 487.876953,470.893738 C486.830109,471.543182 485.783234,472.192596 484.334045,472.706909 z"/><path fill="#4D4D4E" d="M479.337891,472.920868 C478.547791,472.421967 478.148193,471.992554 476.807770,470.551941 C479.255646,471.240448 480.569641,471.610046 481.972351,472.289642 C481.283508,472.729858 480.505981,472.860077 479.337891,472.920868 z"/><path fill="#4D4D4E" d="M473.402283,474.210815 C473.730316,473.840057 474.308289,473.388092 474.996948,473.262390 C474.622498,473.768951 474.137329,473.949280 473.402283,474.210815 z"/><path fill="#4D4D4E" d="M487.958252,470.852173 C487.974762,470.823547 488.108276,470.953979 488.108276,470.953979 C488.108276,470.953979 487.944519,470.760468 487.910736,470.827087 C487.876953,470.893738 487.941742,470.880798 487.958252,470.852173 z"/><path fill="#F4F4F5" d="M453.110474,528.902283 C452.775604,528.773621 452.579773,528.521545 452.383942,528.269531 C452.629791,528.239197 452.875610,528.208923 453.320068,528.350586 C453.518677,528.522583 453.249512,528.778931 453.110474,528.902283 z"/><path fill="#E8E7E7" d="M488.791626,608.709778 C488.506744,608.709595 488.435760,608.491577 488.364777,608.273499 C488.578369,608.346252 488.791931,608.419067 488.791626,608.709778 z"/><path fill="#FDFDFD" d="M451.544434,617.467957 C451.572510,617.517639 451.516357,617.418274 451.544434,617.467957 z"/><path fill="#D3D3D3" d="M509.223114,532.576416 C510.904755,528.581299 512.465820,524.978516 514.398254,520.518616 C516.526184,528.255554 514.210144,533.701294 509.102539,538.493896 C509.102539,536.647766 509.102539,534.808228 509.223114,532.576416 z"/><path fill="#F4F4F5" d="M506.924316,533.926636 C507.044312,533.556396 507.321655,533.343506 507.598999,533.130615 C507.655518,533.411133 507.712036,533.691528 507.582794,534.184998 C507.397064,534.398010 507.081635,534.084045 506.924316,533.926636 z"/><path fill="#EFEFEF" d="M442.177399,468.414246 C442.576385,467.864288 443.045502,467.629944 443.788208,467.685547 C443.457062,468.226929 442.852264,468.478394 442.177399,468.414246 z"/><path fill="#EFEFEF" d="M448.977478,471.974884 C448.913025,472.300018 448.757355,472.527313 448.601715,472.754608 C448.517120,472.491577 448.432526,472.228546 448.526947,471.822388 C448.705994,471.679291 448.886261,471.877014 448.977478,471.974884 z"/><path fill="#EFEFEF" d="M445.280762,467.054901 C445.040771,466.551697 445.121216,466.037292 445.631165,465.742371 C445.907471,466.322479 445.754303,466.683075 445.280762,467.054901 z"/><path fill="#EFEFEF" d="M444.278076,468.082550 C444.055664,467.552368 444.159729,467.040710 444.664978,466.745300 C444.912292,467.341400 444.758423,467.721222 444.278076,468.082550 z"/><path fill="#0F0F0F" d="M428.995850,539.997253 C428.816406,539.695007 428.607056,539.414978 428.397675,539.135010 C428.700073,539.347229 429.002441,539.559509 429.101318,539.910889 C428.897827,540.049988 428.965942,540.019531 428.995850,539.997253 z"/><path fill="#E2E1E1" d="M424.990936,412.547607 C424.506042,410.249695 424.300873,408.207092 424.095673,406.164459 C423.906860,406.134277 423.718079,406.104065 423.529266,406.073853 C423.057281,408.025482 422.585297,409.977112 421.765442,412.119324 C420.661682,414.107880 419.905853,415.905884 418.798157,418.540924 C417.997711,416.633240 417.273743,414.907837 416.659393,413.443634 C415.740387,415.149200 414.743439,416.999420 413.158264,419.941315 C411.852783,413.765350 410.934692,409.421997 410.199524,404.725098 C413.836182,403.985413 417.289917,403.599304 421.109467,403.388123 C422.486511,403.970947 423.555817,404.276428 424.496033,404.809509 C426.121002,405.730652 428.764221,406.585907 429.001312,407.842194 C429.414703,410.032898 429.381683,413.345703 424.990936,412.547607 z"/><path fill="#F4F4F5" d="M526.844604,414.949646 C525.900024,412.105408 524.955383,409.261200 523.879578,406.037170 C523.934937,405.090729 524.121399,404.524139 524.667236,404.208374 C525.187134,405.073090 525.347595,405.686951 525.508057,406.300812 C525.770630,406.278107 526.033203,406.255402 526.295776,406.232666 C526.538574,405.205078 526.781372,404.177460 527.024170,403.149872 C527.754822,404.831879 528.960571,406.475372 529.100952,408.205261 C529.294983,410.596771 528.686462,413.053406 527.967896,415.617981 C527.290955,415.485779 527.067810,415.217712 526.844604,414.949646 z"/><path fill="#D9D9D9" d="M526.734497,403.096558 C526.781372,404.177460 526.538574,405.205078 526.295776,406.232666 C526.033203,406.255402 525.770630,406.278107 525.508057,406.300812 C525.347595,405.686951 525.187134,405.073090 524.990845,404.136169 C525.451660,403.556488 525.948303,403.299866 526.734497,403.096558 z"/><path fill="#D9D9D9" d="M526.593689,414.986450 C527.067810,415.217712 527.290955,415.485779 527.746704,415.871704 C527.535095,416.521973 527.090942,417.054413 526.646851,417.586853 C526.479248,416.939697 526.311707,416.292572 525.990295,415.349792 C526.005188,415.043884 526.173950,415.033569 526.593689,414.986450 z"/><path fill="#F4F4F5" d="M442.728333,575.239990 C443.148651,577.165100 443.310547,579.332581 443.727295,581.740234 C443.343567,582.168762 442.704987,582.357239 442.066376,582.545654 C442.200867,580.191223 442.335388,577.836792 442.728333,575.239990 z"/><path fill="#F4F4F5" d="M446.049866,586.281982 C446.889893,586.159973 447.738647,586.336426 448.789307,586.775635 C447.830597,588.058289 446.613373,589.440857 446.049866,586.281982 z"/><path fill="#F4F4F5" d="M437.846069,572.764465 C437.713593,572.568176 437.853058,572.232605 438.203247,571.717529 C438.315369,571.900330 438.216675,572.262817 437.846069,572.764465 z"/><path fill="#F6F6F6" d="M384.927612,471.933441 C384.925415,472.689301 384.769287,473.301727 384.613159,473.914185 C384.441620,473.897858 384.270050,473.881531 384.098480,473.865204 C384.098480,473.270752 384.098480,472.676331 384.274536,471.801270 C384.450562,471.520630 384.773712,471.790039 384.927612,471.933441 z"/><path fill="#F6F6F6" d="M389.900604,492.140503 C390.191620,492.180725 390.504364,492.184448 390.817078,492.188171 C390.586060,492.332031 390.355011,492.475830 390.049072,492.328125 C389.974121,492.036621 389.922302,492.103973 389.900604,492.140503 z"/><path fill="#EFEFEF" d="M447.940460,446.933777 C447.608429,447.369598 447.110779,447.623260 446.613098,447.876892 C446.746063,447.511566 446.879059,447.146210 447.222290,446.589233 C447.432556,446.397583 447.774811,446.751648 447.940460,446.933777 z"/><path fill="#3F3F40" d="M404.643799,409.574829 C404.868042,409.273621 405.241760,409.159180 405.615448,409.044769 C405.620575,409.317322 405.625671,409.589905 405.375702,409.986450 C405.120636,410.110443 404.793274,409.761597 404.643799,409.574829 z"/><path fill="#181918" d="M549.558105,488.711670 C549.764526,488.280212 550.126953,487.949707 550.489380,487.619202 C550.489868,488.011383 550.490417,488.403595 550.257324,488.907166 C550.023804,489.018524 549.714172,488.812653 549.558105,488.711670 z"/></svg>